G04 #@! TF.GenerationSoftware,KiCad,Pcbnew,(5.1.4)-1*
G04 #@! TF.CreationDate,2019-09-05T13:30:01+01:00*
G04 #@! TF.ProjectId,lpa96,6c706139-362e-46b6-9963-61645f706362,2.1*
G04 #@! TF.SameCoordinates,Original*
G04 #@! TF.FileFunction,Paste,Top*
G04 #@! TF.FilePolarity,Positive*
%FSLAX46Y46*%
G04 Gerber Fmt 4.6, Leading zero omitted, Abs format (unit mm)*
G04 Created by KiCad (PCBNEW (5.1.4)-1) date 2019-09-05 13:30:01*
%MOMM*%
%LPD*%
G04 APERTURE LIST*
%ADD10C,0.100000*%
%ADD11R,1.440000X0.750000*%
%ADD12R,1.550000X1.300000*%
%ADD13C,0.150000*%
%ADD14C,0.975000*%
G04 APERTURE END LIST*
D10*
X67000000Y-168500000D02*
X67000000Y-94500000D01*
X210000000Y-168500000D02*
X67000000Y-168500000D01*
X210000000Y-94500000D02*
X210000000Y-168500000D01*
X67000000Y-94500000D02*
X210000000Y-94500000D01*
D11*
X98260000Y-163000000D03*
X101740000Y-163000000D03*
X98260000Y-154000000D03*
X101740000Y-154000000D03*
X98260000Y-145000000D03*
X101740000Y-145000000D03*
X98260000Y-136000000D03*
X101740000Y-136000000D03*
X98260000Y-127000000D03*
X101740000Y-127000000D03*
X98260000Y-118000000D03*
X101740000Y-118000000D03*
X98260000Y-109000000D03*
X101740000Y-109000000D03*
X98260000Y-100000000D03*
X101740000Y-100000000D03*
X110740000Y-100000000D03*
X107260000Y-100000000D03*
X110740000Y-109000000D03*
X107260000Y-109000000D03*
X110740000Y-118000000D03*
X107260000Y-118000000D03*
X110740000Y-127000000D03*
X107260000Y-127000000D03*
X110740000Y-136000000D03*
X107260000Y-136000000D03*
X110740000Y-145000000D03*
X107260000Y-145000000D03*
X110740000Y-154000000D03*
X107260000Y-154000000D03*
X110740000Y-163000000D03*
X107260000Y-163000000D03*
X116260000Y-163000000D03*
X119740000Y-163000000D03*
X116260000Y-154000000D03*
X119740000Y-154000000D03*
X116260000Y-145000000D03*
X119740000Y-145000000D03*
X116260000Y-136000000D03*
X119740000Y-136000000D03*
X116260000Y-127000000D03*
X119740000Y-127000000D03*
X116260000Y-118000000D03*
X119740000Y-118000000D03*
X116260000Y-109000000D03*
X119740000Y-109000000D03*
X116260000Y-100000000D03*
X119740000Y-100000000D03*
X128740000Y-100000000D03*
X125260000Y-100000000D03*
X128740000Y-109000000D03*
X125260000Y-109000000D03*
X128740000Y-118000000D03*
X125260000Y-118000000D03*
X128740000Y-127000000D03*
X125260000Y-127000000D03*
X128740000Y-136000000D03*
X125260000Y-136000000D03*
X128740000Y-145000000D03*
X125260000Y-145000000D03*
X128740000Y-154000000D03*
X125260000Y-154000000D03*
X128740000Y-163000000D03*
X125260000Y-163000000D03*
X134260000Y-163000000D03*
X137740000Y-163000000D03*
X134260000Y-154000000D03*
X137740000Y-154000000D03*
X134260000Y-145000000D03*
X137740000Y-145000000D03*
X134260000Y-136000000D03*
X137740000Y-136000000D03*
X134260000Y-127000000D03*
X137740000Y-127000000D03*
X134260000Y-118000000D03*
X137740000Y-118000000D03*
X134260000Y-109000000D03*
X137740000Y-109000000D03*
X134260000Y-100000000D03*
X137740000Y-100000000D03*
X146740000Y-100000000D03*
X143260000Y-100000000D03*
X146740000Y-109000000D03*
X143260000Y-109000000D03*
X146740000Y-118000000D03*
X143260000Y-118000000D03*
X146740000Y-127000000D03*
X143260000Y-127000000D03*
X146740000Y-136000000D03*
X143260000Y-136000000D03*
X146740000Y-145000000D03*
X143260000Y-145000000D03*
X146740000Y-154000000D03*
X143260000Y-154000000D03*
X146740000Y-163000000D03*
X143260000Y-163000000D03*
X152260000Y-163000000D03*
X155740000Y-163000000D03*
X152260000Y-154000000D03*
X155740000Y-154000000D03*
X152260000Y-145000000D03*
X155740000Y-145000000D03*
X152260000Y-136000000D03*
X155740000Y-136000000D03*
X152260000Y-127000000D03*
X155740000Y-127000000D03*
X152260000Y-118000000D03*
X155740000Y-118000000D03*
X152260000Y-109000000D03*
X155740000Y-109000000D03*
X152260000Y-100000000D03*
X155740000Y-100000000D03*
X164740000Y-100000000D03*
X161260000Y-100000000D03*
X164740000Y-109000000D03*
X161260000Y-109000000D03*
X164740000Y-118000000D03*
X161260000Y-118000000D03*
X164740000Y-127000000D03*
X161260000Y-127000000D03*
X164740000Y-136000000D03*
X161260000Y-136000000D03*
X164740000Y-145000000D03*
X161260000Y-145000000D03*
X164740000Y-154000000D03*
X161260000Y-154000000D03*
X164740000Y-163000000D03*
X161260000Y-163000000D03*
X170260000Y-163000000D03*
X173740000Y-163000000D03*
X170260000Y-154000000D03*
X173740000Y-154000000D03*
X170260000Y-145000000D03*
X173740000Y-145000000D03*
X170260000Y-136000000D03*
X173740000Y-136000000D03*
X170260000Y-127000000D03*
X173740000Y-127000000D03*
X170260000Y-118000000D03*
X173740000Y-118000000D03*
X170260000Y-109000000D03*
X173740000Y-109000000D03*
X170260000Y-100000000D03*
X173740000Y-100000000D03*
X182740000Y-100000000D03*
X179260000Y-100000000D03*
X182740000Y-109000000D03*
X179260000Y-109000000D03*
X182740000Y-118000000D03*
X179260000Y-118000000D03*
X182740000Y-127000000D03*
X179260000Y-127000000D03*
X182740000Y-136000000D03*
X179260000Y-136000000D03*
X182740000Y-145000000D03*
X179260000Y-145000000D03*
X182740000Y-154000000D03*
X179260000Y-154000000D03*
X182740000Y-163000000D03*
X179260000Y-163000000D03*
X188260000Y-163000000D03*
X191740000Y-163000000D03*
X188260000Y-154000000D03*
X191740000Y-154000000D03*
X188260000Y-145000000D03*
X191740000Y-145000000D03*
X188260000Y-136000000D03*
X191740000Y-136000000D03*
X188260000Y-127000000D03*
X191740000Y-127000000D03*
X188260000Y-118000000D03*
X191740000Y-118000000D03*
X188260000Y-109000000D03*
X191740000Y-109000000D03*
X188260000Y-100000000D03*
X191740000Y-100000000D03*
X200740000Y-100000000D03*
X197260000Y-100000000D03*
X200740000Y-109000000D03*
X197260000Y-109000000D03*
X200740000Y-118000000D03*
X197260000Y-118000000D03*
X200740000Y-127000000D03*
X197260000Y-127000000D03*
X200740000Y-136000000D03*
X197260000Y-136000000D03*
X200740000Y-145000000D03*
X197260000Y-145000000D03*
X200740000Y-154000000D03*
X197260000Y-154000000D03*
X200740000Y-163000000D03*
X197260000Y-163000000D03*
D12*
X69025000Y-100750000D03*
X69025000Y-96250000D03*
X76975000Y-96250000D03*
X76975000Y-100750000D03*
D13*
G36*
X85705142Y-127801174D02*
G01*
X85728803Y-127804684D01*
X85752007Y-127810496D01*
X85774529Y-127818554D01*
X85796153Y-127828782D01*
X85816670Y-127841079D01*
X85835883Y-127855329D01*
X85853607Y-127871393D01*
X85869671Y-127889117D01*
X85883921Y-127908330D01*
X85896218Y-127928847D01*
X85906446Y-127950471D01*
X85914504Y-127972993D01*
X85920316Y-127996197D01*
X85923826Y-128019858D01*
X85925000Y-128043750D01*
X85925000Y-128956250D01*
X85923826Y-128980142D01*
X85920316Y-129003803D01*
X85914504Y-129027007D01*
X85906446Y-129049529D01*
X85896218Y-129071153D01*
X85883921Y-129091670D01*
X85869671Y-129110883D01*
X85853607Y-129128607D01*
X85835883Y-129144671D01*
X85816670Y-129158921D01*
X85796153Y-129171218D01*
X85774529Y-129181446D01*
X85752007Y-129189504D01*
X85728803Y-129195316D01*
X85705142Y-129198826D01*
X85681250Y-129200000D01*
X85193750Y-129200000D01*
X85169858Y-129198826D01*
X85146197Y-129195316D01*
X85122993Y-129189504D01*
X85100471Y-129181446D01*
X85078847Y-129171218D01*
X85058330Y-129158921D01*
X85039117Y-129144671D01*
X85021393Y-129128607D01*
X85005329Y-129110883D01*
X84991079Y-129091670D01*
X84978782Y-129071153D01*
X84968554Y-129049529D01*
X84960496Y-129027007D01*
X84954684Y-129003803D01*
X84951174Y-128980142D01*
X84950000Y-128956250D01*
X84950000Y-128043750D01*
X84951174Y-128019858D01*
X84954684Y-127996197D01*
X84960496Y-127972993D01*
X84968554Y-127950471D01*
X84978782Y-127928847D01*
X84991079Y-127908330D01*
X85005329Y-127889117D01*
X85021393Y-127871393D01*
X85039117Y-127855329D01*
X85058330Y-127841079D01*
X85078847Y-127828782D01*
X85100471Y-127818554D01*
X85122993Y-127810496D01*
X85146197Y-127804684D01*
X85169858Y-127801174D01*
X85193750Y-127800000D01*
X85681250Y-127800000D01*
X85705142Y-127801174D01*
X85705142Y-127801174D01*
G37*
D14*
X85437500Y-128500000D03*
D13*
G36*
X83830142Y-127801174D02*
G01*
X83853803Y-127804684D01*
X83877007Y-127810496D01*
X83899529Y-127818554D01*
X83921153Y-127828782D01*
X83941670Y-127841079D01*
X83960883Y-127855329D01*
X83978607Y-127871393D01*
X83994671Y-127889117D01*
X84008921Y-127908330D01*
X84021218Y-127928847D01*
X84031446Y-127950471D01*
X84039504Y-127972993D01*
X84045316Y-127996197D01*
X84048826Y-128019858D01*
X84050000Y-128043750D01*
X84050000Y-128956250D01*
X84048826Y-128980142D01*
X84045316Y-129003803D01*
X84039504Y-129027007D01*
X84031446Y-129049529D01*
X84021218Y-129071153D01*
X84008921Y-129091670D01*
X83994671Y-129110883D01*
X83978607Y-129128607D01*
X83960883Y-129144671D01*
X83941670Y-129158921D01*
X83921153Y-129171218D01*
X83899529Y-129181446D01*
X83877007Y-129189504D01*
X83853803Y-129195316D01*
X83830142Y-129198826D01*
X83806250Y-129200000D01*
X83318750Y-129200000D01*
X83294858Y-129198826D01*
X83271197Y-129195316D01*
X83247993Y-129189504D01*
X83225471Y-129181446D01*
X83203847Y-129171218D01*
X83183330Y-129158921D01*
X83164117Y-129144671D01*
X83146393Y-129128607D01*
X83130329Y-129110883D01*
X83116079Y-129091670D01*
X83103782Y-129071153D01*
X83093554Y-129049529D01*
X83085496Y-129027007D01*
X83079684Y-129003803D01*
X83076174Y-128980142D01*
X83075000Y-128956250D01*
X83075000Y-128043750D01*
X83076174Y-128019858D01*
X83079684Y-127996197D01*
X83085496Y-127972993D01*
X83093554Y-127950471D01*
X83103782Y-127928847D01*
X83116079Y-127908330D01*
X83130329Y-127889117D01*
X83146393Y-127871393D01*
X83164117Y-127855329D01*
X83183330Y-127841079D01*
X83203847Y-127828782D01*
X83225471Y-127818554D01*
X83247993Y-127810496D01*
X83271197Y-127804684D01*
X83294858Y-127801174D01*
X83318750Y-127800000D01*
X83806250Y-127800000D01*
X83830142Y-127801174D01*
X83830142Y-127801174D01*
G37*
D14*
X83562500Y-128500000D03*
D13*
G36*
X85705142Y-130301174D02*
G01*
X85728803Y-130304684D01*
X85752007Y-130310496D01*
X85774529Y-130318554D01*
X85796153Y-130328782D01*
X85816670Y-130341079D01*
X85835883Y-130355329D01*
X85853607Y-130371393D01*
X85869671Y-130389117D01*
X85883921Y-130408330D01*
X85896218Y-130428847D01*
X85906446Y-130450471D01*
X85914504Y-130472993D01*
X85920316Y-130496197D01*
X85923826Y-130519858D01*
X85925000Y-130543750D01*
X85925000Y-131456250D01*
X85923826Y-131480142D01*
X85920316Y-131503803D01*
X85914504Y-131527007D01*
X85906446Y-131549529D01*
X85896218Y-131571153D01*
X85883921Y-131591670D01*
X85869671Y-131610883D01*
X85853607Y-131628607D01*
X85835883Y-131644671D01*
X85816670Y-131658921D01*
X85796153Y-131671218D01*
X85774529Y-131681446D01*
X85752007Y-131689504D01*
X85728803Y-131695316D01*
X85705142Y-131698826D01*
X85681250Y-131700000D01*
X85193750Y-131700000D01*
X85169858Y-131698826D01*
X85146197Y-131695316D01*
X85122993Y-131689504D01*
X85100471Y-131681446D01*
X85078847Y-131671218D01*
X85058330Y-131658921D01*
X85039117Y-131644671D01*
X85021393Y-131628607D01*
X85005329Y-131610883D01*
X84991079Y-131591670D01*
X84978782Y-131571153D01*
X84968554Y-131549529D01*
X84960496Y-131527007D01*
X84954684Y-131503803D01*
X84951174Y-131480142D01*
X84950000Y-131456250D01*
X84950000Y-130543750D01*
X84951174Y-130519858D01*
X84954684Y-130496197D01*
X84960496Y-130472993D01*
X84968554Y-130450471D01*
X84978782Y-130428847D01*
X84991079Y-130408330D01*
X85005329Y-130389117D01*
X85021393Y-130371393D01*
X85039117Y-130355329D01*
X85058330Y-130341079D01*
X85078847Y-130328782D01*
X85100471Y-130318554D01*
X85122993Y-130310496D01*
X85146197Y-130304684D01*
X85169858Y-130301174D01*
X85193750Y-130300000D01*
X85681250Y-130300000D01*
X85705142Y-130301174D01*
X85705142Y-130301174D01*
G37*
D14*
X85437500Y-131000000D03*
D13*
G36*
X83830142Y-130301174D02*
G01*
X83853803Y-130304684D01*
X83877007Y-130310496D01*
X83899529Y-130318554D01*
X83921153Y-130328782D01*
X83941670Y-130341079D01*
X83960883Y-130355329D01*
X83978607Y-130371393D01*
X83994671Y-130389117D01*
X84008921Y-130408330D01*
X84021218Y-130428847D01*
X84031446Y-130450471D01*
X84039504Y-130472993D01*
X84045316Y-130496197D01*
X84048826Y-130519858D01*
X84050000Y-130543750D01*
X84050000Y-131456250D01*
X84048826Y-131480142D01*
X84045316Y-131503803D01*
X84039504Y-131527007D01*
X84031446Y-131549529D01*
X84021218Y-131571153D01*
X84008921Y-131591670D01*
X83994671Y-131610883D01*
X83978607Y-131628607D01*
X83960883Y-131644671D01*
X83941670Y-131658921D01*
X83921153Y-131671218D01*
X83899529Y-131681446D01*
X83877007Y-131689504D01*
X83853803Y-131695316D01*
X83830142Y-131698826D01*
X83806250Y-131700000D01*
X83318750Y-131700000D01*
X83294858Y-131698826D01*
X83271197Y-131695316D01*
X83247993Y-131689504D01*
X83225471Y-131681446D01*
X83203847Y-131671218D01*
X83183330Y-131658921D01*
X83164117Y-131644671D01*
X83146393Y-131628607D01*
X83130329Y-131610883D01*
X83116079Y-131591670D01*
X83103782Y-131571153D01*
X83093554Y-131549529D01*
X83085496Y-131527007D01*
X83079684Y-131503803D01*
X83076174Y-131480142D01*
X83075000Y-131456250D01*
X83075000Y-130543750D01*
X83076174Y-130519858D01*
X83079684Y-130496197D01*
X83085496Y-130472993D01*
X83093554Y-130450471D01*
X83103782Y-130428847D01*
X83116079Y-130408330D01*
X83130329Y-130389117D01*
X83146393Y-130371393D01*
X83164117Y-130355329D01*
X83183330Y-130341079D01*
X83203847Y-130328782D01*
X83225471Y-130318554D01*
X83247993Y-130310496D01*
X83271197Y-130304684D01*
X83294858Y-130301174D01*
X83318750Y-130300000D01*
X83806250Y-130300000D01*
X83830142Y-130301174D01*
X83830142Y-130301174D01*
G37*
D14*
X83562500Y-131000000D03*
D13*
G36*
X85705142Y-132801174D02*
G01*
X85728803Y-132804684D01*
X85752007Y-132810496D01*
X85774529Y-132818554D01*
X85796153Y-132828782D01*
X85816670Y-132841079D01*
X85835883Y-132855329D01*
X85853607Y-132871393D01*
X85869671Y-132889117D01*
X85883921Y-132908330D01*
X85896218Y-132928847D01*
X85906446Y-132950471D01*
X85914504Y-132972993D01*
X85920316Y-132996197D01*
X85923826Y-133019858D01*
X85925000Y-133043750D01*
X85925000Y-133956250D01*
X85923826Y-133980142D01*
X85920316Y-134003803D01*
X85914504Y-134027007D01*
X85906446Y-134049529D01*
X85896218Y-134071153D01*
X85883921Y-134091670D01*
X85869671Y-134110883D01*
X85853607Y-134128607D01*
X85835883Y-134144671D01*
X85816670Y-134158921D01*
X85796153Y-134171218D01*
X85774529Y-134181446D01*
X85752007Y-134189504D01*
X85728803Y-134195316D01*
X85705142Y-134198826D01*
X85681250Y-134200000D01*
X85193750Y-134200000D01*
X85169858Y-134198826D01*
X85146197Y-134195316D01*
X85122993Y-134189504D01*
X85100471Y-134181446D01*
X85078847Y-134171218D01*
X85058330Y-134158921D01*
X85039117Y-134144671D01*
X85021393Y-134128607D01*
X85005329Y-134110883D01*
X84991079Y-134091670D01*
X84978782Y-134071153D01*
X84968554Y-134049529D01*
X84960496Y-134027007D01*
X84954684Y-134003803D01*
X84951174Y-133980142D01*
X84950000Y-133956250D01*
X84950000Y-133043750D01*
X84951174Y-133019858D01*
X84954684Y-132996197D01*
X84960496Y-132972993D01*
X84968554Y-132950471D01*
X84978782Y-132928847D01*
X84991079Y-132908330D01*
X85005329Y-132889117D01*
X85021393Y-132871393D01*
X85039117Y-132855329D01*
X85058330Y-132841079D01*
X85078847Y-132828782D01*
X85100471Y-132818554D01*
X85122993Y-132810496D01*
X85146197Y-132804684D01*
X85169858Y-132801174D01*
X85193750Y-132800000D01*
X85681250Y-132800000D01*
X85705142Y-132801174D01*
X85705142Y-132801174D01*
G37*
D14*
X85437500Y-133500000D03*
D13*
G36*
X83830142Y-132801174D02*
G01*
X83853803Y-132804684D01*
X83877007Y-132810496D01*
X83899529Y-132818554D01*
X83921153Y-132828782D01*
X83941670Y-132841079D01*
X83960883Y-132855329D01*
X83978607Y-132871393D01*
X83994671Y-132889117D01*
X84008921Y-132908330D01*
X84021218Y-132928847D01*
X84031446Y-132950471D01*
X84039504Y-132972993D01*
X84045316Y-132996197D01*
X84048826Y-133019858D01*
X84050000Y-133043750D01*
X84050000Y-133956250D01*
X84048826Y-133980142D01*
X84045316Y-134003803D01*
X84039504Y-134027007D01*
X84031446Y-134049529D01*
X84021218Y-134071153D01*
X84008921Y-134091670D01*
X83994671Y-134110883D01*
X83978607Y-134128607D01*
X83960883Y-134144671D01*
X83941670Y-134158921D01*
X83921153Y-134171218D01*
X83899529Y-134181446D01*
X83877007Y-134189504D01*
X83853803Y-134195316D01*
X83830142Y-134198826D01*
X83806250Y-134200000D01*
X83318750Y-134200000D01*
X83294858Y-134198826D01*
X83271197Y-134195316D01*
X83247993Y-134189504D01*
X83225471Y-134181446D01*
X83203847Y-134171218D01*
X83183330Y-134158921D01*
X83164117Y-134144671D01*
X83146393Y-134128607D01*
X83130329Y-134110883D01*
X83116079Y-134091670D01*
X83103782Y-134071153D01*
X83093554Y-134049529D01*
X83085496Y-134027007D01*
X83079684Y-134003803D01*
X83076174Y-133980142D01*
X83075000Y-133956250D01*
X83075000Y-133043750D01*
X83076174Y-133019858D01*
X83079684Y-132996197D01*
X83085496Y-132972993D01*
X83093554Y-132950471D01*
X83103782Y-132928847D01*
X83116079Y-132908330D01*
X83130329Y-132889117D01*
X83146393Y-132871393D01*
X83164117Y-132855329D01*
X83183330Y-132841079D01*
X83203847Y-132828782D01*
X83225471Y-132818554D01*
X83247993Y-132810496D01*
X83271197Y-132804684D01*
X83294858Y-132801174D01*
X83318750Y-132800000D01*
X83806250Y-132800000D01*
X83830142Y-132801174D01*
X83830142Y-132801174D01*
G37*
D14*
X83562500Y-133500000D03*
D13*
G36*
X85705142Y-144301174D02*
G01*
X85728803Y-144304684D01*
X85752007Y-144310496D01*
X85774529Y-144318554D01*
X85796153Y-144328782D01*
X85816670Y-144341079D01*
X85835883Y-144355329D01*
X85853607Y-144371393D01*
X85869671Y-144389117D01*
X85883921Y-144408330D01*
X85896218Y-144428847D01*
X85906446Y-144450471D01*
X85914504Y-144472993D01*
X85920316Y-144496197D01*
X85923826Y-144519858D01*
X85925000Y-144543750D01*
X85925000Y-145456250D01*
X85923826Y-145480142D01*
X85920316Y-145503803D01*
X85914504Y-145527007D01*
X85906446Y-145549529D01*
X85896218Y-145571153D01*
X85883921Y-145591670D01*
X85869671Y-145610883D01*
X85853607Y-145628607D01*
X85835883Y-145644671D01*
X85816670Y-145658921D01*
X85796153Y-145671218D01*
X85774529Y-145681446D01*
X85752007Y-145689504D01*
X85728803Y-145695316D01*
X85705142Y-145698826D01*
X85681250Y-145700000D01*
X85193750Y-145700000D01*
X85169858Y-145698826D01*
X85146197Y-145695316D01*
X85122993Y-145689504D01*
X85100471Y-145681446D01*
X85078847Y-145671218D01*
X85058330Y-145658921D01*
X85039117Y-145644671D01*
X85021393Y-145628607D01*
X85005329Y-145610883D01*
X84991079Y-145591670D01*
X84978782Y-145571153D01*
X84968554Y-145549529D01*
X84960496Y-145527007D01*
X84954684Y-145503803D01*
X84951174Y-145480142D01*
X84950000Y-145456250D01*
X84950000Y-144543750D01*
X84951174Y-144519858D01*
X84954684Y-144496197D01*
X84960496Y-144472993D01*
X84968554Y-144450471D01*
X84978782Y-144428847D01*
X84991079Y-144408330D01*
X85005329Y-144389117D01*
X85021393Y-144371393D01*
X85039117Y-144355329D01*
X85058330Y-144341079D01*
X85078847Y-144328782D01*
X85100471Y-144318554D01*
X85122993Y-144310496D01*
X85146197Y-144304684D01*
X85169858Y-144301174D01*
X85193750Y-144300000D01*
X85681250Y-144300000D01*
X85705142Y-144301174D01*
X85705142Y-144301174D01*
G37*
D14*
X85437500Y-145000000D03*
D13*
G36*
X83830142Y-144301174D02*
G01*
X83853803Y-144304684D01*
X83877007Y-144310496D01*
X83899529Y-144318554D01*
X83921153Y-144328782D01*
X83941670Y-144341079D01*
X83960883Y-144355329D01*
X83978607Y-144371393D01*
X83994671Y-144389117D01*
X84008921Y-144408330D01*
X84021218Y-144428847D01*
X84031446Y-144450471D01*
X84039504Y-144472993D01*
X84045316Y-144496197D01*
X84048826Y-144519858D01*
X84050000Y-144543750D01*
X84050000Y-145456250D01*
X84048826Y-145480142D01*
X84045316Y-145503803D01*
X84039504Y-145527007D01*
X84031446Y-145549529D01*
X84021218Y-145571153D01*
X84008921Y-145591670D01*
X83994671Y-145610883D01*
X83978607Y-145628607D01*
X83960883Y-145644671D01*
X83941670Y-145658921D01*
X83921153Y-145671218D01*
X83899529Y-145681446D01*
X83877007Y-145689504D01*
X83853803Y-145695316D01*
X83830142Y-145698826D01*
X83806250Y-145700000D01*
X83318750Y-145700000D01*
X83294858Y-145698826D01*
X83271197Y-145695316D01*
X83247993Y-145689504D01*
X83225471Y-145681446D01*
X83203847Y-145671218D01*
X83183330Y-145658921D01*
X83164117Y-145644671D01*
X83146393Y-145628607D01*
X83130329Y-145610883D01*
X83116079Y-145591670D01*
X83103782Y-145571153D01*
X83093554Y-145549529D01*
X83085496Y-145527007D01*
X83079684Y-145503803D01*
X83076174Y-145480142D01*
X83075000Y-145456250D01*
X83075000Y-144543750D01*
X83076174Y-144519858D01*
X83079684Y-144496197D01*
X83085496Y-144472993D01*
X83093554Y-144450471D01*
X83103782Y-144428847D01*
X83116079Y-144408330D01*
X83130329Y-144389117D01*
X83146393Y-144371393D01*
X83164117Y-144355329D01*
X83183330Y-144341079D01*
X83203847Y-144328782D01*
X83225471Y-144318554D01*
X83247993Y-144310496D01*
X83271197Y-144304684D01*
X83294858Y-144301174D01*
X83318750Y-144300000D01*
X83806250Y-144300000D01*
X83830142Y-144301174D01*
X83830142Y-144301174D01*
G37*
D14*
X83562500Y-145000000D03*
D13*
G36*
X85705142Y-146801174D02*
G01*
X85728803Y-146804684D01*
X85752007Y-146810496D01*
X85774529Y-146818554D01*
X85796153Y-146828782D01*
X85816670Y-146841079D01*
X85835883Y-146855329D01*
X85853607Y-146871393D01*
X85869671Y-146889117D01*
X85883921Y-146908330D01*
X85896218Y-146928847D01*
X85906446Y-146950471D01*
X85914504Y-146972993D01*
X85920316Y-146996197D01*
X85923826Y-147019858D01*
X85925000Y-147043750D01*
X85925000Y-147956250D01*
X85923826Y-147980142D01*
X85920316Y-148003803D01*
X85914504Y-148027007D01*
X85906446Y-148049529D01*
X85896218Y-148071153D01*
X85883921Y-148091670D01*
X85869671Y-148110883D01*
X85853607Y-148128607D01*
X85835883Y-148144671D01*
X85816670Y-148158921D01*
X85796153Y-148171218D01*
X85774529Y-148181446D01*
X85752007Y-148189504D01*
X85728803Y-148195316D01*
X85705142Y-148198826D01*
X85681250Y-148200000D01*
X85193750Y-148200000D01*
X85169858Y-148198826D01*
X85146197Y-148195316D01*
X85122993Y-148189504D01*
X85100471Y-148181446D01*
X85078847Y-148171218D01*
X85058330Y-148158921D01*
X85039117Y-148144671D01*
X85021393Y-148128607D01*
X85005329Y-148110883D01*
X84991079Y-148091670D01*
X84978782Y-148071153D01*
X84968554Y-148049529D01*
X84960496Y-148027007D01*
X84954684Y-148003803D01*
X84951174Y-147980142D01*
X84950000Y-147956250D01*
X84950000Y-147043750D01*
X84951174Y-147019858D01*
X84954684Y-146996197D01*
X84960496Y-146972993D01*
X84968554Y-146950471D01*
X84978782Y-146928847D01*
X84991079Y-146908330D01*
X85005329Y-146889117D01*
X85021393Y-146871393D01*
X85039117Y-146855329D01*
X85058330Y-146841079D01*
X85078847Y-146828782D01*
X85100471Y-146818554D01*
X85122993Y-146810496D01*
X85146197Y-146804684D01*
X85169858Y-146801174D01*
X85193750Y-146800000D01*
X85681250Y-146800000D01*
X85705142Y-146801174D01*
X85705142Y-146801174D01*
G37*
D14*
X85437500Y-147500000D03*
D13*
G36*
X83830142Y-146801174D02*
G01*
X83853803Y-146804684D01*
X83877007Y-146810496D01*
X83899529Y-146818554D01*
X83921153Y-146828782D01*
X83941670Y-146841079D01*
X83960883Y-146855329D01*
X83978607Y-146871393D01*
X83994671Y-146889117D01*
X84008921Y-146908330D01*
X84021218Y-146928847D01*
X84031446Y-146950471D01*
X84039504Y-146972993D01*
X84045316Y-146996197D01*
X84048826Y-147019858D01*
X84050000Y-147043750D01*
X84050000Y-147956250D01*
X84048826Y-147980142D01*
X84045316Y-148003803D01*
X84039504Y-148027007D01*
X84031446Y-148049529D01*
X84021218Y-148071153D01*
X84008921Y-148091670D01*
X83994671Y-148110883D01*
X83978607Y-148128607D01*
X83960883Y-148144671D01*
X83941670Y-148158921D01*
X83921153Y-148171218D01*
X83899529Y-148181446D01*
X83877007Y-148189504D01*
X83853803Y-148195316D01*
X83830142Y-148198826D01*
X83806250Y-148200000D01*
X83318750Y-148200000D01*
X83294858Y-148198826D01*
X83271197Y-148195316D01*
X83247993Y-148189504D01*
X83225471Y-148181446D01*
X83203847Y-148171218D01*
X83183330Y-148158921D01*
X83164117Y-148144671D01*
X83146393Y-148128607D01*
X83130329Y-148110883D01*
X83116079Y-148091670D01*
X83103782Y-148071153D01*
X83093554Y-148049529D01*
X83085496Y-148027007D01*
X83079684Y-148003803D01*
X83076174Y-147980142D01*
X83075000Y-147956250D01*
X83075000Y-147043750D01*
X83076174Y-147019858D01*
X83079684Y-146996197D01*
X83085496Y-146972993D01*
X83093554Y-146950471D01*
X83103782Y-146928847D01*
X83116079Y-146908330D01*
X83130329Y-146889117D01*
X83146393Y-146871393D01*
X83164117Y-146855329D01*
X83183330Y-146841079D01*
X83203847Y-146828782D01*
X83225471Y-146818554D01*
X83247993Y-146810496D01*
X83271197Y-146804684D01*
X83294858Y-146801174D01*
X83318750Y-146800000D01*
X83806250Y-146800000D01*
X83830142Y-146801174D01*
X83830142Y-146801174D01*
G37*
D14*
X83562500Y-147500000D03*
M02*
