G04 #@! TF.GenerationSoftware,KiCad,Pcbnew,(5.1.4)-1*
G04 #@! TF.CreationDate,2019-08-22T10:31:36+01:00*
G04 #@! TF.ProjectId,lpa96,6c706139-362e-46b6-9963-61645f706362,2.0*
G04 #@! TF.SameCoordinates,Original*
G04 #@! TF.FileFunction,Paste,Bot*
G04 #@! TF.FilePolarity,Positive*
%FSLAX46Y46*%
G04 Gerber Fmt 4.6, Leading zero omitted, Abs format (unit mm)*
G04 Created by KiCad (PCBNEW (5.1.4)-1) date 2019-08-22 10:31:36*
%MOMM*%
%LPD*%
G04 APERTURE LIST*
%ADD10C,0.100000*%
%ADD11R,2.794000X1.778000*%
%ADD12R,1.000000X1.600000*%
%ADD13R,1.250000X1.000000*%
%ADD14R,1.000000X1.250000*%
%ADD15R,1.600000X1.000000*%
%ADD16R,1.300000X0.700000*%
%ADD17R,0.700000X1.300000*%
%ADD18R,1.200000X1.200000*%
%ADD19R,2.400000X6.170001*%
%ADD20R,1.665199X0.364800*%
%ADD21R,1.998980X0.449580*%
%ADD22R,0.449580X1.998980*%
%ADD23R,1.500000X1.000000*%
%ADD24R,2.000000X1.200000*%
%ADD25R,2.032000X3.657600*%
%ADD26R,2.032000X1.016000*%
%ADD27R,4.100000X0.700000*%
%ADD28R,4.100000X1.000000*%
%ADD29R,3.500000X1.600000*%
G04 APERTURE END LIST*
D10*
X67000000Y-168500000D02*
X67000000Y-94500000D01*
X210000000Y-168500000D02*
X67000000Y-168500000D01*
X210000000Y-94500000D02*
X210000000Y-168500000D01*
X67000000Y-94500000D02*
X210000000Y-94500000D01*
D11*
X86000000Y-155300000D03*
X86000000Y-158856000D03*
D12*
X164400000Y-140900000D03*
X167400000Y-140900000D03*
D13*
X88900000Y-111800000D03*
X88900000Y-113800000D03*
D14*
X76200000Y-118200000D03*
X74200000Y-118200000D03*
D15*
X89100000Y-157700000D03*
X89100000Y-154700000D03*
D13*
X108300000Y-137200000D03*
X108300000Y-139200000D03*
X126350000Y-137150000D03*
X126350000Y-139150000D03*
X162350000Y-137300000D03*
X162350000Y-139300000D03*
X198250000Y-137050000D03*
X198250000Y-139050000D03*
D16*
X75500000Y-102550000D03*
X75500000Y-104450000D03*
D17*
X87650000Y-108600000D03*
X85750000Y-108600000D03*
D16*
X111300000Y-139000000D03*
X111300000Y-137100000D03*
X129350000Y-139000000D03*
X129350000Y-137100000D03*
X147350000Y-138950000D03*
X147350000Y-137050000D03*
X165350000Y-138950000D03*
X165350000Y-137050000D03*
X183250000Y-138950000D03*
X183250000Y-137050000D03*
X201350000Y-139000000D03*
X201350000Y-137100000D03*
X82500000Y-103950000D03*
X82500000Y-102050000D03*
X86000000Y-103950000D03*
X86000000Y-102050000D03*
X79000000Y-103950000D03*
X79000000Y-102050000D03*
D18*
X82500000Y-99900000D03*
X82500000Y-97700000D03*
X86000000Y-100000000D03*
X86000000Y-97800000D03*
X79000000Y-100000000D03*
X79000000Y-97800000D03*
D13*
X144250000Y-137200000D03*
X144250000Y-139200000D03*
X180200000Y-137250000D03*
X180200000Y-139250000D03*
D19*
X104500000Y-131500000D03*
D20*
X107319400Y-135725074D03*
X107319400Y-135075063D03*
X107319400Y-134425051D03*
X107319400Y-133775040D03*
X107319400Y-133125028D03*
X107319400Y-132475017D03*
X107319400Y-131825006D03*
X107319400Y-131174994D03*
X107319400Y-130524983D03*
X107319400Y-129874972D03*
X107319400Y-129224960D03*
X107319400Y-128574949D03*
X107319400Y-127924937D03*
X107319400Y-127274926D03*
X101680600Y-127274926D03*
X101680600Y-127924937D03*
X101680600Y-128574949D03*
X101680600Y-129224960D03*
X101680600Y-129874972D03*
X101680600Y-130524983D03*
X101680600Y-131174994D03*
X101680600Y-131825006D03*
X101680600Y-132475017D03*
X101680600Y-133125028D03*
X101680600Y-133775040D03*
X101680600Y-134425051D03*
X101680600Y-135075063D03*
X101680600Y-135725074D03*
D19*
X122500000Y-131500000D03*
D20*
X125319400Y-135725074D03*
X125319400Y-135075063D03*
X125319400Y-134425051D03*
X125319400Y-133775040D03*
X125319400Y-133125028D03*
X125319400Y-132475017D03*
X125319400Y-131825006D03*
X125319400Y-131174994D03*
X125319400Y-130524983D03*
X125319400Y-129874972D03*
X125319400Y-129224960D03*
X125319400Y-128574949D03*
X125319400Y-127924937D03*
X125319400Y-127274926D03*
X119680600Y-127274926D03*
X119680600Y-127924937D03*
X119680600Y-128574949D03*
X119680600Y-129224960D03*
X119680600Y-129874972D03*
X119680600Y-130524983D03*
X119680600Y-131174994D03*
X119680600Y-131825006D03*
X119680600Y-132475017D03*
X119680600Y-133125028D03*
X119680600Y-133775040D03*
X119680600Y-134425051D03*
X119680600Y-135075063D03*
X119680600Y-135725074D03*
D19*
X140500000Y-131500000D03*
D20*
X143319400Y-135725074D03*
X143319400Y-135075063D03*
X143319400Y-134425051D03*
X143319400Y-133775040D03*
X143319400Y-133125028D03*
X143319400Y-132475017D03*
X143319400Y-131825006D03*
X143319400Y-131174994D03*
X143319400Y-130524983D03*
X143319400Y-129874972D03*
X143319400Y-129224960D03*
X143319400Y-128574949D03*
X143319400Y-127924937D03*
X143319400Y-127274926D03*
X137680600Y-127274926D03*
X137680600Y-127924937D03*
X137680600Y-128574949D03*
X137680600Y-129224960D03*
X137680600Y-129874972D03*
X137680600Y-130524983D03*
X137680600Y-131174994D03*
X137680600Y-131825006D03*
X137680600Y-132475017D03*
X137680600Y-133125028D03*
X137680600Y-133775040D03*
X137680600Y-134425051D03*
X137680600Y-135075063D03*
X137680600Y-135725074D03*
D19*
X158500000Y-131500000D03*
D20*
X161319400Y-135725074D03*
X161319400Y-135075063D03*
X161319400Y-134425051D03*
X161319400Y-133775040D03*
X161319400Y-133125028D03*
X161319400Y-132475017D03*
X161319400Y-131825006D03*
X161319400Y-131174994D03*
X161319400Y-130524983D03*
X161319400Y-129874972D03*
X161319400Y-129224960D03*
X161319400Y-128574949D03*
X161319400Y-127924937D03*
X161319400Y-127274926D03*
X155680600Y-127274926D03*
X155680600Y-127924937D03*
X155680600Y-128574949D03*
X155680600Y-129224960D03*
X155680600Y-129874972D03*
X155680600Y-130524983D03*
X155680600Y-131174994D03*
X155680600Y-131825006D03*
X155680600Y-132475017D03*
X155680600Y-133125028D03*
X155680600Y-133775040D03*
X155680600Y-134425051D03*
X155680600Y-135075063D03*
X155680600Y-135725074D03*
D19*
X176500000Y-131500000D03*
D20*
X179319400Y-135725074D03*
X179319400Y-135075063D03*
X179319400Y-134425051D03*
X179319400Y-133775040D03*
X179319400Y-133125028D03*
X179319400Y-132475017D03*
X179319400Y-131825006D03*
X179319400Y-131174994D03*
X179319400Y-130524983D03*
X179319400Y-129874972D03*
X179319400Y-129224960D03*
X179319400Y-128574949D03*
X179319400Y-127924937D03*
X179319400Y-127274926D03*
X173680600Y-127274926D03*
X173680600Y-127924937D03*
X173680600Y-128574949D03*
X173680600Y-129224960D03*
X173680600Y-129874972D03*
X173680600Y-130524983D03*
X173680600Y-131174994D03*
X173680600Y-131825006D03*
X173680600Y-132475017D03*
X173680600Y-133125028D03*
X173680600Y-133775040D03*
X173680600Y-134425051D03*
X173680600Y-135075063D03*
X173680600Y-135725074D03*
D19*
X194480600Y-131474994D03*
D20*
X197300000Y-135700068D03*
X197300000Y-135050057D03*
X197300000Y-134400045D03*
X197300000Y-133750034D03*
X197300000Y-133100022D03*
X197300000Y-132450011D03*
X197300000Y-131800000D03*
X197300000Y-131149988D03*
X197300000Y-130499977D03*
X197300000Y-129849966D03*
X197300000Y-129199954D03*
X197300000Y-128549943D03*
X197300000Y-127899931D03*
X197300000Y-127249920D03*
X191661200Y-127249920D03*
X191661200Y-127899931D03*
X191661200Y-128549943D03*
X191661200Y-129199954D03*
X191661200Y-129849966D03*
X191661200Y-130499977D03*
X191661200Y-131149988D03*
X191661200Y-131800000D03*
X191661200Y-132450011D03*
X191661200Y-133100022D03*
X191661200Y-133750034D03*
X191661200Y-134400045D03*
X191661200Y-135050057D03*
X191661200Y-135700068D03*
D21*
X85815840Y-115776220D03*
X85815840Y-114976120D03*
X85815840Y-114176020D03*
X85815840Y-113375920D03*
X85815840Y-112575820D03*
X85815840Y-111775720D03*
X85815840Y-110975620D03*
X85815840Y-110175520D03*
X76250200Y-110180600D03*
X76250200Y-115794000D03*
X76250200Y-114981200D03*
X76250200Y-114168400D03*
X76250200Y-113381000D03*
X76250200Y-112568200D03*
X76250200Y-111780800D03*
X76250200Y-110968000D03*
D22*
X83824480Y-108174000D03*
X83026920Y-108174000D03*
X82224280Y-108174000D03*
X81426720Y-108174000D03*
X80624080Y-108174000D03*
X79826520Y-108174000D03*
X79023880Y-108174000D03*
X78226320Y-108174000D03*
X83819400Y-117775200D03*
X83032000Y-117775200D03*
X82219200Y-117775200D03*
X81431800Y-117775200D03*
X80644400Y-117775200D03*
X79831600Y-117775200D03*
X79018800Y-117775200D03*
X78206000Y-117775200D03*
D23*
X92810000Y-130900000D03*
X92810000Y-133400000D03*
X92810000Y-136800000D03*
X92810000Y-138450000D03*
X92810000Y-140900000D03*
X92810000Y-143400000D03*
X92810000Y-145830000D03*
X92810000Y-147530000D03*
X92810000Y-128400000D03*
X92810000Y-150880000D03*
D24*
X70600000Y-151400000D03*
X71800000Y-123400000D03*
D23*
X92810000Y-135100000D03*
D25*
X91900000Y-164300000D03*
D26*
X85296000Y-164300000D03*
X85296000Y-162014000D03*
X85296000Y-166586000D03*
D27*
X90500000Y-119000000D03*
D28*
X90500000Y-117500000D03*
D27*
X90500000Y-116000000D03*
D29*
X82000000Y-156000000D03*
X76600000Y-156000000D03*
X81800000Y-163000000D03*
X76400000Y-163000000D03*
M02*
