G04 #@! TF.GenerationSoftware,KiCad,Pcbnew,(5.1.4)-1*
G04 #@! TF.CreationDate,2019-09-05T13:30:01+01:00*
G04 #@! TF.ProjectId,lpa96,6c706139-362e-46b6-9963-61645f706362,2.1*
G04 #@! TF.SameCoordinates,Original*
G04 #@! TF.FileFunction,Other,Fab,Bot*
%FSLAX46Y46*%
G04 Gerber Fmt 4.6, Leading zero omitted, Abs format (unit mm)*
G04 Created by KiCad (PCBNEW (5.1.4)-1) date 2019-09-05 13:30:01*
%MOMM*%
%LPD*%
G04 APERTURE LIST*
%ADD10C,0.100000*%
%ADD11C,0.152400*%
%ADD12C,0.150000*%
%ADD13C,0.080000*%
%ADD14C,0.120000*%
G04 APERTURE END LIST*
D10*
X67000000Y-168500000D02*
X67000000Y-94500000D01*
X210000000Y-168500000D02*
X67000000Y-168500000D01*
X210000000Y-94500000D02*
X210000000Y-168500000D01*
X67000000Y-94500000D02*
X210000000Y-94500000D01*
D11*
X104195200Y-136400003D02*
G75*
G02X104804800Y-136400003I304800J0D01*
G01*
X102252100Y-136400003D02*
X102252100Y-126599997D01*
X106747900Y-136400003D02*
X102252100Y-136400003D01*
X106747900Y-126599997D02*
X106747900Y-136400003D01*
X102252100Y-126599997D02*
X106747900Y-126599997D01*
X107802000Y-135877474D02*
X106747900Y-135877474D01*
X107802000Y-135572674D02*
X107802000Y-135877474D01*
X106747900Y-135572674D02*
X107802000Y-135572674D01*
X106747900Y-135877474D02*
X106747900Y-135572674D01*
X107802000Y-135227462D02*
X106747900Y-135227462D01*
X107802000Y-134922662D02*
X107802000Y-135227462D01*
X106747900Y-134922662D02*
X107802000Y-134922662D01*
X106747900Y-135227462D02*
X106747900Y-134922662D01*
X107802000Y-134577451D02*
X106747900Y-134577451D01*
X107802000Y-134272651D02*
X107802000Y-134577451D01*
X106747900Y-134272651D02*
X107802000Y-134272651D01*
X106747900Y-134577451D02*
X106747900Y-134272651D01*
X107802000Y-133927440D02*
X106747900Y-133927440D01*
X107802000Y-133622640D02*
X107802000Y-133927440D01*
X106747900Y-133622640D02*
X107802000Y-133622640D01*
X106747900Y-133927440D02*
X106747900Y-133622640D01*
X107802000Y-133277428D02*
X106747900Y-133277428D01*
X107802000Y-132972628D02*
X107802000Y-133277428D01*
X106747900Y-132972628D02*
X107802000Y-132972628D01*
X106747900Y-133277428D02*
X106747900Y-132972628D01*
X107802000Y-132627417D02*
X106747900Y-132627417D01*
X107802000Y-132322617D02*
X107802000Y-132627417D01*
X106747900Y-132322617D02*
X107802000Y-132322617D01*
X106747900Y-132627417D02*
X106747900Y-132322617D01*
X107802000Y-131977405D02*
X106747900Y-131977405D01*
X107802000Y-131672605D02*
X107802000Y-131977405D01*
X106747900Y-131672605D02*
X107802000Y-131672605D01*
X106747900Y-131977405D02*
X106747900Y-131672605D01*
X107802000Y-131327394D02*
X106747900Y-131327394D01*
X107802000Y-131022594D02*
X107802000Y-131327394D01*
X106747900Y-131022594D02*
X107802000Y-131022594D01*
X106747900Y-131327394D02*
X106747900Y-131022594D01*
X107802000Y-130677383D02*
X106747900Y-130677383D01*
X107802000Y-130372583D02*
X107802000Y-130677383D01*
X106747900Y-130372583D02*
X107802000Y-130372583D01*
X106747900Y-130677383D02*
X106747900Y-130372583D01*
X107802000Y-130027371D02*
X106747900Y-130027371D01*
X107802000Y-129722571D02*
X107802000Y-130027371D01*
X106747900Y-129722571D02*
X107802000Y-129722571D01*
X106747900Y-130027371D02*
X106747900Y-129722571D01*
X107802000Y-129377360D02*
X106747900Y-129377360D01*
X107802000Y-129072560D02*
X107802000Y-129377360D01*
X106747900Y-129072560D02*
X107802000Y-129072560D01*
X106747900Y-129377360D02*
X106747900Y-129072560D01*
X107802000Y-128727349D02*
X106747900Y-128727349D01*
X107802000Y-128422549D02*
X107802000Y-128727349D01*
X106747900Y-128422549D02*
X107802000Y-128422549D01*
X106747900Y-128727349D02*
X106747900Y-128422549D01*
X107802000Y-128077337D02*
X106747900Y-128077337D01*
X107802000Y-127772537D02*
X107802000Y-128077337D01*
X106747900Y-127772537D02*
X107802000Y-127772537D01*
X106747900Y-128077337D02*
X106747900Y-127772537D01*
X107802000Y-127427326D02*
X106747900Y-127427326D01*
X107802000Y-127122526D02*
X107802000Y-127427326D01*
X106747900Y-127122526D02*
X107802000Y-127122526D01*
X106747900Y-127427326D02*
X106747900Y-127122526D01*
X101198000Y-127122526D02*
X102252100Y-127122526D01*
X101198000Y-127427326D02*
X101198000Y-127122526D01*
X102252100Y-127427326D02*
X101198000Y-127427326D01*
X102252100Y-127122526D02*
X102252100Y-127427326D01*
X101198000Y-127772538D02*
X102252100Y-127772538D01*
X101198000Y-128077338D02*
X101198000Y-127772538D01*
X102252100Y-128077338D02*
X101198000Y-128077338D01*
X102252100Y-127772538D02*
X102252100Y-128077338D01*
X101198000Y-128422549D02*
X102252100Y-128422549D01*
X101198000Y-128727349D02*
X101198000Y-128422549D01*
X102252100Y-128727349D02*
X101198000Y-128727349D01*
X102252100Y-128422549D02*
X102252100Y-128727349D01*
X101198000Y-129072560D02*
X102252100Y-129072560D01*
X101198000Y-129377360D02*
X101198000Y-129072560D01*
X102252100Y-129377360D02*
X101198000Y-129377360D01*
X102252100Y-129072560D02*
X102252100Y-129377360D01*
X101198000Y-129722572D02*
X102252100Y-129722572D01*
X101198000Y-130027372D02*
X101198000Y-129722572D01*
X102252100Y-130027372D02*
X101198000Y-130027372D01*
X102252100Y-129722572D02*
X102252100Y-130027372D01*
X101198000Y-130372583D02*
X102252100Y-130372583D01*
X101198000Y-130677383D02*
X101198000Y-130372583D01*
X102252100Y-130677383D02*
X101198000Y-130677383D01*
X102252100Y-130372583D02*
X102252100Y-130677383D01*
X101198000Y-131022594D02*
X102252100Y-131022594D01*
X101198000Y-131327394D02*
X101198000Y-131022594D01*
X102252100Y-131327394D02*
X101198000Y-131327394D01*
X102252100Y-131022594D02*
X102252100Y-131327394D01*
X101198000Y-131672606D02*
X102252100Y-131672606D01*
X101198000Y-131977406D02*
X101198000Y-131672606D01*
X102252100Y-131977406D02*
X101198000Y-131977406D01*
X102252100Y-131672606D02*
X102252100Y-131977406D01*
X101198000Y-132322617D02*
X102252100Y-132322617D01*
X101198000Y-132627417D02*
X101198000Y-132322617D01*
X102252100Y-132627417D02*
X101198000Y-132627417D01*
X102252100Y-132322617D02*
X102252100Y-132627417D01*
X101198000Y-132972629D02*
X102252100Y-132972629D01*
X101198000Y-133277429D02*
X101198000Y-132972629D01*
X102252100Y-133277429D02*
X101198000Y-133277429D01*
X102252100Y-132972629D02*
X102252100Y-133277429D01*
X101198000Y-133622640D02*
X102252100Y-133622640D01*
X101198000Y-133927440D02*
X101198000Y-133622640D01*
X102252100Y-133927440D02*
X101198000Y-133927440D01*
X102252100Y-133622640D02*
X102252100Y-133927440D01*
X101198000Y-134272651D02*
X102252100Y-134272651D01*
X101198000Y-134577451D02*
X101198000Y-134272651D01*
X102252100Y-134577451D02*
X101198000Y-134577451D01*
X102252100Y-134272651D02*
X102252100Y-134577451D01*
X101198000Y-134922663D02*
X102252100Y-134922663D01*
X101198000Y-135227463D02*
X101198000Y-134922663D01*
X102252100Y-135227463D02*
X101198000Y-135227463D01*
X102252100Y-134922663D02*
X102252100Y-135227463D01*
X101198000Y-135572674D02*
X102252100Y-135572674D01*
X101198000Y-135877474D02*
X101198000Y-135572674D01*
X102252100Y-135877474D02*
X101198000Y-135877474D01*
X102252100Y-135572674D02*
X102252100Y-135877474D01*
X122195200Y-136400003D02*
G75*
G02X122804800Y-136400003I304800J0D01*
G01*
X120252100Y-136400003D02*
X120252100Y-126599997D01*
X124747900Y-136400003D02*
X120252100Y-136400003D01*
X124747900Y-126599997D02*
X124747900Y-136400003D01*
X120252100Y-126599997D02*
X124747900Y-126599997D01*
X125802000Y-135877474D02*
X124747900Y-135877474D01*
X125802000Y-135572674D02*
X125802000Y-135877474D01*
X124747900Y-135572674D02*
X125802000Y-135572674D01*
X124747900Y-135877474D02*
X124747900Y-135572674D01*
X125802000Y-135227462D02*
X124747900Y-135227462D01*
X125802000Y-134922662D02*
X125802000Y-135227462D01*
X124747900Y-134922662D02*
X125802000Y-134922662D01*
X124747900Y-135227462D02*
X124747900Y-134922662D01*
X125802000Y-134577451D02*
X124747900Y-134577451D01*
X125802000Y-134272651D02*
X125802000Y-134577451D01*
X124747900Y-134272651D02*
X125802000Y-134272651D01*
X124747900Y-134577451D02*
X124747900Y-134272651D01*
X125802000Y-133927440D02*
X124747900Y-133927440D01*
X125802000Y-133622640D02*
X125802000Y-133927440D01*
X124747900Y-133622640D02*
X125802000Y-133622640D01*
X124747900Y-133927440D02*
X124747900Y-133622640D01*
X125802000Y-133277428D02*
X124747900Y-133277428D01*
X125802000Y-132972628D02*
X125802000Y-133277428D01*
X124747900Y-132972628D02*
X125802000Y-132972628D01*
X124747900Y-133277428D02*
X124747900Y-132972628D01*
X125802000Y-132627417D02*
X124747900Y-132627417D01*
X125802000Y-132322617D02*
X125802000Y-132627417D01*
X124747900Y-132322617D02*
X125802000Y-132322617D01*
X124747900Y-132627417D02*
X124747900Y-132322617D01*
X125802000Y-131977405D02*
X124747900Y-131977405D01*
X125802000Y-131672605D02*
X125802000Y-131977405D01*
X124747900Y-131672605D02*
X125802000Y-131672605D01*
X124747900Y-131977405D02*
X124747900Y-131672605D01*
X125802000Y-131327394D02*
X124747900Y-131327394D01*
X125802000Y-131022594D02*
X125802000Y-131327394D01*
X124747900Y-131022594D02*
X125802000Y-131022594D01*
X124747900Y-131327394D02*
X124747900Y-131022594D01*
X125802000Y-130677383D02*
X124747900Y-130677383D01*
X125802000Y-130372583D02*
X125802000Y-130677383D01*
X124747900Y-130372583D02*
X125802000Y-130372583D01*
X124747900Y-130677383D02*
X124747900Y-130372583D01*
X125802000Y-130027371D02*
X124747900Y-130027371D01*
X125802000Y-129722571D02*
X125802000Y-130027371D01*
X124747900Y-129722571D02*
X125802000Y-129722571D01*
X124747900Y-130027371D02*
X124747900Y-129722571D01*
X125802000Y-129377360D02*
X124747900Y-129377360D01*
X125802000Y-129072560D02*
X125802000Y-129377360D01*
X124747900Y-129072560D02*
X125802000Y-129072560D01*
X124747900Y-129377360D02*
X124747900Y-129072560D01*
X125802000Y-128727349D02*
X124747900Y-128727349D01*
X125802000Y-128422549D02*
X125802000Y-128727349D01*
X124747900Y-128422549D02*
X125802000Y-128422549D01*
X124747900Y-128727349D02*
X124747900Y-128422549D01*
X125802000Y-128077337D02*
X124747900Y-128077337D01*
X125802000Y-127772537D02*
X125802000Y-128077337D01*
X124747900Y-127772537D02*
X125802000Y-127772537D01*
X124747900Y-128077337D02*
X124747900Y-127772537D01*
X125802000Y-127427326D02*
X124747900Y-127427326D01*
X125802000Y-127122526D02*
X125802000Y-127427326D01*
X124747900Y-127122526D02*
X125802000Y-127122526D01*
X124747900Y-127427326D02*
X124747900Y-127122526D01*
X119198000Y-127122526D02*
X120252100Y-127122526D01*
X119198000Y-127427326D02*
X119198000Y-127122526D01*
X120252100Y-127427326D02*
X119198000Y-127427326D01*
X120252100Y-127122526D02*
X120252100Y-127427326D01*
X119198000Y-127772538D02*
X120252100Y-127772538D01*
X119198000Y-128077338D02*
X119198000Y-127772538D01*
X120252100Y-128077338D02*
X119198000Y-128077338D01*
X120252100Y-127772538D02*
X120252100Y-128077338D01*
X119198000Y-128422549D02*
X120252100Y-128422549D01*
X119198000Y-128727349D02*
X119198000Y-128422549D01*
X120252100Y-128727349D02*
X119198000Y-128727349D01*
X120252100Y-128422549D02*
X120252100Y-128727349D01*
X119198000Y-129072560D02*
X120252100Y-129072560D01*
X119198000Y-129377360D02*
X119198000Y-129072560D01*
X120252100Y-129377360D02*
X119198000Y-129377360D01*
X120252100Y-129072560D02*
X120252100Y-129377360D01*
X119198000Y-129722572D02*
X120252100Y-129722572D01*
X119198000Y-130027372D02*
X119198000Y-129722572D01*
X120252100Y-130027372D02*
X119198000Y-130027372D01*
X120252100Y-129722572D02*
X120252100Y-130027372D01*
X119198000Y-130372583D02*
X120252100Y-130372583D01*
X119198000Y-130677383D02*
X119198000Y-130372583D01*
X120252100Y-130677383D02*
X119198000Y-130677383D01*
X120252100Y-130372583D02*
X120252100Y-130677383D01*
X119198000Y-131022594D02*
X120252100Y-131022594D01*
X119198000Y-131327394D02*
X119198000Y-131022594D01*
X120252100Y-131327394D02*
X119198000Y-131327394D01*
X120252100Y-131022594D02*
X120252100Y-131327394D01*
X119198000Y-131672606D02*
X120252100Y-131672606D01*
X119198000Y-131977406D02*
X119198000Y-131672606D01*
X120252100Y-131977406D02*
X119198000Y-131977406D01*
X120252100Y-131672606D02*
X120252100Y-131977406D01*
X119198000Y-132322617D02*
X120252100Y-132322617D01*
X119198000Y-132627417D02*
X119198000Y-132322617D01*
X120252100Y-132627417D02*
X119198000Y-132627417D01*
X120252100Y-132322617D02*
X120252100Y-132627417D01*
X119198000Y-132972629D02*
X120252100Y-132972629D01*
X119198000Y-133277429D02*
X119198000Y-132972629D01*
X120252100Y-133277429D02*
X119198000Y-133277429D01*
X120252100Y-132972629D02*
X120252100Y-133277429D01*
X119198000Y-133622640D02*
X120252100Y-133622640D01*
X119198000Y-133927440D02*
X119198000Y-133622640D01*
X120252100Y-133927440D02*
X119198000Y-133927440D01*
X120252100Y-133622640D02*
X120252100Y-133927440D01*
X119198000Y-134272651D02*
X120252100Y-134272651D01*
X119198000Y-134577451D02*
X119198000Y-134272651D01*
X120252100Y-134577451D02*
X119198000Y-134577451D01*
X120252100Y-134272651D02*
X120252100Y-134577451D01*
X119198000Y-134922663D02*
X120252100Y-134922663D01*
X119198000Y-135227463D02*
X119198000Y-134922663D01*
X120252100Y-135227463D02*
X119198000Y-135227463D01*
X120252100Y-134922663D02*
X120252100Y-135227463D01*
X119198000Y-135572674D02*
X120252100Y-135572674D01*
X119198000Y-135877474D02*
X119198000Y-135572674D01*
X120252100Y-135877474D02*
X119198000Y-135877474D01*
X120252100Y-135572674D02*
X120252100Y-135877474D01*
X140195200Y-136400003D02*
G75*
G02X140804800Y-136400003I304800J0D01*
G01*
X138252100Y-136400003D02*
X138252100Y-126599997D01*
X142747900Y-136400003D02*
X138252100Y-136400003D01*
X142747900Y-126599997D02*
X142747900Y-136400003D01*
X138252100Y-126599997D02*
X142747900Y-126599997D01*
X143802000Y-135877474D02*
X142747900Y-135877474D01*
X143802000Y-135572674D02*
X143802000Y-135877474D01*
X142747900Y-135572674D02*
X143802000Y-135572674D01*
X142747900Y-135877474D02*
X142747900Y-135572674D01*
X143802000Y-135227462D02*
X142747900Y-135227462D01*
X143802000Y-134922662D02*
X143802000Y-135227462D01*
X142747900Y-134922662D02*
X143802000Y-134922662D01*
X142747900Y-135227462D02*
X142747900Y-134922662D01*
X143802000Y-134577451D02*
X142747900Y-134577451D01*
X143802000Y-134272651D02*
X143802000Y-134577451D01*
X142747900Y-134272651D02*
X143802000Y-134272651D01*
X142747900Y-134577451D02*
X142747900Y-134272651D01*
X143802000Y-133927440D02*
X142747900Y-133927440D01*
X143802000Y-133622640D02*
X143802000Y-133927440D01*
X142747900Y-133622640D02*
X143802000Y-133622640D01*
X142747900Y-133927440D02*
X142747900Y-133622640D01*
X143802000Y-133277428D02*
X142747900Y-133277428D01*
X143802000Y-132972628D02*
X143802000Y-133277428D01*
X142747900Y-132972628D02*
X143802000Y-132972628D01*
X142747900Y-133277428D02*
X142747900Y-132972628D01*
X143802000Y-132627417D02*
X142747900Y-132627417D01*
X143802000Y-132322617D02*
X143802000Y-132627417D01*
X142747900Y-132322617D02*
X143802000Y-132322617D01*
X142747900Y-132627417D02*
X142747900Y-132322617D01*
X143802000Y-131977405D02*
X142747900Y-131977405D01*
X143802000Y-131672605D02*
X143802000Y-131977405D01*
X142747900Y-131672605D02*
X143802000Y-131672605D01*
X142747900Y-131977405D02*
X142747900Y-131672605D01*
X143802000Y-131327394D02*
X142747900Y-131327394D01*
X143802000Y-131022594D02*
X143802000Y-131327394D01*
X142747900Y-131022594D02*
X143802000Y-131022594D01*
X142747900Y-131327394D02*
X142747900Y-131022594D01*
X143802000Y-130677383D02*
X142747900Y-130677383D01*
X143802000Y-130372583D02*
X143802000Y-130677383D01*
X142747900Y-130372583D02*
X143802000Y-130372583D01*
X142747900Y-130677383D02*
X142747900Y-130372583D01*
X143802000Y-130027371D02*
X142747900Y-130027371D01*
X143802000Y-129722571D02*
X143802000Y-130027371D01*
X142747900Y-129722571D02*
X143802000Y-129722571D01*
X142747900Y-130027371D02*
X142747900Y-129722571D01*
X143802000Y-129377360D02*
X142747900Y-129377360D01*
X143802000Y-129072560D02*
X143802000Y-129377360D01*
X142747900Y-129072560D02*
X143802000Y-129072560D01*
X142747900Y-129377360D02*
X142747900Y-129072560D01*
X143802000Y-128727349D02*
X142747900Y-128727349D01*
X143802000Y-128422549D02*
X143802000Y-128727349D01*
X142747900Y-128422549D02*
X143802000Y-128422549D01*
X142747900Y-128727349D02*
X142747900Y-128422549D01*
X143802000Y-128077337D02*
X142747900Y-128077337D01*
X143802000Y-127772537D02*
X143802000Y-128077337D01*
X142747900Y-127772537D02*
X143802000Y-127772537D01*
X142747900Y-128077337D02*
X142747900Y-127772537D01*
X143802000Y-127427326D02*
X142747900Y-127427326D01*
X143802000Y-127122526D02*
X143802000Y-127427326D01*
X142747900Y-127122526D02*
X143802000Y-127122526D01*
X142747900Y-127427326D02*
X142747900Y-127122526D01*
X137198000Y-127122526D02*
X138252100Y-127122526D01*
X137198000Y-127427326D02*
X137198000Y-127122526D01*
X138252100Y-127427326D02*
X137198000Y-127427326D01*
X138252100Y-127122526D02*
X138252100Y-127427326D01*
X137198000Y-127772538D02*
X138252100Y-127772538D01*
X137198000Y-128077338D02*
X137198000Y-127772538D01*
X138252100Y-128077338D02*
X137198000Y-128077338D01*
X138252100Y-127772538D02*
X138252100Y-128077338D01*
X137198000Y-128422549D02*
X138252100Y-128422549D01*
X137198000Y-128727349D02*
X137198000Y-128422549D01*
X138252100Y-128727349D02*
X137198000Y-128727349D01*
X138252100Y-128422549D02*
X138252100Y-128727349D01*
X137198000Y-129072560D02*
X138252100Y-129072560D01*
X137198000Y-129377360D02*
X137198000Y-129072560D01*
X138252100Y-129377360D02*
X137198000Y-129377360D01*
X138252100Y-129072560D02*
X138252100Y-129377360D01*
X137198000Y-129722572D02*
X138252100Y-129722572D01*
X137198000Y-130027372D02*
X137198000Y-129722572D01*
X138252100Y-130027372D02*
X137198000Y-130027372D01*
X138252100Y-129722572D02*
X138252100Y-130027372D01*
X137198000Y-130372583D02*
X138252100Y-130372583D01*
X137198000Y-130677383D02*
X137198000Y-130372583D01*
X138252100Y-130677383D02*
X137198000Y-130677383D01*
X138252100Y-130372583D02*
X138252100Y-130677383D01*
X137198000Y-131022594D02*
X138252100Y-131022594D01*
X137198000Y-131327394D02*
X137198000Y-131022594D01*
X138252100Y-131327394D02*
X137198000Y-131327394D01*
X138252100Y-131022594D02*
X138252100Y-131327394D01*
X137198000Y-131672606D02*
X138252100Y-131672606D01*
X137198000Y-131977406D02*
X137198000Y-131672606D01*
X138252100Y-131977406D02*
X137198000Y-131977406D01*
X138252100Y-131672606D02*
X138252100Y-131977406D01*
X137198000Y-132322617D02*
X138252100Y-132322617D01*
X137198000Y-132627417D02*
X137198000Y-132322617D01*
X138252100Y-132627417D02*
X137198000Y-132627417D01*
X138252100Y-132322617D02*
X138252100Y-132627417D01*
X137198000Y-132972629D02*
X138252100Y-132972629D01*
X137198000Y-133277429D02*
X137198000Y-132972629D01*
X138252100Y-133277429D02*
X137198000Y-133277429D01*
X138252100Y-132972629D02*
X138252100Y-133277429D01*
X137198000Y-133622640D02*
X138252100Y-133622640D01*
X137198000Y-133927440D02*
X137198000Y-133622640D01*
X138252100Y-133927440D02*
X137198000Y-133927440D01*
X138252100Y-133622640D02*
X138252100Y-133927440D01*
X137198000Y-134272651D02*
X138252100Y-134272651D01*
X137198000Y-134577451D02*
X137198000Y-134272651D01*
X138252100Y-134577451D02*
X137198000Y-134577451D01*
X138252100Y-134272651D02*
X138252100Y-134577451D01*
X137198000Y-134922663D02*
X138252100Y-134922663D01*
X137198000Y-135227463D02*
X137198000Y-134922663D01*
X138252100Y-135227463D02*
X137198000Y-135227463D01*
X138252100Y-134922663D02*
X138252100Y-135227463D01*
X137198000Y-135572674D02*
X138252100Y-135572674D01*
X137198000Y-135877474D02*
X137198000Y-135572674D01*
X138252100Y-135877474D02*
X137198000Y-135877474D01*
X138252100Y-135572674D02*
X138252100Y-135877474D01*
X158195200Y-136400003D02*
G75*
G02X158804800Y-136400003I304800J0D01*
G01*
X156252100Y-136400003D02*
X156252100Y-126599997D01*
X160747900Y-136400003D02*
X156252100Y-136400003D01*
X160747900Y-126599997D02*
X160747900Y-136400003D01*
X156252100Y-126599997D02*
X160747900Y-126599997D01*
X161802000Y-135877474D02*
X160747900Y-135877474D01*
X161802000Y-135572674D02*
X161802000Y-135877474D01*
X160747900Y-135572674D02*
X161802000Y-135572674D01*
X160747900Y-135877474D02*
X160747900Y-135572674D01*
X161802000Y-135227462D02*
X160747900Y-135227462D01*
X161802000Y-134922662D02*
X161802000Y-135227462D01*
X160747900Y-134922662D02*
X161802000Y-134922662D01*
X160747900Y-135227462D02*
X160747900Y-134922662D01*
X161802000Y-134577451D02*
X160747900Y-134577451D01*
X161802000Y-134272651D02*
X161802000Y-134577451D01*
X160747900Y-134272651D02*
X161802000Y-134272651D01*
X160747900Y-134577451D02*
X160747900Y-134272651D01*
X161802000Y-133927440D02*
X160747900Y-133927440D01*
X161802000Y-133622640D02*
X161802000Y-133927440D01*
X160747900Y-133622640D02*
X161802000Y-133622640D01*
X160747900Y-133927440D02*
X160747900Y-133622640D01*
X161802000Y-133277428D02*
X160747900Y-133277428D01*
X161802000Y-132972628D02*
X161802000Y-133277428D01*
X160747900Y-132972628D02*
X161802000Y-132972628D01*
X160747900Y-133277428D02*
X160747900Y-132972628D01*
X161802000Y-132627417D02*
X160747900Y-132627417D01*
X161802000Y-132322617D02*
X161802000Y-132627417D01*
X160747900Y-132322617D02*
X161802000Y-132322617D01*
X160747900Y-132627417D02*
X160747900Y-132322617D01*
X161802000Y-131977405D02*
X160747900Y-131977405D01*
X161802000Y-131672605D02*
X161802000Y-131977405D01*
X160747900Y-131672605D02*
X161802000Y-131672605D01*
X160747900Y-131977405D02*
X160747900Y-131672605D01*
X161802000Y-131327394D02*
X160747900Y-131327394D01*
X161802000Y-131022594D02*
X161802000Y-131327394D01*
X160747900Y-131022594D02*
X161802000Y-131022594D01*
X160747900Y-131327394D02*
X160747900Y-131022594D01*
X161802000Y-130677383D02*
X160747900Y-130677383D01*
X161802000Y-130372583D02*
X161802000Y-130677383D01*
X160747900Y-130372583D02*
X161802000Y-130372583D01*
X160747900Y-130677383D02*
X160747900Y-130372583D01*
X161802000Y-130027371D02*
X160747900Y-130027371D01*
X161802000Y-129722571D02*
X161802000Y-130027371D01*
X160747900Y-129722571D02*
X161802000Y-129722571D01*
X160747900Y-130027371D02*
X160747900Y-129722571D01*
X161802000Y-129377360D02*
X160747900Y-129377360D01*
X161802000Y-129072560D02*
X161802000Y-129377360D01*
X160747900Y-129072560D02*
X161802000Y-129072560D01*
X160747900Y-129377360D02*
X160747900Y-129072560D01*
X161802000Y-128727349D02*
X160747900Y-128727349D01*
X161802000Y-128422549D02*
X161802000Y-128727349D01*
X160747900Y-128422549D02*
X161802000Y-128422549D01*
X160747900Y-128727349D02*
X160747900Y-128422549D01*
X161802000Y-128077337D02*
X160747900Y-128077337D01*
X161802000Y-127772537D02*
X161802000Y-128077337D01*
X160747900Y-127772537D02*
X161802000Y-127772537D01*
X160747900Y-128077337D02*
X160747900Y-127772537D01*
X161802000Y-127427326D02*
X160747900Y-127427326D01*
X161802000Y-127122526D02*
X161802000Y-127427326D01*
X160747900Y-127122526D02*
X161802000Y-127122526D01*
X160747900Y-127427326D02*
X160747900Y-127122526D01*
X155198000Y-127122526D02*
X156252100Y-127122526D01*
X155198000Y-127427326D02*
X155198000Y-127122526D01*
X156252100Y-127427326D02*
X155198000Y-127427326D01*
X156252100Y-127122526D02*
X156252100Y-127427326D01*
X155198000Y-127772538D02*
X156252100Y-127772538D01*
X155198000Y-128077338D02*
X155198000Y-127772538D01*
X156252100Y-128077338D02*
X155198000Y-128077338D01*
X156252100Y-127772538D02*
X156252100Y-128077338D01*
X155198000Y-128422549D02*
X156252100Y-128422549D01*
X155198000Y-128727349D02*
X155198000Y-128422549D01*
X156252100Y-128727349D02*
X155198000Y-128727349D01*
X156252100Y-128422549D02*
X156252100Y-128727349D01*
X155198000Y-129072560D02*
X156252100Y-129072560D01*
X155198000Y-129377360D02*
X155198000Y-129072560D01*
X156252100Y-129377360D02*
X155198000Y-129377360D01*
X156252100Y-129072560D02*
X156252100Y-129377360D01*
X155198000Y-129722572D02*
X156252100Y-129722572D01*
X155198000Y-130027372D02*
X155198000Y-129722572D01*
X156252100Y-130027372D02*
X155198000Y-130027372D01*
X156252100Y-129722572D02*
X156252100Y-130027372D01*
X155198000Y-130372583D02*
X156252100Y-130372583D01*
X155198000Y-130677383D02*
X155198000Y-130372583D01*
X156252100Y-130677383D02*
X155198000Y-130677383D01*
X156252100Y-130372583D02*
X156252100Y-130677383D01*
X155198000Y-131022594D02*
X156252100Y-131022594D01*
X155198000Y-131327394D02*
X155198000Y-131022594D01*
X156252100Y-131327394D02*
X155198000Y-131327394D01*
X156252100Y-131022594D02*
X156252100Y-131327394D01*
X155198000Y-131672606D02*
X156252100Y-131672606D01*
X155198000Y-131977406D02*
X155198000Y-131672606D01*
X156252100Y-131977406D02*
X155198000Y-131977406D01*
X156252100Y-131672606D02*
X156252100Y-131977406D01*
X155198000Y-132322617D02*
X156252100Y-132322617D01*
X155198000Y-132627417D02*
X155198000Y-132322617D01*
X156252100Y-132627417D02*
X155198000Y-132627417D01*
X156252100Y-132322617D02*
X156252100Y-132627417D01*
X155198000Y-132972629D02*
X156252100Y-132972629D01*
X155198000Y-133277429D02*
X155198000Y-132972629D01*
X156252100Y-133277429D02*
X155198000Y-133277429D01*
X156252100Y-132972629D02*
X156252100Y-133277429D01*
X155198000Y-133622640D02*
X156252100Y-133622640D01*
X155198000Y-133927440D02*
X155198000Y-133622640D01*
X156252100Y-133927440D02*
X155198000Y-133927440D01*
X156252100Y-133622640D02*
X156252100Y-133927440D01*
X155198000Y-134272651D02*
X156252100Y-134272651D01*
X155198000Y-134577451D02*
X155198000Y-134272651D01*
X156252100Y-134577451D02*
X155198000Y-134577451D01*
X156252100Y-134272651D02*
X156252100Y-134577451D01*
X155198000Y-134922663D02*
X156252100Y-134922663D01*
X155198000Y-135227463D02*
X155198000Y-134922663D01*
X156252100Y-135227463D02*
X155198000Y-135227463D01*
X156252100Y-134922663D02*
X156252100Y-135227463D01*
X155198000Y-135572674D02*
X156252100Y-135572674D01*
X155198000Y-135877474D02*
X155198000Y-135572674D01*
X156252100Y-135877474D02*
X155198000Y-135877474D01*
X156252100Y-135572674D02*
X156252100Y-135877474D01*
X176195200Y-136400003D02*
G75*
G02X176804800Y-136400003I304800J0D01*
G01*
X174252100Y-136400003D02*
X174252100Y-126599997D01*
X178747900Y-136400003D02*
X174252100Y-136400003D01*
X178747900Y-126599997D02*
X178747900Y-136400003D01*
X174252100Y-126599997D02*
X178747900Y-126599997D01*
X179802000Y-135877474D02*
X178747900Y-135877474D01*
X179802000Y-135572674D02*
X179802000Y-135877474D01*
X178747900Y-135572674D02*
X179802000Y-135572674D01*
X178747900Y-135877474D02*
X178747900Y-135572674D01*
X179802000Y-135227462D02*
X178747900Y-135227462D01*
X179802000Y-134922662D02*
X179802000Y-135227462D01*
X178747900Y-134922662D02*
X179802000Y-134922662D01*
X178747900Y-135227462D02*
X178747900Y-134922662D01*
X179802000Y-134577451D02*
X178747900Y-134577451D01*
X179802000Y-134272651D02*
X179802000Y-134577451D01*
X178747900Y-134272651D02*
X179802000Y-134272651D01*
X178747900Y-134577451D02*
X178747900Y-134272651D01*
X179802000Y-133927440D02*
X178747900Y-133927440D01*
X179802000Y-133622640D02*
X179802000Y-133927440D01*
X178747900Y-133622640D02*
X179802000Y-133622640D01*
X178747900Y-133927440D02*
X178747900Y-133622640D01*
X179802000Y-133277428D02*
X178747900Y-133277428D01*
X179802000Y-132972628D02*
X179802000Y-133277428D01*
X178747900Y-132972628D02*
X179802000Y-132972628D01*
X178747900Y-133277428D02*
X178747900Y-132972628D01*
X179802000Y-132627417D02*
X178747900Y-132627417D01*
X179802000Y-132322617D02*
X179802000Y-132627417D01*
X178747900Y-132322617D02*
X179802000Y-132322617D01*
X178747900Y-132627417D02*
X178747900Y-132322617D01*
X179802000Y-131977405D02*
X178747900Y-131977405D01*
X179802000Y-131672605D02*
X179802000Y-131977405D01*
X178747900Y-131672605D02*
X179802000Y-131672605D01*
X178747900Y-131977405D02*
X178747900Y-131672605D01*
X179802000Y-131327394D02*
X178747900Y-131327394D01*
X179802000Y-131022594D02*
X179802000Y-131327394D01*
X178747900Y-131022594D02*
X179802000Y-131022594D01*
X178747900Y-131327394D02*
X178747900Y-131022594D01*
X179802000Y-130677383D02*
X178747900Y-130677383D01*
X179802000Y-130372583D02*
X179802000Y-130677383D01*
X178747900Y-130372583D02*
X179802000Y-130372583D01*
X178747900Y-130677383D02*
X178747900Y-130372583D01*
X179802000Y-130027371D02*
X178747900Y-130027371D01*
X179802000Y-129722571D02*
X179802000Y-130027371D01*
X178747900Y-129722571D02*
X179802000Y-129722571D01*
X178747900Y-130027371D02*
X178747900Y-129722571D01*
X179802000Y-129377360D02*
X178747900Y-129377360D01*
X179802000Y-129072560D02*
X179802000Y-129377360D01*
X178747900Y-129072560D02*
X179802000Y-129072560D01*
X178747900Y-129377360D02*
X178747900Y-129072560D01*
X179802000Y-128727349D02*
X178747900Y-128727349D01*
X179802000Y-128422549D02*
X179802000Y-128727349D01*
X178747900Y-128422549D02*
X179802000Y-128422549D01*
X178747900Y-128727349D02*
X178747900Y-128422549D01*
X179802000Y-128077337D02*
X178747900Y-128077337D01*
X179802000Y-127772537D02*
X179802000Y-128077337D01*
X178747900Y-127772537D02*
X179802000Y-127772537D01*
X178747900Y-128077337D02*
X178747900Y-127772537D01*
X179802000Y-127427326D02*
X178747900Y-127427326D01*
X179802000Y-127122526D02*
X179802000Y-127427326D01*
X178747900Y-127122526D02*
X179802000Y-127122526D01*
X178747900Y-127427326D02*
X178747900Y-127122526D01*
X173198000Y-127122526D02*
X174252100Y-127122526D01*
X173198000Y-127427326D02*
X173198000Y-127122526D01*
X174252100Y-127427326D02*
X173198000Y-127427326D01*
X174252100Y-127122526D02*
X174252100Y-127427326D01*
X173198000Y-127772538D02*
X174252100Y-127772538D01*
X173198000Y-128077338D02*
X173198000Y-127772538D01*
X174252100Y-128077338D02*
X173198000Y-128077338D01*
X174252100Y-127772538D02*
X174252100Y-128077338D01*
X173198000Y-128422549D02*
X174252100Y-128422549D01*
X173198000Y-128727349D02*
X173198000Y-128422549D01*
X174252100Y-128727349D02*
X173198000Y-128727349D01*
X174252100Y-128422549D02*
X174252100Y-128727349D01*
X173198000Y-129072560D02*
X174252100Y-129072560D01*
X173198000Y-129377360D02*
X173198000Y-129072560D01*
X174252100Y-129377360D02*
X173198000Y-129377360D01*
X174252100Y-129072560D02*
X174252100Y-129377360D01*
X173198000Y-129722572D02*
X174252100Y-129722572D01*
X173198000Y-130027372D02*
X173198000Y-129722572D01*
X174252100Y-130027372D02*
X173198000Y-130027372D01*
X174252100Y-129722572D02*
X174252100Y-130027372D01*
X173198000Y-130372583D02*
X174252100Y-130372583D01*
X173198000Y-130677383D02*
X173198000Y-130372583D01*
X174252100Y-130677383D02*
X173198000Y-130677383D01*
X174252100Y-130372583D02*
X174252100Y-130677383D01*
X173198000Y-131022594D02*
X174252100Y-131022594D01*
X173198000Y-131327394D02*
X173198000Y-131022594D01*
X174252100Y-131327394D02*
X173198000Y-131327394D01*
X174252100Y-131022594D02*
X174252100Y-131327394D01*
X173198000Y-131672606D02*
X174252100Y-131672606D01*
X173198000Y-131977406D02*
X173198000Y-131672606D01*
X174252100Y-131977406D02*
X173198000Y-131977406D01*
X174252100Y-131672606D02*
X174252100Y-131977406D01*
X173198000Y-132322617D02*
X174252100Y-132322617D01*
X173198000Y-132627417D02*
X173198000Y-132322617D01*
X174252100Y-132627417D02*
X173198000Y-132627417D01*
X174252100Y-132322617D02*
X174252100Y-132627417D01*
X173198000Y-132972629D02*
X174252100Y-132972629D01*
X173198000Y-133277429D02*
X173198000Y-132972629D01*
X174252100Y-133277429D02*
X173198000Y-133277429D01*
X174252100Y-132972629D02*
X174252100Y-133277429D01*
X173198000Y-133622640D02*
X174252100Y-133622640D01*
X173198000Y-133927440D02*
X173198000Y-133622640D01*
X174252100Y-133927440D02*
X173198000Y-133927440D01*
X174252100Y-133622640D02*
X174252100Y-133927440D01*
X173198000Y-134272651D02*
X174252100Y-134272651D01*
X173198000Y-134577451D02*
X173198000Y-134272651D01*
X174252100Y-134577451D02*
X173198000Y-134577451D01*
X174252100Y-134272651D02*
X174252100Y-134577451D01*
X173198000Y-134922663D02*
X174252100Y-134922663D01*
X173198000Y-135227463D02*
X173198000Y-134922663D01*
X174252100Y-135227463D02*
X173198000Y-135227463D01*
X174252100Y-134922663D02*
X174252100Y-135227463D01*
X173198000Y-135572674D02*
X174252100Y-135572674D01*
X173198000Y-135877474D02*
X173198000Y-135572674D01*
X174252100Y-135877474D02*
X173198000Y-135877474D01*
X174252100Y-135572674D02*
X174252100Y-135877474D01*
X194175800Y-136374997D02*
G75*
G02X194785400Y-136374997I304800J0D01*
G01*
X192232700Y-136374997D02*
X192232700Y-126574991D01*
X196728500Y-136374997D02*
X192232700Y-136374997D01*
X196728500Y-126574991D02*
X196728500Y-136374997D01*
X192232700Y-126574991D02*
X196728500Y-126574991D01*
X197782600Y-135852468D02*
X196728500Y-135852468D01*
X197782600Y-135547668D02*
X197782600Y-135852468D01*
X196728500Y-135547668D02*
X197782600Y-135547668D01*
X196728500Y-135852468D02*
X196728500Y-135547668D01*
X197782600Y-135202456D02*
X196728500Y-135202456D01*
X197782600Y-134897656D02*
X197782600Y-135202456D01*
X196728500Y-134897656D02*
X197782600Y-134897656D01*
X196728500Y-135202456D02*
X196728500Y-134897656D01*
X197782600Y-134552445D02*
X196728500Y-134552445D01*
X197782600Y-134247645D02*
X197782600Y-134552445D01*
X196728500Y-134247645D02*
X197782600Y-134247645D01*
X196728500Y-134552445D02*
X196728500Y-134247645D01*
X197782600Y-133902434D02*
X196728500Y-133902434D01*
X197782600Y-133597634D02*
X197782600Y-133902434D01*
X196728500Y-133597634D02*
X197782600Y-133597634D01*
X196728500Y-133902434D02*
X196728500Y-133597634D01*
X197782600Y-133252422D02*
X196728500Y-133252422D01*
X197782600Y-132947622D02*
X197782600Y-133252422D01*
X196728500Y-132947622D02*
X197782600Y-132947622D01*
X196728500Y-133252422D02*
X196728500Y-132947622D01*
X197782600Y-132602411D02*
X196728500Y-132602411D01*
X197782600Y-132297611D02*
X197782600Y-132602411D01*
X196728500Y-132297611D02*
X197782600Y-132297611D01*
X196728500Y-132602411D02*
X196728500Y-132297611D01*
X197782600Y-131952399D02*
X196728500Y-131952399D01*
X197782600Y-131647599D02*
X197782600Y-131952399D01*
X196728500Y-131647599D02*
X197782600Y-131647599D01*
X196728500Y-131952399D02*
X196728500Y-131647599D01*
X197782600Y-131302388D02*
X196728500Y-131302388D01*
X197782600Y-130997588D02*
X197782600Y-131302388D01*
X196728500Y-130997588D02*
X197782600Y-130997588D01*
X196728500Y-131302388D02*
X196728500Y-130997588D01*
X197782600Y-130652377D02*
X196728500Y-130652377D01*
X197782600Y-130347577D02*
X197782600Y-130652377D01*
X196728500Y-130347577D02*
X197782600Y-130347577D01*
X196728500Y-130652377D02*
X196728500Y-130347577D01*
X197782600Y-130002365D02*
X196728500Y-130002365D01*
X197782600Y-129697565D02*
X197782600Y-130002365D01*
X196728500Y-129697565D02*
X197782600Y-129697565D01*
X196728500Y-130002365D02*
X196728500Y-129697565D01*
X197782600Y-129352354D02*
X196728500Y-129352354D01*
X197782600Y-129047554D02*
X197782600Y-129352354D01*
X196728500Y-129047554D02*
X197782600Y-129047554D01*
X196728500Y-129352354D02*
X196728500Y-129047554D01*
X197782600Y-128702343D02*
X196728500Y-128702343D01*
X197782600Y-128397543D02*
X197782600Y-128702343D01*
X196728500Y-128397543D02*
X197782600Y-128397543D01*
X196728500Y-128702343D02*
X196728500Y-128397543D01*
X197782600Y-128052331D02*
X196728500Y-128052331D01*
X197782600Y-127747531D02*
X197782600Y-128052331D01*
X196728500Y-127747531D02*
X197782600Y-127747531D01*
X196728500Y-128052331D02*
X196728500Y-127747531D01*
X197782600Y-127402320D02*
X196728500Y-127402320D01*
X197782600Y-127097520D02*
X197782600Y-127402320D01*
X196728500Y-127097520D02*
X197782600Y-127097520D01*
X196728500Y-127402320D02*
X196728500Y-127097520D01*
X191178600Y-127097520D02*
X192232700Y-127097520D01*
X191178600Y-127402320D02*
X191178600Y-127097520D01*
X192232700Y-127402320D02*
X191178600Y-127402320D01*
X192232700Y-127097520D02*
X192232700Y-127402320D01*
X191178600Y-127747532D02*
X192232700Y-127747532D01*
X191178600Y-128052332D02*
X191178600Y-127747532D01*
X192232700Y-128052332D02*
X191178600Y-128052332D01*
X192232700Y-127747532D02*
X192232700Y-128052332D01*
X191178600Y-128397543D02*
X192232700Y-128397543D01*
X191178600Y-128702343D02*
X191178600Y-128397543D01*
X192232700Y-128702343D02*
X191178600Y-128702343D01*
X192232700Y-128397543D02*
X192232700Y-128702343D01*
X191178600Y-129047554D02*
X192232700Y-129047554D01*
X191178600Y-129352354D02*
X191178600Y-129047554D01*
X192232700Y-129352354D02*
X191178600Y-129352354D01*
X192232700Y-129047554D02*
X192232700Y-129352354D01*
X191178600Y-129697566D02*
X192232700Y-129697566D01*
X191178600Y-130002366D02*
X191178600Y-129697566D01*
X192232700Y-130002366D02*
X191178600Y-130002366D01*
X192232700Y-129697566D02*
X192232700Y-130002366D01*
X191178600Y-130347577D02*
X192232700Y-130347577D01*
X191178600Y-130652377D02*
X191178600Y-130347577D01*
X192232700Y-130652377D02*
X191178600Y-130652377D01*
X192232700Y-130347577D02*
X192232700Y-130652377D01*
X191178600Y-130997588D02*
X192232700Y-130997588D01*
X191178600Y-131302388D02*
X191178600Y-130997588D01*
X192232700Y-131302388D02*
X191178600Y-131302388D01*
X192232700Y-130997588D02*
X192232700Y-131302388D01*
X191178600Y-131647600D02*
X192232700Y-131647600D01*
X191178600Y-131952400D02*
X191178600Y-131647600D01*
X192232700Y-131952400D02*
X191178600Y-131952400D01*
X192232700Y-131647600D02*
X192232700Y-131952400D01*
X191178600Y-132297611D02*
X192232700Y-132297611D01*
X191178600Y-132602411D02*
X191178600Y-132297611D01*
X192232700Y-132602411D02*
X191178600Y-132602411D01*
X192232700Y-132297611D02*
X192232700Y-132602411D01*
X191178600Y-132947623D02*
X192232700Y-132947623D01*
X191178600Y-133252423D02*
X191178600Y-132947623D01*
X192232700Y-133252423D02*
X191178600Y-133252423D01*
X192232700Y-132947623D02*
X192232700Y-133252423D01*
X191178600Y-133597634D02*
X192232700Y-133597634D01*
X191178600Y-133902434D02*
X191178600Y-133597634D01*
X192232700Y-133902434D02*
X191178600Y-133902434D01*
X192232700Y-133597634D02*
X192232700Y-133902434D01*
X191178600Y-134247645D02*
X192232700Y-134247645D01*
X191178600Y-134552445D02*
X191178600Y-134247645D01*
X192232700Y-134552445D02*
X191178600Y-134552445D01*
X192232700Y-134247645D02*
X192232700Y-134552445D01*
X191178600Y-134897657D02*
X192232700Y-134897657D01*
X191178600Y-135202457D02*
X191178600Y-134897657D01*
X192232700Y-135202457D02*
X191178600Y-135202457D01*
X192232700Y-134897657D02*
X192232700Y-135202457D01*
X191178600Y-135547668D02*
X192232700Y-135547668D01*
X191178600Y-135852468D02*
X191178600Y-135547668D01*
X192232700Y-135852468D02*
X191178600Y-135852468D01*
X192232700Y-135547668D02*
X192232700Y-135852468D01*
D10*
X82359412Y-156000000D02*
G75*
G03X82359412Y-156000000I-3059412J0D01*
G01*
X76150000Y-159150000D02*
X76150000Y-152850000D01*
X81780000Y-159150000D02*
X76150000Y-159150000D01*
X82450000Y-158480000D02*
X81780000Y-159150000D01*
X82450000Y-153520000D02*
X82450000Y-158480000D01*
X81780000Y-152850000D02*
X82450000Y-153520000D01*
X76150000Y-152850000D02*
X81780000Y-152850000D01*
X82159412Y-163000000D02*
G75*
G03X82159412Y-163000000I-3059412J0D01*
G01*
X75950000Y-166150000D02*
X75950000Y-159850000D01*
X81580000Y-166150000D02*
X75950000Y-166150000D01*
X82250000Y-165480000D02*
X81580000Y-166150000D01*
X82250000Y-160520000D02*
X82250000Y-165480000D01*
X81580000Y-159850000D02*
X82250000Y-160520000D01*
X75950000Y-159850000D02*
X81580000Y-159850000D01*
X89500000Y-113800000D02*
X89500000Y-111800000D01*
X88300000Y-113800000D02*
X89500000Y-113800000D01*
X88300000Y-111800000D02*
X88300000Y-113800000D01*
X89500000Y-111800000D02*
X88300000Y-111800000D01*
X74200000Y-118800000D02*
X76200000Y-118800000D01*
X74200000Y-117600000D02*
X74200000Y-118800000D01*
X76200000Y-117600000D02*
X74200000Y-117600000D01*
X76200000Y-118800000D02*
X76200000Y-117600000D01*
X88300000Y-154600000D02*
X88300000Y-157800000D01*
X89900000Y-154600000D02*
X88300000Y-154600000D01*
X89900000Y-157800000D02*
X89900000Y-154600000D01*
X88300000Y-157800000D02*
X89900000Y-157800000D01*
X108900000Y-139200000D02*
X108900000Y-137200000D01*
X107700000Y-139200000D02*
X108900000Y-139200000D01*
X107700000Y-137200000D02*
X107700000Y-139200000D01*
X108900000Y-137200000D02*
X107700000Y-137200000D01*
X126950000Y-139150000D02*
X126950000Y-137150000D01*
X125750000Y-139150000D02*
X126950000Y-139150000D01*
X125750000Y-137150000D02*
X125750000Y-139150000D01*
X126950000Y-137150000D02*
X125750000Y-137150000D01*
X144850000Y-139200000D02*
X144850000Y-137200000D01*
X143650000Y-139200000D02*
X144850000Y-139200000D01*
X143650000Y-137200000D02*
X143650000Y-139200000D01*
X144850000Y-137200000D02*
X143650000Y-137200000D01*
X162950000Y-139300000D02*
X162950000Y-137300000D01*
X161750000Y-139300000D02*
X162950000Y-139300000D01*
X161750000Y-137300000D02*
X161750000Y-139300000D01*
X162950000Y-137300000D02*
X161750000Y-137300000D01*
X180800000Y-139250000D02*
X180800000Y-137250000D01*
X179600000Y-139250000D02*
X180800000Y-139250000D01*
X179600000Y-137250000D02*
X179600000Y-139250000D01*
X180800000Y-137250000D02*
X179600000Y-137250000D01*
X198850000Y-139050000D02*
X198850000Y-137050000D01*
X197650000Y-139050000D02*
X198850000Y-139050000D01*
X197650000Y-137050000D02*
X197650000Y-139050000D01*
X198850000Y-137050000D02*
X197650000Y-137050000D01*
X167500000Y-140100000D02*
X164300000Y-140100000D01*
X167500000Y-141700000D02*
X167500000Y-140100000D01*
X164300000Y-141700000D02*
X167500000Y-141700000D01*
X164300000Y-140100000D02*
X164300000Y-141700000D01*
X79600000Y-99900000D02*
X78400000Y-99900000D01*
X79600000Y-97900000D02*
X79600000Y-99900000D01*
X78700000Y-97900000D02*
X79600000Y-97900000D01*
X78400000Y-98200000D02*
X78700000Y-97900000D01*
X78400000Y-99900000D02*
X78400000Y-98200000D01*
X83100000Y-99800000D02*
X81900000Y-99800000D01*
X83100000Y-97800000D02*
X83100000Y-99800000D01*
X82200000Y-97800000D02*
X83100000Y-97800000D01*
X81900000Y-98100000D02*
X82200000Y-97800000D01*
X81900000Y-99800000D02*
X81900000Y-98100000D01*
X86600000Y-99900000D02*
X85400000Y-99900000D01*
X86600000Y-97900000D02*
X86600000Y-99900000D01*
X85700000Y-97900000D02*
X86600000Y-97900000D01*
X85400000Y-98200000D02*
X85700000Y-97900000D01*
X85400000Y-99900000D02*
X85400000Y-98200000D01*
X76100000Y-104500000D02*
X76100000Y-102500000D01*
X74900000Y-104500000D02*
X76100000Y-104500000D01*
X74900000Y-102500000D02*
X74900000Y-104500000D01*
X76100000Y-102500000D02*
X74900000Y-102500000D01*
X85700000Y-109200000D02*
X87700000Y-109200000D01*
X85700000Y-108000000D02*
X85700000Y-109200000D01*
X87700000Y-108000000D02*
X85700000Y-108000000D01*
X87700000Y-109200000D02*
X87700000Y-108000000D01*
X110700000Y-137050000D02*
X110700000Y-139050000D01*
X111900000Y-137050000D02*
X110700000Y-137050000D01*
X111900000Y-139050000D02*
X111900000Y-137050000D01*
X110700000Y-139050000D02*
X111900000Y-139050000D01*
X128750000Y-137050000D02*
X128750000Y-139050000D01*
X129950000Y-137050000D02*
X128750000Y-137050000D01*
X129950000Y-139050000D02*
X129950000Y-137050000D01*
X128750000Y-139050000D02*
X129950000Y-139050000D01*
X146750000Y-137000000D02*
X146750000Y-139000000D01*
X147950000Y-137000000D02*
X146750000Y-137000000D01*
X147950000Y-139000000D02*
X147950000Y-137000000D01*
X146750000Y-139000000D02*
X147950000Y-139000000D01*
X164750000Y-137000000D02*
X164750000Y-139000000D01*
X165950000Y-137000000D02*
X164750000Y-137000000D01*
X165950000Y-139000000D02*
X165950000Y-137000000D01*
X164750000Y-139000000D02*
X165950000Y-139000000D01*
X182650000Y-137000000D02*
X182650000Y-139000000D01*
X183850000Y-137000000D02*
X182650000Y-137000000D01*
X183850000Y-139000000D02*
X183850000Y-137000000D01*
X182650000Y-139000000D02*
X183850000Y-139000000D01*
X200750000Y-137050000D02*
X200750000Y-139050000D01*
X201950000Y-137050000D02*
X200750000Y-137050000D01*
X201950000Y-139050000D02*
X201950000Y-137050000D01*
X200750000Y-139050000D02*
X201950000Y-139050000D01*
X78400000Y-102000000D02*
X78400000Y-104000000D01*
X79600000Y-102000000D02*
X78400000Y-102000000D01*
X79600000Y-104000000D02*
X79600000Y-102000000D01*
X78400000Y-104000000D02*
X79600000Y-104000000D01*
X81900000Y-102000000D02*
X81900000Y-104000000D01*
X83100000Y-102000000D02*
X81900000Y-102000000D01*
X83100000Y-104000000D02*
X83100000Y-102000000D01*
X81900000Y-104000000D02*
X83100000Y-104000000D01*
X85400000Y-102000000D02*
X85400000Y-104000000D01*
X86600000Y-102000000D02*
X85400000Y-102000000D01*
X86600000Y-104000000D02*
X86600000Y-102000000D01*
X85400000Y-104000000D02*
X86600000Y-104000000D01*
D12*
X102506100Y-135542254D02*
X102506100Y-135780350D01*
X102744195Y-135685112D02*
X102506100Y-135780350D01*
X102268004Y-135685112D01*
X102648957Y-135970826D02*
X102506100Y-135780350D01*
X102363242Y-135970826D01*
X120506100Y-135542254D02*
X120506100Y-135780350D01*
X120744195Y-135685112D02*
X120506100Y-135780350D01*
X120268004Y-135685112D01*
X120648957Y-135970826D02*
X120506100Y-135780350D01*
X120363242Y-135970826D01*
X138506100Y-135542254D02*
X138506100Y-135780350D01*
X138744195Y-135685112D02*
X138506100Y-135780350D01*
X138268004Y-135685112D01*
X138648957Y-135970826D02*
X138506100Y-135780350D01*
X138363242Y-135970826D01*
X156506100Y-135542254D02*
X156506100Y-135780350D01*
X156744195Y-135685112D02*
X156506100Y-135780350D01*
X156268004Y-135685112D01*
X156648957Y-135970826D02*
X156506100Y-135780350D01*
X156363242Y-135970826D01*
X174506100Y-135542254D02*
X174506100Y-135780350D01*
X174744195Y-135685112D02*
X174506100Y-135780350D01*
X174268004Y-135685112D01*
X174648957Y-135970826D02*
X174506100Y-135780350D01*
X174363242Y-135970826D01*
X192486700Y-135517248D02*
X192486700Y-135755344D01*
X192724795Y-135660106D02*
X192486700Y-135755344D01*
X192248604Y-135660106D01*
X192629557Y-135945820D02*
X192486700Y-135755344D01*
X192343842Y-135945820D01*
X79466666Y-154557142D02*
X79514285Y-154604761D01*
X79657142Y-154652380D01*
X79752380Y-154652380D01*
X79895238Y-154604761D01*
X79990476Y-154509523D01*
X80038095Y-154414285D01*
X80085714Y-154223809D01*
X80085714Y-154080952D01*
X80038095Y-153890476D01*
X79990476Y-153795238D01*
X79895238Y-153700000D01*
X79752380Y-153652380D01*
X79657142Y-153652380D01*
X79514285Y-153700000D01*
X79466666Y-153747619D01*
X79133333Y-153652380D02*
X78514285Y-153652380D01*
X78847619Y-154033333D01*
X78704761Y-154033333D01*
X78609523Y-154080952D01*
X78561904Y-154128571D01*
X78514285Y-154223809D01*
X78514285Y-154461904D01*
X78561904Y-154557142D01*
X78609523Y-154604761D01*
X78704761Y-154652380D01*
X78990476Y-154652380D01*
X79085714Y-154604761D01*
X79133333Y-154557142D01*
X79366666Y-162357142D02*
X79414285Y-162404761D01*
X79557142Y-162452380D01*
X79652380Y-162452380D01*
X79795238Y-162404761D01*
X79890476Y-162309523D01*
X79938095Y-162214285D01*
X79985714Y-162023809D01*
X79985714Y-161880952D01*
X79938095Y-161690476D01*
X79890476Y-161595238D01*
X79795238Y-161500000D01*
X79652380Y-161452380D01*
X79557142Y-161452380D01*
X79414285Y-161500000D01*
X79366666Y-161547619D01*
X78509523Y-161785714D02*
X78509523Y-162452380D01*
X78747619Y-161404761D02*
X78985714Y-162119047D01*
X78366666Y-162119047D01*
D13*
X89078571Y-112716666D02*
X89102380Y-112692857D01*
X89126190Y-112621428D01*
X89126190Y-112573809D01*
X89102380Y-112502380D01*
X89054761Y-112454761D01*
X89007142Y-112430952D01*
X88911904Y-112407142D01*
X88840476Y-112407142D01*
X88745238Y-112430952D01*
X88697619Y-112454761D01*
X88650000Y-112502380D01*
X88626190Y-112573809D01*
X88626190Y-112621428D01*
X88650000Y-112692857D01*
X88673809Y-112716666D01*
X89126190Y-113192857D02*
X89126190Y-112907142D01*
X89126190Y-113050000D02*
X88626190Y-113050000D01*
X88697619Y-113002380D01*
X88745238Y-112954761D01*
X88769047Y-112907142D01*
X75283333Y-118378571D02*
X75307142Y-118402380D01*
X75378571Y-118426190D01*
X75426190Y-118426190D01*
X75497619Y-118402380D01*
X75545238Y-118354761D01*
X75569047Y-118307142D01*
X75592857Y-118211904D01*
X75592857Y-118140476D01*
X75569047Y-118045238D01*
X75545238Y-117997619D01*
X75497619Y-117950000D01*
X75426190Y-117926190D01*
X75378571Y-117926190D01*
X75307142Y-117950000D01*
X75283333Y-117973809D01*
X75092857Y-117973809D02*
X75069047Y-117950000D01*
X75021428Y-117926190D01*
X74902380Y-117926190D01*
X74854761Y-117950000D01*
X74830952Y-117973809D01*
X74807142Y-118021428D01*
X74807142Y-118069047D01*
X74830952Y-118140476D01*
X75116666Y-118426190D01*
X74807142Y-118426190D01*
D14*
X89385714Y-156066666D02*
X89423809Y-156028571D01*
X89461904Y-155914285D01*
X89461904Y-155838095D01*
X89423809Y-155723809D01*
X89347619Y-155647619D01*
X89271428Y-155609523D01*
X89119047Y-155571428D01*
X89004761Y-155571428D01*
X88852380Y-155609523D01*
X88776190Y-155647619D01*
X88700000Y-155723809D01*
X88661904Y-155838095D01*
X88661904Y-155914285D01*
X88700000Y-156028571D01*
X88738095Y-156066666D01*
X88661904Y-156790476D02*
X88661904Y-156409523D01*
X89042857Y-156371428D01*
X89004761Y-156409523D01*
X88966666Y-156485714D01*
X88966666Y-156676190D01*
X89004761Y-156752380D01*
X89042857Y-156790476D01*
X89119047Y-156828571D01*
X89309523Y-156828571D01*
X89385714Y-156790476D01*
X89423809Y-156752380D01*
X89461904Y-156676190D01*
X89461904Y-156485714D01*
X89423809Y-156409523D01*
X89385714Y-156371428D01*
D13*
X108478571Y-138116666D02*
X108502380Y-138092857D01*
X108526190Y-138021428D01*
X108526190Y-137973809D01*
X108502380Y-137902380D01*
X108454761Y-137854761D01*
X108407142Y-137830952D01*
X108311904Y-137807142D01*
X108240476Y-137807142D01*
X108145238Y-137830952D01*
X108097619Y-137854761D01*
X108050000Y-137902380D01*
X108026190Y-137973809D01*
X108026190Y-138021428D01*
X108050000Y-138092857D01*
X108073809Y-138116666D01*
X108026190Y-138545238D02*
X108026190Y-138450000D01*
X108050000Y-138402380D01*
X108073809Y-138378571D01*
X108145238Y-138330952D01*
X108240476Y-138307142D01*
X108430952Y-138307142D01*
X108478571Y-138330952D01*
X108502380Y-138354761D01*
X108526190Y-138402380D01*
X108526190Y-138497619D01*
X108502380Y-138545238D01*
X108478571Y-138569047D01*
X108430952Y-138592857D01*
X108311904Y-138592857D01*
X108264285Y-138569047D01*
X108240476Y-138545238D01*
X108216666Y-138497619D01*
X108216666Y-138402380D01*
X108240476Y-138354761D01*
X108264285Y-138330952D01*
X108311904Y-138307142D01*
X126528571Y-138066666D02*
X126552380Y-138042857D01*
X126576190Y-137971428D01*
X126576190Y-137923809D01*
X126552380Y-137852380D01*
X126504761Y-137804761D01*
X126457142Y-137780952D01*
X126361904Y-137757142D01*
X126290476Y-137757142D01*
X126195238Y-137780952D01*
X126147619Y-137804761D01*
X126100000Y-137852380D01*
X126076190Y-137923809D01*
X126076190Y-137971428D01*
X126100000Y-138042857D01*
X126123809Y-138066666D01*
X126076190Y-138233333D02*
X126076190Y-138566666D01*
X126576190Y-138352380D01*
X144428571Y-138116666D02*
X144452380Y-138092857D01*
X144476190Y-138021428D01*
X144476190Y-137973809D01*
X144452380Y-137902380D01*
X144404761Y-137854761D01*
X144357142Y-137830952D01*
X144261904Y-137807142D01*
X144190476Y-137807142D01*
X144095238Y-137830952D01*
X144047619Y-137854761D01*
X144000000Y-137902380D01*
X143976190Y-137973809D01*
X143976190Y-138021428D01*
X144000000Y-138092857D01*
X144023809Y-138116666D01*
X144190476Y-138402380D02*
X144166666Y-138354761D01*
X144142857Y-138330952D01*
X144095238Y-138307142D01*
X144071428Y-138307142D01*
X144023809Y-138330952D01*
X144000000Y-138354761D01*
X143976190Y-138402380D01*
X143976190Y-138497619D01*
X144000000Y-138545238D01*
X144023809Y-138569047D01*
X144071428Y-138592857D01*
X144095238Y-138592857D01*
X144142857Y-138569047D01*
X144166666Y-138545238D01*
X144190476Y-138497619D01*
X144190476Y-138402380D01*
X144214285Y-138354761D01*
X144238095Y-138330952D01*
X144285714Y-138307142D01*
X144380952Y-138307142D01*
X144428571Y-138330952D01*
X144452380Y-138354761D01*
X144476190Y-138402380D01*
X144476190Y-138497619D01*
X144452380Y-138545238D01*
X144428571Y-138569047D01*
X144380952Y-138592857D01*
X144285714Y-138592857D01*
X144238095Y-138569047D01*
X144214285Y-138545238D01*
X144190476Y-138497619D01*
X162528571Y-138216666D02*
X162552380Y-138192857D01*
X162576190Y-138121428D01*
X162576190Y-138073809D01*
X162552380Y-138002380D01*
X162504761Y-137954761D01*
X162457142Y-137930952D01*
X162361904Y-137907142D01*
X162290476Y-137907142D01*
X162195238Y-137930952D01*
X162147619Y-137954761D01*
X162100000Y-138002380D01*
X162076190Y-138073809D01*
X162076190Y-138121428D01*
X162100000Y-138192857D01*
X162123809Y-138216666D01*
X162576190Y-138454761D02*
X162576190Y-138550000D01*
X162552380Y-138597619D01*
X162528571Y-138621428D01*
X162457142Y-138669047D01*
X162361904Y-138692857D01*
X162171428Y-138692857D01*
X162123809Y-138669047D01*
X162100000Y-138645238D01*
X162076190Y-138597619D01*
X162076190Y-138502380D01*
X162100000Y-138454761D01*
X162123809Y-138430952D01*
X162171428Y-138407142D01*
X162290476Y-138407142D01*
X162338095Y-138430952D01*
X162361904Y-138454761D01*
X162385714Y-138502380D01*
X162385714Y-138597619D01*
X162361904Y-138645238D01*
X162338095Y-138669047D01*
X162290476Y-138692857D01*
X180378571Y-137928571D02*
X180402380Y-137904761D01*
X180426190Y-137833333D01*
X180426190Y-137785714D01*
X180402380Y-137714285D01*
X180354761Y-137666666D01*
X180307142Y-137642857D01*
X180211904Y-137619047D01*
X180140476Y-137619047D01*
X180045238Y-137642857D01*
X179997619Y-137666666D01*
X179950000Y-137714285D01*
X179926190Y-137785714D01*
X179926190Y-137833333D01*
X179950000Y-137904761D01*
X179973809Y-137928571D01*
X180426190Y-138404761D02*
X180426190Y-138119047D01*
X180426190Y-138261904D02*
X179926190Y-138261904D01*
X179997619Y-138214285D01*
X180045238Y-138166666D01*
X180069047Y-138119047D01*
X179926190Y-138714285D02*
X179926190Y-138761904D01*
X179950000Y-138809523D01*
X179973809Y-138833333D01*
X180021428Y-138857142D01*
X180116666Y-138880952D01*
X180235714Y-138880952D01*
X180330952Y-138857142D01*
X180378571Y-138833333D01*
X180402380Y-138809523D01*
X180426190Y-138761904D01*
X180426190Y-138714285D01*
X180402380Y-138666666D01*
X180378571Y-138642857D01*
X180330952Y-138619047D01*
X180235714Y-138595238D01*
X180116666Y-138595238D01*
X180021428Y-138619047D01*
X179973809Y-138642857D01*
X179950000Y-138666666D01*
X179926190Y-138714285D01*
X198428571Y-137728571D02*
X198452380Y-137704761D01*
X198476190Y-137633333D01*
X198476190Y-137585714D01*
X198452380Y-137514285D01*
X198404761Y-137466666D01*
X198357142Y-137442857D01*
X198261904Y-137419047D01*
X198190476Y-137419047D01*
X198095238Y-137442857D01*
X198047619Y-137466666D01*
X198000000Y-137514285D01*
X197976190Y-137585714D01*
X197976190Y-137633333D01*
X198000000Y-137704761D01*
X198023809Y-137728571D01*
X198476190Y-138204761D02*
X198476190Y-137919047D01*
X198476190Y-138061904D02*
X197976190Y-138061904D01*
X198047619Y-138014285D01*
X198095238Y-137966666D01*
X198119047Y-137919047D01*
X198476190Y-138680952D02*
X198476190Y-138395238D01*
X198476190Y-138538095D02*
X197976190Y-138538095D01*
X198047619Y-138490476D01*
X198095238Y-138442857D01*
X198119047Y-138395238D01*
D14*
X166414285Y-141185714D02*
X166452380Y-141223809D01*
X166566666Y-141261904D01*
X166642857Y-141261904D01*
X166757142Y-141223809D01*
X166833333Y-141147619D01*
X166871428Y-141071428D01*
X166909523Y-140919047D01*
X166909523Y-140804761D01*
X166871428Y-140652380D01*
X166833333Y-140576190D01*
X166757142Y-140500000D01*
X166642857Y-140461904D01*
X166566666Y-140461904D01*
X166452380Y-140500000D01*
X166414285Y-140538095D01*
X165652380Y-141261904D02*
X166109523Y-141261904D01*
X165880952Y-141261904D02*
X165880952Y-140461904D01*
X165957142Y-140576190D01*
X166033333Y-140652380D01*
X166109523Y-140690476D01*
X165347619Y-140538095D02*
X165309523Y-140500000D01*
X165233333Y-140461904D01*
X165042857Y-140461904D01*
X164966666Y-140500000D01*
X164928571Y-140538095D01*
X164890476Y-140614285D01*
X164890476Y-140690476D01*
X164928571Y-140804761D01*
X165385714Y-141261904D01*
X164890476Y-141261904D01*
D13*
X79226190Y-98102380D02*
X79226190Y-97864285D01*
X78726190Y-97864285D01*
X78964285Y-98269047D02*
X78964285Y-98435714D01*
X79226190Y-98507142D02*
X79226190Y-98269047D01*
X78726190Y-98269047D01*
X78726190Y-98507142D01*
X79226190Y-98721428D02*
X78726190Y-98721428D01*
X78726190Y-98840476D01*
X78750000Y-98911904D01*
X78797619Y-98959523D01*
X78845238Y-98983333D01*
X78940476Y-99007142D01*
X79011904Y-99007142D01*
X79107142Y-98983333D01*
X79154761Y-98959523D01*
X79202380Y-98911904D01*
X79226190Y-98840476D01*
X79226190Y-98721428D01*
X79226190Y-99245238D02*
X79226190Y-99340476D01*
X79202380Y-99388095D01*
X79178571Y-99411904D01*
X79107142Y-99459523D01*
X79011904Y-99483333D01*
X78821428Y-99483333D01*
X78773809Y-99459523D01*
X78750000Y-99435714D01*
X78726190Y-99388095D01*
X78726190Y-99292857D01*
X78750000Y-99245238D01*
X78773809Y-99221428D01*
X78821428Y-99197619D01*
X78940476Y-99197619D01*
X78988095Y-99221428D01*
X79011904Y-99245238D01*
X79035714Y-99292857D01*
X79035714Y-99388095D01*
X79011904Y-99435714D01*
X78988095Y-99459523D01*
X78940476Y-99483333D01*
X78726190Y-99650000D02*
X78726190Y-99983333D01*
X79226190Y-99769047D01*
X82726190Y-98002380D02*
X82726190Y-97764285D01*
X82226190Y-97764285D01*
X82464285Y-98169047D02*
X82464285Y-98335714D01*
X82726190Y-98407142D02*
X82726190Y-98169047D01*
X82226190Y-98169047D01*
X82226190Y-98407142D01*
X82726190Y-98621428D02*
X82226190Y-98621428D01*
X82226190Y-98740476D01*
X82250000Y-98811904D01*
X82297619Y-98859523D01*
X82345238Y-98883333D01*
X82440476Y-98907142D01*
X82511904Y-98907142D01*
X82607142Y-98883333D01*
X82654761Y-98859523D01*
X82702380Y-98811904D01*
X82726190Y-98740476D01*
X82726190Y-98621428D01*
X82726190Y-99145238D02*
X82726190Y-99240476D01*
X82702380Y-99288095D01*
X82678571Y-99311904D01*
X82607142Y-99359523D01*
X82511904Y-99383333D01*
X82321428Y-99383333D01*
X82273809Y-99359523D01*
X82250000Y-99335714D01*
X82226190Y-99288095D01*
X82226190Y-99192857D01*
X82250000Y-99145238D01*
X82273809Y-99121428D01*
X82321428Y-99097619D01*
X82440476Y-99097619D01*
X82488095Y-99121428D01*
X82511904Y-99145238D01*
X82535714Y-99192857D01*
X82535714Y-99288095D01*
X82511904Y-99335714D01*
X82488095Y-99359523D01*
X82440476Y-99383333D01*
X82440476Y-99669047D02*
X82416666Y-99621428D01*
X82392857Y-99597619D01*
X82345238Y-99573809D01*
X82321428Y-99573809D01*
X82273809Y-99597619D01*
X82250000Y-99621428D01*
X82226190Y-99669047D01*
X82226190Y-99764285D01*
X82250000Y-99811904D01*
X82273809Y-99835714D01*
X82321428Y-99859523D01*
X82345238Y-99859523D01*
X82392857Y-99835714D01*
X82416666Y-99811904D01*
X82440476Y-99764285D01*
X82440476Y-99669047D01*
X82464285Y-99621428D01*
X82488095Y-99597619D01*
X82535714Y-99573809D01*
X82630952Y-99573809D01*
X82678571Y-99597619D01*
X82702380Y-99621428D01*
X82726190Y-99669047D01*
X82726190Y-99764285D01*
X82702380Y-99811904D01*
X82678571Y-99835714D01*
X82630952Y-99859523D01*
X82535714Y-99859523D01*
X82488095Y-99835714D01*
X82464285Y-99811904D01*
X82440476Y-99764285D01*
X86226190Y-98102380D02*
X86226190Y-97864285D01*
X85726190Y-97864285D01*
X85964285Y-98269047D02*
X85964285Y-98435714D01*
X86226190Y-98507142D02*
X86226190Y-98269047D01*
X85726190Y-98269047D01*
X85726190Y-98507142D01*
X86226190Y-98721428D02*
X85726190Y-98721428D01*
X85726190Y-98840476D01*
X85750000Y-98911904D01*
X85797619Y-98959523D01*
X85845238Y-98983333D01*
X85940476Y-99007142D01*
X86011904Y-99007142D01*
X86107142Y-98983333D01*
X86154761Y-98959523D01*
X86202380Y-98911904D01*
X86226190Y-98840476D01*
X86226190Y-98721428D01*
X86226190Y-99245238D02*
X86226190Y-99340476D01*
X86202380Y-99388095D01*
X86178571Y-99411904D01*
X86107142Y-99459523D01*
X86011904Y-99483333D01*
X85821428Y-99483333D01*
X85773809Y-99459523D01*
X85750000Y-99435714D01*
X85726190Y-99388095D01*
X85726190Y-99292857D01*
X85750000Y-99245238D01*
X85773809Y-99221428D01*
X85821428Y-99197619D01*
X85940476Y-99197619D01*
X85988095Y-99221428D01*
X86011904Y-99245238D01*
X86035714Y-99292857D01*
X86035714Y-99388095D01*
X86011904Y-99435714D01*
X85988095Y-99459523D01*
X85940476Y-99483333D01*
X86226190Y-99721428D02*
X86226190Y-99816666D01*
X86202380Y-99864285D01*
X86178571Y-99888095D01*
X86107142Y-99935714D01*
X86011904Y-99959523D01*
X85821428Y-99959523D01*
X85773809Y-99935714D01*
X85750000Y-99911904D01*
X85726190Y-99864285D01*
X85726190Y-99769047D01*
X85750000Y-99721428D01*
X85773809Y-99697619D01*
X85821428Y-99673809D01*
X85940476Y-99673809D01*
X85988095Y-99697619D01*
X86011904Y-99721428D01*
X86035714Y-99769047D01*
X86035714Y-99864285D01*
X86011904Y-99911904D01*
X85988095Y-99935714D01*
X85940476Y-99959523D01*
X75726190Y-103416666D02*
X75488095Y-103250000D01*
X75726190Y-103130952D02*
X75226190Y-103130952D01*
X75226190Y-103321428D01*
X75250000Y-103369047D01*
X75273809Y-103392857D01*
X75321428Y-103416666D01*
X75392857Y-103416666D01*
X75440476Y-103392857D01*
X75464285Y-103369047D01*
X75488095Y-103321428D01*
X75488095Y-103130952D01*
X75726190Y-103892857D02*
X75726190Y-103607142D01*
X75726190Y-103750000D02*
X75226190Y-103750000D01*
X75297619Y-103702380D01*
X75345238Y-103654761D01*
X75369047Y-103607142D01*
X86783333Y-108826190D02*
X86950000Y-108588095D01*
X87069047Y-108826190D02*
X87069047Y-108326190D01*
X86878571Y-108326190D01*
X86830952Y-108350000D01*
X86807142Y-108373809D01*
X86783333Y-108421428D01*
X86783333Y-108492857D01*
X86807142Y-108540476D01*
X86830952Y-108564285D01*
X86878571Y-108588095D01*
X87069047Y-108588095D01*
X86592857Y-108373809D02*
X86569047Y-108350000D01*
X86521428Y-108326190D01*
X86402380Y-108326190D01*
X86354761Y-108350000D01*
X86330952Y-108373809D01*
X86307142Y-108421428D01*
X86307142Y-108469047D01*
X86330952Y-108540476D01*
X86616666Y-108826190D01*
X86307142Y-108826190D01*
X111526190Y-137966666D02*
X111288095Y-137800000D01*
X111526190Y-137680952D02*
X111026190Y-137680952D01*
X111026190Y-137871428D01*
X111050000Y-137919047D01*
X111073809Y-137942857D01*
X111121428Y-137966666D01*
X111192857Y-137966666D01*
X111240476Y-137942857D01*
X111264285Y-137919047D01*
X111288095Y-137871428D01*
X111288095Y-137680952D01*
X111026190Y-138133333D02*
X111026190Y-138442857D01*
X111216666Y-138276190D01*
X111216666Y-138347619D01*
X111240476Y-138395238D01*
X111264285Y-138419047D01*
X111311904Y-138442857D01*
X111430952Y-138442857D01*
X111478571Y-138419047D01*
X111502380Y-138395238D01*
X111526190Y-138347619D01*
X111526190Y-138204761D01*
X111502380Y-138157142D01*
X111478571Y-138133333D01*
X129576190Y-137966666D02*
X129338095Y-137800000D01*
X129576190Y-137680952D02*
X129076190Y-137680952D01*
X129076190Y-137871428D01*
X129100000Y-137919047D01*
X129123809Y-137942857D01*
X129171428Y-137966666D01*
X129242857Y-137966666D01*
X129290476Y-137942857D01*
X129314285Y-137919047D01*
X129338095Y-137871428D01*
X129338095Y-137680952D01*
X129242857Y-138395238D02*
X129576190Y-138395238D01*
X129052380Y-138276190D02*
X129409523Y-138157142D01*
X129409523Y-138466666D01*
X147576190Y-137916666D02*
X147338095Y-137750000D01*
X147576190Y-137630952D02*
X147076190Y-137630952D01*
X147076190Y-137821428D01*
X147100000Y-137869047D01*
X147123809Y-137892857D01*
X147171428Y-137916666D01*
X147242857Y-137916666D01*
X147290476Y-137892857D01*
X147314285Y-137869047D01*
X147338095Y-137821428D01*
X147338095Y-137630952D01*
X147076190Y-138369047D02*
X147076190Y-138130952D01*
X147314285Y-138107142D01*
X147290476Y-138130952D01*
X147266666Y-138178571D01*
X147266666Y-138297619D01*
X147290476Y-138345238D01*
X147314285Y-138369047D01*
X147361904Y-138392857D01*
X147480952Y-138392857D01*
X147528571Y-138369047D01*
X147552380Y-138345238D01*
X147576190Y-138297619D01*
X147576190Y-138178571D01*
X147552380Y-138130952D01*
X147528571Y-138107142D01*
X165576190Y-137916666D02*
X165338095Y-137750000D01*
X165576190Y-137630952D02*
X165076190Y-137630952D01*
X165076190Y-137821428D01*
X165100000Y-137869047D01*
X165123809Y-137892857D01*
X165171428Y-137916666D01*
X165242857Y-137916666D01*
X165290476Y-137892857D01*
X165314285Y-137869047D01*
X165338095Y-137821428D01*
X165338095Y-137630952D01*
X165076190Y-138345238D02*
X165076190Y-138250000D01*
X165100000Y-138202380D01*
X165123809Y-138178571D01*
X165195238Y-138130952D01*
X165290476Y-138107142D01*
X165480952Y-138107142D01*
X165528571Y-138130952D01*
X165552380Y-138154761D01*
X165576190Y-138202380D01*
X165576190Y-138297619D01*
X165552380Y-138345238D01*
X165528571Y-138369047D01*
X165480952Y-138392857D01*
X165361904Y-138392857D01*
X165314285Y-138369047D01*
X165290476Y-138345238D01*
X165266666Y-138297619D01*
X165266666Y-138202380D01*
X165290476Y-138154761D01*
X165314285Y-138130952D01*
X165361904Y-138107142D01*
X183476190Y-137916666D02*
X183238095Y-137750000D01*
X183476190Y-137630952D02*
X182976190Y-137630952D01*
X182976190Y-137821428D01*
X183000000Y-137869047D01*
X183023809Y-137892857D01*
X183071428Y-137916666D01*
X183142857Y-137916666D01*
X183190476Y-137892857D01*
X183214285Y-137869047D01*
X183238095Y-137821428D01*
X183238095Y-137630952D01*
X182976190Y-138083333D02*
X182976190Y-138416666D01*
X183476190Y-138202380D01*
X201576190Y-137966666D02*
X201338095Y-137800000D01*
X201576190Y-137680952D02*
X201076190Y-137680952D01*
X201076190Y-137871428D01*
X201100000Y-137919047D01*
X201123809Y-137942857D01*
X201171428Y-137966666D01*
X201242857Y-137966666D01*
X201290476Y-137942857D01*
X201314285Y-137919047D01*
X201338095Y-137871428D01*
X201338095Y-137680952D01*
X201290476Y-138252380D02*
X201266666Y-138204761D01*
X201242857Y-138180952D01*
X201195238Y-138157142D01*
X201171428Y-138157142D01*
X201123809Y-138180952D01*
X201100000Y-138204761D01*
X201076190Y-138252380D01*
X201076190Y-138347619D01*
X201100000Y-138395238D01*
X201123809Y-138419047D01*
X201171428Y-138442857D01*
X201195238Y-138442857D01*
X201242857Y-138419047D01*
X201266666Y-138395238D01*
X201290476Y-138347619D01*
X201290476Y-138252380D01*
X201314285Y-138204761D01*
X201338095Y-138180952D01*
X201385714Y-138157142D01*
X201480952Y-138157142D01*
X201528571Y-138180952D01*
X201552380Y-138204761D01*
X201576190Y-138252380D01*
X201576190Y-138347619D01*
X201552380Y-138395238D01*
X201528571Y-138419047D01*
X201480952Y-138442857D01*
X201385714Y-138442857D01*
X201338095Y-138419047D01*
X201314285Y-138395238D01*
X201290476Y-138347619D01*
X79226190Y-102916666D02*
X78988095Y-102750000D01*
X79226190Y-102630952D02*
X78726190Y-102630952D01*
X78726190Y-102821428D01*
X78750000Y-102869047D01*
X78773809Y-102892857D01*
X78821428Y-102916666D01*
X78892857Y-102916666D01*
X78940476Y-102892857D01*
X78964285Y-102869047D01*
X78988095Y-102821428D01*
X78988095Y-102630952D01*
X79226190Y-103154761D02*
X79226190Y-103250000D01*
X79202380Y-103297619D01*
X79178571Y-103321428D01*
X79107142Y-103369047D01*
X79011904Y-103392857D01*
X78821428Y-103392857D01*
X78773809Y-103369047D01*
X78750000Y-103345238D01*
X78726190Y-103297619D01*
X78726190Y-103202380D01*
X78750000Y-103154761D01*
X78773809Y-103130952D01*
X78821428Y-103107142D01*
X78940476Y-103107142D01*
X78988095Y-103130952D01*
X79011904Y-103154761D01*
X79035714Y-103202380D01*
X79035714Y-103297619D01*
X79011904Y-103345238D01*
X78988095Y-103369047D01*
X78940476Y-103392857D01*
X82726190Y-102678571D02*
X82488095Y-102511904D01*
X82726190Y-102392857D02*
X82226190Y-102392857D01*
X82226190Y-102583333D01*
X82250000Y-102630952D01*
X82273809Y-102654761D01*
X82321428Y-102678571D01*
X82392857Y-102678571D01*
X82440476Y-102654761D01*
X82464285Y-102630952D01*
X82488095Y-102583333D01*
X82488095Y-102392857D01*
X82726190Y-103154761D02*
X82726190Y-102869047D01*
X82726190Y-103011904D02*
X82226190Y-103011904D01*
X82297619Y-102964285D01*
X82345238Y-102916666D01*
X82369047Y-102869047D01*
X82226190Y-103464285D02*
X82226190Y-103511904D01*
X82250000Y-103559523D01*
X82273809Y-103583333D01*
X82321428Y-103607142D01*
X82416666Y-103630952D01*
X82535714Y-103630952D01*
X82630952Y-103607142D01*
X82678571Y-103583333D01*
X82702380Y-103559523D01*
X82726190Y-103511904D01*
X82726190Y-103464285D01*
X82702380Y-103416666D01*
X82678571Y-103392857D01*
X82630952Y-103369047D01*
X82535714Y-103345238D01*
X82416666Y-103345238D01*
X82321428Y-103369047D01*
X82273809Y-103392857D01*
X82250000Y-103416666D01*
X82226190Y-103464285D01*
X86226190Y-102678571D02*
X85988095Y-102511904D01*
X86226190Y-102392857D02*
X85726190Y-102392857D01*
X85726190Y-102583333D01*
X85750000Y-102630952D01*
X85773809Y-102654761D01*
X85821428Y-102678571D01*
X85892857Y-102678571D01*
X85940476Y-102654761D01*
X85964285Y-102630952D01*
X85988095Y-102583333D01*
X85988095Y-102392857D01*
X86226190Y-103154761D02*
X86226190Y-102869047D01*
X86226190Y-103011904D02*
X85726190Y-103011904D01*
X85797619Y-102964285D01*
X85845238Y-102916666D01*
X85869047Y-102869047D01*
X86226190Y-103630952D02*
X86226190Y-103345238D01*
X86226190Y-103488095D02*
X85726190Y-103488095D01*
X85797619Y-103440476D01*
X85845238Y-103392857D01*
X85869047Y-103345238D01*
M02*
