G04 #@! TF.GenerationSoftware,KiCad,Pcbnew,(5.1.4)-1*
G04 #@! TF.CreationDate,2019-08-22T10:31:36+01:00*
G04 #@! TF.ProjectId,lpa96,6c706139-362e-46b6-9963-61645f706362,2.0*
G04 #@! TF.SameCoordinates,Original*
G04 #@! TF.FileFunction,Legend,Bot*
G04 #@! TF.FilePolarity,Positive*
%FSLAX46Y46*%
G04 Gerber Fmt 4.6, Leading zero omitted, Abs format (unit mm)*
G04 Created by KiCad (PCBNEW (5.1.4)-1) date 2019-08-22 10:31:36*
%MOMM*%
%LPD*%
G04 APERTURE LIST*
%ADD10C,0.250000*%
%ADD11C,0.187500*%
%ADD12C,0.100000*%
%ADD13C,0.010000*%
%ADD14C,0.150000*%
%ADD15C,0.120000*%
%ADD16C,0.400000*%
%ADD17C,0.152400*%
%ADD18C,0.203200*%
%ADD19R,2.894000X1.878000*%
%ADD20R,1.100000X1.700000*%
%ADD21C,4.164000*%
%ADD22R,1.350000X1.100000*%
%ADD23R,1.100000X1.350000*%
%ADD24R,1.700000X1.100000*%
%ADD25R,1.400000X0.800000*%
%ADD26R,0.800000X1.400000*%
%ADD27R,1.300000X1.300000*%
%ADD28R,2.500000X6.270001*%
%ADD29R,1.765199X0.464800*%
%ADD30R,2.098980X0.549580*%
%ADD31R,0.549580X2.098980*%
%ADD32R,2.400000X2.400000*%
%ADD33C,2.600000*%
%ADD34R,1.624000X1.624000*%
%ADD35C,1.624000*%
%ADD36R,1.600000X1.100000*%
%ADD37R,2.100000X1.300000*%
%ADD38C,1.700000*%
%ADD39R,2.132000X3.757600*%
%ADD40R,2.132000X1.116000*%
%ADD41R,4.200000X0.800000*%
%ADD42R,4.200000X1.100000*%
%ADD43R,3.600000X1.700000*%
G04 APERTURE END LIST*
D10*
X81185714Y-96071428D02*
X81519047Y-96071428D01*
X81661904Y-95547619D02*
X81185714Y-95547619D01*
X81185714Y-96547619D01*
X81661904Y-96547619D01*
X82661904Y-95547619D02*
X82328571Y-96023809D01*
X82090476Y-95547619D02*
X82090476Y-96547619D01*
X82471428Y-96547619D01*
X82566666Y-96500000D01*
X82614285Y-96452380D01*
X82661904Y-96357142D01*
X82661904Y-96214285D01*
X82614285Y-96119047D01*
X82566666Y-96071428D01*
X82471428Y-96023809D01*
X82090476Y-96023809D01*
X83661904Y-95547619D02*
X83328571Y-96023809D01*
X83090476Y-95547619D02*
X83090476Y-96547619D01*
X83471428Y-96547619D01*
X83566666Y-96500000D01*
X83614285Y-96452380D01*
X83661904Y-96357142D01*
X83661904Y-96214285D01*
X83614285Y-96119047D01*
X83566666Y-96071428D01*
X83471428Y-96023809D01*
X83090476Y-96023809D01*
X78380952Y-96547619D02*
X78571428Y-96547619D01*
X78666666Y-96500000D01*
X78761904Y-96404761D01*
X78809523Y-96214285D01*
X78809523Y-95880952D01*
X78761904Y-95690476D01*
X78666666Y-95595238D01*
X78571428Y-95547619D01*
X78380952Y-95547619D01*
X78285714Y-95595238D01*
X78190476Y-95690476D01*
X78142857Y-95880952D01*
X78142857Y-96214285D01*
X78190476Y-96404761D01*
X78285714Y-96500000D01*
X78380952Y-96547619D01*
X79238095Y-95547619D02*
X79238095Y-96547619D01*
X79809523Y-95547619D01*
X79809523Y-96547619D01*
X85380952Y-96071428D02*
X85047619Y-96071428D01*
X85047619Y-95547619D02*
X85047619Y-96547619D01*
X85523809Y-96547619D01*
X85904761Y-95547619D02*
X85904761Y-96547619D01*
X86380952Y-95547619D02*
X86380952Y-96547619D01*
X86952380Y-95547619D01*
X86952380Y-96547619D01*
D11*
X91771428Y-99973214D02*
X91414285Y-99973214D01*
X91414285Y-100723214D01*
X92021428Y-99973214D02*
X92021428Y-100723214D01*
X92307142Y-100723214D01*
X92378571Y-100687500D01*
X92414285Y-100651785D01*
X92450000Y-100580357D01*
X92450000Y-100473214D01*
X92414285Y-100401785D01*
X92378571Y-100366071D01*
X92307142Y-100330357D01*
X92021428Y-100330357D01*
X92735714Y-100187500D02*
X93092857Y-100187500D01*
X92664285Y-99973214D02*
X92914285Y-100723214D01*
X93164285Y-99973214D01*
X93235714Y-99901785D02*
X93807142Y-99901785D01*
X94021428Y-99973214D02*
X94164285Y-99973214D01*
X94235714Y-100008928D01*
X94271428Y-100044642D01*
X94342857Y-100151785D01*
X94378571Y-100294642D01*
X94378571Y-100580357D01*
X94342857Y-100651785D01*
X94307142Y-100687500D01*
X94235714Y-100723214D01*
X94092857Y-100723214D01*
X94021428Y-100687500D01*
X93985714Y-100651785D01*
X93950000Y-100580357D01*
X93950000Y-100401785D01*
X93985714Y-100330357D01*
X94021428Y-100294642D01*
X94092857Y-100258928D01*
X94235714Y-100258928D01*
X94307142Y-100294642D01*
X94342857Y-100330357D01*
X94378571Y-100401785D01*
X95021428Y-100723214D02*
X94878571Y-100723214D01*
X94807142Y-100687500D01*
X94771428Y-100651785D01*
X94700000Y-100544642D01*
X94664285Y-100401785D01*
X94664285Y-100116071D01*
X94700000Y-100044642D01*
X94735714Y-100008928D01*
X94807142Y-99973214D01*
X94950000Y-99973214D01*
X95021428Y-100008928D01*
X95057142Y-100044642D01*
X95092857Y-100116071D01*
X95092857Y-100294642D01*
X95057142Y-100366071D01*
X95021428Y-100401785D01*
X94950000Y-100437500D01*
X94807142Y-100437500D01*
X94735714Y-100401785D01*
X94700000Y-100366071D01*
X94664285Y-100294642D01*
X95914285Y-100473214D02*
X96092857Y-99973214D01*
X96271428Y-100473214D01*
X96521428Y-100651785D02*
X96557142Y-100687500D01*
X96628571Y-100723214D01*
X96807142Y-100723214D01*
X96878571Y-100687500D01*
X96914285Y-100651785D01*
X96950000Y-100580357D01*
X96950000Y-100508928D01*
X96914285Y-100401785D01*
X96485714Y-99973214D01*
X96950000Y-99973214D01*
X97271428Y-100044642D02*
X97307142Y-100008928D01*
X97271428Y-99973214D01*
X97235714Y-100008928D01*
X97271428Y-100044642D01*
X97271428Y-99973214D01*
X97771428Y-100723214D02*
X97842857Y-100723214D01*
X97914285Y-100687500D01*
X97950000Y-100651785D01*
X97985714Y-100580357D01*
X98021428Y-100437500D01*
X98021428Y-100258928D01*
X97985714Y-100116071D01*
X97950000Y-100044642D01*
X97914285Y-100008928D01*
X97842857Y-99973214D01*
X97771428Y-99973214D01*
X97700000Y-100008928D01*
X97664285Y-100044642D01*
X97628571Y-100116071D01*
X97592857Y-100258928D01*
X97592857Y-100437500D01*
X97628571Y-100580357D01*
X97664285Y-100651785D01*
X97700000Y-100687500D01*
X97771428Y-100723214D01*
X91967857Y-99410714D02*
X92396428Y-99410714D01*
X92182142Y-98660714D02*
X92182142Y-99410714D01*
X92967857Y-98660714D02*
X92967857Y-99053571D01*
X92932142Y-99125000D01*
X92860714Y-99160714D01*
X92717857Y-99160714D01*
X92646428Y-99125000D01*
X92967857Y-98696428D02*
X92896428Y-98660714D01*
X92717857Y-98660714D01*
X92646428Y-98696428D01*
X92610714Y-98767857D01*
X92610714Y-98839285D01*
X92646428Y-98910714D01*
X92717857Y-98946428D01*
X92896428Y-98946428D01*
X92967857Y-98982142D01*
X93325000Y-98660714D02*
X93325000Y-99410714D01*
X93325000Y-99125000D02*
X93396428Y-99160714D01*
X93539285Y-99160714D01*
X93610714Y-99125000D01*
X93646428Y-99089285D01*
X93682142Y-99017857D01*
X93682142Y-98803571D01*
X93646428Y-98732142D01*
X93610714Y-98696428D01*
X93539285Y-98660714D01*
X93396428Y-98660714D01*
X93325000Y-98696428D01*
X94110714Y-98660714D02*
X94039285Y-98696428D01*
X94003571Y-98732142D01*
X93967857Y-98803571D01*
X93967857Y-99017857D01*
X94003571Y-99089285D01*
X94039285Y-99125000D01*
X94110714Y-99160714D01*
X94217857Y-99160714D01*
X94289285Y-99125000D01*
X94325000Y-99089285D01*
X94360714Y-99017857D01*
X94360714Y-98803571D01*
X94325000Y-98732142D01*
X94289285Y-98696428D01*
X94217857Y-98660714D01*
X94110714Y-98660714D01*
X94682142Y-98660714D02*
X94682142Y-99160714D01*
X94682142Y-99017857D02*
X94717857Y-99089285D01*
X94753571Y-99125000D01*
X94825000Y-99160714D01*
X94896428Y-99160714D01*
X96075000Y-98660714D02*
X95717857Y-98660714D01*
X95717857Y-99410714D01*
X96646428Y-98660714D02*
X96646428Y-99053571D01*
X96610714Y-99125000D01*
X96539285Y-99160714D01*
X96396428Y-99160714D01*
X96325000Y-99125000D01*
X96646428Y-98696428D02*
X96575000Y-98660714D01*
X96396428Y-98660714D01*
X96325000Y-98696428D01*
X96289285Y-98767857D01*
X96289285Y-98839285D01*
X96325000Y-98910714D01*
X96396428Y-98946428D01*
X96575000Y-98946428D01*
X96646428Y-98982142D01*
X97003571Y-98660714D02*
X97003571Y-99410714D01*
X97003571Y-99125000D02*
X97075000Y-99160714D01*
X97217857Y-99160714D01*
X97289285Y-99125000D01*
X97325000Y-99089285D01*
X97360714Y-99017857D01*
X97360714Y-98803571D01*
X97325000Y-98732142D01*
X97289285Y-98696428D01*
X97217857Y-98660714D01*
X97075000Y-98660714D01*
X97003571Y-98696428D01*
X88735714Y-98098214D02*
X88878571Y-98098214D01*
X88950000Y-98062500D01*
X89021428Y-97991071D01*
X89057142Y-97848214D01*
X89057142Y-97598214D01*
X89021428Y-97455357D01*
X88950000Y-97383928D01*
X88878571Y-97348214D01*
X88735714Y-97348214D01*
X88664285Y-97383928D01*
X88592857Y-97455357D01*
X88557142Y-97598214D01*
X88557142Y-97848214D01*
X88592857Y-97991071D01*
X88664285Y-98062500D01*
X88735714Y-98098214D01*
X89378571Y-97848214D02*
X89378571Y-97098214D01*
X89378571Y-97812500D02*
X89450000Y-97848214D01*
X89592857Y-97848214D01*
X89664285Y-97812500D01*
X89700000Y-97776785D01*
X89735714Y-97705357D01*
X89735714Y-97491071D01*
X89700000Y-97419642D01*
X89664285Y-97383928D01*
X89592857Y-97348214D01*
X89450000Y-97348214D01*
X89378571Y-97383928D01*
X90342857Y-97383928D02*
X90271428Y-97348214D01*
X90128571Y-97348214D01*
X90057142Y-97383928D01*
X90021428Y-97455357D01*
X90021428Y-97741071D01*
X90057142Y-97812500D01*
X90128571Y-97848214D01*
X90271428Y-97848214D01*
X90342857Y-97812500D01*
X90378571Y-97741071D01*
X90378571Y-97669642D01*
X90021428Y-97598214D01*
X90700000Y-97848214D02*
X90700000Y-97348214D01*
X90700000Y-97776785D02*
X90735714Y-97812500D01*
X90807142Y-97848214D01*
X90914285Y-97848214D01*
X90985714Y-97812500D01*
X91021428Y-97741071D01*
X91021428Y-97348214D01*
X92200000Y-97741071D02*
X92307142Y-97705357D01*
X92342857Y-97669642D01*
X92378571Y-97598214D01*
X92378571Y-97491071D01*
X92342857Y-97419642D01*
X92307142Y-97383928D01*
X92235714Y-97348214D01*
X91950000Y-97348214D01*
X91950000Y-98098214D01*
X92200000Y-98098214D01*
X92271428Y-98062500D01*
X92307142Y-98026785D01*
X92342857Y-97955357D01*
X92342857Y-97883928D01*
X92307142Y-97812500D01*
X92271428Y-97776785D01*
X92200000Y-97741071D01*
X91950000Y-97741071D01*
X92700000Y-97348214D02*
X92700000Y-97848214D01*
X92700000Y-98098214D02*
X92664285Y-98062500D01*
X92700000Y-98026785D01*
X92735714Y-98062500D01*
X92700000Y-98098214D01*
X92700000Y-98026785D01*
X93164285Y-97348214D02*
X93092857Y-97383928D01*
X93057142Y-97419642D01*
X93021428Y-97491071D01*
X93021428Y-97705357D01*
X93057142Y-97776785D01*
X93092857Y-97812500D01*
X93164285Y-97848214D01*
X93271428Y-97848214D01*
X93342857Y-97812500D01*
X93378571Y-97776785D01*
X93414285Y-97705357D01*
X93414285Y-97491071D01*
X93378571Y-97419642D01*
X93342857Y-97383928D01*
X93271428Y-97348214D01*
X93164285Y-97348214D01*
X94021428Y-97383928D02*
X93950000Y-97348214D01*
X93807142Y-97348214D01*
X93735714Y-97383928D01*
X93700000Y-97455357D01*
X93700000Y-97741071D01*
X93735714Y-97812500D01*
X93807142Y-97848214D01*
X93950000Y-97848214D01*
X94021428Y-97812500D01*
X94057142Y-97741071D01*
X94057142Y-97669642D01*
X93700000Y-97598214D01*
X94700000Y-97383928D02*
X94628571Y-97348214D01*
X94485714Y-97348214D01*
X94414285Y-97383928D01*
X94378571Y-97419642D01*
X94342857Y-97491071D01*
X94342857Y-97705357D01*
X94378571Y-97776785D01*
X94414285Y-97812500D01*
X94485714Y-97848214D01*
X94628571Y-97848214D01*
X94700000Y-97812500D01*
X95128571Y-97348214D02*
X95057142Y-97383928D01*
X95021428Y-97419642D01*
X94985714Y-97491071D01*
X94985714Y-97705357D01*
X95021428Y-97776785D01*
X95057142Y-97812500D01*
X95128571Y-97848214D01*
X95235714Y-97848214D01*
X95307142Y-97812500D01*
X95342857Y-97776785D01*
X95378571Y-97705357D01*
X95378571Y-97491071D01*
X95342857Y-97419642D01*
X95307142Y-97383928D01*
X95235714Y-97348214D01*
X95128571Y-97348214D01*
X95700000Y-97848214D02*
X95700000Y-97348214D01*
X95700000Y-97776785D02*
X95735714Y-97812500D01*
X95807142Y-97848214D01*
X95914285Y-97848214D01*
X95985714Y-97812500D01*
X96021428Y-97741071D01*
X96021428Y-97348214D01*
X96485714Y-97348214D02*
X96414285Y-97383928D01*
X96378571Y-97419642D01*
X96342857Y-97491071D01*
X96342857Y-97705357D01*
X96378571Y-97776785D01*
X96414285Y-97812500D01*
X96485714Y-97848214D01*
X96592857Y-97848214D01*
X96664285Y-97812500D01*
X96700000Y-97776785D01*
X96735714Y-97705357D01*
X96735714Y-97491071D01*
X96700000Y-97419642D01*
X96664285Y-97383928D01*
X96592857Y-97348214D01*
X96485714Y-97348214D01*
X97057142Y-97348214D02*
X97057142Y-97848214D01*
X97057142Y-97776785D02*
X97092857Y-97812500D01*
X97164285Y-97848214D01*
X97271428Y-97848214D01*
X97342857Y-97812500D01*
X97378571Y-97741071D01*
X97378571Y-97348214D01*
X97378571Y-97741071D02*
X97414285Y-97812500D01*
X97485714Y-97848214D01*
X97592857Y-97848214D01*
X97664285Y-97812500D01*
X97700000Y-97741071D01*
X97700000Y-97348214D01*
X97985714Y-97848214D02*
X98164285Y-97348214D01*
X98342857Y-97848214D02*
X98164285Y-97348214D01*
X98092857Y-97169642D01*
X98057142Y-97133928D01*
X97985714Y-97098214D01*
X99557142Y-97348214D02*
X99200000Y-97348214D01*
X99200000Y-98098214D01*
X100128571Y-97348214D02*
X100128571Y-97741071D01*
X100092857Y-97812500D01*
X100021428Y-97848214D01*
X99878571Y-97848214D01*
X99807142Y-97812500D01*
X100128571Y-97383928D02*
X100057142Y-97348214D01*
X99878571Y-97348214D01*
X99807142Y-97383928D01*
X99771428Y-97455357D01*
X99771428Y-97526785D01*
X99807142Y-97598214D01*
X99878571Y-97633928D01*
X100057142Y-97633928D01*
X100128571Y-97669642D01*
X100485714Y-97348214D02*
X100485714Y-98098214D01*
X100485714Y-97812500D02*
X100557142Y-97848214D01*
X100700000Y-97848214D01*
X100771428Y-97812500D01*
X100807142Y-97776785D01*
X100842857Y-97705357D01*
X100842857Y-97491071D01*
X100807142Y-97419642D01*
X100771428Y-97383928D01*
X100700000Y-97348214D01*
X100557142Y-97348214D01*
X100485714Y-97383928D01*
D12*
X67000000Y-168500000D02*
X67000000Y-94500000D01*
X210000000Y-168500000D02*
X67000000Y-168500000D01*
X210000000Y-94500000D02*
X210000000Y-168500000D01*
X67000000Y-94500000D02*
X210000000Y-94500000D01*
D13*
G36*
X114791241Y-97130816D02*
G01*
X114817753Y-97117718D01*
X114850447Y-97094894D01*
X114874275Y-97070004D01*
X114890594Y-97038751D01*
X114900760Y-96996834D01*
X114906128Y-96939956D01*
X114908056Y-96863816D01*
X114908169Y-96831083D01*
X114907839Y-96759344D01*
X114906473Y-96708073D01*
X114903500Y-96672596D01*
X114898351Y-96648237D01*
X114890457Y-96630320D01*
X114882243Y-96618098D01*
X114829813Y-96566095D01*
X114768070Y-96534816D01*
X114701464Y-96525408D01*
X114634442Y-96539020D01*
X114613208Y-96548646D01*
X114562376Y-96575141D01*
X114562376Y-96159948D01*
X114599475Y-96179132D01*
X114648357Y-96193975D01*
X114708439Y-96197778D01*
X114768436Y-96190757D01*
X114813744Y-96174987D01*
X114851325Y-96144953D01*
X114883436Y-96101976D01*
X114885850Y-96097564D01*
X114896033Y-96076779D01*
X114903470Y-96055830D01*
X114908589Y-96030452D01*
X114911819Y-95996382D01*
X114913587Y-95949359D01*
X114914323Y-95885118D01*
X114914456Y-95812824D01*
X114914456Y-95582178D01*
X114776139Y-95582178D01*
X114776139Y-96007467D01*
X114737451Y-96040021D01*
X114697262Y-96066060D01*
X114659203Y-96070795D01*
X114620934Y-96058611D01*
X114600538Y-96046680D01*
X114585358Y-96029687D01*
X114574562Y-96004005D01*
X114567317Y-95966009D01*
X114562792Y-95912074D01*
X114560156Y-95838575D01*
X114559228Y-95789653D01*
X114556089Y-95588465D01*
X114490074Y-95584664D01*
X114424060Y-95580864D01*
X114424060Y-96829350D01*
X114562376Y-96829350D01*
X114565903Y-96759746D01*
X114577785Y-96711431D01*
X114599980Y-96681369D01*
X114634441Y-96666529D01*
X114669258Y-96663564D01*
X114708671Y-96666972D01*
X114734829Y-96680383D01*
X114751186Y-96698104D01*
X114764063Y-96717165D01*
X114771728Y-96738399D01*
X114775139Y-96768151D01*
X114775251Y-96812764D01*
X114774103Y-96850120D01*
X114771468Y-96906396D01*
X114767544Y-96943342D01*
X114760937Y-96966777D01*
X114750251Y-96982520D01*
X114740167Y-96991620D01*
X114698030Y-97011463D01*
X114648160Y-97014668D01*
X114619524Y-97007832D01*
X114591172Y-96983536D01*
X114572391Y-96936272D01*
X114563288Y-96866376D01*
X114562376Y-96829350D01*
X114424060Y-96829350D01*
X114424060Y-97141386D01*
X114493218Y-97141386D01*
X114534740Y-97139744D01*
X114556162Y-97133913D01*
X114562374Y-97122539D01*
X114562376Y-97122202D01*
X114565258Y-97111062D01*
X114577970Y-97112327D01*
X114603243Y-97124567D01*
X114662131Y-97143293D01*
X114728385Y-97145261D01*
X114791241Y-97130816D01*
X114791241Y-97130816D01*
G37*
X114791241Y-97130816D02*
X114817753Y-97117718D01*
X114850447Y-97094894D01*
X114874275Y-97070004D01*
X114890594Y-97038751D01*
X114900760Y-96996834D01*
X114906128Y-96939956D01*
X114908056Y-96863816D01*
X114908169Y-96831083D01*
X114907839Y-96759344D01*
X114906473Y-96708073D01*
X114903500Y-96672596D01*
X114898351Y-96648237D01*
X114890457Y-96630320D01*
X114882243Y-96618098D01*
X114829813Y-96566095D01*
X114768070Y-96534816D01*
X114701464Y-96525408D01*
X114634442Y-96539020D01*
X114613208Y-96548646D01*
X114562376Y-96575141D01*
X114562376Y-96159948D01*
X114599475Y-96179132D01*
X114648357Y-96193975D01*
X114708439Y-96197778D01*
X114768436Y-96190757D01*
X114813744Y-96174987D01*
X114851325Y-96144953D01*
X114883436Y-96101976D01*
X114885850Y-96097564D01*
X114896033Y-96076779D01*
X114903470Y-96055830D01*
X114908589Y-96030452D01*
X114911819Y-95996382D01*
X114913587Y-95949359D01*
X114914323Y-95885118D01*
X114914456Y-95812824D01*
X114914456Y-95582178D01*
X114776139Y-95582178D01*
X114776139Y-96007467D01*
X114737451Y-96040021D01*
X114697262Y-96066060D01*
X114659203Y-96070795D01*
X114620934Y-96058611D01*
X114600538Y-96046680D01*
X114585358Y-96029687D01*
X114574562Y-96004005D01*
X114567317Y-95966009D01*
X114562792Y-95912074D01*
X114560156Y-95838575D01*
X114559228Y-95789653D01*
X114556089Y-95588465D01*
X114490074Y-95584664D01*
X114424060Y-95580864D01*
X114424060Y-96829350D01*
X114562376Y-96829350D01*
X114565903Y-96759746D01*
X114577785Y-96711431D01*
X114599980Y-96681369D01*
X114634441Y-96666529D01*
X114669258Y-96663564D01*
X114708671Y-96666972D01*
X114734829Y-96680383D01*
X114751186Y-96698104D01*
X114764063Y-96717165D01*
X114771728Y-96738399D01*
X114775139Y-96768151D01*
X114775251Y-96812764D01*
X114774103Y-96850120D01*
X114771468Y-96906396D01*
X114767544Y-96943342D01*
X114760937Y-96966777D01*
X114750251Y-96982520D01*
X114740167Y-96991620D01*
X114698030Y-97011463D01*
X114648160Y-97014668D01*
X114619524Y-97007832D01*
X114591172Y-96983536D01*
X114572391Y-96936272D01*
X114563288Y-96866376D01*
X114562376Y-96829350D01*
X114424060Y-96829350D01*
X114424060Y-97141386D01*
X114493218Y-97141386D01*
X114534740Y-97139744D01*
X114556162Y-97133913D01*
X114562374Y-97122539D01*
X114562376Y-97122202D01*
X114565258Y-97111062D01*
X114577970Y-97112327D01*
X114603243Y-97124567D01*
X114662131Y-97143293D01*
X114728385Y-97145261D01*
X114791241Y-97130816D01*
G36*
X115315790Y-96193445D02*
G01*
X115374945Y-96177661D01*
X115419977Y-96149052D01*
X115451754Y-96111581D01*
X115461634Y-96095589D01*
X115468927Y-96078837D01*
X115474026Y-96057408D01*
X115477321Y-96027384D01*
X115479203Y-95984846D01*
X115480063Y-95925878D01*
X115480293Y-95846560D01*
X115480297Y-95825516D01*
X115480297Y-95582178D01*
X115419941Y-95582178D01*
X115381443Y-95584874D01*
X115352977Y-95591705D01*
X115345845Y-95595917D01*
X115326348Y-95603187D01*
X115306434Y-95595917D01*
X115273647Y-95586840D01*
X115226022Y-95583187D01*
X115173236Y-95584772D01*
X115124964Y-95591411D01*
X115096782Y-95599928D01*
X115042247Y-95634937D01*
X115008165Y-95683521D01*
X114992843Y-95748118D01*
X114992701Y-95749777D01*
X114994045Y-95778434D01*
X115115644Y-95778434D01*
X115126274Y-95745839D01*
X115143590Y-95727495D01*
X115178348Y-95713621D01*
X115224227Y-95708083D01*
X115271012Y-95710809D01*
X115308486Y-95721726D01*
X115318985Y-95728731D01*
X115337332Y-95761096D01*
X115341980Y-95797889D01*
X115341980Y-95846237D01*
X115272418Y-95846237D01*
X115206333Y-95841150D01*
X115156236Y-95826737D01*
X115125071Y-95804271D01*
X115115644Y-95778434D01*
X114994045Y-95778434D01*
X114996013Y-95820353D01*
X115019290Y-95876155D01*
X115063052Y-95918353D01*
X115069101Y-95922192D01*
X115095093Y-95934691D01*
X115127265Y-95942260D01*
X115172240Y-95945939D01*
X115225669Y-95946784D01*
X115341980Y-95946831D01*
X115341980Y-95995589D01*
X115337047Y-96033419D01*
X115324457Y-96058764D01*
X115322983Y-96060113D01*
X115294966Y-96071200D01*
X115252674Y-96075497D01*
X115205936Y-96073385D01*
X115164582Y-96065244D01*
X115140043Y-96053035D01*
X115126747Y-96043254D01*
X115112706Y-96041387D01*
X115093329Y-96049400D01*
X115064024Y-96069261D01*
X115020197Y-96102937D01*
X115016175Y-96106091D01*
X115018236Y-96117764D01*
X115035432Y-96137178D01*
X115061567Y-96158752D01*
X115090448Y-96176904D01*
X115099522Y-96181191D01*
X115132620Y-96189744D01*
X115181120Y-96195845D01*
X115235305Y-96198292D01*
X115237839Y-96198297D01*
X115315790Y-96193445D01*
X115315790Y-96193445D01*
G37*
X115315790Y-96193445D02*
X115374945Y-96177661D01*
X115419977Y-96149052D01*
X115451754Y-96111581D01*
X115461634Y-96095589D01*
X115468927Y-96078837D01*
X115474026Y-96057408D01*
X115477321Y-96027384D01*
X115479203Y-95984846D01*
X115480063Y-95925878D01*
X115480293Y-95846560D01*
X115480297Y-95825516D01*
X115480297Y-95582178D01*
X115419941Y-95582178D01*
X115381443Y-95584874D01*
X115352977Y-95591705D01*
X115345845Y-95595917D01*
X115326348Y-95603187D01*
X115306434Y-95595917D01*
X115273647Y-95586840D01*
X115226022Y-95583187D01*
X115173236Y-95584772D01*
X115124964Y-95591411D01*
X115096782Y-95599928D01*
X115042247Y-95634937D01*
X115008165Y-95683521D01*
X114992843Y-95748118D01*
X114992701Y-95749777D01*
X114994045Y-95778434D01*
X115115644Y-95778434D01*
X115126274Y-95745839D01*
X115143590Y-95727495D01*
X115178348Y-95713621D01*
X115224227Y-95708083D01*
X115271012Y-95710809D01*
X115308486Y-95721726D01*
X115318985Y-95728731D01*
X115337332Y-95761096D01*
X115341980Y-95797889D01*
X115341980Y-95846237D01*
X115272418Y-95846237D01*
X115206333Y-95841150D01*
X115156236Y-95826737D01*
X115125071Y-95804271D01*
X115115644Y-95778434D01*
X114994045Y-95778434D01*
X114996013Y-95820353D01*
X115019290Y-95876155D01*
X115063052Y-95918353D01*
X115069101Y-95922192D01*
X115095093Y-95934691D01*
X115127265Y-95942260D01*
X115172240Y-95945939D01*
X115225669Y-95946784D01*
X115341980Y-95946831D01*
X115341980Y-95995589D01*
X115337047Y-96033419D01*
X115324457Y-96058764D01*
X115322983Y-96060113D01*
X115294966Y-96071200D01*
X115252674Y-96075497D01*
X115205936Y-96073385D01*
X115164582Y-96065244D01*
X115140043Y-96053035D01*
X115126747Y-96043254D01*
X115112706Y-96041387D01*
X115093329Y-96049400D01*
X115064024Y-96069261D01*
X115020197Y-96102937D01*
X115016175Y-96106091D01*
X115018236Y-96117764D01*
X115035432Y-96137178D01*
X115061567Y-96158752D01*
X115090448Y-96176904D01*
X115099522Y-96181191D01*
X115132620Y-96189744D01*
X115181120Y-96195845D01*
X115235305Y-96198292D01*
X115237839Y-96198297D01*
X115315790Y-96193445D01*
G36*
X115706644Y-96196980D02*
G01*
X115725461Y-96191340D01*
X115731527Y-96178947D01*
X115731782Y-96173353D01*
X115732871Y-96157770D01*
X115740368Y-96155324D01*
X115760619Y-96166007D01*
X115772649Y-96173306D01*
X115810600Y-96188937D01*
X115855928Y-96196666D01*
X115903456Y-96197260D01*
X115948005Y-96191487D01*
X115984398Y-96180116D01*
X116007457Y-96163912D01*
X116012004Y-96143645D01*
X116009709Y-96138157D01*
X115992980Y-96115374D01*
X115967037Y-96087353D01*
X115962345Y-96082823D01*
X115937617Y-96061995D01*
X115916282Y-96055265D01*
X115886445Y-96059962D01*
X115874492Y-96063083D01*
X115837295Y-96070579D01*
X115811141Y-96067208D01*
X115789054Y-96055319D01*
X115768822Y-96039365D01*
X115753921Y-96019300D01*
X115743566Y-95991298D01*
X115736971Y-95951533D01*
X115733351Y-95896177D01*
X115731922Y-95821406D01*
X115731782Y-95776260D01*
X115731782Y-95582178D01*
X115606040Y-95582178D01*
X115606040Y-96198317D01*
X115668911Y-96198317D01*
X115706644Y-96196980D01*
X115706644Y-96196980D01*
G37*
X115706644Y-96196980D02*
X115725461Y-96191340D01*
X115731527Y-96178947D01*
X115731782Y-96173353D01*
X115732871Y-96157770D01*
X115740368Y-96155324D01*
X115760619Y-96166007D01*
X115772649Y-96173306D01*
X115810600Y-96188937D01*
X115855928Y-96196666D01*
X115903456Y-96197260D01*
X115948005Y-96191487D01*
X115984398Y-96180116D01*
X116007457Y-96163912D01*
X116012004Y-96143645D01*
X116009709Y-96138157D01*
X115992980Y-96115374D01*
X115967037Y-96087353D01*
X115962345Y-96082823D01*
X115937617Y-96061995D01*
X115916282Y-96055265D01*
X115886445Y-96059962D01*
X115874492Y-96063083D01*
X115837295Y-96070579D01*
X115811141Y-96067208D01*
X115789054Y-96055319D01*
X115768822Y-96039365D01*
X115753921Y-96019300D01*
X115743566Y-95991298D01*
X115736971Y-95951533D01*
X115733351Y-95896177D01*
X115731922Y-95821406D01*
X115731782Y-95776260D01*
X115731782Y-95582178D01*
X115606040Y-95582178D01*
X115606040Y-96198317D01*
X115668911Y-96198317D01*
X115706644Y-96196980D01*
G36*
X116498812Y-95582178D02*
G01*
X116429654Y-95582178D01*
X116389512Y-95583355D01*
X116368606Y-95588228D01*
X116361078Y-95598814D01*
X116360495Y-95605971D01*
X116359226Y-95620324D01*
X116351221Y-95623077D01*
X116330185Y-95614229D01*
X116313827Y-95605971D01*
X116251023Y-95586403D01*
X116182752Y-95585271D01*
X116127248Y-95599865D01*
X116075562Y-95635123D01*
X116036162Y-95687165D01*
X116014587Y-95748550D01*
X116014038Y-95751982D01*
X116010833Y-95789429D01*
X116009239Y-95843187D01*
X116009367Y-95883845D01*
X116146721Y-95883845D01*
X116149903Y-95829806D01*
X116157141Y-95785265D01*
X116166940Y-95760112D01*
X116204011Y-95725740D01*
X116248026Y-95713418D01*
X116293416Y-95723382D01*
X116332203Y-95753105D01*
X116346892Y-95773095D01*
X116355481Y-95796950D01*
X116359504Y-95831770D01*
X116360495Y-95884070D01*
X116358722Y-95935861D01*
X116354037Y-95981366D01*
X116347397Y-96011819D01*
X116346290Y-96014548D01*
X116319509Y-96047000D01*
X116280421Y-96064817D01*
X116236685Y-96067694D01*
X116195962Y-96055326D01*
X116165913Y-96027407D01*
X116162796Y-96021852D01*
X116153039Y-95987978D01*
X116147723Y-95939272D01*
X116146721Y-95883845D01*
X116009367Y-95883845D01*
X116009432Y-95904460D01*
X116010336Y-95937437D01*
X116016486Y-96019019D01*
X116029267Y-96080270D01*
X116050529Y-96125551D01*
X116082122Y-96159221D01*
X116112793Y-96178986D01*
X116155646Y-96192880D01*
X116208944Y-96197646D01*
X116263520Y-96193764D01*
X116310208Y-96181718D01*
X116334876Y-96167307D01*
X116360495Y-96144122D01*
X116360495Y-96437227D01*
X116498812Y-96437227D01*
X116498812Y-95582178D01*
X116498812Y-95582178D01*
G37*
X116498812Y-95582178D02*
X116429654Y-95582178D01*
X116389512Y-95583355D01*
X116368606Y-95588228D01*
X116361078Y-95598814D01*
X116360495Y-95605971D01*
X116359226Y-95620324D01*
X116351221Y-95623077D01*
X116330185Y-95614229D01*
X116313827Y-95605971D01*
X116251023Y-95586403D01*
X116182752Y-95585271D01*
X116127248Y-95599865D01*
X116075562Y-95635123D01*
X116036162Y-95687165D01*
X116014587Y-95748550D01*
X116014038Y-95751982D01*
X116010833Y-95789429D01*
X116009239Y-95843187D01*
X116009367Y-95883845D01*
X116146721Y-95883845D01*
X116149903Y-95829806D01*
X116157141Y-95785265D01*
X116166940Y-95760112D01*
X116204011Y-95725740D01*
X116248026Y-95713418D01*
X116293416Y-95723382D01*
X116332203Y-95753105D01*
X116346892Y-95773095D01*
X116355481Y-95796950D01*
X116359504Y-95831770D01*
X116360495Y-95884070D01*
X116358722Y-95935861D01*
X116354037Y-95981366D01*
X116347397Y-96011819D01*
X116346290Y-96014548D01*
X116319509Y-96047000D01*
X116280421Y-96064817D01*
X116236685Y-96067694D01*
X116195962Y-96055326D01*
X116165913Y-96027407D01*
X116162796Y-96021852D01*
X116153039Y-95987978D01*
X116147723Y-95939272D01*
X116146721Y-95883845D01*
X116009367Y-95883845D01*
X116009432Y-95904460D01*
X116010336Y-95937437D01*
X116016486Y-96019019D01*
X116029267Y-96080270D01*
X116050529Y-96125551D01*
X116082122Y-96159221D01*
X116112793Y-96178986D01*
X116155646Y-96192880D01*
X116208944Y-96197646D01*
X116263520Y-96193764D01*
X116310208Y-96181718D01*
X116334876Y-96167307D01*
X116360495Y-96144122D01*
X116360495Y-96437227D01*
X116498812Y-96437227D01*
X116498812Y-95582178D01*
G36*
X116981524Y-96195763D02*
G01*
X117031255Y-96192029D01*
X117161291Y-95802227D01*
X117181678Y-95871386D01*
X117193946Y-95914126D01*
X117210085Y-95971885D01*
X117227512Y-96035375D01*
X117236726Y-96069430D01*
X117271388Y-96198317D01*
X117414391Y-96198317D01*
X117371646Y-96063143D01*
X117350596Y-95996658D01*
X117325167Y-95916461D01*
X117298610Y-95832807D01*
X117274902Y-95758218D01*
X117220902Y-95588465D01*
X117162598Y-95584672D01*
X117104295Y-95580878D01*
X117072679Y-95685266D01*
X117053182Y-95750111D01*
X117031904Y-95821600D01*
X117013308Y-95884737D01*
X117012574Y-95887250D01*
X116998684Y-95930031D01*
X116986429Y-95959221D01*
X116977846Y-95970259D01*
X116976082Y-95968982D01*
X116969891Y-95951870D01*
X116958128Y-95915213D01*
X116942225Y-95863622D01*
X116923614Y-95801706D01*
X116913543Y-95767648D01*
X116859007Y-95582178D01*
X116743264Y-95582178D01*
X116650737Y-95874529D01*
X116624744Y-95956538D01*
X116601066Y-96031013D01*
X116580820Y-96094456D01*
X116565126Y-96143368D01*
X116555102Y-96174251D01*
X116552055Y-96183274D01*
X116554467Y-96192513D01*
X116573408Y-96196559D01*
X116612823Y-96196154D01*
X116618993Y-96195848D01*
X116692086Y-96192029D01*
X116739957Y-96015990D01*
X116757553Y-95951789D01*
X116773277Y-95895351D01*
X116785746Y-95851578D01*
X116793574Y-95825370D01*
X116795020Y-95821097D01*
X116801014Y-95826010D01*
X116813101Y-95851468D01*
X116829893Y-95894003D01*
X116850003Y-95950150D01*
X116867003Y-96000870D01*
X116931794Y-96199496D01*
X116981524Y-96195763D01*
X116981524Y-96195763D01*
G37*
X116981524Y-96195763D02*
X117031255Y-96192029D01*
X117161291Y-95802227D01*
X117181678Y-95871386D01*
X117193946Y-95914126D01*
X117210085Y-95971885D01*
X117227512Y-96035375D01*
X117236726Y-96069430D01*
X117271388Y-96198317D01*
X117414391Y-96198317D01*
X117371646Y-96063143D01*
X117350596Y-95996658D01*
X117325167Y-95916461D01*
X117298610Y-95832807D01*
X117274902Y-95758218D01*
X117220902Y-95588465D01*
X117162598Y-95584672D01*
X117104295Y-95580878D01*
X117072679Y-95685266D01*
X117053182Y-95750111D01*
X117031904Y-95821600D01*
X117013308Y-95884737D01*
X117012574Y-95887250D01*
X116998684Y-95930031D01*
X116986429Y-95959221D01*
X116977846Y-95970259D01*
X116976082Y-95968982D01*
X116969891Y-95951870D01*
X116958128Y-95915213D01*
X116942225Y-95863622D01*
X116923614Y-95801706D01*
X116913543Y-95767648D01*
X116859007Y-95582178D01*
X116743264Y-95582178D01*
X116650737Y-95874529D01*
X116624744Y-95956538D01*
X116601066Y-96031013D01*
X116580820Y-96094456D01*
X116565126Y-96143368D01*
X116555102Y-96174251D01*
X116552055Y-96183274D01*
X116554467Y-96192513D01*
X116573408Y-96196559D01*
X116612823Y-96196154D01*
X116618993Y-96195848D01*
X116692086Y-96192029D01*
X116739957Y-96015990D01*
X116757553Y-95951789D01*
X116773277Y-95895351D01*
X116785746Y-95851578D01*
X116793574Y-95825370D01*
X116795020Y-95821097D01*
X116801014Y-95826010D01*
X116813101Y-95851468D01*
X116829893Y-95894003D01*
X116850003Y-95950150D01*
X116867003Y-96000870D01*
X116931794Y-96199496D01*
X116981524Y-96195763D01*
G36*
X117738411Y-96194583D02*
G01*
X117791411Y-96181710D01*
X117806731Y-96174890D01*
X117836428Y-96157026D01*
X117859220Y-96136907D01*
X117876083Y-96111038D01*
X117887998Y-96075927D01*
X117895942Y-96028080D01*
X117900894Y-95964004D01*
X117903831Y-95880206D01*
X117904947Y-95824232D01*
X117909052Y-95582178D01*
X117838932Y-95582178D01*
X117796393Y-95583962D01*
X117774476Y-95590058D01*
X117768812Y-95600294D01*
X117765821Y-95611363D01*
X117752451Y-95609246D01*
X117734233Y-95600371D01*
X117688624Y-95586767D01*
X117630007Y-95583101D01*
X117568354Y-95589097D01*
X117513638Y-95604479D01*
X117508730Y-95606614D01*
X117458723Y-95641745D01*
X117425756Y-95690581D01*
X117410587Y-95747667D01*
X117411746Y-95768176D01*
X117535508Y-95768176D01*
X117546413Y-95740575D01*
X117578745Y-95720796D01*
X117630910Y-95710181D01*
X117658787Y-95708772D01*
X117705247Y-95712380D01*
X117736129Y-95726403D01*
X117743664Y-95733069D01*
X117764076Y-95769334D01*
X117768812Y-95802227D01*
X117768812Y-95846237D01*
X117707513Y-95846237D01*
X117636256Y-95842605D01*
X117586276Y-95831182D01*
X117554696Y-95811176D01*
X117547626Y-95802257D01*
X117535508Y-95768176D01*
X117411746Y-95768176D01*
X117413971Y-95807544D01*
X117436663Y-95864756D01*
X117467624Y-95903420D01*
X117486376Y-95920136D01*
X117504733Y-95931122D01*
X117528619Y-95937820D01*
X117563957Y-95941674D01*
X117616669Y-95944127D01*
X117637577Y-95944832D01*
X117768812Y-95949121D01*
X117768620Y-95988842D01*
X117763537Y-96030595D01*
X117745162Y-96055842D01*
X117708039Y-96071970D01*
X117707043Y-96072258D01*
X117654410Y-96078600D01*
X117602906Y-96070316D01*
X117564630Y-96050173D01*
X117549272Y-96040227D01*
X117532730Y-96041603D01*
X117507275Y-96056013D01*
X117492328Y-96066183D01*
X117463091Y-96087912D01*
X117444980Y-96104200D01*
X117442074Y-96108863D01*
X117454040Y-96132995D01*
X117489396Y-96161815D01*
X117504753Y-96171539D01*
X117548901Y-96188286D01*
X117608398Y-96197773D01*
X117674487Y-96199905D01*
X117738411Y-96194583D01*
X117738411Y-96194583D01*
G37*
X117738411Y-96194583D02*
X117791411Y-96181710D01*
X117806731Y-96174890D01*
X117836428Y-96157026D01*
X117859220Y-96136907D01*
X117876083Y-96111038D01*
X117887998Y-96075927D01*
X117895942Y-96028080D01*
X117900894Y-95964004D01*
X117903831Y-95880206D01*
X117904947Y-95824232D01*
X117909052Y-95582178D01*
X117838932Y-95582178D01*
X117796393Y-95583962D01*
X117774476Y-95590058D01*
X117768812Y-95600294D01*
X117765821Y-95611363D01*
X117752451Y-95609246D01*
X117734233Y-95600371D01*
X117688624Y-95586767D01*
X117630007Y-95583101D01*
X117568354Y-95589097D01*
X117513638Y-95604479D01*
X117508730Y-95606614D01*
X117458723Y-95641745D01*
X117425756Y-95690581D01*
X117410587Y-95747667D01*
X117411746Y-95768176D01*
X117535508Y-95768176D01*
X117546413Y-95740575D01*
X117578745Y-95720796D01*
X117630910Y-95710181D01*
X117658787Y-95708772D01*
X117705247Y-95712380D01*
X117736129Y-95726403D01*
X117743664Y-95733069D01*
X117764076Y-95769334D01*
X117768812Y-95802227D01*
X117768812Y-95846237D01*
X117707513Y-95846237D01*
X117636256Y-95842605D01*
X117586276Y-95831182D01*
X117554696Y-95811176D01*
X117547626Y-95802257D01*
X117535508Y-95768176D01*
X117411746Y-95768176D01*
X117413971Y-95807544D01*
X117436663Y-95864756D01*
X117467624Y-95903420D01*
X117486376Y-95920136D01*
X117504733Y-95931122D01*
X117528619Y-95937820D01*
X117563957Y-95941674D01*
X117616669Y-95944127D01*
X117637577Y-95944832D01*
X117768812Y-95949121D01*
X117768620Y-95988842D01*
X117763537Y-96030595D01*
X117745162Y-96055842D01*
X117708039Y-96071970D01*
X117707043Y-96072258D01*
X117654410Y-96078600D01*
X117602906Y-96070316D01*
X117564630Y-96050173D01*
X117549272Y-96040227D01*
X117532730Y-96041603D01*
X117507275Y-96056013D01*
X117492328Y-96066183D01*
X117463091Y-96087912D01*
X117444980Y-96104200D01*
X117442074Y-96108863D01*
X117454040Y-96132995D01*
X117489396Y-96161815D01*
X117504753Y-96171539D01*
X117548901Y-96188286D01*
X117608398Y-96197773D01*
X117674487Y-96199905D01*
X117738411Y-96194583D01*
G36*
X118335255Y-96198514D02*
G01*
X118383595Y-96188985D01*
X118411114Y-96174875D01*
X118440064Y-96151432D01*
X118398876Y-96099429D01*
X118373482Y-96067936D01*
X118356238Y-96052572D01*
X118339102Y-96050224D01*
X118314027Y-96057783D01*
X118302257Y-96062059D01*
X118254270Y-96068369D01*
X118210324Y-96054844D01*
X118178060Y-96024290D01*
X118172819Y-96014548D01*
X118167112Y-95988742D01*
X118162706Y-95941183D01*
X118159811Y-95875242D01*
X118158631Y-95794290D01*
X118158614Y-95782774D01*
X118158614Y-95582178D01*
X118020297Y-95582178D01*
X118020297Y-96198317D01*
X118089456Y-96198317D01*
X118129333Y-96197275D01*
X118150107Y-96192642D01*
X118157789Y-96182151D01*
X118158614Y-96172255D01*
X118158614Y-96146194D01*
X118191745Y-96172255D01*
X118229735Y-96190035D01*
X118280770Y-96198826D01*
X118335255Y-96198514D01*
X118335255Y-96198514D01*
G37*
X118335255Y-96198514D02*
X118383595Y-96188985D01*
X118411114Y-96174875D01*
X118440064Y-96151432D01*
X118398876Y-96099429D01*
X118373482Y-96067936D01*
X118356238Y-96052572D01*
X118339102Y-96050224D01*
X118314027Y-96057783D01*
X118302257Y-96062059D01*
X118254270Y-96068369D01*
X118210324Y-96054844D01*
X118178060Y-96024290D01*
X118172819Y-96014548D01*
X118167112Y-95988742D01*
X118162706Y-95941183D01*
X118159811Y-95875242D01*
X118158631Y-95794290D01*
X118158614Y-95782774D01*
X118158614Y-95582178D01*
X118020297Y-95582178D01*
X118020297Y-96198317D01*
X118089456Y-96198317D01*
X118129333Y-96197275D01*
X118150107Y-96192642D01*
X118157789Y-96182151D01*
X118158614Y-96172255D01*
X118158614Y-96146194D01*
X118191745Y-96172255D01*
X118229735Y-96190035D01*
X118280770Y-96198826D01*
X118335255Y-96198514D01*
G36*
X118732581Y-96195030D02*
G01*
X118792685Y-96179403D01*
X118843021Y-96147152D01*
X118867393Y-96123060D01*
X118907345Y-96066105D01*
X118930242Y-96000035D01*
X118938108Y-95918818D01*
X118938148Y-95912252D01*
X118938218Y-95846237D01*
X118558264Y-95846237D01*
X118566363Y-95811658D01*
X118580987Y-95780341D01*
X118606581Y-95747709D01*
X118611935Y-95742500D01*
X118657943Y-95714306D01*
X118710410Y-95709525D01*
X118770803Y-95728074D01*
X118781040Y-95733069D01*
X118812439Y-95748255D01*
X118833470Y-95756906D01*
X118837139Y-95757707D01*
X118849948Y-95749937D01*
X118874378Y-95730928D01*
X118886779Y-95720540D01*
X118912476Y-95696679D01*
X118920915Y-95680923D01*
X118915058Y-95666429D01*
X118911928Y-95662466D01*
X118890725Y-95645121D01*
X118855738Y-95624041D01*
X118831337Y-95611735D01*
X118762072Y-95590054D01*
X118685388Y-95583029D01*
X118612765Y-95591353D01*
X118592426Y-95597314D01*
X118529476Y-95631048D01*
X118482815Y-95682955D01*
X118452173Y-95753541D01*
X118437282Y-95843308D01*
X118435647Y-95890247D01*
X118440421Y-95958587D01*
X118560990Y-95958587D01*
X118572652Y-95953535D01*
X118603998Y-95949571D01*
X118649571Y-95947232D01*
X118680446Y-95946831D01*
X118735981Y-95947217D01*
X118771033Y-95949025D01*
X118790262Y-95953227D01*
X118798330Y-95960797D01*
X118799901Y-95971782D01*
X118789121Y-96005619D01*
X118761980Y-96039060D01*
X118726277Y-96064728D01*
X118690560Y-96075228D01*
X118642048Y-96065914D01*
X118600053Y-96038987D01*
X118570936Y-96000173D01*
X118560990Y-95958587D01*
X118440421Y-95958587D01*
X118442599Y-95989764D01*
X118464055Y-96069051D01*
X118500470Y-96128737D01*
X118552297Y-96169451D01*
X118619990Y-96191821D01*
X118656662Y-96196129D01*
X118732581Y-96195030D01*
X118732581Y-96195030D01*
G37*
X118732581Y-96195030D02*
X118792685Y-96179403D01*
X118843021Y-96147152D01*
X118867393Y-96123060D01*
X118907345Y-96066105D01*
X118930242Y-96000035D01*
X118938108Y-95918818D01*
X118938148Y-95912252D01*
X118938218Y-95846237D01*
X118558264Y-95846237D01*
X118566363Y-95811658D01*
X118580987Y-95780341D01*
X118606581Y-95747709D01*
X118611935Y-95742500D01*
X118657943Y-95714306D01*
X118710410Y-95709525D01*
X118770803Y-95728074D01*
X118781040Y-95733069D01*
X118812439Y-95748255D01*
X118833470Y-95756906D01*
X118837139Y-95757707D01*
X118849948Y-95749937D01*
X118874378Y-95730928D01*
X118886779Y-95720540D01*
X118912476Y-95696679D01*
X118920915Y-95680923D01*
X118915058Y-95666429D01*
X118911928Y-95662466D01*
X118890725Y-95645121D01*
X118855738Y-95624041D01*
X118831337Y-95611735D01*
X118762072Y-95590054D01*
X118685388Y-95583029D01*
X118612765Y-95591353D01*
X118592426Y-95597314D01*
X118529476Y-95631048D01*
X118482815Y-95682955D01*
X118452173Y-95753541D01*
X118437282Y-95843308D01*
X118435647Y-95890247D01*
X118440421Y-95958587D01*
X118560990Y-95958587D01*
X118572652Y-95953535D01*
X118603998Y-95949571D01*
X118649571Y-95947232D01*
X118680446Y-95946831D01*
X118735981Y-95947217D01*
X118771033Y-95949025D01*
X118790262Y-95953227D01*
X118798330Y-95960797D01*
X118799901Y-95971782D01*
X118789121Y-96005619D01*
X118761980Y-96039060D01*
X118726277Y-96064728D01*
X118690560Y-96075228D01*
X118642048Y-96065914D01*
X118600053Y-96038987D01*
X118570936Y-96000173D01*
X118560990Y-95958587D01*
X118440421Y-95958587D01*
X118442599Y-95989764D01*
X118464055Y-96069051D01*
X118500470Y-96128737D01*
X118552297Y-96169451D01*
X118619990Y-96191821D01*
X118656662Y-96196129D01*
X118732581Y-96195030D01*
G36*
X114161739Y-97134852D02*
G01*
X114227521Y-97105769D01*
X114277460Y-97057207D01*
X114311626Y-96989092D01*
X114330093Y-96901349D01*
X114331417Y-96887649D01*
X114332454Y-96791061D01*
X114319007Y-96706398D01*
X114291892Y-96637779D01*
X114277373Y-96615706D01*
X114226799Y-96568989D01*
X114162391Y-96538732D01*
X114090334Y-96526176D01*
X114016815Y-96532561D01*
X113960928Y-96552228D01*
X113912868Y-96585371D01*
X113873588Y-96628825D01*
X113872908Y-96629842D01*
X113856956Y-96656662D01*
X113846590Y-96683632D01*
X113840312Y-96717668D01*
X113836627Y-96765690D01*
X113835003Y-96805069D01*
X113834328Y-96840781D01*
X113960045Y-96840781D01*
X113961274Y-96805230D01*
X113965734Y-96757906D01*
X113973603Y-96727535D01*
X113987793Y-96705928D01*
X114001083Y-96693306D01*
X114048198Y-96666878D01*
X114097495Y-96663347D01*
X114143407Y-96682361D01*
X114166362Y-96703669D01*
X114182904Y-96725141D01*
X114192579Y-96745687D01*
X114196826Y-96772426D01*
X114197080Y-96812477D01*
X114195772Y-96849362D01*
X114192957Y-96902053D01*
X114188495Y-96936228D01*
X114180452Y-96958520D01*
X114166897Y-96975558D01*
X114156155Y-96985297D01*
X114111223Y-97010877D01*
X114062751Y-97012153D01*
X114022106Y-96997001D01*
X113987433Y-96965358D01*
X113966776Y-96913380D01*
X113960045Y-96840781D01*
X113834328Y-96840781D01*
X113833521Y-96883379D01*
X113836052Y-96941944D01*
X113843638Y-96985993D01*
X113857319Y-97020752D01*
X113878135Y-97051449D01*
X113885853Y-97060564D01*
X113934111Y-97105979D01*
X113985872Y-97132507D01*
X114049172Y-97143621D01*
X114080039Y-97144529D01*
X114161739Y-97134852D01*
X114161739Y-97134852D01*
G37*
X114161739Y-97134852D02*
X114227521Y-97105769D01*
X114277460Y-97057207D01*
X114311626Y-96989092D01*
X114330093Y-96901349D01*
X114331417Y-96887649D01*
X114332454Y-96791061D01*
X114319007Y-96706398D01*
X114291892Y-96637779D01*
X114277373Y-96615706D01*
X114226799Y-96568989D01*
X114162391Y-96538732D01*
X114090334Y-96526176D01*
X114016815Y-96532561D01*
X113960928Y-96552228D01*
X113912868Y-96585371D01*
X113873588Y-96628825D01*
X113872908Y-96629842D01*
X113856956Y-96656662D01*
X113846590Y-96683632D01*
X113840312Y-96717668D01*
X113836627Y-96765690D01*
X113835003Y-96805069D01*
X113834328Y-96840781D01*
X113960045Y-96840781D01*
X113961274Y-96805230D01*
X113965734Y-96757906D01*
X113973603Y-96727535D01*
X113987793Y-96705928D01*
X114001083Y-96693306D01*
X114048198Y-96666878D01*
X114097495Y-96663347D01*
X114143407Y-96682361D01*
X114166362Y-96703669D01*
X114182904Y-96725141D01*
X114192579Y-96745687D01*
X114196826Y-96772426D01*
X114197080Y-96812477D01*
X114195772Y-96849362D01*
X114192957Y-96902053D01*
X114188495Y-96936228D01*
X114180452Y-96958520D01*
X114166897Y-96975558D01*
X114156155Y-96985297D01*
X114111223Y-97010877D01*
X114062751Y-97012153D01*
X114022106Y-96997001D01*
X113987433Y-96965358D01*
X113966776Y-96913380D01*
X113960045Y-96840781D01*
X113834328Y-96840781D01*
X113833521Y-96883379D01*
X113836052Y-96941944D01*
X113843638Y-96985993D01*
X113857319Y-97020752D01*
X113878135Y-97051449D01*
X113885853Y-97060564D01*
X113934111Y-97105979D01*
X113985872Y-97132507D01*
X114049172Y-97143621D01*
X114080039Y-97144529D01*
X114161739Y-97134852D01*
G36*
X115343301Y-97127386D02*
G01*
X115355832Y-97121486D01*
X115399201Y-97089717D01*
X115440210Y-97043354D01*
X115470832Y-96992304D01*
X115479541Y-96968834D01*
X115487488Y-96926909D01*
X115492226Y-96876243D01*
X115492801Y-96855321D01*
X115492871Y-96789307D01*
X115112917Y-96789307D01*
X115121017Y-96754727D01*
X115140896Y-96713830D01*
X115175653Y-96678486D01*
X115217002Y-96655718D01*
X115243351Y-96650990D01*
X115279084Y-96656727D01*
X115321718Y-96671118D01*
X115336201Y-96677738D01*
X115389760Y-96704487D01*
X115435467Y-96669624D01*
X115461842Y-96646045D01*
X115475876Y-96626583D01*
X115476586Y-96620871D01*
X115464049Y-96607027D01*
X115436572Y-96585988D01*
X115411634Y-96569575D01*
X115344336Y-96540070D01*
X115268890Y-96526716D01*
X115194112Y-96530188D01*
X115134505Y-96548337D01*
X115073059Y-96587216D01*
X115029392Y-96638405D01*
X115002074Y-96704633D01*
X114989678Y-96788629D01*
X114988579Y-96827064D01*
X114992978Y-96915139D01*
X114993518Y-96917701D01*
X115119418Y-96917701D01*
X115122885Y-96909442D01*
X115137137Y-96904887D01*
X115166530Y-96902935D01*
X115215425Y-96902483D01*
X115234252Y-96902475D01*
X115291533Y-96903157D01*
X115327859Y-96905636D01*
X115347396Y-96910557D01*
X115354310Y-96918566D01*
X115354555Y-96921138D01*
X115346664Y-96941577D01*
X115326915Y-96970211D01*
X115318425Y-96980237D01*
X115286906Y-97008592D01*
X115254051Y-97019741D01*
X115236349Y-97020673D01*
X115188461Y-97009019D01*
X115148301Y-96977715D01*
X115122827Y-96932248D01*
X115122375Y-96930767D01*
X115119418Y-96917701D01*
X114993518Y-96917701D01*
X115007608Y-96984490D01*
X115033962Y-97039975D01*
X115066193Y-97079361D01*
X115125783Y-97122069D01*
X115195832Y-97144891D01*
X115270339Y-97146954D01*
X115343301Y-97127386D01*
X115343301Y-97127386D01*
G37*
X115343301Y-97127386D02*
X115355832Y-97121486D01*
X115399201Y-97089717D01*
X115440210Y-97043354D01*
X115470832Y-96992304D01*
X115479541Y-96968834D01*
X115487488Y-96926909D01*
X115492226Y-96876243D01*
X115492801Y-96855321D01*
X115492871Y-96789307D01*
X115112917Y-96789307D01*
X115121017Y-96754727D01*
X115140896Y-96713830D01*
X115175653Y-96678486D01*
X115217002Y-96655718D01*
X115243351Y-96650990D01*
X115279084Y-96656727D01*
X115321718Y-96671118D01*
X115336201Y-96677738D01*
X115389760Y-96704487D01*
X115435467Y-96669624D01*
X115461842Y-96646045D01*
X115475876Y-96626583D01*
X115476586Y-96620871D01*
X115464049Y-96607027D01*
X115436572Y-96585988D01*
X115411634Y-96569575D01*
X115344336Y-96540070D01*
X115268890Y-96526716D01*
X115194112Y-96530188D01*
X115134505Y-96548337D01*
X115073059Y-96587216D01*
X115029392Y-96638405D01*
X115002074Y-96704633D01*
X114989678Y-96788629D01*
X114988579Y-96827064D01*
X114992978Y-96915139D01*
X114993518Y-96917701D01*
X115119418Y-96917701D01*
X115122885Y-96909442D01*
X115137137Y-96904887D01*
X115166530Y-96902935D01*
X115215425Y-96902483D01*
X115234252Y-96902475D01*
X115291533Y-96903157D01*
X115327859Y-96905636D01*
X115347396Y-96910557D01*
X115354310Y-96918566D01*
X115354555Y-96921138D01*
X115346664Y-96941577D01*
X115326915Y-96970211D01*
X115318425Y-96980237D01*
X115286906Y-97008592D01*
X115254051Y-97019741D01*
X115236349Y-97020673D01*
X115188461Y-97009019D01*
X115148301Y-96977715D01*
X115122827Y-96932248D01*
X115122375Y-96930767D01*
X115119418Y-96917701D01*
X114993518Y-96917701D01*
X115007608Y-96984490D01*
X115033962Y-97039975D01*
X115066193Y-97079361D01*
X115125783Y-97122069D01*
X115195832Y-97144891D01*
X115270339Y-97146954D01*
X115343301Y-97127386D01*
G36*
X116714017Y-97143548D02*
G01*
X116761634Y-97134518D01*
X116811034Y-97115630D01*
X116816312Y-97113223D01*
X116853774Y-97093524D01*
X116879717Y-97075219D01*
X116888103Y-97063492D01*
X116880117Y-97044368D01*
X116860720Y-97016150D01*
X116852110Y-97005616D01*
X116816628Y-96964153D01*
X116770885Y-96991142D01*
X116727350Y-97009122D01*
X116677050Y-97018733D01*
X116628812Y-97019340D01*
X116591467Y-97010309D01*
X116582505Y-97004673D01*
X116565437Y-96978829D01*
X116563363Y-96949059D01*
X116576134Y-96925803D01*
X116583688Y-96921292D01*
X116606325Y-96915691D01*
X116646115Y-96909108D01*
X116695166Y-96902817D01*
X116704215Y-96901830D01*
X116782996Y-96888202D01*
X116840136Y-96865054D01*
X116878030Y-96830248D01*
X116899079Y-96781646D01*
X116905635Y-96722282D01*
X116896577Y-96654802D01*
X116867164Y-96601812D01*
X116817278Y-96563217D01*
X116746800Y-96538919D01*
X116668565Y-96529333D01*
X116604766Y-96529448D01*
X116553016Y-96538155D01*
X116517673Y-96550175D01*
X116473017Y-96571120D01*
X116431747Y-96595426D01*
X116417079Y-96606124D01*
X116379357Y-96636916D01*
X116424852Y-96682951D01*
X116470347Y-96728987D01*
X116522072Y-96694757D01*
X116573952Y-96669048D01*
X116629351Y-96655601D01*
X116682605Y-96654182D01*
X116728049Y-96664557D01*
X116760016Y-96686493D01*
X116770338Y-96705002D01*
X116768789Y-96734686D01*
X116743140Y-96757385D01*
X116693460Y-96773060D01*
X116639031Y-96780305D01*
X116555264Y-96794127D01*
X116493033Y-96820204D01*
X116451507Y-96859301D01*
X116429853Y-96912180D01*
X116426853Y-96974874D01*
X116441671Y-97040358D01*
X116475454Y-97089856D01*
X116528505Y-97123592D01*
X116601126Y-97141793D01*
X116654928Y-97145361D01*
X116714017Y-97143548D01*
X116714017Y-97143548D01*
G37*
X116714017Y-97143548D02*
X116761634Y-97134518D01*
X116811034Y-97115630D01*
X116816312Y-97113223D01*
X116853774Y-97093524D01*
X116879717Y-97075219D01*
X116888103Y-97063492D01*
X116880117Y-97044368D01*
X116860720Y-97016150D01*
X116852110Y-97005616D01*
X116816628Y-96964153D01*
X116770885Y-96991142D01*
X116727350Y-97009122D01*
X116677050Y-97018733D01*
X116628812Y-97019340D01*
X116591467Y-97010309D01*
X116582505Y-97004673D01*
X116565437Y-96978829D01*
X116563363Y-96949059D01*
X116576134Y-96925803D01*
X116583688Y-96921292D01*
X116606325Y-96915691D01*
X116646115Y-96909108D01*
X116695166Y-96902817D01*
X116704215Y-96901830D01*
X116782996Y-96888202D01*
X116840136Y-96865054D01*
X116878030Y-96830248D01*
X116899079Y-96781646D01*
X116905635Y-96722282D01*
X116896577Y-96654802D01*
X116867164Y-96601812D01*
X116817278Y-96563217D01*
X116746800Y-96538919D01*
X116668565Y-96529333D01*
X116604766Y-96529448D01*
X116553016Y-96538155D01*
X116517673Y-96550175D01*
X116473017Y-96571120D01*
X116431747Y-96595426D01*
X116417079Y-96606124D01*
X116379357Y-96636916D01*
X116424852Y-96682951D01*
X116470347Y-96728987D01*
X116522072Y-96694757D01*
X116573952Y-96669048D01*
X116629351Y-96655601D01*
X116682605Y-96654182D01*
X116728049Y-96664557D01*
X116760016Y-96686493D01*
X116770338Y-96705002D01*
X116768789Y-96734686D01*
X116743140Y-96757385D01*
X116693460Y-96773060D01*
X116639031Y-96780305D01*
X116555264Y-96794127D01*
X116493033Y-96820204D01*
X116451507Y-96859301D01*
X116429853Y-96912180D01*
X116426853Y-96974874D01*
X116441671Y-97040358D01*
X116475454Y-97089856D01*
X116528505Y-97123592D01*
X116601126Y-97141793D01*
X116654928Y-97145361D01*
X116714017Y-97143548D01*
G36*
X117310762Y-97133945D02*
G01*
X117374363Y-97099308D01*
X117424123Y-97044628D01*
X117447568Y-97000158D01*
X117457634Y-96960879D01*
X117464156Y-96904884D01*
X117466951Y-96840379D01*
X117465836Y-96775571D01*
X117460626Y-96718666D01*
X117454541Y-96688273D01*
X117434014Y-96646694D01*
X117398463Y-96602532D01*
X117355619Y-96563913D01*
X117313211Y-96538966D01*
X117312177Y-96538570D01*
X117259553Y-96527669D01*
X117197188Y-96527399D01*
X117137924Y-96537324D01*
X117115040Y-96545278D01*
X117056102Y-96578700D01*
X117013890Y-96622489D01*
X116986156Y-96680462D01*
X116970651Y-96756435D01*
X116967143Y-96796229D01*
X116967590Y-96846234D01*
X117102376Y-96846234D01*
X117106917Y-96773268D01*
X117119986Y-96717666D01*
X117140756Y-96682139D01*
X117155552Y-96671980D01*
X117193464Y-96664896D01*
X117238527Y-96666993D01*
X117277487Y-96677188D01*
X117287704Y-96682796D01*
X117314659Y-96715462D01*
X117332451Y-96765455D01*
X117340024Y-96826295D01*
X117336325Y-96891503D01*
X117328057Y-96930747D01*
X117304320Y-96976195D01*
X117266849Y-97004604D01*
X117221720Y-97014427D01*
X117175011Y-97004113D01*
X117139132Y-96978888D01*
X117120277Y-96958075D01*
X117109272Y-96937561D01*
X117104026Y-96909797D01*
X117102449Y-96867238D01*
X117102376Y-96846234D01*
X116967590Y-96846234D01*
X116968094Y-96902420D01*
X116985388Y-96989499D01*
X117019029Y-97057470D01*
X117069018Y-97106336D01*
X117135356Y-97136101D01*
X117149601Y-97139552D01*
X117235210Y-97147655D01*
X117310762Y-97133945D01*
X117310762Y-97133945D01*
G37*
X117310762Y-97133945D02*
X117374363Y-97099308D01*
X117424123Y-97044628D01*
X117447568Y-97000158D01*
X117457634Y-96960879D01*
X117464156Y-96904884D01*
X117466951Y-96840379D01*
X117465836Y-96775571D01*
X117460626Y-96718666D01*
X117454541Y-96688273D01*
X117434014Y-96646694D01*
X117398463Y-96602532D01*
X117355619Y-96563913D01*
X117313211Y-96538966D01*
X117312177Y-96538570D01*
X117259553Y-96527669D01*
X117197188Y-96527399D01*
X117137924Y-96537324D01*
X117115040Y-96545278D01*
X117056102Y-96578700D01*
X117013890Y-96622489D01*
X116986156Y-96680462D01*
X116970651Y-96756435D01*
X116967143Y-96796229D01*
X116967590Y-96846234D01*
X117102376Y-96846234D01*
X117106917Y-96773268D01*
X117119986Y-96717666D01*
X117140756Y-96682139D01*
X117155552Y-96671980D01*
X117193464Y-96664896D01*
X117238527Y-96666993D01*
X117277487Y-96677188D01*
X117287704Y-96682796D01*
X117314659Y-96715462D01*
X117332451Y-96765455D01*
X117340024Y-96826295D01*
X117336325Y-96891503D01*
X117328057Y-96930747D01*
X117304320Y-96976195D01*
X117266849Y-97004604D01*
X117221720Y-97014427D01*
X117175011Y-97004113D01*
X117139132Y-96978888D01*
X117120277Y-96958075D01*
X117109272Y-96937561D01*
X117104026Y-96909797D01*
X117102449Y-96867238D01*
X117102376Y-96846234D01*
X116967590Y-96846234D01*
X116968094Y-96902420D01*
X116985388Y-96989499D01*
X117019029Y-97057470D01*
X117069018Y-97106336D01*
X117135356Y-97136101D01*
X117149601Y-97139552D01*
X117235210Y-97147655D01*
X117310762Y-97133945D01*
G36*
X117693367Y-96945658D02*
G01*
X117694555Y-96853437D01*
X117698897Y-96783390D01*
X117707558Y-96732619D01*
X117721704Y-96698228D01*
X117742500Y-96677321D01*
X117771110Y-96667000D01*
X117806535Y-96664364D01*
X117843636Y-96667318D01*
X117871818Y-96678111D01*
X117892243Y-96699640D01*
X117906079Y-96734801D01*
X117914491Y-96786490D01*
X117918643Y-96857606D01*
X117919703Y-96945658D01*
X117919703Y-97141386D01*
X118058020Y-97141386D01*
X118058020Y-96537821D01*
X117988862Y-96537821D01*
X117947170Y-96539511D01*
X117925701Y-96545444D01*
X117919703Y-96556707D01*
X117916091Y-96566739D01*
X117901714Y-96564617D01*
X117872736Y-96550420D01*
X117806319Y-96528520D01*
X117735875Y-96530072D01*
X117668377Y-96553853D01*
X117636233Y-96572638D01*
X117611715Y-96592978D01*
X117593804Y-96618427D01*
X117581479Y-96652542D01*
X117573723Y-96698879D01*
X117569516Y-96760993D01*
X117567840Y-96842439D01*
X117567624Y-96905422D01*
X117567624Y-97141386D01*
X117693367Y-97141386D01*
X117693367Y-96945658D01*
X117693367Y-96945658D01*
G37*
X117693367Y-96945658D02*
X117694555Y-96853437D01*
X117698897Y-96783390D01*
X117707558Y-96732619D01*
X117721704Y-96698228D01*
X117742500Y-96677321D01*
X117771110Y-96667000D01*
X117806535Y-96664364D01*
X117843636Y-96667318D01*
X117871818Y-96678111D01*
X117892243Y-96699640D01*
X117906079Y-96734801D01*
X117914491Y-96786490D01*
X117918643Y-96857606D01*
X117919703Y-96945658D01*
X117919703Y-97141386D01*
X118058020Y-97141386D01*
X118058020Y-96537821D01*
X117988862Y-96537821D01*
X117947170Y-96539511D01*
X117925701Y-96545444D01*
X117919703Y-96556707D01*
X117916091Y-96566739D01*
X117901714Y-96564617D01*
X117872736Y-96550420D01*
X117806319Y-96528520D01*
X117735875Y-96530072D01*
X117668377Y-96553853D01*
X117636233Y-96572638D01*
X117611715Y-96592978D01*
X117593804Y-96618427D01*
X117581479Y-96652542D01*
X117573723Y-96698879D01*
X117569516Y-96760993D01*
X117567840Y-96842439D01*
X117567624Y-96905422D01*
X117567624Y-97141386D01*
X117693367Y-97141386D01*
X117693367Y-96945658D01*
G36*
X118917226Y-97136120D02*
G01*
X118990080Y-97105170D01*
X119013027Y-97090105D01*
X119042354Y-97066952D01*
X119060764Y-97048747D01*
X119063961Y-97042817D01*
X119054935Y-97029660D01*
X119031837Y-97007333D01*
X119013344Y-96991750D01*
X118962728Y-96951074D01*
X118922760Y-96984705D01*
X118891874Y-97006416D01*
X118861759Y-97013910D01*
X118827292Y-97012080D01*
X118772561Y-96998472D01*
X118734886Y-96970228D01*
X118711991Y-96924567D01*
X118701597Y-96858711D01*
X118701595Y-96858669D01*
X118702494Y-96785061D01*
X118716463Y-96731054D01*
X118744328Y-96694284D01*
X118763325Y-96681832D01*
X118813776Y-96666327D01*
X118867663Y-96666317D01*
X118914546Y-96681362D01*
X118925644Y-96688713D01*
X118953476Y-96707489D01*
X118975236Y-96710566D01*
X118998704Y-96696591D01*
X119024649Y-96671490D01*
X119065716Y-96629120D01*
X119020121Y-96591536D01*
X118949674Y-96549118D01*
X118870233Y-96528215D01*
X118787215Y-96529728D01*
X118732694Y-96543589D01*
X118668970Y-96577865D01*
X118618005Y-96631788D01*
X118594851Y-96669851D01*
X118576099Y-96724464D01*
X118566715Y-96793631D01*
X118566643Y-96868593D01*
X118575824Y-96940591D01*
X118594199Y-97000863D01*
X118597093Y-97007042D01*
X118639952Y-97067649D01*
X118697979Y-97111776D01*
X118766591Y-97138507D01*
X118841201Y-97146927D01*
X118917226Y-97136120D01*
X118917226Y-97136120D01*
G37*
X118917226Y-97136120D02*
X118990080Y-97105170D01*
X119013027Y-97090105D01*
X119042354Y-97066952D01*
X119060764Y-97048747D01*
X119063961Y-97042817D01*
X119054935Y-97029660D01*
X119031837Y-97007333D01*
X119013344Y-96991750D01*
X118962728Y-96951074D01*
X118922760Y-96984705D01*
X118891874Y-97006416D01*
X118861759Y-97013910D01*
X118827292Y-97012080D01*
X118772561Y-96998472D01*
X118734886Y-96970228D01*
X118711991Y-96924567D01*
X118701597Y-96858711D01*
X118701595Y-96858669D01*
X118702494Y-96785061D01*
X118716463Y-96731054D01*
X118744328Y-96694284D01*
X118763325Y-96681832D01*
X118813776Y-96666327D01*
X118867663Y-96666317D01*
X118914546Y-96681362D01*
X118925644Y-96688713D01*
X118953476Y-96707489D01*
X118975236Y-96710566D01*
X118998704Y-96696591D01*
X119024649Y-96671490D01*
X119065716Y-96629120D01*
X119020121Y-96591536D01*
X118949674Y-96549118D01*
X118870233Y-96528215D01*
X118787215Y-96529728D01*
X118732694Y-96543589D01*
X118668970Y-96577865D01*
X118618005Y-96631788D01*
X118594851Y-96669851D01*
X118576099Y-96724464D01*
X118566715Y-96793631D01*
X118566643Y-96868593D01*
X118575824Y-96940591D01*
X118594199Y-97000863D01*
X118597093Y-97007042D01*
X118639952Y-97067649D01*
X118697979Y-97111776D01*
X118766591Y-97138507D01*
X118841201Y-97146927D01*
X118917226Y-97136120D01*
G36*
X119377898Y-97143543D02*
G01*
X119410096Y-97135721D01*
X119471825Y-97107079D01*
X119524610Y-97063333D01*
X119561141Y-97010883D01*
X119566160Y-96999107D01*
X119573045Y-96968260D01*
X119577864Y-96922629D01*
X119579505Y-96876508D01*
X119579505Y-96789307D01*
X119397178Y-96789307D01*
X119321979Y-96789022D01*
X119269003Y-96787296D01*
X119235325Y-96782819D01*
X119218020Y-96774280D01*
X119214163Y-96760370D01*
X119220829Y-96739778D01*
X119232770Y-96715685D01*
X119266080Y-96675475D01*
X119312368Y-96655442D01*
X119368944Y-96656095D01*
X119433031Y-96677899D01*
X119488417Y-96704807D01*
X119534375Y-96668468D01*
X119580333Y-96632128D01*
X119537096Y-96592181D01*
X119479374Y-96554437D01*
X119408386Y-96531680D01*
X119332029Y-96525312D01*
X119258199Y-96536732D01*
X119246287Y-96540607D01*
X119181399Y-96574494D01*
X119133130Y-96625014D01*
X119100465Y-96693675D01*
X119082385Y-96781986D01*
X119082175Y-96783879D01*
X119080556Y-96880122D01*
X119087100Y-96914458D01*
X119214852Y-96914458D01*
X119226584Y-96909178D01*
X119258438Y-96905133D01*
X119305397Y-96902824D01*
X119335154Y-96902475D01*
X119390648Y-96902694D01*
X119425346Y-96904084D01*
X119443601Y-96907749D01*
X119449766Y-96914790D01*
X119448195Y-96926310D01*
X119446878Y-96930767D01*
X119424382Y-96972645D01*
X119389003Y-97006396D01*
X119357780Y-97021227D01*
X119316301Y-97020332D01*
X119274269Y-97001836D01*
X119239012Y-96971214D01*
X119217854Y-96933938D01*
X119214852Y-96914458D01*
X119087100Y-96914458D01*
X119096690Y-96964771D01*
X119128698Y-97035809D01*
X119174701Y-97091221D01*
X119232821Y-97128991D01*
X119301180Y-97147104D01*
X119377898Y-97143543D01*
X119377898Y-97143543D01*
G37*
X119377898Y-97143543D02*
X119410096Y-97135721D01*
X119471825Y-97107079D01*
X119524610Y-97063333D01*
X119561141Y-97010883D01*
X119566160Y-96999107D01*
X119573045Y-96968260D01*
X119577864Y-96922629D01*
X119579505Y-96876508D01*
X119579505Y-96789307D01*
X119397178Y-96789307D01*
X119321979Y-96789022D01*
X119269003Y-96787296D01*
X119235325Y-96782819D01*
X119218020Y-96774280D01*
X119214163Y-96760370D01*
X119220829Y-96739778D01*
X119232770Y-96715685D01*
X119266080Y-96675475D01*
X119312368Y-96655442D01*
X119368944Y-96656095D01*
X119433031Y-96677899D01*
X119488417Y-96704807D01*
X119534375Y-96668468D01*
X119580333Y-96632128D01*
X119537096Y-96592181D01*
X119479374Y-96554437D01*
X119408386Y-96531680D01*
X119332029Y-96525312D01*
X119258199Y-96536732D01*
X119246287Y-96540607D01*
X119181399Y-96574494D01*
X119133130Y-96625014D01*
X119100465Y-96693675D01*
X119082385Y-96781986D01*
X119082175Y-96783879D01*
X119080556Y-96880122D01*
X119087100Y-96914458D01*
X119214852Y-96914458D01*
X119226584Y-96909178D01*
X119258438Y-96905133D01*
X119305397Y-96902824D01*
X119335154Y-96902475D01*
X119390648Y-96902694D01*
X119425346Y-96904084D01*
X119443601Y-96907749D01*
X119449766Y-96914790D01*
X119448195Y-96926310D01*
X119446878Y-96930767D01*
X119424382Y-96972645D01*
X119389003Y-97006396D01*
X119357780Y-97021227D01*
X119316301Y-97020332D01*
X119274269Y-97001836D01*
X119239012Y-96971214D01*
X119217854Y-96933938D01*
X119214852Y-96914458D01*
X119087100Y-96914458D01*
X119096690Y-96964771D01*
X119128698Y-97035809D01*
X119174701Y-97091221D01*
X119232821Y-97128991D01*
X119301180Y-97147104D01*
X119377898Y-97143543D01*
G36*
X115945988Y-97130998D02*
G01*
X115977283Y-97116050D01*
X116007591Y-97094459D01*
X116030682Y-97069609D01*
X116047500Y-97037913D01*
X116058994Y-96995786D01*
X116066109Y-96939642D01*
X116069793Y-96865894D01*
X116070992Y-96770956D01*
X116071011Y-96761015D01*
X116071287Y-96537821D01*
X115932970Y-96537821D01*
X115932970Y-96743582D01*
X115932872Y-96819811D01*
X115932191Y-96875061D01*
X115930349Y-96913499D01*
X115926767Y-96939294D01*
X115920868Y-96956616D01*
X115912073Y-96969632D01*
X115899820Y-96982493D01*
X115856953Y-97010127D01*
X115810157Y-97015255D01*
X115765576Y-96997783D01*
X115750072Y-96984779D01*
X115738690Y-96972553D01*
X115730519Y-96959460D01*
X115725026Y-96941385D01*
X115721680Y-96914213D01*
X115719949Y-96873830D01*
X115719303Y-96816121D01*
X115719208Y-96745868D01*
X115719208Y-96537821D01*
X115580891Y-96537821D01*
X115580891Y-97141386D01*
X115650050Y-97141386D01*
X115691572Y-97139744D01*
X115712994Y-97133913D01*
X115719205Y-97122539D01*
X115719208Y-97122202D01*
X115722090Y-97111062D01*
X115734801Y-97112326D01*
X115760074Y-97124566D01*
X115817395Y-97142576D01*
X115882963Y-97144579D01*
X115945988Y-97130998D01*
X115945988Y-97130998D01*
G37*
X115945988Y-97130998D02*
X115977283Y-97116050D01*
X116007591Y-97094459D01*
X116030682Y-97069609D01*
X116047500Y-97037913D01*
X116058994Y-96995786D01*
X116066109Y-96939642D01*
X116069793Y-96865894D01*
X116070992Y-96770956D01*
X116071011Y-96761015D01*
X116071287Y-96537821D01*
X115932970Y-96537821D01*
X115932970Y-96743582D01*
X115932872Y-96819811D01*
X115932191Y-96875061D01*
X115930349Y-96913499D01*
X115926767Y-96939294D01*
X115920868Y-96956616D01*
X115912073Y-96969632D01*
X115899820Y-96982493D01*
X115856953Y-97010127D01*
X115810157Y-97015255D01*
X115765576Y-96997783D01*
X115750072Y-96984779D01*
X115738690Y-96972553D01*
X115730519Y-96959460D01*
X115725026Y-96941385D01*
X115721680Y-96914213D01*
X115719949Y-96873830D01*
X115719303Y-96816121D01*
X115719208Y-96745868D01*
X115719208Y-96537821D01*
X115580891Y-96537821D01*
X115580891Y-97141386D01*
X115650050Y-97141386D01*
X115691572Y-97139744D01*
X115712994Y-97133913D01*
X115719205Y-97122539D01*
X115719208Y-97122202D01*
X115722090Y-97111062D01*
X115734801Y-97112326D01*
X115760074Y-97124566D01*
X115817395Y-97142576D01*
X115882963Y-97144579D01*
X115945988Y-97130998D01*
G36*
X118499460Y-97141970D02*
G01*
X118542711Y-97128755D01*
X118570558Y-97112059D01*
X118579629Y-97098855D01*
X118577132Y-97083203D01*
X118560931Y-97058615D01*
X118547232Y-97041200D01*
X118518992Y-97009717D01*
X118497775Y-96996471D01*
X118479688Y-96997336D01*
X118426035Y-97010990D01*
X118386630Y-97010370D01*
X118354632Y-96994896D01*
X118343890Y-96985839D01*
X118309505Y-96953973D01*
X118309505Y-96537821D01*
X118171188Y-96537821D01*
X118171188Y-97141386D01*
X118240347Y-97141386D01*
X118281869Y-97139744D01*
X118303291Y-97133913D01*
X118309502Y-97122539D01*
X118309505Y-97122202D01*
X118312439Y-97110287D01*
X118325704Y-97111841D01*
X118344084Y-97120437D01*
X118382046Y-97136432D01*
X118412872Y-97146055D01*
X118452536Y-97148522D01*
X118499460Y-97141970D01*
X118499460Y-97141970D01*
G37*
X118499460Y-97141970D02*
X118542711Y-97128755D01*
X118570558Y-97112059D01*
X118579629Y-97098855D01*
X118577132Y-97083203D01*
X118560931Y-97058615D01*
X118547232Y-97041200D01*
X118518992Y-97009717D01*
X118497775Y-96996471D01*
X118479688Y-96997336D01*
X118426035Y-97010990D01*
X118386630Y-97010370D01*
X118354632Y-96994896D01*
X118343890Y-96985839D01*
X118309505Y-96953973D01*
X118309505Y-96537821D01*
X118171188Y-96537821D01*
X118171188Y-97141386D01*
X118240347Y-97141386D01*
X118281869Y-97139744D01*
X118303291Y-97133913D01*
X118309502Y-97122539D01*
X118309505Y-97122202D01*
X118312439Y-97110287D01*
X118325704Y-97111841D01*
X118344084Y-97120437D01*
X118382046Y-97136432D01*
X118412872Y-97146055D01*
X118452536Y-97148522D01*
X118499460Y-97141970D01*
G36*
X117076964Y-101309982D02*
G01*
X117133812Y-101008430D01*
X117553338Y-100835488D01*
X117804984Y-101006605D01*
X117875458Y-101054250D01*
X117939163Y-101096790D01*
X117993126Y-101132285D01*
X118034373Y-101158790D01*
X118059934Y-101174364D01*
X118066895Y-101177722D01*
X118079435Y-101169086D01*
X118106231Y-101145208D01*
X118144280Y-101109141D01*
X118190579Y-101063933D01*
X118242123Y-101012636D01*
X118295909Y-100958299D01*
X118348935Y-100903972D01*
X118398195Y-100852705D01*
X118440687Y-100807549D01*
X118473407Y-100771554D01*
X118493351Y-100747770D01*
X118498119Y-100739810D01*
X118491257Y-100725135D01*
X118472020Y-100692986D01*
X118442430Y-100646508D01*
X118404510Y-100588844D01*
X118360282Y-100523140D01*
X118334654Y-100485664D01*
X118287941Y-100417232D01*
X118246432Y-100355480D01*
X118212140Y-100303481D01*
X118187080Y-100264308D01*
X118173264Y-100241035D01*
X118171188Y-100236145D01*
X118175895Y-100222245D01*
X118188723Y-100189850D01*
X118207738Y-100143515D01*
X118231003Y-100087794D01*
X118256584Y-100027242D01*
X118282545Y-99966414D01*
X118306950Y-99909864D01*
X118327863Y-99862148D01*
X118343349Y-99827819D01*
X118351472Y-99811432D01*
X118351952Y-99810788D01*
X118364707Y-99807659D01*
X118398677Y-99800679D01*
X118450340Y-99790533D01*
X118516176Y-99777908D01*
X118592664Y-99763491D01*
X118637290Y-99755177D01*
X118719021Y-99739616D01*
X118792843Y-99724808D01*
X118855021Y-99711564D01*
X118901822Y-99700695D01*
X118929509Y-99693011D01*
X118935074Y-99690573D01*
X118940526Y-99674070D01*
X118944924Y-99636800D01*
X118948272Y-99583120D01*
X118950574Y-99517388D01*
X118951832Y-99443963D01*
X118952048Y-99367204D01*
X118951227Y-99291468D01*
X118949371Y-99221114D01*
X118946482Y-99160500D01*
X118942565Y-99113984D01*
X118937622Y-99085925D01*
X118934657Y-99080084D01*
X118916934Y-99073083D01*
X118879381Y-99063073D01*
X118826964Y-99051231D01*
X118764652Y-99038733D01*
X118742900Y-99034690D01*
X118638024Y-99015480D01*
X118555180Y-99000009D01*
X118491630Y-98987663D01*
X118444637Y-98977827D01*
X118411463Y-98969886D01*
X118389371Y-98963224D01*
X118375624Y-98957227D01*
X118367484Y-98951281D01*
X118366345Y-98950106D01*
X118354977Y-98931174D01*
X118337635Y-98894331D01*
X118316050Y-98844087D01*
X118291954Y-98784954D01*
X118267079Y-98721444D01*
X118243157Y-98658068D01*
X118221919Y-98599338D01*
X118205097Y-98549765D01*
X118194422Y-98513861D01*
X118191627Y-98496138D01*
X118191860Y-98495517D01*
X118201331Y-98481030D01*
X118222818Y-98449156D01*
X118254063Y-98403211D01*
X118292807Y-98346515D01*
X118336793Y-98282383D01*
X118349319Y-98264158D01*
X118393984Y-98198086D01*
X118433288Y-98137800D01*
X118465088Y-98086765D01*
X118487245Y-98048440D01*
X118497617Y-98026289D01*
X118498119Y-98023568D01*
X118489405Y-98009264D01*
X118465325Y-97980928D01*
X118428976Y-97941604D01*
X118383453Y-97894339D01*
X118331852Y-97842177D01*
X118277267Y-97788165D01*
X118222794Y-97735347D01*
X118171529Y-97686769D01*
X118126567Y-97645477D01*
X118091004Y-97614515D01*
X118067935Y-97596930D01*
X118061554Y-97594059D01*
X118046699Y-97600822D01*
X118016286Y-97619061D01*
X117975268Y-97645703D01*
X117943709Y-97667148D01*
X117886525Y-97706497D01*
X117818806Y-97752829D01*
X117750880Y-97799087D01*
X117714361Y-97823845D01*
X117590752Y-97907453D01*
X117486991Y-97851350D01*
X117439720Y-97826772D01*
X117399523Y-97807669D01*
X117372326Y-97796773D01*
X117365402Y-97795257D01*
X117357077Y-97806451D01*
X117340654Y-97838083D01*
X117317357Y-97887235D01*
X117288414Y-97950990D01*
X117255050Y-98026429D01*
X117218491Y-98110636D01*
X117179964Y-98200692D01*
X117140694Y-98293679D01*
X117101908Y-98386680D01*
X117064830Y-98476777D01*
X117030689Y-98561052D01*
X117000708Y-98636587D01*
X116976116Y-98700466D01*
X116958136Y-98749769D01*
X116947997Y-98781579D01*
X116946366Y-98792504D01*
X116959291Y-98806439D01*
X116987589Y-98829060D01*
X117025346Y-98855667D01*
X117028515Y-98857772D01*
X117126100Y-98935886D01*
X117204786Y-99027018D01*
X117263891Y-99128255D01*
X117302732Y-99236682D01*
X117320628Y-99349386D01*
X117316897Y-99463452D01*
X117290857Y-99575966D01*
X117241825Y-99684015D01*
X117227400Y-99707655D01*
X117152369Y-99803113D01*
X117063730Y-99879768D01*
X116964549Y-99937220D01*
X116857895Y-99975071D01*
X116746836Y-99992922D01*
X116634439Y-99990375D01*
X116523773Y-99967030D01*
X116417906Y-99922490D01*
X116319905Y-99856355D01*
X116289590Y-99829513D01*
X116212438Y-99745488D01*
X116156218Y-99657034D01*
X116117653Y-99557885D01*
X116096174Y-99459697D01*
X116090872Y-99349303D01*
X116108552Y-99238360D01*
X116147419Y-99130619D01*
X116205677Y-99029831D01*
X116281531Y-98939744D01*
X116373183Y-98864108D01*
X116385228Y-98856136D01*
X116423389Y-98830026D01*
X116452399Y-98807405D01*
X116466268Y-98792961D01*
X116466469Y-98792504D01*
X116463492Y-98776879D01*
X116451689Y-98741418D01*
X116432286Y-98689038D01*
X116406512Y-98622655D01*
X116375591Y-98545186D01*
X116340751Y-98459550D01*
X116303217Y-98368663D01*
X116264217Y-98275441D01*
X116224977Y-98182803D01*
X116186724Y-98093665D01*
X116150683Y-98010945D01*
X116118083Y-97937559D01*
X116090148Y-97876425D01*
X116068105Y-97830459D01*
X116053182Y-97802579D01*
X116047172Y-97795257D01*
X116028809Y-97800959D01*
X115994448Y-97816251D01*
X115950016Y-97838401D01*
X115925583Y-97851350D01*
X115821822Y-97907453D01*
X115698213Y-97823845D01*
X115635114Y-97781013D01*
X115566030Y-97733878D01*
X115501293Y-97689497D01*
X115468866Y-97667148D01*
X115423259Y-97636523D01*
X115384640Y-97612253D01*
X115358048Y-97597413D01*
X115349410Y-97594276D01*
X115336839Y-97602739D01*
X115309016Y-97626364D01*
X115268639Y-97662698D01*
X115218405Y-97709289D01*
X115161012Y-97763683D01*
X115124714Y-97798608D01*
X115061210Y-97861004D01*
X115006327Y-97916812D01*
X114962286Y-97963646D01*
X114931305Y-97999118D01*
X114915602Y-98020839D01*
X114914095Y-98025248D01*
X114921086Y-98042015D01*
X114940406Y-98075918D01*
X114969909Y-98123524D01*
X115007455Y-98181401D01*
X115050900Y-98246116D01*
X115063255Y-98264158D01*
X115108273Y-98329733D01*
X115148660Y-98388772D01*
X115182160Y-98437958D01*
X115206514Y-98473972D01*
X115219464Y-98493498D01*
X115220715Y-98495517D01*
X115218844Y-98511078D01*
X115208913Y-98545291D01*
X115192653Y-98593645D01*
X115171795Y-98651629D01*
X115148073Y-98714730D01*
X115123216Y-98778437D01*
X115098958Y-98838239D01*
X115077029Y-98889624D01*
X115059162Y-98928081D01*
X115047087Y-98949098D01*
X115046229Y-98950106D01*
X115038846Y-98956112D01*
X115026375Y-98962052D01*
X115006080Y-98968540D01*
X114975222Y-98976191D01*
X114931066Y-98985620D01*
X114870874Y-98997441D01*
X114791907Y-99012271D01*
X114691430Y-99030723D01*
X114669675Y-99034690D01*
X114605198Y-99047147D01*
X114548989Y-99059334D01*
X114506013Y-99070074D01*
X114481240Y-99078191D01*
X114477918Y-99080084D01*
X114472444Y-99096862D01*
X114467994Y-99134355D01*
X114464572Y-99188206D01*
X114462181Y-99254056D01*
X114460823Y-99327547D01*
X114460501Y-99404320D01*
X114461219Y-99480017D01*
X114462979Y-99550280D01*
X114465784Y-99610750D01*
X114469638Y-99657070D01*
X114474543Y-99684881D01*
X114477500Y-99690573D01*
X114493963Y-99696314D01*
X114531449Y-99705655D01*
X114586225Y-99717785D01*
X114654555Y-99731893D01*
X114732706Y-99747170D01*
X114775284Y-99755177D01*
X114856071Y-99770279D01*
X114928113Y-99783960D01*
X114987889Y-99795533D01*
X115031879Y-99804313D01*
X115056561Y-99809613D01*
X115060623Y-99810788D01*
X115067489Y-99824035D01*
X115082002Y-99855943D01*
X115102229Y-99901953D01*
X115126234Y-99957508D01*
X115152082Y-100018047D01*
X115177840Y-100079014D01*
X115201573Y-100135849D01*
X115221346Y-100183994D01*
X115235224Y-100218890D01*
X115241274Y-100235979D01*
X115241386Y-100236726D01*
X115234528Y-100250207D01*
X115215302Y-100281230D01*
X115185728Y-100326711D01*
X115147827Y-100383568D01*
X115103620Y-100448717D01*
X115077921Y-100486138D01*
X115031093Y-100554753D01*
X114989501Y-100617048D01*
X114955175Y-100669871D01*
X114930143Y-100710073D01*
X114916435Y-100734500D01*
X114914456Y-100739976D01*
X114922966Y-100752722D01*
X114946493Y-100779937D01*
X114982032Y-100818572D01*
X115026577Y-100865577D01*
X115077123Y-100917905D01*
X115130664Y-100972505D01*
X115184195Y-101026330D01*
X115234711Y-101076330D01*
X115279206Y-101119457D01*
X115314675Y-101152661D01*
X115338113Y-101172894D01*
X115345954Y-101177722D01*
X115358720Y-101170933D01*
X115389256Y-101151858D01*
X115434590Y-101122439D01*
X115491756Y-101084619D01*
X115557784Y-101040339D01*
X115607590Y-101006605D01*
X115859236Y-100835488D01*
X116068999Y-100921959D01*
X116278763Y-101008430D01*
X116335611Y-101309982D01*
X116392460Y-101611534D01*
X117020115Y-101611534D01*
X117076964Y-101309982D01*
X117076964Y-101309982D01*
G37*
X117076964Y-101309982D02*
X117133812Y-101008430D01*
X117553338Y-100835488D01*
X117804984Y-101006605D01*
X117875458Y-101054250D01*
X117939163Y-101096790D01*
X117993126Y-101132285D01*
X118034373Y-101158790D01*
X118059934Y-101174364D01*
X118066895Y-101177722D01*
X118079435Y-101169086D01*
X118106231Y-101145208D01*
X118144280Y-101109141D01*
X118190579Y-101063933D01*
X118242123Y-101012636D01*
X118295909Y-100958299D01*
X118348935Y-100903972D01*
X118398195Y-100852705D01*
X118440687Y-100807549D01*
X118473407Y-100771554D01*
X118493351Y-100747770D01*
X118498119Y-100739810D01*
X118491257Y-100725135D01*
X118472020Y-100692986D01*
X118442430Y-100646508D01*
X118404510Y-100588844D01*
X118360282Y-100523140D01*
X118334654Y-100485664D01*
X118287941Y-100417232D01*
X118246432Y-100355480D01*
X118212140Y-100303481D01*
X118187080Y-100264308D01*
X118173264Y-100241035D01*
X118171188Y-100236145D01*
X118175895Y-100222245D01*
X118188723Y-100189850D01*
X118207738Y-100143515D01*
X118231003Y-100087794D01*
X118256584Y-100027242D01*
X118282545Y-99966414D01*
X118306950Y-99909864D01*
X118327863Y-99862148D01*
X118343349Y-99827819D01*
X118351472Y-99811432D01*
X118351952Y-99810788D01*
X118364707Y-99807659D01*
X118398677Y-99800679D01*
X118450340Y-99790533D01*
X118516176Y-99777908D01*
X118592664Y-99763491D01*
X118637290Y-99755177D01*
X118719021Y-99739616D01*
X118792843Y-99724808D01*
X118855021Y-99711564D01*
X118901822Y-99700695D01*
X118929509Y-99693011D01*
X118935074Y-99690573D01*
X118940526Y-99674070D01*
X118944924Y-99636800D01*
X118948272Y-99583120D01*
X118950574Y-99517388D01*
X118951832Y-99443963D01*
X118952048Y-99367204D01*
X118951227Y-99291468D01*
X118949371Y-99221114D01*
X118946482Y-99160500D01*
X118942565Y-99113984D01*
X118937622Y-99085925D01*
X118934657Y-99080084D01*
X118916934Y-99073083D01*
X118879381Y-99063073D01*
X118826964Y-99051231D01*
X118764652Y-99038733D01*
X118742900Y-99034690D01*
X118638024Y-99015480D01*
X118555180Y-99000009D01*
X118491630Y-98987663D01*
X118444637Y-98977827D01*
X118411463Y-98969886D01*
X118389371Y-98963224D01*
X118375624Y-98957227D01*
X118367484Y-98951281D01*
X118366345Y-98950106D01*
X118354977Y-98931174D01*
X118337635Y-98894331D01*
X118316050Y-98844087D01*
X118291954Y-98784954D01*
X118267079Y-98721444D01*
X118243157Y-98658068D01*
X118221919Y-98599338D01*
X118205097Y-98549765D01*
X118194422Y-98513861D01*
X118191627Y-98496138D01*
X118191860Y-98495517D01*
X118201331Y-98481030D01*
X118222818Y-98449156D01*
X118254063Y-98403211D01*
X118292807Y-98346515D01*
X118336793Y-98282383D01*
X118349319Y-98264158D01*
X118393984Y-98198086D01*
X118433288Y-98137800D01*
X118465088Y-98086765D01*
X118487245Y-98048440D01*
X118497617Y-98026289D01*
X118498119Y-98023568D01*
X118489405Y-98009264D01*
X118465325Y-97980928D01*
X118428976Y-97941604D01*
X118383453Y-97894339D01*
X118331852Y-97842177D01*
X118277267Y-97788165D01*
X118222794Y-97735347D01*
X118171529Y-97686769D01*
X118126567Y-97645477D01*
X118091004Y-97614515D01*
X118067935Y-97596930D01*
X118061554Y-97594059D01*
X118046699Y-97600822D01*
X118016286Y-97619061D01*
X117975268Y-97645703D01*
X117943709Y-97667148D01*
X117886525Y-97706497D01*
X117818806Y-97752829D01*
X117750880Y-97799087D01*
X117714361Y-97823845D01*
X117590752Y-97907453D01*
X117486991Y-97851350D01*
X117439720Y-97826772D01*
X117399523Y-97807669D01*
X117372326Y-97796773D01*
X117365402Y-97795257D01*
X117357077Y-97806451D01*
X117340654Y-97838083D01*
X117317357Y-97887235D01*
X117288414Y-97950990D01*
X117255050Y-98026429D01*
X117218491Y-98110636D01*
X117179964Y-98200692D01*
X117140694Y-98293679D01*
X117101908Y-98386680D01*
X117064830Y-98476777D01*
X117030689Y-98561052D01*
X117000708Y-98636587D01*
X116976116Y-98700466D01*
X116958136Y-98749769D01*
X116947997Y-98781579D01*
X116946366Y-98792504D01*
X116959291Y-98806439D01*
X116987589Y-98829060D01*
X117025346Y-98855667D01*
X117028515Y-98857772D01*
X117126100Y-98935886D01*
X117204786Y-99027018D01*
X117263891Y-99128255D01*
X117302732Y-99236682D01*
X117320628Y-99349386D01*
X117316897Y-99463452D01*
X117290857Y-99575966D01*
X117241825Y-99684015D01*
X117227400Y-99707655D01*
X117152369Y-99803113D01*
X117063730Y-99879768D01*
X116964549Y-99937220D01*
X116857895Y-99975071D01*
X116746836Y-99992922D01*
X116634439Y-99990375D01*
X116523773Y-99967030D01*
X116417906Y-99922490D01*
X116319905Y-99856355D01*
X116289590Y-99829513D01*
X116212438Y-99745488D01*
X116156218Y-99657034D01*
X116117653Y-99557885D01*
X116096174Y-99459697D01*
X116090872Y-99349303D01*
X116108552Y-99238360D01*
X116147419Y-99130619D01*
X116205677Y-99029831D01*
X116281531Y-98939744D01*
X116373183Y-98864108D01*
X116385228Y-98856136D01*
X116423389Y-98830026D01*
X116452399Y-98807405D01*
X116466268Y-98792961D01*
X116466469Y-98792504D01*
X116463492Y-98776879D01*
X116451689Y-98741418D01*
X116432286Y-98689038D01*
X116406512Y-98622655D01*
X116375591Y-98545186D01*
X116340751Y-98459550D01*
X116303217Y-98368663D01*
X116264217Y-98275441D01*
X116224977Y-98182803D01*
X116186724Y-98093665D01*
X116150683Y-98010945D01*
X116118083Y-97937559D01*
X116090148Y-97876425D01*
X116068105Y-97830459D01*
X116053182Y-97802579D01*
X116047172Y-97795257D01*
X116028809Y-97800959D01*
X115994448Y-97816251D01*
X115950016Y-97838401D01*
X115925583Y-97851350D01*
X115821822Y-97907453D01*
X115698213Y-97823845D01*
X115635114Y-97781013D01*
X115566030Y-97733878D01*
X115501293Y-97689497D01*
X115468866Y-97667148D01*
X115423259Y-97636523D01*
X115384640Y-97612253D01*
X115358048Y-97597413D01*
X115349410Y-97594276D01*
X115336839Y-97602739D01*
X115309016Y-97626364D01*
X115268639Y-97662698D01*
X115218405Y-97709289D01*
X115161012Y-97763683D01*
X115124714Y-97798608D01*
X115061210Y-97861004D01*
X115006327Y-97916812D01*
X114962286Y-97963646D01*
X114931305Y-97999118D01*
X114915602Y-98020839D01*
X114914095Y-98025248D01*
X114921086Y-98042015D01*
X114940406Y-98075918D01*
X114969909Y-98123524D01*
X115007455Y-98181401D01*
X115050900Y-98246116D01*
X115063255Y-98264158D01*
X115108273Y-98329733D01*
X115148660Y-98388772D01*
X115182160Y-98437958D01*
X115206514Y-98473972D01*
X115219464Y-98493498D01*
X115220715Y-98495517D01*
X115218844Y-98511078D01*
X115208913Y-98545291D01*
X115192653Y-98593645D01*
X115171795Y-98651629D01*
X115148073Y-98714730D01*
X115123216Y-98778437D01*
X115098958Y-98838239D01*
X115077029Y-98889624D01*
X115059162Y-98928081D01*
X115047087Y-98949098D01*
X115046229Y-98950106D01*
X115038846Y-98956112D01*
X115026375Y-98962052D01*
X115006080Y-98968540D01*
X114975222Y-98976191D01*
X114931066Y-98985620D01*
X114870874Y-98997441D01*
X114791907Y-99012271D01*
X114691430Y-99030723D01*
X114669675Y-99034690D01*
X114605198Y-99047147D01*
X114548989Y-99059334D01*
X114506013Y-99070074D01*
X114481240Y-99078191D01*
X114477918Y-99080084D01*
X114472444Y-99096862D01*
X114467994Y-99134355D01*
X114464572Y-99188206D01*
X114462181Y-99254056D01*
X114460823Y-99327547D01*
X114460501Y-99404320D01*
X114461219Y-99480017D01*
X114462979Y-99550280D01*
X114465784Y-99610750D01*
X114469638Y-99657070D01*
X114474543Y-99684881D01*
X114477500Y-99690573D01*
X114493963Y-99696314D01*
X114531449Y-99705655D01*
X114586225Y-99717785D01*
X114654555Y-99731893D01*
X114732706Y-99747170D01*
X114775284Y-99755177D01*
X114856071Y-99770279D01*
X114928113Y-99783960D01*
X114987889Y-99795533D01*
X115031879Y-99804313D01*
X115056561Y-99809613D01*
X115060623Y-99810788D01*
X115067489Y-99824035D01*
X115082002Y-99855943D01*
X115102229Y-99901953D01*
X115126234Y-99957508D01*
X115152082Y-100018047D01*
X115177840Y-100079014D01*
X115201573Y-100135849D01*
X115221346Y-100183994D01*
X115235224Y-100218890D01*
X115241274Y-100235979D01*
X115241386Y-100236726D01*
X115234528Y-100250207D01*
X115215302Y-100281230D01*
X115185728Y-100326711D01*
X115147827Y-100383568D01*
X115103620Y-100448717D01*
X115077921Y-100486138D01*
X115031093Y-100554753D01*
X114989501Y-100617048D01*
X114955175Y-100669871D01*
X114930143Y-100710073D01*
X114916435Y-100734500D01*
X114914456Y-100739976D01*
X114922966Y-100752722D01*
X114946493Y-100779937D01*
X114982032Y-100818572D01*
X115026577Y-100865577D01*
X115077123Y-100917905D01*
X115130664Y-100972505D01*
X115184195Y-101026330D01*
X115234711Y-101076330D01*
X115279206Y-101119457D01*
X115314675Y-101152661D01*
X115338113Y-101172894D01*
X115345954Y-101177722D01*
X115358720Y-101170933D01*
X115389256Y-101151858D01*
X115434590Y-101122439D01*
X115491756Y-101084619D01*
X115557784Y-101040339D01*
X115607590Y-101006605D01*
X115859236Y-100835488D01*
X116068999Y-100921959D01*
X116278763Y-101008430D01*
X116335611Y-101309982D01*
X116392460Y-101611534D01*
X117020115Y-101611534D01*
X117076964Y-101309982D01*
G36*
X107922094Y-98208842D02*
G01*
X107954619Y-98196264D01*
X108004193Y-98171288D01*
X108075374Y-98132124D01*
X108080916Y-98129012D01*
X108146474Y-98091524D01*
X108201798Y-98058681D01*
X108241455Y-98033795D01*
X108260012Y-98020180D01*
X108260531Y-98019513D01*
X108256048Y-98000610D01*
X108235486Y-97958395D01*
X108200183Y-97895168D01*
X108151480Y-97813228D01*
X108090718Y-97714878D01*
X108019236Y-97602415D01*
X108001445Y-97574835D01*
X107955093Y-97498301D01*
X107921342Y-97432444D01*
X107903153Y-97383218D01*
X107901286Y-97373493D01*
X107902115Y-97330688D01*
X107911394Y-97262791D01*
X107927968Y-97174157D01*
X107950680Y-97069141D01*
X107978373Y-96952098D01*
X108009890Y-96827384D01*
X108044075Y-96699355D01*
X108079771Y-96572366D01*
X108115821Y-96450772D01*
X108151068Y-96338928D01*
X108184356Y-96241190D01*
X108214528Y-96161913D01*
X108235561Y-96114878D01*
X108260337Y-96064775D01*
X108283730Y-96016832D01*
X108284997Y-96014207D01*
X108323699Y-95965780D01*
X108380184Y-95933172D01*
X108445939Y-95917546D01*
X108512451Y-95920063D01*
X108571205Y-95941886D01*
X108604258Y-95970618D01*
X108651859Y-96049417D01*
X108686739Y-96147622D01*
X108705877Y-96255221D01*
X108708588Y-96316220D01*
X108697670Y-96430065D01*
X108665624Y-96524340D01*
X108610726Y-96603621D01*
X108593607Y-96621267D01*
X108542661Y-96670765D01*
X108539163Y-97020638D01*
X108535664Y-97370511D01*
X108624818Y-97505469D01*
X108666654Y-97566555D01*
X108706945Y-97621507D01*
X108739943Y-97662664D01*
X108754126Y-97677808D01*
X108794281Y-97715190D01*
X108848665Y-97685902D01*
X108883039Y-97664916D01*
X108901846Y-97648622D01*
X108903049Y-97645693D01*
X108915903Y-97633272D01*
X108937896Y-97624023D01*
X108959150Y-97615687D01*
X108991694Y-97599851D01*
X109038322Y-97574967D01*
X109101829Y-97539491D01*
X109185008Y-97491877D01*
X109290653Y-97430578D01*
X109348062Y-97397068D01*
X109415594Y-97356929D01*
X109459885Y-97328341D01*
X109484855Y-97307961D01*
X109494423Y-97292447D01*
X109492508Y-97278454D01*
X109490911Y-97275204D01*
X109475376Y-97254734D01*
X109442136Y-97216335D01*
X109395062Y-97164304D01*
X109338028Y-97102934D01*
X109288700Y-97050910D01*
X109175030Y-96927433D01*
X109086105Y-96820409D01*
X109021134Y-96728760D01*
X108979321Y-96651412D01*
X108965217Y-96612134D01*
X108959392Y-96577751D01*
X108953375Y-96519101D01*
X108947696Y-96442883D01*
X108942884Y-96355798D01*
X108940619Y-96300732D01*
X108937459Y-96205536D01*
X108936069Y-96135938D01*
X108936858Y-96086591D01*
X108940235Y-96052146D01*
X108946608Y-96027257D01*
X108956387Y-96006575D01*
X108964067Y-95993947D01*
X109008421Y-95945274D01*
X109065574Y-95911355D01*
X109125708Y-95896562D01*
X109170773Y-95901914D01*
X109211576Y-95925070D01*
X109262724Y-95966538D01*
X109317042Y-96019088D01*
X109367357Y-96075484D01*
X109406494Y-96128495D01*
X109420905Y-96154111D01*
X109442491Y-96189186D01*
X109481753Y-96242611D01*
X109535102Y-96310211D01*
X109598952Y-96387810D01*
X109669715Y-96471232D01*
X109743804Y-96556302D01*
X109817632Y-96638845D01*
X109887611Y-96714684D01*
X109950155Y-96779644D01*
X109999260Y-96827331D01*
X110053779Y-96874968D01*
X110099642Y-96910092D01*
X110131811Y-96929051D01*
X110142489Y-96931136D01*
X110158853Y-96922726D01*
X110199671Y-96900154D01*
X110262586Y-96864776D01*
X110345244Y-96817946D01*
X110445289Y-96761019D01*
X110560366Y-96695351D01*
X110688119Y-96622297D01*
X110826194Y-96543212D01*
X110972234Y-96459452D01*
X111123884Y-96372371D01*
X111278790Y-96283324D01*
X111434595Y-96193668D01*
X111588944Y-96104757D01*
X111739482Y-96017946D01*
X111883854Y-95934591D01*
X112019704Y-95856046D01*
X112144677Y-95783667D01*
X112256417Y-95718810D01*
X112352570Y-95662829D01*
X112430779Y-95617080D01*
X112488689Y-95582917D01*
X112523946Y-95561696D01*
X112534165Y-95555037D01*
X112520402Y-95553720D01*
X112477104Y-95552441D01*
X112405714Y-95551204D01*
X112307673Y-95550017D01*
X112184422Y-95548885D01*
X112037403Y-95547814D01*
X111868057Y-95546811D01*
X111677826Y-95545881D01*
X111468151Y-95545032D01*
X111240473Y-95544268D01*
X110996235Y-95543597D01*
X110736877Y-95543024D01*
X110463841Y-95542556D01*
X110178568Y-95542198D01*
X109882500Y-95541958D01*
X109577079Y-95541841D01*
X109448924Y-95541829D01*
X106348970Y-95541829D01*
X106570053Y-95925153D01*
X106616856Y-96006320D01*
X106677102Y-96110834D01*
X106748778Y-96235199D01*
X106829869Y-96375918D01*
X106918362Y-96529497D01*
X107012240Y-96692438D01*
X107109491Y-96861246D01*
X107208100Y-97032425D01*
X107306053Y-97202479D01*
X107330825Y-97245488D01*
X107421152Y-97402143D01*
X107507289Y-97551197D01*
X107587942Y-97690432D01*
X107661816Y-97817629D01*
X107727617Y-97930568D01*
X107784050Y-98027032D01*
X107829821Y-98104800D01*
X107863635Y-98161654D01*
X107884198Y-98195375D01*
X107889953Y-98203960D01*
X107902058Y-98210811D01*
X107922094Y-98208842D01*
X107922094Y-98208842D01*
G37*
X107922094Y-98208842D02*
X107954619Y-98196264D01*
X108004193Y-98171288D01*
X108075374Y-98132124D01*
X108080916Y-98129012D01*
X108146474Y-98091524D01*
X108201798Y-98058681D01*
X108241455Y-98033795D01*
X108260012Y-98020180D01*
X108260531Y-98019513D01*
X108256048Y-98000610D01*
X108235486Y-97958395D01*
X108200183Y-97895168D01*
X108151480Y-97813228D01*
X108090718Y-97714878D01*
X108019236Y-97602415D01*
X108001445Y-97574835D01*
X107955093Y-97498301D01*
X107921342Y-97432444D01*
X107903153Y-97383218D01*
X107901286Y-97373493D01*
X107902115Y-97330688D01*
X107911394Y-97262791D01*
X107927968Y-97174157D01*
X107950680Y-97069141D01*
X107978373Y-96952098D01*
X108009890Y-96827384D01*
X108044075Y-96699355D01*
X108079771Y-96572366D01*
X108115821Y-96450772D01*
X108151068Y-96338928D01*
X108184356Y-96241190D01*
X108214528Y-96161913D01*
X108235561Y-96114878D01*
X108260337Y-96064775D01*
X108283730Y-96016832D01*
X108284997Y-96014207D01*
X108323699Y-95965780D01*
X108380184Y-95933172D01*
X108445939Y-95917546D01*
X108512451Y-95920063D01*
X108571205Y-95941886D01*
X108604258Y-95970618D01*
X108651859Y-96049417D01*
X108686739Y-96147622D01*
X108705877Y-96255221D01*
X108708588Y-96316220D01*
X108697670Y-96430065D01*
X108665624Y-96524340D01*
X108610726Y-96603621D01*
X108593607Y-96621267D01*
X108542661Y-96670765D01*
X108539163Y-97020638D01*
X108535664Y-97370511D01*
X108624818Y-97505469D01*
X108666654Y-97566555D01*
X108706945Y-97621507D01*
X108739943Y-97662664D01*
X108754126Y-97677808D01*
X108794281Y-97715190D01*
X108848665Y-97685902D01*
X108883039Y-97664916D01*
X108901846Y-97648622D01*
X108903049Y-97645693D01*
X108915903Y-97633272D01*
X108937896Y-97624023D01*
X108959150Y-97615687D01*
X108991694Y-97599851D01*
X109038322Y-97574967D01*
X109101829Y-97539491D01*
X109185008Y-97491877D01*
X109290653Y-97430578D01*
X109348062Y-97397068D01*
X109415594Y-97356929D01*
X109459885Y-97328341D01*
X109484855Y-97307961D01*
X109494423Y-97292447D01*
X109492508Y-97278454D01*
X109490911Y-97275204D01*
X109475376Y-97254734D01*
X109442136Y-97216335D01*
X109395062Y-97164304D01*
X109338028Y-97102934D01*
X109288700Y-97050910D01*
X109175030Y-96927433D01*
X109086105Y-96820409D01*
X109021134Y-96728760D01*
X108979321Y-96651412D01*
X108965217Y-96612134D01*
X108959392Y-96577751D01*
X108953375Y-96519101D01*
X108947696Y-96442883D01*
X108942884Y-96355798D01*
X108940619Y-96300732D01*
X108937459Y-96205536D01*
X108936069Y-96135938D01*
X108936858Y-96086591D01*
X108940235Y-96052146D01*
X108946608Y-96027257D01*
X108956387Y-96006575D01*
X108964067Y-95993947D01*
X109008421Y-95945274D01*
X109065574Y-95911355D01*
X109125708Y-95896562D01*
X109170773Y-95901914D01*
X109211576Y-95925070D01*
X109262724Y-95966538D01*
X109317042Y-96019088D01*
X109367357Y-96075484D01*
X109406494Y-96128495D01*
X109420905Y-96154111D01*
X109442491Y-96189186D01*
X109481753Y-96242611D01*
X109535102Y-96310211D01*
X109598952Y-96387810D01*
X109669715Y-96471232D01*
X109743804Y-96556302D01*
X109817632Y-96638845D01*
X109887611Y-96714684D01*
X109950155Y-96779644D01*
X109999260Y-96827331D01*
X110053779Y-96874968D01*
X110099642Y-96910092D01*
X110131811Y-96929051D01*
X110142489Y-96931136D01*
X110158853Y-96922726D01*
X110199671Y-96900154D01*
X110262586Y-96864776D01*
X110345244Y-96817946D01*
X110445289Y-96761019D01*
X110560366Y-96695351D01*
X110688119Y-96622297D01*
X110826194Y-96543212D01*
X110972234Y-96459452D01*
X111123884Y-96372371D01*
X111278790Y-96283324D01*
X111434595Y-96193668D01*
X111588944Y-96104757D01*
X111739482Y-96017946D01*
X111883854Y-95934591D01*
X112019704Y-95856046D01*
X112144677Y-95783667D01*
X112256417Y-95718810D01*
X112352570Y-95662829D01*
X112430779Y-95617080D01*
X112488689Y-95582917D01*
X112523946Y-95561696D01*
X112534165Y-95555037D01*
X112520402Y-95553720D01*
X112477104Y-95552441D01*
X112405714Y-95551204D01*
X112307673Y-95550017D01*
X112184422Y-95548885D01*
X112037403Y-95547814D01*
X111868057Y-95546811D01*
X111677826Y-95545881D01*
X111468151Y-95545032D01*
X111240473Y-95544268D01*
X110996235Y-95543597D01*
X110736877Y-95543024D01*
X110463841Y-95542556D01*
X110178568Y-95542198D01*
X109882500Y-95541958D01*
X109577079Y-95541841D01*
X109448924Y-95541829D01*
X106348970Y-95541829D01*
X106570053Y-95925153D01*
X106616856Y-96006320D01*
X106677102Y-96110834D01*
X106748778Y-96235199D01*
X106829869Y-96375918D01*
X106918362Y-96529497D01*
X107012240Y-96692438D01*
X107109491Y-96861246D01*
X107208100Y-97032425D01*
X107306053Y-97202479D01*
X107330825Y-97245488D01*
X107421152Y-97402143D01*
X107507289Y-97551197D01*
X107587942Y-97690432D01*
X107661816Y-97817629D01*
X107727617Y-97930568D01*
X107784050Y-98027032D01*
X107829821Y-98104800D01*
X107863635Y-98161654D01*
X107884198Y-98195375D01*
X107889953Y-98203960D01*
X107902058Y-98210811D01*
X107922094Y-98208842D01*
G36*
X111587528Y-98265381D02*
G01*
X111598908Y-98246307D01*
X111624488Y-98202579D01*
X111663002Y-98136381D01*
X111713186Y-98049898D01*
X111773775Y-97945315D01*
X111843503Y-97824817D01*
X111921107Y-97690588D01*
X112005320Y-97544813D01*
X112094879Y-97389677D01*
X112186998Y-97230000D01*
X112281076Y-97066883D01*
X112371402Y-96910291D01*
X112456665Y-96762494D01*
X112535557Y-96625760D01*
X112606769Y-96502358D01*
X112668991Y-96394556D01*
X112720913Y-96304623D01*
X112761228Y-96234827D01*
X112788624Y-96187436D01*
X112801507Y-96165214D01*
X112822507Y-96127670D01*
X112833925Y-96104169D01*
X112834551Y-96100080D01*
X112820636Y-96107758D01*
X112781941Y-96129797D01*
X112720487Y-96165029D01*
X112638298Y-96212289D01*
X112537396Y-96270411D01*
X112419805Y-96338229D01*
X112287546Y-96414576D01*
X112142642Y-96498286D01*
X111987117Y-96588194D01*
X111822992Y-96683133D01*
X111760549Y-96719268D01*
X111593487Y-96815917D01*
X111434074Y-96908062D01*
X111284355Y-96994525D01*
X111146376Y-97074129D01*
X111022185Y-97145695D01*
X110913827Y-97208045D01*
X110823348Y-97260002D01*
X110752796Y-97300387D01*
X110704215Y-97328022D01*
X110679654Y-97341728D01*
X110677085Y-97343026D01*
X110684569Y-97354780D01*
X110710614Y-97386205D01*
X110752559Y-97434406D01*
X110807746Y-97496490D01*
X110873517Y-97569561D01*
X110947212Y-97650724D01*
X111026173Y-97737084D01*
X111107740Y-97825747D01*
X111189254Y-97913818D01*
X111268057Y-97998401D01*
X111341490Y-98076603D01*
X111406893Y-98145528D01*
X111461608Y-98202281D01*
X111502977Y-98243968D01*
X111517164Y-98257637D01*
X111564180Y-98301799D01*
X111587528Y-98265381D01*
X111587528Y-98265381D01*
G37*
X111587528Y-98265381D02*
X111598908Y-98246307D01*
X111624488Y-98202579D01*
X111663002Y-98136381D01*
X111713186Y-98049898D01*
X111773775Y-97945315D01*
X111843503Y-97824817D01*
X111921107Y-97690588D01*
X112005320Y-97544813D01*
X112094879Y-97389677D01*
X112186998Y-97230000D01*
X112281076Y-97066883D01*
X112371402Y-96910291D01*
X112456665Y-96762494D01*
X112535557Y-96625760D01*
X112606769Y-96502358D01*
X112668991Y-96394556D01*
X112720913Y-96304623D01*
X112761228Y-96234827D01*
X112788624Y-96187436D01*
X112801507Y-96165214D01*
X112822507Y-96127670D01*
X112833925Y-96104169D01*
X112834551Y-96100080D01*
X112820636Y-96107758D01*
X112781941Y-96129797D01*
X112720487Y-96165029D01*
X112638298Y-96212289D01*
X112537396Y-96270411D01*
X112419805Y-96338229D01*
X112287546Y-96414576D01*
X112142642Y-96498286D01*
X111987117Y-96588194D01*
X111822992Y-96683133D01*
X111760549Y-96719268D01*
X111593487Y-96815917D01*
X111434074Y-96908062D01*
X111284355Y-96994525D01*
X111146376Y-97074129D01*
X111022185Y-97145695D01*
X110913827Y-97208045D01*
X110823348Y-97260002D01*
X110752796Y-97300387D01*
X110704215Y-97328022D01*
X110679654Y-97341728D01*
X110677085Y-97343026D01*
X110684569Y-97354780D01*
X110710614Y-97386205D01*
X110752559Y-97434406D01*
X110807746Y-97496490D01*
X110873517Y-97569561D01*
X110947212Y-97650724D01*
X111026173Y-97737084D01*
X111107740Y-97825747D01*
X111189254Y-97913818D01*
X111268057Y-97998401D01*
X111341490Y-98076603D01*
X111406893Y-98145528D01*
X111461608Y-98202281D01*
X111502977Y-98243968D01*
X111517164Y-98257637D01*
X111564180Y-98301799D01*
X111587528Y-98265381D01*
G36*
X109764043Y-101414165D02*
G01*
X109787065Y-101376755D01*
X109822534Y-101317486D01*
X109868996Y-101238882D01*
X109924996Y-101143462D01*
X109989081Y-101033750D01*
X110059796Y-100912266D01*
X110135687Y-100781532D01*
X110215299Y-100644070D01*
X110297178Y-100502402D01*
X110379870Y-100359049D01*
X110461921Y-100216533D01*
X110541876Y-100077376D01*
X110618281Y-99944099D01*
X110689682Y-99819224D01*
X110754624Y-99705273D01*
X110811653Y-99604767D01*
X110859315Y-99520228D01*
X110896155Y-99454178D01*
X110920720Y-99409138D01*
X110931554Y-99387630D01*
X110931951Y-99386286D01*
X110918501Y-99368035D01*
X110881114Y-99340118D01*
X110824235Y-99305275D01*
X110752312Y-99266246D01*
X110677015Y-99229157D01*
X110574560Y-99184183D01*
X110466817Y-99143774D01*
X110350073Y-99107031D01*
X110220618Y-99073058D01*
X110074740Y-99040956D01*
X109908726Y-99009827D01*
X109718866Y-98978773D01*
X109522469Y-98949855D01*
X109351834Y-98924200D01*
X109208545Y-98898802D01*
X109089008Y-98872398D01*
X108989630Y-98843727D01*
X108906818Y-98811527D01*
X108836978Y-98774535D01*
X108776518Y-98731488D01*
X108721845Y-98681125D01*
X108704214Y-98662417D01*
X108666000Y-98618861D01*
X108637732Y-98583318D01*
X108624618Y-98562417D01*
X108624268Y-98560703D01*
X108619680Y-98550194D01*
X108603758Y-98550076D01*
X108573266Y-98561746D01*
X108524968Y-98586604D01*
X108455627Y-98626048D01*
X108407439Y-98654413D01*
X108335583Y-98698753D01*
X108279742Y-98736721D01*
X108243667Y-98765584D01*
X108231113Y-98782612D01*
X108231121Y-98782736D01*
X108238906Y-98798963D01*
X108260892Y-98839600D01*
X108295803Y-98902433D01*
X108342363Y-98985248D01*
X108399295Y-99085828D01*
X108465323Y-99201960D01*
X108539172Y-99331429D01*
X108619564Y-99472020D01*
X108705224Y-99621518D01*
X108794876Y-99777708D01*
X108887243Y-99938376D01*
X108981049Y-100101307D01*
X109075018Y-100264287D01*
X109167874Y-100425100D01*
X109258340Y-100581532D01*
X109345141Y-100731367D01*
X109427000Y-100872392D01*
X109502641Y-101002391D01*
X109570787Y-101119151D01*
X109630163Y-101220455D01*
X109679493Y-101304089D01*
X109717500Y-101367838D01*
X109742907Y-101409489D01*
X109754440Y-101426825D01*
X109754923Y-101427195D01*
X109764043Y-101414165D01*
X109764043Y-101414165D01*
G37*
X109764043Y-101414165D02*
X109787065Y-101376755D01*
X109822534Y-101317486D01*
X109868996Y-101238882D01*
X109924996Y-101143462D01*
X109989081Y-101033750D01*
X110059796Y-100912266D01*
X110135687Y-100781532D01*
X110215299Y-100644070D01*
X110297178Y-100502402D01*
X110379870Y-100359049D01*
X110461921Y-100216533D01*
X110541876Y-100077376D01*
X110618281Y-99944099D01*
X110689682Y-99819224D01*
X110754624Y-99705273D01*
X110811653Y-99604767D01*
X110859315Y-99520228D01*
X110896155Y-99454178D01*
X110920720Y-99409138D01*
X110931554Y-99387630D01*
X110931951Y-99386286D01*
X110918501Y-99368035D01*
X110881114Y-99340118D01*
X110824235Y-99305275D01*
X110752312Y-99266246D01*
X110677015Y-99229157D01*
X110574560Y-99184183D01*
X110466817Y-99143774D01*
X110350073Y-99107031D01*
X110220618Y-99073058D01*
X110074740Y-99040956D01*
X109908726Y-99009827D01*
X109718866Y-98978773D01*
X109522469Y-98949855D01*
X109351834Y-98924200D01*
X109208545Y-98898802D01*
X109089008Y-98872398D01*
X108989630Y-98843727D01*
X108906818Y-98811527D01*
X108836978Y-98774535D01*
X108776518Y-98731488D01*
X108721845Y-98681125D01*
X108704214Y-98662417D01*
X108666000Y-98618861D01*
X108637732Y-98583318D01*
X108624618Y-98562417D01*
X108624268Y-98560703D01*
X108619680Y-98550194D01*
X108603758Y-98550076D01*
X108573266Y-98561746D01*
X108524968Y-98586604D01*
X108455627Y-98626048D01*
X108407439Y-98654413D01*
X108335583Y-98698753D01*
X108279742Y-98736721D01*
X108243667Y-98765584D01*
X108231113Y-98782612D01*
X108231121Y-98782736D01*
X108238906Y-98798963D01*
X108260892Y-98839600D01*
X108295803Y-98902433D01*
X108342363Y-98985248D01*
X108399295Y-99085828D01*
X108465323Y-99201960D01*
X108539172Y-99331429D01*
X108619564Y-99472020D01*
X108705224Y-99621518D01*
X108794876Y-99777708D01*
X108887243Y-99938376D01*
X108981049Y-100101307D01*
X109075018Y-100264287D01*
X109167874Y-100425100D01*
X109258340Y-100581532D01*
X109345141Y-100731367D01*
X109427000Y-100872392D01*
X109502641Y-101002391D01*
X109570787Y-101119151D01*
X109630163Y-101220455D01*
X109679493Y-101304089D01*
X109717500Y-101367838D01*
X109742907Y-101409489D01*
X109754440Y-101426825D01*
X109754923Y-101427195D01*
X109764043Y-101414165D01*
D14*
X84476000Y-154284000D02*
X87524000Y-154284000D01*
X87524000Y-157967000D02*
X87524000Y-159872000D01*
X87524000Y-159872000D02*
X84476000Y-159872000D01*
X84476000Y-159872000D02*
X84476000Y-157967000D01*
X84476000Y-156316000D02*
X84476000Y-154284000D01*
X84476000Y-154484000D02*
X87524000Y-154484000D01*
X87524000Y-154284000D02*
X87524000Y-156316000D01*
D15*
X166900000Y-141920000D02*
X164900000Y-141920000D01*
X164900000Y-139880000D02*
X166900000Y-139880000D01*
X88050000Y-113300000D02*
X88050000Y-112300000D01*
X89750000Y-112300000D02*
X89750000Y-113300000D01*
X74700000Y-117350000D02*
X75700000Y-117350000D01*
X75700000Y-119050000D02*
X74700000Y-119050000D01*
X90120000Y-155200000D02*
X90120000Y-157200000D01*
X88080000Y-157200000D02*
X88080000Y-155200000D01*
X107450000Y-138700000D02*
X107450000Y-137700000D01*
X109150000Y-137700000D02*
X109150000Y-138700000D01*
X125500000Y-138650000D02*
X125500000Y-137650000D01*
X127200000Y-137650000D02*
X127200000Y-138650000D01*
X161500000Y-138800000D02*
X161500000Y-137800000D01*
X163200000Y-137800000D02*
X163200000Y-138800000D01*
X197400000Y-138550000D02*
X197400000Y-137550000D01*
X199100000Y-137550000D02*
X199100000Y-138550000D01*
X76380000Y-104100000D02*
X76380000Y-102900000D01*
X74620000Y-102900000D02*
X74620000Y-104100000D01*
X86100000Y-109480000D02*
X87300000Y-109480000D01*
X87300000Y-107720000D02*
X86100000Y-107720000D01*
X110420000Y-137450000D02*
X110420000Y-138650000D01*
X112180000Y-138650000D02*
X112180000Y-137450000D01*
X128470000Y-137450000D02*
X128470000Y-138650000D01*
X130230000Y-138650000D02*
X130230000Y-137450000D01*
X146470000Y-137400000D02*
X146470000Y-138600000D01*
X148230000Y-138600000D02*
X148230000Y-137400000D01*
X164470000Y-137400000D02*
X164470000Y-138600000D01*
X166230000Y-138600000D02*
X166230000Y-137400000D01*
X182370000Y-137400000D02*
X182370000Y-138600000D01*
X184130000Y-138600000D02*
X184130000Y-137400000D01*
X200470000Y-137450000D02*
X200470000Y-138650000D01*
X202230000Y-138650000D02*
X202230000Y-137450000D01*
X81620000Y-102400000D02*
X81620000Y-103600000D01*
X83380000Y-103600000D02*
X83380000Y-102400000D01*
X85120000Y-102400000D02*
X85120000Y-103600000D01*
X86880000Y-103600000D02*
X86880000Y-102400000D01*
X78120000Y-102400000D02*
X78120000Y-103600000D01*
X79880000Y-103600000D02*
X79880000Y-102400000D01*
X81800000Y-97000000D02*
X83200000Y-97000000D01*
X83200000Y-97000000D02*
X83200000Y-99800000D01*
X81800000Y-97000000D02*
X81800000Y-99800000D01*
X85300000Y-97100000D02*
X86700000Y-97100000D01*
X86700000Y-97100000D02*
X86700000Y-99900000D01*
X85300000Y-97100000D02*
X85300000Y-99900000D01*
X78300000Y-97100000D02*
X79700000Y-97100000D01*
X79700000Y-97100000D02*
X79700000Y-99900000D01*
X78300000Y-97100000D02*
X78300000Y-99900000D01*
X143400000Y-138700000D02*
X143400000Y-137700000D01*
X145100000Y-137700000D02*
X145100000Y-138700000D01*
X179350000Y-138750000D02*
X179350000Y-137750000D01*
X181050000Y-137750000D02*
X181050000Y-138750000D01*
D16*
X101300000Y-137100000D02*
G75*
G03X101300000Y-137100000I-200000J0D01*
G01*
D17*
X106874900Y-136240214D02*
X106874900Y-136527003D01*
X102125100Y-126759786D02*
X102125100Y-126472997D01*
X102125100Y-136527003D02*
X102125100Y-136240214D01*
X106874900Y-136527003D02*
X102125100Y-136527003D01*
X106874900Y-126472997D02*
X106874900Y-126759786D01*
X102125100Y-126472997D02*
X106874900Y-126472997D01*
D16*
X119300000Y-137100000D02*
G75*
G03X119300000Y-137100000I-200000J0D01*
G01*
D17*
X124874900Y-136240214D02*
X124874900Y-136527003D01*
X120125100Y-126759786D02*
X120125100Y-126472997D01*
X120125100Y-136527003D02*
X120125100Y-136240214D01*
X124874900Y-136527003D02*
X120125100Y-136527003D01*
X124874900Y-126472997D02*
X124874900Y-126759786D01*
X120125100Y-126472997D02*
X124874900Y-126472997D01*
D16*
X137300000Y-137100000D02*
G75*
G03X137300000Y-137100000I-200000J0D01*
G01*
D17*
X142874900Y-136240214D02*
X142874900Y-136527003D01*
X138125100Y-126759786D02*
X138125100Y-126472997D01*
X138125100Y-136527003D02*
X138125100Y-136240214D01*
X142874900Y-136527003D02*
X138125100Y-136527003D01*
X142874900Y-126472997D02*
X142874900Y-126759786D01*
X138125100Y-126472997D02*
X142874900Y-126472997D01*
D16*
X155300000Y-137100000D02*
G75*
G03X155300000Y-137100000I-200000J0D01*
G01*
D17*
X160874900Y-136240214D02*
X160874900Y-136527003D01*
X156125100Y-126759786D02*
X156125100Y-126472997D01*
X156125100Y-136527003D02*
X156125100Y-136240214D01*
X160874900Y-136527003D02*
X156125100Y-136527003D01*
X160874900Y-126472997D02*
X160874900Y-126759786D01*
X156125100Y-126472997D02*
X160874900Y-126472997D01*
D16*
X173300000Y-137100000D02*
G75*
G03X173300000Y-137100000I-200000J0D01*
G01*
D17*
X178874900Y-136240214D02*
X178874900Y-136527003D01*
X174125100Y-126759786D02*
X174125100Y-126472997D01*
X174125100Y-136527003D02*
X174125100Y-136240214D01*
X178874900Y-136527003D02*
X174125100Y-136527003D01*
X178874900Y-126472997D02*
X178874900Y-126759786D01*
X174125100Y-126472997D02*
X178874900Y-126472997D01*
D16*
X191280600Y-137074994D02*
G75*
G03X191280600Y-137074994I-200000J0D01*
G01*
D17*
X196855500Y-136215208D02*
X196855500Y-136501997D01*
X192105700Y-126734780D02*
X192105700Y-126447991D01*
X192105700Y-136501997D02*
X192105700Y-136215208D01*
X196855500Y-136501997D02*
X192105700Y-136501997D01*
X196855500Y-126447991D02*
X196855500Y-126734780D01*
X192105700Y-126447991D02*
X196855500Y-126447991D01*
X84318966Y-110139960D02*
G75*
G03X84318966Y-110139960I-479246J0D01*
G01*
D14*
X92500000Y-122500000D02*
X92500000Y-152000000D01*
X92500000Y-152000000D02*
X65500000Y-152000000D01*
X65500000Y-152000000D02*
X65500000Y-122500000D01*
X65500000Y-122500000D02*
X92500000Y-122500000D01*
X81500000Y-149000000D02*
X83500000Y-149000000D01*
X83500000Y-127500000D02*
X81500000Y-127500000D01*
X87500000Y-127500000D02*
X87500000Y-149000000D01*
X87500000Y-149000000D02*
X83500000Y-149000000D01*
X81500000Y-149000000D02*
X81500000Y-128000000D01*
X81500000Y-128000000D02*
X81500000Y-127500000D01*
X83500000Y-127500000D02*
X87500000Y-127500000D01*
D18*
X87074000Y-167856000D02*
X84026000Y-167856000D01*
X84026000Y-167856000D02*
X84026000Y-160744000D01*
X84026000Y-160744000D02*
X87074000Y-160744000D01*
X90122000Y-167856000D02*
X90884000Y-167856000D01*
X90884000Y-167856000D02*
X93170000Y-166332000D01*
X93170000Y-166332000D02*
X93170000Y-162268000D01*
X93170000Y-162268000D02*
X90884000Y-160744000D01*
X90884000Y-160744000D02*
X90122000Y-160744000D01*
D15*
X76000000Y-159300000D02*
X76000000Y-157120000D01*
X76000000Y-152700000D02*
X76000000Y-154880000D01*
X82600000Y-158540000D02*
X82600000Y-157120000D01*
X82600000Y-153460000D02*
X82600000Y-154880000D01*
X76000000Y-159300000D02*
X81840000Y-159300000D01*
X81840000Y-159300000D02*
X82600000Y-158540000D01*
X82600000Y-153460000D02*
X81840000Y-152700000D01*
X81840000Y-152700000D02*
X76000000Y-152700000D01*
X75800000Y-166300000D02*
X75800000Y-164120000D01*
X75800000Y-159700000D02*
X75800000Y-161880000D01*
X82400000Y-165540000D02*
X82400000Y-164120000D01*
X82400000Y-160460000D02*
X82400000Y-161880000D01*
X75800000Y-166300000D02*
X81640000Y-166300000D01*
X81640000Y-166300000D02*
X82400000Y-165540000D01*
X82400000Y-160460000D02*
X81640000Y-159700000D01*
X81640000Y-159700000D02*
X75800000Y-159700000D01*
D14*
X86366666Y-153752380D02*
X86842857Y-153752380D01*
X86842857Y-152752380D01*
X85509523Y-153752380D02*
X86080952Y-153752380D01*
X85795238Y-153752380D02*
X85795238Y-152752380D01*
X85890476Y-152895238D01*
X85985714Y-152990476D01*
X86080952Y-153038095D01*
X167557142Y-143057142D02*
X167604761Y-143009523D01*
X167652380Y-142866666D01*
X167652380Y-142771428D01*
X167604761Y-142628571D01*
X167509523Y-142533333D01*
X167414285Y-142485714D01*
X167223809Y-142438095D01*
X167080952Y-142438095D01*
X166890476Y-142485714D01*
X166795238Y-142533333D01*
X166700000Y-142628571D01*
X166652380Y-142771428D01*
X166652380Y-142866666D01*
X166700000Y-143009523D01*
X166747619Y-143057142D01*
X167652380Y-144009523D02*
X167652380Y-143438095D01*
X167652380Y-143723809D02*
X166652380Y-143723809D01*
X166795238Y-143628571D01*
X166890476Y-143533333D01*
X166938095Y-143438095D01*
X166747619Y-144390476D02*
X166700000Y-144438095D01*
X166652380Y-144533333D01*
X166652380Y-144771428D01*
X166700000Y-144866666D01*
X166747619Y-144914285D01*
X166842857Y-144961904D01*
X166938095Y-144961904D01*
X167080952Y-144914285D01*
X167652380Y-144342857D01*
X167652380Y-144961904D01*
X91157142Y-112333333D02*
X91204761Y-112285714D01*
X91252380Y-112142857D01*
X91252380Y-112047619D01*
X91204761Y-111904761D01*
X91109523Y-111809523D01*
X91014285Y-111761904D01*
X90823809Y-111714285D01*
X90680952Y-111714285D01*
X90490476Y-111761904D01*
X90395238Y-111809523D01*
X90300000Y-111904761D01*
X90252380Y-112047619D01*
X90252380Y-112142857D01*
X90300000Y-112285714D01*
X90347619Y-112333333D01*
X91252380Y-113285714D02*
X91252380Y-112714285D01*
X91252380Y-113000000D02*
X90252380Y-113000000D01*
X90395238Y-112904761D01*
X90490476Y-112809523D01*
X90538095Y-112714285D01*
X76066666Y-120557142D02*
X76114285Y-120604761D01*
X76257142Y-120652380D01*
X76352380Y-120652380D01*
X76495238Y-120604761D01*
X76590476Y-120509523D01*
X76638095Y-120414285D01*
X76685714Y-120223809D01*
X76685714Y-120080952D01*
X76638095Y-119890476D01*
X76590476Y-119795238D01*
X76495238Y-119700000D01*
X76352380Y-119652380D01*
X76257142Y-119652380D01*
X76114285Y-119700000D01*
X76066666Y-119747619D01*
X75685714Y-119747619D02*
X75638095Y-119700000D01*
X75542857Y-119652380D01*
X75304761Y-119652380D01*
X75209523Y-119700000D01*
X75161904Y-119747619D01*
X75114285Y-119842857D01*
X75114285Y-119938095D01*
X75161904Y-120080952D01*
X75733333Y-120652380D01*
X75114285Y-120652380D01*
X91657142Y-156033333D02*
X91704761Y-155985714D01*
X91752380Y-155842857D01*
X91752380Y-155747619D01*
X91704761Y-155604761D01*
X91609523Y-155509523D01*
X91514285Y-155461904D01*
X91323809Y-155414285D01*
X91180952Y-155414285D01*
X90990476Y-155461904D01*
X90895238Y-155509523D01*
X90800000Y-155604761D01*
X90752380Y-155747619D01*
X90752380Y-155842857D01*
X90800000Y-155985714D01*
X90847619Y-156033333D01*
X90752380Y-156938095D02*
X90752380Y-156461904D01*
X91228571Y-156414285D01*
X91180952Y-156461904D01*
X91133333Y-156557142D01*
X91133333Y-156795238D01*
X91180952Y-156890476D01*
X91228571Y-156938095D01*
X91323809Y-156985714D01*
X91561904Y-156985714D01*
X91657142Y-156938095D01*
X91704761Y-156890476D01*
X91752380Y-156795238D01*
X91752380Y-156557142D01*
X91704761Y-156461904D01*
X91657142Y-156414285D01*
X108657142Y-140833333D02*
X108704761Y-140785714D01*
X108752380Y-140642857D01*
X108752380Y-140547619D01*
X108704761Y-140404761D01*
X108609523Y-140309523D01*
X108514285Y-140261904D01*
X108323809Y-140214285D01*
X108180952Y-140214285D01*
X107990476Y-140261904D01*
X107895238Y-140309523D01*
X107800000Y-140404761D01*
X107752380Y-140547619D01*
X107752380Y-140642857D01*
X107800000Y-140785714D01*
X107847619Y-140833333D01*
X107752380Y-141690476D02*
X107752380Y-141500000D01*
X107800000Y-141404761D01*
X107847619Y-141357142D01*
X107990476Y-141261904D01*
X108180952Y-141214285D01*
X108561904Y-141214285D01*
X108657142Y-141261904D01*
X108704761Y-141309523D01*
X108752380Y-141404761D01*
X108752380Y-141595238D01*
X108704761Y-141690476D01*
X108657142Y-141738095D01*
X108561904Y-141785714D01*
X108323809Y-141785714D01*
X108228571Y-141738095D01*
X108180952Y-141690476D01*
X108133333Y-141595238D01*
X108133333Y-141404761D01*
X108180952Y-141309523D01*
X108228571Y-141261904D01*
X108323809Y-141214285D01*
X126657142Y-140833333D02*
X126704761Y-140785714D01*
X126752380Y-140642857D01*
X126752380Y-140547619D01*
X126704761Y-140404761D01*
X126609523Y-140309523D01*
X126514285Y-140261904D01*
X126323809Y-140214285D01*
X126180952Y-140214285D01*
X125990476Y-140261904D01*
X125895238Y-140309523D01*
X125800000Y-140404761D01*
X125752380Y-140547619D01*
X125752380Y-140642857D01*
X125800000Y-140785714D01*
X125847619Y-140833333D01*
X125752380Y-141166666D02*
X125752380Y-141833333D01*
X126752380Y-141404761D01*
X162257142Y-140933333D02*
X162304761Y-140885714D01*
X162352380Y-140742857D01*
X162352380Y-140647619D01*
X162304761Y-140504761D01*
X162209523Y-140409523D01*
X162114285Y-140361904D01*
X161923809Y-140314285D01*
X161780952Y-140314285D01*
X161590476Y-140361904D01*
X161495238Y-140409523D01*
X161400000Y-140504761D01*
X161352380Y-140647619D01*
X161352380Y-140742857D01*
X161400000Y-140885714D01*
X161447619Y-140933333D01*
X162352380Y-141409523D02*
X162352380Y-141600000D01*
X162304761Y-141695238D01*
X162257142Y-141742857D01*
X162114285Y-141838095D01*
X161923809Y-141885714D01*
X161542857Y-141885714D01*
X161447619Y-141838095D01*
X161400000Y-141790476D01*
X161352380Y-141695238D01*
X161352380Y-141504761D01*
X161400000Y-141409523D01*
X161447619Y-141361904D01*
X161542857Y-141314285D01*
X161780952Y-141314285D01*
X161876190Y-141361904D01*
X161923809Y-141409523D01*
X161971428Y-141504761D01*
X161971428Y-141695238D01*
X161923809Y-141790476D01*
X161876190Y-141838095D01*
X161780952Y-141885714D01*
X198557142Y-140757142D02*
X198604761Y-140709523D01*
X198652380Y-140566666D01*
X198652380Y-140471428D01*
X198604761Y-140328571D01*
X198509523Y-140233333D01*
X198414285Y-140185714D01*
X198223809Y-140138095D01*
X198080952Y-140138095D01*
X197890476Y-140185714D01*
X197795238Y-140233333D01*
X197700000Y-140328571D01*
X197652380Y-140471428D01*
X197652380Y-140566666D01*
X197700000Y-140709523D01*
X197747619Y-140757142D01*
X198652380Y-141709523D02*
X198652380Y-141138095D01*
X198652380Y-141423809D02*
X197652380Y-141423809D01*
X197795238Y-141328571D01*
X197890476Y-141233333D01*
X197938095Y-141138095D01*
X198652380Y-142661904D02*
X198652380Y-142090476D01*
X198652380Y-142376190D02*
X197652380Y-142376190D01*
X197795238Y-142280952D01*
X197890476Y-142185714D01*
X197938095Y-142090476D01*
X74052380Y-103333333D02*
X73576190Y-103000000D01*
X74052380Y-102761904D02*
X73052380Y-102761904D01*
X73052380Y-103142857D01*
X73100000Y-103238095D01*
X73147619Y-103285714D01*
X73242857Y-103333333D01*
X73385714Y-103333333D01*
X73480952Y-103285714D01*
X73528571Y-103238095D01*
X73576190Y-103142857D01*
X73576190Y-102761904D01*
X74052380Y-104285714D02*
X74052380Y-103714285D01*
X74052380Y-104000000D02*
X73052380Y-104000000D01*
X73195238Y-103904761D01*
X73290476Y-103809523D01*
X73338095Y-103714285D01*
X88266666Y-107252380D02*
X88600000Y-106776190D01*
X88838095Y-107252380D02*
X88838095Y-106252380D01*
X88457142Y-106252380D01*
X88361904Y-106300000D01*
X88314285Y-106347619D01*
X88266666Y-106442857D01*
X88266666Y-106585714D01*
X88314285Y-106680952D01*
X88361904Y-106728571D01*
X88457142Y-106776190D01*
X88838095Y-106776190D01*
X87885714Y-106347619D02*
X87838095Y-106300000D01*
X87742857Y-106252380D01*
X87504761Y-106252380D01*
X87409523Y-106300000D01*
X87361904Y-106347619D01*
X87314285Y-106442857D01*
X87314285Y-106538095D01*
X87361904Y-106680952D01*
X87933333Y-107252380D01*
X87314285Y-107252380D01*
X111752380Y-140633333D02*
X111276190Y-140300000D01*
X111752380Y-140061904D02*
X110752380Y-140061904D01*
X110752380Y-140442857D01*
X110800000Y-140538095D01*
X110847619Y-140585714D01*
X110942857Y-140633333D01*
X111085714Y-140633333D01*
X111180952Y-140585714D01*
X111228571Y-140538095D01*
X111276190Y-140442857D01*
X111276190Y-140061904D01*
X110752380Y-140966666D02*
X110752380Y-141585714D01*
X111133333Y-141252380D01*
X111133333Y-141395238D01*
X111180952Y-141490476D01*
X111228571Y-141538095D01*
X111323809Y-141585714D01*
X111561904Y-141585714D01*
X111657142Y-141538095D01*
X111704761Y-141490476D01*
X111752380Y-141395238D01*
X111752380Y-141109523D01*
X111704761Y-141014285D01*
X111657142Y-140966666D01*
X129752380Y-140633333D02*
X129276190Y-140300000D01*
X129752380Y-140061904D02*
X128752380Y-140061904D01*
X128752380Y-140442857D01*
X128800000Y-140538095D01*
X128847619Y-140585714D01*
X128942857Y-140633333D01*
X129085714Y-140633333D01*
X129180952Y-140585714D01*
X129228571Y-140538095D01*
X129276190Y-140442857D01*
X129276190Y-140061904D01*
X129085714Y-141490476D02*
X129752380Y-141490476D01*
X128704761Y-141252380D02*
X129419047Y-141014285D01*
X129419047Y-141633333D01*
X147852380Y-140633333D02*
X147376190Y-140300000D01*
X147852380Y-140061904D02*
X146852380Y-140061904D01*
X146852380Y-140442857D01*
X146900000Y-140538095D01*
X146947619Y-140585714D01*
X147042857Y-140633333D01*
X147185714Y-140633333D01*
X147280952Y-140585714D01*
X147328571Y-140538095D01*
X147376190Y-140442857D01*
X147376190Y-140061904D01*
X146852380Y-141538095D02*
X146852380Y-141061904D01*
X147328571Y-141014285D01*
X147280952Y-141061904D01*
X147233333Y-141157142D01*
X147233333Y-141395238D01*
X147280952Y-141490476D01*
X147328571Y-141538095D01*
X147423809Y-141585714D01*
X147661904Y-141585714D01*
X147757142Y-141538095D01*
X147804761Y-141490476D01*
X147852380Y-141395238D01*
X147852380Y-141157142D01*
X147804761Y-141061904D01*
X147757142Y-141014285D01*
X167952380Y-137933333D02*
X167476190Y-137600000D01*
X167952380Y-137361904D02*
X166952380Y-137361904D01*
X166952380Y-137742857D01*
X167000000Y-137838095D01*
X167047619Y-137885714D01*
X167142857Y-137933333D01*
X167285714Y-137933333D01*
X167380952Y-137885714D01*
X167428571Y-137838095D01*
X167476190Y-137742857D01*
X167476190Y-137361904D01*
X166952380Y-138790476D02*
X166952380Y-138600000D01*
X167000000Y-138504761D01*
X167047619Y-138457142D01*
X167190476Y-138361904D01*
X167380952Y-138314285D01*
X167761904Y-138314285D01*
X167857142Y-138361904D01*
X167904761Y-138409523D01*
X167952380Y-138504761D01*
X167952380Y-138695238D01*
X167904761Y-138790476D01*
X167857142Y-138838095D01*
X167761904Y-138885714D01*
X167523809Y-138885714D01*
X167428571Y-138838095D01*
X167380952Y-138790476D01*
X167333333Y-138695238D01*
X167333333Y-138504761D01*
X167380952Y-138409523D01*
X167428571Y-138361904D01*
X167523809Y-138314285D01*
X183752380Y-140533333D02*
X183276190Y-140200000D01*
X183752380Y-139961904D02*
X182752380Y-139961904D01*
X182752380Y-140342857D01*
X182800000Y-140438095D01*
X182847619Y-140485714D01*
X182942857Y-140533333D01*
X183085714Y-140533333D01*
X183180952Y-140485714D01*
X183228571Y-140438095D01*
X183276190Y-140342857D01*
X183276190Y-139961904D01*
X182752380Y-140866666D02*
X182752380Y-141533333D01*
X183752380Y-141104761D01*
X201752380Y-140733333D02*
X201276190Y-140400000D01*
X201752380Y-140161904D02*
X200752380Y-140161904D01*
X200752380Y-140542857D01*
X200800000Y-140638095D01*
X200847619Y-140685714D01*
X200942857Y-140733333D01*
X201085714Y-140733333D01*
X201180952Y-140685714D01*
X201228571Y-140638095D01*
X201276190Y-140542857D01*
X201276190Y-140161904D01*
X201180952Y-141304761D02*
X201133333Y-141209523D01*
X201085714Y-141161904D01*
X200990476Y-141114285D01*
X200942857Y-141114285D01*
X200847619Y-141161904D01*
X200800000Y-141209523D01*
X200752380Y-141304761D01*
X200752380Y-141495238D01*
X200800000Y-141590476D01*
X200847619Y-141638095D01*
X200942857Y-141685714D01*
X200990476Y-141685714D01*
X201085714Y-141638095D01*
X201133333Y-141590476D01*
X201180952Y-141495238D01*
X201180952Y-141304761D01*
X201228571Y-141209523D01*
X201276190Y-141161904D01*
X201371428Y-141114285D01*
X201561904Y-141114285D01*
X201657142Y-141161904D01*
X201704761Y-141209523D01*
X201752380Y-141304761D01*
X201752380Y-141495238D01*
X201704761Y-141590476D01*
X201657142Y-141638095D01*
X201561904Y-141685714D01*
X201371428Y-141685714D01*
X201276190Y-141638095D01*
X201228571Y-141590476D01*
X201180952Y-141495238D01*
X81252380Y-103457142D02*
X80776190Y-103123809D01*
X81252380Y-102885714D02*
X80252380Y-102885714D01*
X80252380Y-103266666D01*
X80300000Y-103361904D01*
X80347619Y-103409523D01*
X80442857Y-103457142D01*
X80585714Y-103457142D01*
X80680952Y-103409523D01*
X80728571Y-103361904D01*
X80776190Y-103266666D01*
X80776190Y-102885714D01*
X81252380Y-104409523D02*
X81252380Y-103838095D01*
X81252380Y-104123809D02*
X80252380Y-104123809D01*
X80395238Y-104028571D01*
X80490476Y-103933333D01*
X80538095Y-103838095D01*
X80252380Y-105028571D02*
X80252380Y-105123809D01*
X80300000Y-105219047D01*
X80347619Y-105266666D01*
X80442857Y-105314285D01*
X80633333Y-105361904D01*
X80871428Y-105361904D01*
X81061904Y-105314285D01*
X81157142Y-105266666D01*
X81204761Y-105219047D01*
X81252380Y-105123809D01*
X81252380Y-105028571D01*
X81204761Y-104933333D01*
X81157142Y-104885714D01*
X81061904Y-104838095D01*
X80871428Y-104790476D01*
X80633333Y-104790476D01*
X80442857Y-104838095D01*
X80347619Y-104885714D01*
X80300000Y-104933333D01*
X80252380Y-105028571D01*
X84752380Y-103457142D02*
X84276190Y-103123809D01*
X84752380Y-102885714D02*
X83752380Y-102885714D01*
X83752380Y-103266666D01*
X83800000Y-103361904D01*
X83847619Y-103409523D01*
X83942857Y-103457142D01*
X84085714Y-103457142D01*
X84180952Y-103409523D01*
X84228571Y-103361904D01*
X84276190Y-103266666D01*
X84276190Y-102885714D01*
X84752380Y-104409523D02*
X84752380Y-103838095D01*
X84752380Y-104123809D02*
X83752380Y-104123809D01*
X83895238Y-104028571D01*
X83990476Y-103933333D01*
X84038095Y-103838095D01*
X84752380Y-105361904D02*
X84752380Y-104790476D01*
X84752380Y-105076190D02*
X83752380Y-105076190D01*
X83895238Y-104980952D01*
X83990476Y-104885714D01*
X84038095Y-104790476D01*
X77852380Y-104033333D02*
X77376190Y-103700000D01*
X77852380Y-103461904D02*
X76852380Y-103461904D01*
X76852380Y-103842857D01*
X76900000Y-103938095D01*
X76947619Y-103985714D01*
X77042857Y-104033333D01*
X77185714Y-104033333D01*
X77280952Y-103985714D01*
X77328571Y-103938095D01*
X77376190Y-103842857D01*
X77376190Y-103461904D01*
X77852380Y-104509523D02*
X77852380Y-104700000D01*
X77804761Y-104795238D01*
X77757142Y-104842857D01*
X77614285Y-104938095D01*
X77423809Y-104985714D01*
X77042857Y-104985714D01*
X76947619Y-104938095D01*
X76900000Y-104890476D01*
X76852380Y-104795238D01*
X76852380Y-104604761D01*
X76900000Y-104509523D01*
X76947619Y-104461904D01*
X77042857Y-104414285D01*
X77280952Y-104414285D01*
X77376190Y-104461904D01*
X77423809Y-104509523D01*
X77471428Y-104604761D01*
X77471428Y-104795238D01*
X77423809Y-104890476D01*
X77376190Y-104938095D01*
X77280952Y-104985714D01*
X81252380Y-97604761D02*
X81252380Y-97128571D01*
X80252380Y-97128571D01*
X80728571Y-97938095D02*
X80728571Y-98271428D01*
X81252380Y-98414285D02*
X81252380Y-97938095D01*
X80252380Y-97938095D01*
X80252380Y-98414285D01*
X81252380Y-98842857D02*
X80252380Y-98842857D01*
X80252380Y-99080952D01*
X80300000Y-99223809D01*
X80395238Y-99319047D01*
X80490476Y-99366666D01*
X80680952Y-99414285D01*
X80823809Y-99414285D01*
X81014285Y-99366666D01*
X81109523Y-99319047D01*
X81204761Y-99223809D01*
X81252380Y-99080952D01*
X81252380Y-98842857D01*
X81252380Y-99890476D02*
X81252380Y-100080952D01*
X81204761Y-100176190D01*
X81157142Y-100223809D01*
X81014285Y-100319047D01*
X80823809Y-100366666D01*
X80442857Y-100366666D01*
X80347619Y-100319047D01*
X80300000Y-100271428D01*
X80252380Y-100176190D01*
X80252380Y-99985714D01*
X80300000Y-99890476D01*
X80347619Y-99842857D01*
X80442857Y-99795238D01*
X80680952Y-99795238D01*
X80776190Y-99842857D01*
X80823809Y-99890476D01*
X80871428Y-99985714D01*
X80871428Y-100176190D01*
X80823809Y-100271428D01*
X80776190Y-100319047D01*
X80680952Y-100366666D01*
X80680952Y-100938095D02*
X80633333Y-100842857D01*
X80585714Y-100795238D01*
X80490476Y-100747619D01*
X80442857Y-100747619D01*
X80347619Y-100795238D01*
X80300000Y-100842857D01*
X80252380Y-100938095D01*
X80252380Y-101128571D01*
X80300000Y-101223809D01*
X80347619Y-101271428D01*
X80442857Y-101319047D01*
X80490476Y-101319047D01*
X80585714Y-101271428D01*
X80633333Y-101223809D01*
X80680952Y-101128571D01*
X80680952Y-100938095D01*
X80728571Y-100842857D01*
X80776190Y-100795238D01*
X80871428Y-100747619D01*
X81061904Y-100747619D01*
X81157142Y-100795238D01*
X81204761Y-100842857D01*
X81252380Y-100938095D01*
X81252380Y-101128571D01*
X81204761Y-101223809D01*
X81157142Y-101271428D01*
X81061904Y-101319047D01*
X80871428Y-101319047D01*
X80776190Y-101271428D01*
X80728571Y-101223809D01*
X80680952Y-101128571D01*
X84752380Y-97604761D02*
X84752380Y-97128571D01*
X83752380Y-97128571D01*
X84228571Y-97938095D02*
X84228571Y-98271428D01*
X84752380Y-98414285D02*
X84752380Y-97938095D01*
X83752380Y-97938095D01*
X83752380Y-98414285D01*
X84752380Y-98842857D02*
X83752380Y-98842857D01*
X83752380Y-99080952D01*
X83800000Y-99223809D01*
X83895238Y-99319047D01*
X83990476Y-99366666D01*
X84180952Y-99414285D01*
X84323809Y-99414285D01*
X84514285Y-99366666D01*
X84609523Y-99319047D01*
X84704761Y-99223809D01*
X84752380Y-99080952D01*
X84752380Y-98842857D01*
X84752380Y-99890476D02*
X84752380Y-100080952D01*
X84704761Y-100176190D01*
X84657142Y-100223809D01*
X84514285Y-100319047D01*
X84323809Y-100366666D01*
X83942857Y-100366666D01*
X83847619Y-100319047D01*
X83800000Y-100271428D01*
X83752380Y-100176190D01*
X83752380Y-99985714D01*
X83800000Y-99890476D01*
X83847619Y-99842857D01*
X83942857Y-99795238D01*
X84180952Y-99795238D01*
X84276190Y-99842857D01*
X84323809Y-99890476D01*
X84371428Y-99985714D01*
X84371428Y-100176190D01*
X84323809Y-100271428D01*
X84276190Y-100319047D01*
X84180952Y-100366666D01*
X84752380Y-100842857D02*
X84752380Y-101033333D01*
X84704761Y-101128571D01*
X84657142Y-101176190D01*
X84514285Y-101271428D01*
X84323809Y-101319047D01*
X83942857Y-101319047D01*
X83847619Y-101271428D01*
X83800000Y-101223809D01*
X83752380Y-101128571D01*
X83752380Y-100938095D01*
X83800000Y-100842857D01*
X83847619Y-100795238D01*
X83942857Y-100747619D01*
X84180952Y-100747619D01*
X84276190Y-100795238D01*
X84323809Y-100842857D01*
X84371428Y-100938095D01*
X84371428Y-101128571D01*
X84323809Y-101223809D01*
X84276190Y-101271428D01*
X84180952Y-101319047D01*
X77852380Y-97604761D02*
X77852380Y-97128571D01*
X76852380Y-97128571D01*
X77328571Y-97938095D02*
X77328571Y-98271428D01*
X77852380Y-98414285D02*
X77852380Y-97938095D01*
X76852380Y-97938095D01*
X76852380Y-98414285D01*
X77852380Y-98842857D02*
X76852380Y-98842857D01*
X76852380Y-99080952D01*
X76900000Y-99223809D01*
X76995238Y-99319047D01*
X77090476Y-99366666D01*
X77280952Y-99414285D01*
X77423809Y-99414285D01*
X77614285Y-99366666D01*
X77709523Y-99319047D01*
X77804761Y-99223809D01*
X77852380Y-99080952D01*
X77852380Y-98842857D01*
X77852380Y-99890476D02*
X77852380Y-100080952D01*
X77804761Y-100176190D01*
X77757142Y-100223809D01*
X77614285Y-100319047D01*
X77423809Y-100366666D01*
X77042857Y-100366666D01*
X76947619Y-100319047D01*
X76900000Y-100271428D01*
X76852380Y-100176190D01*
X76852380Y-99985714D01*
X76900000Y-99890476D01*
X76947619Y-99842857D01*
X77042857Y-99795238D01*
X77280952Y-99795238D01*
X77376190Y-99842857D01*
X77423809Y-99890476D01*
X77471428Y-99985714D01*
X77471428Y-100176190D01*
X77423809Y-100271428D01*
X77376190Y-100319047D01*
X77280952Y-100366666D01*
X76852380Y-100700000D02*
X76852380Y-101366666D01*
X77852380Y-100938095D01*
X144557142Y-140833333D02*
X144604761Y-140785714D01*
X144652380Y-140642857D01*
X144652380Y-140547619D01*
X144604761Y-140404761D01*
X144509523Y-140309523D01*
X144414285Y-140261904D01*
X144223809Y-140214285D01*
X144080952Y-140214285D01*
X143890476Y-140261904D01*
X143795238Y-140309523D01*
X143700000Y-140404761D01*
X143652380Y-140547619D01*
X143652380Y-140642857D01*
X143700000Y-140785714D01*
X143747619Y-140833333D01*
X144080952Y-141404761D02*
X144033333Y-141309523D01*
X143985714Y-141261904D01*
X143890476Y-141214285D01*
X143842857Y-141214285D01*
X143747619Y-141261904D01*
X143700000Y-141309523D01*
X143652380Y-141404761D01*
X143652380Y-141595238D01*
X143700000Y-141690476D01*
X143747619Y-141738095D01*
X143842857Y-141785714D01*
X143890476Y-141785714D01*
X143985714Y-141738095D01*
X144033333Y-141690476D01*
X144080952Y-141595238D01*
X144080952Y-141404761D01*
X144128571Y-141309523D01*
X144176190Y-141261904D01*
X144271428Y-141214285D01*
X144461904Y-141214285D01*
X144557142Y-141261904D01*
X144604761Y-141309523D01*
X144652380Y-141404761D01*
X144652380Y-141595238D01*
X144604761Y-141690476D01*
X144557142Y-141738095D01*
X144461904Y-141785714D01*
X144271428Y-141785714D01*
X144176190Y-141738095D01*
X144128571Y-141690476D01*
X144080952Y-141595238D01*
X180657142Y-141057142D02*
X180704761Y-141009523D01*
X180752380Y-140866666D01*
X180752380Y-140771428D01*
X180704761Y-140628571D01*
X180609523Y-140533333D01*
X180514285Y-140485714D01*
X180323809Y-140438095D01*
X180180952Y-140438095D01*
X179990476Y-140485714D01*
X179895238Y-140533333D01*
X179800000Y-140628571D01*
X179752380Y-140771428D01*
X179752380Y-140866666D01*
X179800000Y-141009523D01*
X179847619Y-141057142D01*
X180752380Y-142009523D02*
X180752380Y-141438095D01*
X180752380Y-141723809D02*
X179752380Y-141723809D01*
X179895238Y-141628571D01*
X179990476Y-141533333D01*
X180038095Y-141438095D01*
X179752380Y-142628571D02*
X179752380Y-142723809D01*
X179800000Y-142819047D01*
X179847619Y-142866666D01*
X179942857Y-142914285D01*
X180133333Y-142961904D01*
X180371428Y-142961904D01*
X180561904Y-142914285D01*
X180657142Y-142866666D01*
X180704761Y-142819047D01*
X180752380Y-142723809D01*
X180752380Y-142628571D01*
X180704761Y-142533333D01*
X180657142Y-142485714D01*
X180561904Y-142438095D01*
X180371428Y-142390476D01*
X180133333Y-142390476D01*
X179942857Y-142438095D01*
X179847619Y-142485714D01*
X179800000Y-142533333D01*
X179752380Y-142628571D01*
X105661904Y-137152380D02*
X105661904Y-137961904D01*
X105614285Y-138057142D01*
X105566666Y-138104761D01*
X105471428Y-138152380D01*
X105280952Y-138152380D01*
X105185714Y-138104761D01*
X105138095Y-138057142D01*
X105090476Y-137961904D01*
X105090476Y-137152380D01*
X104709523Y-137152380D02*
X104090476Y-137152380D01*
X104423809Y-137533333D01*
X104280952Y-137533333D01*
X104185714Y-137580952D01*
X104138095Y-137628571D01*
X104090476Y-137723809D01*
X104090476Y-137961904D01*
X104138095Y-138057142D01*
X104185714Y-138104761D01*
X104280952Y-138152380D01*
X104566666Y-138152380D01*
X104661904Y-138104761D01*
X104709523Y-138057142D01*
X123661904Y-137152380D02*
X123661904Y-137961904D01*
X123614285Y-138057142D01*
X123566666Y-138104761D01*
X123471428Y-138152380D01*
X123280952Y-138152380D01*
X123185714Y-138104761D01*
X123138095Y-138057142D01*
X123090476Y-137961904D01*
X123090476Y-137152380D01*
X122185714Y-137485714D02*
X122185714Y-138152380D01*
X122423809Y-137104761D02*
X122661904Y-137819047D01*
X122042857Y-137819047D01*
X141661904Y-137152380D02*
X141661904Y-137961904D01*
X141614285Y-138057142D01*
X141566666Y-138104761D01*
X141471428Y-138152380D01*
X141280952Y-138152380D01*
X141185714Y-138104761D01*
X141138095Y-138057142D01*
X141090476Y-137961904D01*
X141090476Y-137152380D01*
X140138095Y-137152380D02*
X140614285Y-137152380D01*
X140661904Y-137628571D01*
X140614285Y-137580952D01*
X140519047Y-137533333D01*
X140280952Y-137533333D01*
X140185714Y-137580952D01*
X140138095Y-137628571D01*
X140090476Y-137723809D01*
X140090476Y-137961904D01*
X140138095Y-138057142D01*
X140185714Y-138104761D01*
X140280952Y-138152380D01*
X140519047Y-138152380D01*
X140614285Y-138104761D01*
X140661904Y-138057142D01*
X159661904Y-137152380D02*
X159661904Y-137961904D01*
X159614285Y-138057142D01*
X159566666Y-138104761D01*
X159471428Y-138152380D01*
X159280952Y-138152380D01*
X159185714Y-138104761D01*
X159138095Y-138057142D01*
X159090476Y-137961904D01*
X159090476Y-137152380D01*
X158185714Y-137152380D02*
X158376190Y-137152380D01*
X158471428Y-137200000D01*
X158519047Y-137247619D01*
X158614285Y-137390476D01*
X158661904Y-137580952D01*
X158661904Y-137961904D01*
X158614285Y-138057142D01*
X158566666Y-138104761D01*
X158471428Y-138152380D01*
X158280952Y-138152380D01*
X158185714Y-138104761D01*
X158138095Y-138057142D01*
X158090476Y-137961904D01*
X158090476Y-137723809D01*
X158138095Y-137628571D01*
X158185714Y-137580952D01*
X158280952Y-137533333D01*
X158471428Y-137533333D01*
X158566666Y-137580952D01*
X158614285Y-137628571D01*
X158661904Y-137723809D01*
X177461904Y-137152380D02*
X177461904Y-137961904D01*
X177414285Y-138057142D01*
X177366666Y-138104761D01*
X177271428Y-138152380D01*
X177080952Y-138152380D01*
X176985714Y-138104761D01*
X176938095Y-138057142D01*
X176890476Y-137961904D01*
X176890476Y-137152380D01*
X176509523Y-137152380D02*
X175842857Y-137152380D01*
X176271428Y-138152380D01*
X195161904Y-137252380D02*
X195161904Y-138061904D01*
X195114285Y-138157142D01*
X195066666Y-138204761D01*
X194971428Y-138252380D01*
X194780952Y-138252380D01*
X194685714Y-138204761D01*
X194638095Y-138157142D01*
X194590476Y-138061904D01*
X194590476Y-137252380D01*
X193971428Y-137680952D02*
X194066666Y-137633333D01*
X194114285Y-137585714D01*
X194161904Y-137490476D01*
X194161904Y-137442857D01*
X194114285Y-137347619D01*
X194066666Y-137300000D01*
X193971428Y-137252380D01*
X193780952Y-137252380D01*
X193685714Y-137300000D01*
X193638095Y-137347619D01*
X193590476Y-137442857D01*
X193590476Y-137490476D01*
X193638095Y-137585714D01*
X193685714Y-137633333D01*
X193780952Y-137680952D01*
X193971428Y-137680952D01*
X194066666Y-137728571D01*
X194114285Y-137776190D01*
X194161904Y-137871428D01*
X194161904Y-138061904D01*
X194114285Y-138157142D01*
X194066666Y-138204761D01*
X193971428Y-138252380D01*
X193780952Y-138252380D01*
X193685714Y-138204761D01*
X193638095Y-138157142D01*
X193590476Y-138061904D01*
X193590476Y-137871428D01*
X193638095Y-137776190D01*
X193685714Y-137728571D01*
X193780952Y-137680952D01*
D18*
X76791809Y-108874523D02*
X76791809Y-107604523D01*
X75727428Y-108753571D02*
X75775809Y-108814047D01*
X75920952Y-108874523D01*
X76017714Y-108874523D01*
X76162857Y-108814047D01*
X76259619Y-108693095D01*
X76308000Y-108572142D01*
X76356380Y-108330238D01*
X76356380Y-108148809D01*
X76308000Y-107906904D01*
X76259619Y-107785952D01*
X76162857Y-107665000D01*
X76017714Y-107604523D01*
X75920952Y-107604523D01*
X75775809Y-107665000D01*
X75727428Y-107725476D01*
X74759809Y-108874523D02*
X75340380Y-108874523D01*
X75050095Y-108874523D02*
X75050095Y-107604523D01*
X75146857Y-107785952D01*
X75243619Y-107906904D01*
X75340380Y-107967380D01*
D14*
X69961904Y-120952380D02*
X69961904Y-121761904D01*
X69914285Y-121857142D01*
X69866666Y-121904761D01*
X69771428Y-121952380D01*
X69580952Y-121952380D01*
X69485714Y-121904761D01*
X69438095Y-121857142D01*
X69390476Y-121761904D01*
X69390476Y-120952380D01*
X68390476Y-121952380D02*
X68961904Y-121952380D01*
X68676190Y-121952380D02*
X68676190Y-120952380D01*
X68771428Y-121095238D01*
X68866666Y-121190476D01*
X68961904Y-121238095D01*
X84952380Y-131738095D02*
X84952380Y-132309523D01*
X85952380Y-132023809D02*
X84952380Y-132023809D01*
X85952380Y-133214285D02*
X85476190Y-132880952D01*
X85952380Y-132642857D02*
X84952380Y-132642857D01*
X84952380Y-133023809D01*
X85000000Y-133119047D01*
X85047619Y-133166666D01*
X85142857Y-133214285D01*
X85285714Y-133214285D01*
X85380952Y-133166666D01*
X85428571Y-133119047D01*
X85476190Y-133023809D01*
X85476190Y-132642857D01*
X85666666Y-133595238D02*
X85666666Y-134071428D01*
X85952380Y-133500000D02*
X84952380Y-133833333D01*
X85952380Y-134166666D01*
X85857142Y-135071428D02*
X85904761Y-135023809D01*
X85952380Y-134880952D01*
X85952380Y-134785714D01*
X85904761Y-134642857D01*
X85809523Y-134547619D01*
X85714285Y-134500000D01*
X85523809Y-134452380D01*
X85380952Y-134452380D01*
X85190476Y-134500000D01*
X85095238Y-134547619D01*
X85000000Y-134642857D01*
X84952380Y-134785714D01*
X84952380Y-134880952D01*
X85000000Y-135023809D01*
X85047619Y-135071428D01*
X85428571Y-135500000D02*
X85428571Y-135833333D01*
X85952380Y-135976190D02*
X85952380Y-135500000D01*
X84952380Y-135500000D01*
X84952380Y-135976190D01*
X85952380Y-137166666D02*
X84952380Y-137166666D01*
X85952380Y-137738095D02*
X85380952Y-137309523D01*
X84952380Y-137738095D02*
X85523809Y-137166666D01*
X85428571Y-138166666D02*
X85428571Y-138500000D01*
X85952380Y-138642857D02*
X85952380Y-138166666D01*
X84952380Y-138166666D01*
X84952380Y-138642857D01*
X85428571Y-139071428D02*
X85428571Y-139404761D01*
X85952380Y-139547619D02*
X85952380Y-139071428D01*
X84952380Y-139071428D01*
X84952380Y-139547619D01*
X85952380Y-139976190D02*
X84952380Y-139976190D01*
X84952380Y-140357142D01*
X85000000Y-140452380D01*
X85047619Y-140500000D01*
X85142857Y-140547619D01*
X85285714Y-140547619D01*
X85380952Y-140500000D01*
X85428571Y-140452380D01*
X85476190Y-140357142D01*
X85476190Y-139976190D01*
X84952380Y-141928571D02*
X84952380Y-142119047D01*
X85000000Y-142214285D01*
X85095238Y-142309523D01*
X85285714Y-142357142D01*
X85619047Y-142357142D01*
X85809523Y-142309523D01*
X85904761Y-142214285D01*
X85952380Y-142119047D01*
X85952380Y-141928571D01*
X85904761Y-141833333D01*
X85809523Y-141738095D01*
X85619047Y-141690476D01*
X85285714Y-141690476D01*
X85095238Y-141738095D01*
X85000000Y-141833333D01*
X84952380Y-141928571D01*
X84952380Y-142785714D02*
X85761904Y-142785714D01*
X85857142Y-142833333D01*
X85904761Y-142880952D01*
X85952380Y-142976190D01*
X85952380Y-143166666D01*
X85904761Y-143261904D01*
X85857142Y-143309523D01*
X85761904Y-143357142D01*
X84952380Y-143357142D01*
X84952380Y-143690476D02*
X84952380Y-144261904D01*
X85952380Y-143976190D02*
X84952380Y-143976190D01*
D18*
X93943619Y-163325904D02*
X94766095Y-163325904D01*
X94862857Y-163374285D01*
X94911238Y-163422666D01*
X94959619Y-163519428D01*
X94959619Y-163712952D01*
X94911238Y-163809714D01*
X94862857Y-163858095D01*
X94766095Y-163906476D01*
X93943619Y-163906476D01*
X94040380Y-164341904D02*
X93992000Y-164390285D01*
X93943619Y-164487047D01*
X93943619Y-164728952D01*
X93992000Y-164825714D01*
X94040380Y-164874095D01*
X94137142Y-164922476D01*
X94233904Y-164922476D01*
X94379047Y-164874095D01*
X94959619Y-164293523D01*
X94959619Y-164922476D01*
D14*
X95302190Y-117023809D02*
X95778380Y-117023809D01*
X94778380Y-116690476D02*
X95302190Y-117023809D01*
X94778380Y-117357142D01*
X95778380Y-118214285D02*
X95778380Y-117642857D01*
X95778380Y-117928571D02*
X94778380Y-117928571D01*
X94921238Y-117833333D01*
X95016476Y-117738095D01*
X95064095Y-117642857D01*
X74666666Y-154057142D02*
X74714285Y-154104761D01*
X74857142Y-154152380D01*
X74952380Y-154152380D01*
X75095238Y-154104761D01*
X75190476Y-154009523D01*
X75238095Y-153914285D01*
X75285714Y-153723809D01*
X75285714Y-153580952D01*
X75238095Y-153390476D01*
X75190476Y-153295238D01*
X75095238Y-153200000D01*
X74952380Y-153152380D01*
X74857142Y-153152380D01*
X74714285Y-153200000D01*
X74666666Y-153247619D01*
X74333333Y-153152380D02*
X73714285Y-153152380D01*
X74047619Y-153533333D01*
X73904761Y-153533333D01*
X73809523Y-153580952D01*
X73761904Y-153628571D01*
X73714285Y-153723809D01*
X73714285Y-153961904D01*
X73761904Y-154057142D01*
X73809523Y-154104761D01*
X73904761Y-154152380D01*
X74190476Y-154152380D01*
X74285714Y-154104761D01*
X74333333Y-154057142D01*
X83960952Y-159081428D02*
X83199047Y-159081428D01*
X83580000Y-159462380D02*
X83580000Y-158700476D01*
X83960952Y-159081428D02*
X83199047Y-159081428D01*
X83580000Y-159462380D02*
X83580000Y-158700476D01*
X74566666Y-165657142D02*
X74614285Y-165704761D01*
X74757142Y-165752380D01*
X74852380Y-165752380D01*
X74995238Y-165704761D01*
X75090476Y-165609523D01*
X75138095Y-165514285D01*
X75185714Y-165323809D01*
X75185714Y-165180952D01*
X75138095Y-164990476D01*
X75090476Y-164895238D01*
X74995238Y-164800000D01*
X74852380Y-164752380D01*
X74757142Y-164752380D01*
X74614285Y-164800000D01*
X74566666Y-164847619D01*
X73709523Y-165085714D02*
X73709523Y-165752380D01*
X73947619Y-164704761D02*
X74185714Y-165419047D01*
X73566666Y-165419047D01*
X83760952Y-166081428D02*
X82999047Y-166081428D01*
X83380000Y-166462380D02*
X83380000Y-165700476D01*
X83760952Y-166081428D02*
X82999047Y-166081428D01*
X83380000Y-166462380D02*
X83380000Y-165700476D01*
%LPC*%
D12*
G36*
X201800000Y-122300000D02*
G01*
X186800000Y-122300000D01*
X186800000Y-107300000D01*
X201800000Y-107300000D01*
X201800000Y-122300000D01*
G37*
X201800000Y-122300000D02*
X186800000Y-122300000D01*
X186800000Y-107300000D01*
X201800000Y-107300000D01*
X201800000Y-122300000D01*
G36*
X111800000Y-122300000D02*
G01*
X96800000Y-122300000D01*
X96800000Y-107300000D01*
X111800000Y-107300000D01*
X111800000Y-122300000D01*
G37*
X111800000Y-122300000D02*
X96800000Y-122300000D01*
X96800000Y-107300000D01*
X111800000Y-107300000D01*
X111800000Y-122300000D01*
G36*
X129800000Y-122300000D02*
G01*
X114800000Y-122300000D01*
X114800000Y-107300000D01*
X129800000Y-107300000D01*
X129800000Y-122300000D01*
G37*
X129800000Y-122300000D02*
X114800000Y-122300000D01*
X114800000Y-107300000D01*
X129800000Y-107300000D01*
X129800000Y-122300000D01*
G36*
X147800000Y-122300000D02*
G01*
X132800000Y-122300000D01*
X132800000Y-107300000D01*
X147800000Y-107300000D01*
X147800000Y-122300000D01*
G37*
X147800000Y-122300000D02*
X132800000Y-122300000D01*
X132800000Y-107300000D01*
X147800000Y-107300000D01*
X147800000Y-122300000D01*
G36*
X165800000Y-122300000D02*
G01*
X150800000Y-122300000D01*
X150800000Y-107300000D01*
X165800000Y-107300000D01*
X165800000Y-122300000D01*
G37*
X165800000Y-122300000D02*
X150800000Y-122300000D01*
X150800000Y-107300000D01*
X165800000Y-107300000D01*
X165800000Y-122300000D01*
G36*
X183800000Y-122300000D02*
G01*
X168800000Y-122300000D01*
X168800000Y-107300000D01*
X183800000Y-107300000D01*
X183800000Y-122300000D01*
G37*
X183800000Y-122300000D02*
X168800000Y-122300000D01*
X168800000Y-107300000D01*
X183800000Y-107300000D01*
X183800000Y-122300000D01*
G36*
X111800000Y-157300000D02*
G01*
X96800000Y-157300000D01*
X96800000Y-142300000D01*
X111800000Y-142300000D01*
X111800000Y-157300000D01*
G37*
X111800000Y-157300000D02*
X96800000Y-157300000D01*
X96800000Y-142300000D01*
X111800000Y-142300000D01*
X111800000Y-157300000D01*
G36*
X129800000Y-157300000D02*
G01*
X114800000Y-157300000D01*
X114800000Y-142300000D01*
X129800000Y-142300000D01*
X129800000Y-157300000D01*
G37*
X129800000Y-157300000D02*
X114800000Y-157300000D01*
X114800000Y-142300000D01*
X129800000Y-142300000D01*
X129800000Y-157300000D01*
G36*
X147800000Y-157300000D02*
G01*
X132800000Y-157300000D01*
X132800000Y-142300000D01*
X147800000Y-142300000D01*
X147800000Y-157300000D01*
G37*
X147800000Y-157300000D02*
X132800000Y-157300000D01*
X132800000Y-142300000D01*
X147800000Y-142300000D01*
X147800000Y-157300000D01*
G36*
X165800000Y-157300000D02*
G01*
X150800000Y-157300000D01*
X150800000Y-142300000D01*
X165800000Y-142300000D01*
X165800000Y-157300000D01*
G37*
X165800000Y-157300000D02*
X150800000Y-157300000D01*
X150800000Y-142300000D01*
X165800000Y-142300000D01*
X165800000Y-157300000D01*
G36*
X183800000Y-157300000D02*
G01*
X168800000Y-157300000D01*
X168800000Y-142300000D01*
X183800000Y-142300000D01*
X183800000Y-157300000D01*
G37*
X183800000Y-157300000D02*
X168800000Y-157300000D01*
X168800000Y-142300000D01*
X183800000Y-142300000D01*
X183800000Y-157300000D01*
G36*
X201800000Y-157300000D02*
G01*
X186800000Y-157300000D01*
X186800000Y-142300000D01*
X201800000Y-142300000D01*
X201800000Y-157300000D01*
G37*
X201800000Y-157300000D02*
X186800000Y-157300000D01*
X186800000Y-142300000D01*
X201800000Y-142300000D01*
X201800000Y-157300000D01*
D19*
X86000000Y-155300000D03*
X86000000Y-158856000D03*
D20*
X164400000Y-140900000D03*
X167400000Y-140900000D03*
D21*
X207000000Y-158500000D03*
X207000000Y-104500000D03*
X71000000Y-158500000D03*
X93500000Y-158500000D03*
X93500000Y-104500000D03*
X71000000Y-104500000D03*
D22*
X88900000Y-111800000D03*
X88900000Y-113800000D03*
D23*
X76200000Y-118200000D03*
X74200000Y-118200000D03*
D24*
X89100000Y-157700000D03*
X89100000Y-154700000D03*
D22*
X108300000Y-137200000D03*
X108300000Y-139200000D03*
X126350000Y-137150000D03*
X126350000Y-139150000D03*
X162350000Y-137300000D03*
X162350000Y-139300000D03*
X198250000Y-137050000D03*
X198250000Y-139050000D03*
D25*
X75500000Y-102550000D03*
X75500000Y-104450000D03*
D26*
X87650000Y-108600000D03*
X85750000Y-108600000D03*
D25*
X111300000Y-139000000D03*
X111300000Y-137100000D03*
X129350000Y-139000000D03*
X129350000Y-137100000D03*
X147350000Y-138950000D03*
X147350000Y-137050000D03*
X165350000Y-138950000D03*
X165350000Y-137050000D03*
X183250000Y-138950000D03*
X183250000Y-137050000D03*
X201350000Y-139000000D03*
X201350000Y-137100000D03*
X82500000Y-103950000D03*
X82500000Y-102050000D03*
X86000000Y-103950000D03*
X86000000Y-102050000D03*
X79000000Y-103950000D03*
X79000000Y-102050000D03*
D27*
X82500000Y-99900000D03*
X82500000Y-97700000D03*
X86000000Y-100000000D03*
X86000000Y-97800000D03*
X79000000Y-100000000D03*
X79000000Y-97800000D03*
D22*
X144250000Y-137200000D03*
X144250000Y-139200000D03*
X180200000Y-137250000D03*
X180200000Y-139250000D03*
D28*
X104500000Y-131500000D03*
D29*
X107319400Y-135725074D03*
X107319400Y-135075063D03*
X107319400Y-134425051D03*
X107319400Y-133775040D03*
X107319400Y-133125028D03*
X107319400Y-132475017D03*
X107319400Y-131825006D03*
X107319400Y-131174994D03*
X107319400Y-130524983D03*
X107319400Y-129874972D03*
X107319400Y-129224960D03*
X107319400Y-128574949D03*
X107319400Y-127924937D03*
X107319400Y-127274926D03*
X101680600Y-127274926D03*
X101680600Y-127924937D03*
X101680600Y-128574949D03*
X101680600Y-129224960D03*
X101680600Y-129874972D03*
X101680600Y-130524983D03*
X101680600Y-131174994D03*
X101680600Y-131825006D03*
X101680600Y-132475017D03*
X101680600Y-133125028D03*
X101680600Y-133775040D03*
X101680600Y-134425051D03*
X101680600Y-135075063D03*
X101680600Y-135725074D03*
D28*
X122500000Y-131500000D03*
D29*
X125319400Y-135725074D03*
X125319400Y-135075063D03*
X125319400Y-134425051D03*
X125319400Y-133775040D03*
X125319400Y-133125028D03*
X125319400Y-132475017D03*
X125319400Y-131825006D03*
X125319400Y-131174994D03*
X125319400Y-130524983D03*
X125319400Y-129874972D03*
X125319400Y-129224960D03*
X125319400Y-128574949D03*
X125319400Y-127924937D03*
X125319400Y-127274926D03*
X119680600Y-127274926D03*
X119680600Y-127924937D03*
X119680600Y-128574949D03*
X119680600Y-129224960D03*
X119680600Y-129874972D03*
X119680600Y-130524983D03*
X119680600Y-131174994D03*
X119680600Y-131825006D03*
X119680600Y-132475017D03*
X119680600Y-133125028D03*
X119680600Y-133775040D03*
X119680600Y-134425051D03*
X119680600Y-135075063D03*
X119680600Y-135725074D03*
D28*
X140500000Y-131500000D03*
D29*
X143319400Y-135725074D03*
X143319400Y-135075063D03*
X143319400Y-134425051D03*
X143319400Y-133775040D03*
X143319400Y-133125028D03*
X143319400Y-132475017D03*
X143319400Y-131825006D03*
X143319400Y-131174994D03*
X143319400Y-130524983D03*
X143319400Y-129874972D03*
X143319400Y-129224960D03*
X143319400Y-128574949D03*
X143319400Y-127924937D03*
X143319400Y-127274926D03*
X137680600Y-127274926D03*
X137680600Y-127924937D03*
X137680600Y-128574949D03*
X137680600Y-129224960D03*
X137680600Y-129874972D03*
X137680600Y-130524983D03*
X137680600Y-131174994D03*
X137680600Y-131825006D03*
X137680600Y-132475017D03*
X137680600Y-133125028D03*
X137680600Y-133775040D03*
X137680600Y-134425051D03*
X137680600Y-135075063D03*
X137680600Y-135725074D03*
D28*
X158500000Y-131500000D03*
D29*
X161319400Y-135725074D03*
X161319400Y-135075063D03*
X161319400Y-134425051D03*
X161319400Y-133775040D03*
X161319400Y-133125028D03*
X161319400Y-132475017D03*
X161319400Y-131825006D03*
X161319400Y-131174994D03*
X161319400Y-130524983D03*
X161319400Y-129874972D03*
X161319400Y-129224960D03*
X161319400Y-128574949D03*
X161319400Y-127924937D03*
X161319400Y-127274926D03*
X155680600Y-127274926D03*
X155680600Y-127924937D03*
X155680600Y-128574949D03*
X155680600Y-129224960D03*
X155680600Y-129874972D03*
X155680600Y-130524983D03*
X155680600Y-131174994D03*
X155680600Y-131825006D03*
X155680600Y-132475017D03*
X155680600Y-133125028D03*
X155680600Y-133775040D03*
X155680600Y-134425051D03*
X155680600Y-135075063D03*
X155680600Y-135725074D03*
D28*
X176500000Y-131500000D03*
D29*
X179319400Y-135725074D03*
X179319400Y-135075063D03*
X179319400Y-134425051D03*
X179319400Y-133775040D03*
X179319400Y-133125028D03*
X179319400Y-132475017D03*
X179319400Y-131825006D03*
X179319400Y-131174994D03*
X179319400Y-130524983D03*
X179319400Y-129874972D03*
X179319400Y-129224960D03*
X179319400Y-128574949D03*
X179319400Y-127924937D03*
X179319400Y-127274926D03*
X173680600Y-127274926D03*
X173680600Y-127924937D03*
X173680600Y-128574949D03*
X173680600Y-129224960D03*
X173680600Y-129874972D03*
X173680600Y-130524983D03*
X173680600Y-131174994D03*
X173680600Y-131825006D03*
X173680600Y-132475017D03*
X173680600Y-133125028D03*
X173680600Y-133775040D03*
X173680600Y-134425051D03*
X173680600Y-135075063D03*
X173680600Y-135725074D03*
D28*
X194480600Y-131474994D03*
D29*
X197300000Y-135700068D03*
X197300000Y-135050057D03*
X197300000Y-134400045D03*
X197300000Y-133750034D03*
X197300000Y-133100022D03*
X197300000Y-132450011D03*
X197300000Y-131800000D03*
X197300000Y-131149988D03*
X197300000Y-130499977D03*
X197300000Y-129849966D03*
X197300000Y-129199954D03*
X197300000Y-128549943D03*
X197300000Y-127899931D03*
X197300000Y-127249920D03*
X191661200Y-127249920D03*
X191661200Y-127899931D03*
X191661200Y-128549943D03*
X191661200Y-129199954D03*
X191661200Y-129849966D03*
X191661200Y-130499977D03*
X191661200Y-131149988D03*
X191661200Y-131800000D03*
X191661200Y-132450011D03*
X191661200Y-133100022D03*
X191661200Y-133750034D03*
X191661200Y-134400045D03*
X191661200Y-135050057D03*
X191661200Y-135700068D03*
D30*
X85815840Y-115776220D03*
X85815840Y-114976120D03*
X85815840Y-114176020D03*
X85815840Y-113375920D03*
X85815840Y-112575820D03*
X85815840Y-111775720D03*
X85815840Y-110975620D03*
X85815840Y-110175520D03*
X76250200Y-110180600D03*
X76250200Y-115794000D03*
X76250200Y-114981200D03*
X76250200Y-114168400D03*
X76250200Y-113381000D03*
X76250200Y-112568200D03*
X76250200Y-111780800D03*
X76250200Y-110968000D03*
D31*
X83824480Y-108174000D03*
X83026920Y-108174000D03*
X82224280Y-108174000D03*
X81426720Y-108174000D03*
X80624080Y-108174000D03*
X79826520Y-108174000D03*
X79023880Y-108174000D03*
X78226320Y-108174000D03*
X83819400Y-117775200D03*
X83032000Y-117775200D03*
X82219200Y-117775200D03*
X81431800Y-117775200D03*
X80644400Y-117775200D03*
X79831600Y-117775200D03*
X79018800Y-117775200D03*
X78206000Y-117775200D03*
D32*
X68520000Y-162500000D03*
D33*
X72480000Y-162500000D03*
D34*
X72140000Y-118040000D03*
D35*
X69600000Y-118040000D03*
X72140000Y-115500000D03*
X69600000Y-115500000D03*
X72140000Y-112960000D03*
X69600000Y-112960000D03*
D36*
X92810000Y-130900000D03*
X92810000Y-133400000D03*
X92810000Y-136800000D03*
X92810000Y-138450000D03*
X92810000Y-140900000D03*
X92810000Y-143400000D03*
X92810000Y-145830000D03*
X92810000Y-147530000D03*
X92810000Y-128400000D03*
X92810000Y-150880000D03*
D37*
X70600000Y-151400000D03*
X71800000Y-123400000D03*
D36*
X92810000Y-135100000D03*
D38*
X68500000Y-125700000D03*
X68500000Y-149850000D03*
D39*
X91900000Y-164300000D03*
D40*
X85296000Y-164300000D03*
X85296000Y-162014000D03*
X85296000Y-166586000D03*
D41*
X90500000Y-119000000D03*
D42*
X90500000Y-117500000D03*
D41*
X90500000Y-116000000D03*
D43*
X82000000Y-156000000D03*
X76600000Y-156000000D03*
X81800000Y-163000000D03*
X76400000Y-163000000D03*
M02*
