M48
; DRILL file {KiCad (5.1.4)-1} date 22/08/2019 10:19:18
; FORMAT={-:-/ absolute / metric / decimal}
; #@! TF.CreationDate,2019-08-22T10:19:18+01:00
; #@! TF.GenerationSoftware,Kicad,Pcbnew,(5.1.4)-1
FMAT,2
METRIC
T1C0.400
T2C1.016
T3C1.500
T4C1.800
T5C3.048
%
G90
G05
T1
X74.0Y-119.5
X75.0Y-101.166
X75.5Y-105.8
X76.2Y-116.7
X76.9Y-98.3
X78.2Y-119.8
X79.1Y-121.0
X82.2Y-106.2
X82.2Y-126.7
X83.55Y-149.75
X85.5Y-153.6
X86.0Y-152.7
X86.5Y-153.6
X86.7Y-107.2
X88.4Y-160.1
X88.4Y-161.3
X88.4Y-162.5
X89.0Y-133.5
X89.1Y-108.6
X89.6Y-160.1
X89.6Y-161.3
X89.6Y-162.5
X90.3Y-113.8
X90.5Y-128.4
X90.5Y-145.5
X90.5Y-147.5
X90.7Y-130.9
X90.9Y-138.4
X91.0Y-140.9
X92.245Y-126.0
X93.9Y-125.1
X96.7Y-126.2
X96.7Y-131.4
X96.8Y-124.9
X96.9Y-127.9
X97.1Y-130.3
X97.487Y-129.113
X98.426Y-134.074
X98.6Y-137.2
X98.6Y-131.849
X99.096Y-134.816
X99.45Y-132.375
X99.7Y-126.5
X102.2Y-98.7
X102.2Y-101.3
X102.2Y-105.5
X102.2Y-106.5
X102.2Y-122.95
X102.2Y-123.9
X102.2Y-137.3
X102.2Y-140.55
X102.2Y-141.55
X102.2Y-158.3
X102.2Y-161.7
X102.2Y-164.3
X106.7Y-98.7
X106.7Y-101.3
X106.7Y-105.5
X106.7Y-106.5
X106.7Y-122.95
X106.7Y-123.9
X106.7Y-137.3
X106.7Y-140.55
X106.7Y-141.55
X106.7Y-158.3
X106.7Y-161.7
X106.7Y-164.3
X109.3Y-126.6
X109.9Y-137.3
X110.235Y-133.825
X110.3Y-131.919
X111.7Y-130.0
X112.9Y-126.0
X112.9Y-127.5
X112.9Y-128.8
X112.9Y-130.5
X112.9Y-132.0
X114.1Y-126.0
X114.1Y-127.5
X114.1Y-128.8
X114.1Y-130.5
X114.1Y-132.0
X115.3Y-130.0
X116.6Y-137.2
X116.631Y-131.88
X116.638Y-133.975
X117.109Y-134.857
X117.5Y-132.375
X117.7Y-126.5
X120.2Y-98.7
X120.2Y-101.3
X120.2Y-105.5
X120.2Y-106.5
X120.2Y-122.95
X120.2Y-123.9
X120.2Y-137.3
X120.2Y-140.55
X120.2Y-141.55
X120.2Y-158.3
X120.2Y-161.7
X120.2Y-164.3
X124.7Y-98.7
X124.7Y-101.3
X124.7Y-105.5
X124.7Y-106.5
X124.7Y-122.95
X124.7Y-123.9
X124.7Y-137.3
X124.7Y-140.55
X124.7Y-141.55
X124.7Y-158.3
X124.7Y-161.7
X124.7Y-164.3
X127.3Y-126.6
X127.95Y-137.3
X128.235Y-133.825
X128.3Y-131.919
X129.7Y-130.0
X130.9Y-126.0
X130.9Y-127.5
X130.9Y-128.8
X130.9Y-130.5
X130.9Y-132.0
X132.1Y-126.0
X132.1Y-127.5
X132.1Y-128.8
X132.1Y-130.5
X132.1Y-132.0
X133.3Y-130.0
X134.6Y-137.2
X134.631Y-131.88
X134.655Y-134.058
X135.149Y-134.928
X135.5Y-132.375
X135.7Y-126.5
X138.2Y-98.7
X138.2Y-101.3
X138.2Y-105.5
X138.2Y-106.5
X138.2Y-122.95
X138.2Y-123.9
X138.2Y-137.3
X138.2Y-140.55
X138.2Y-141.55
X138.2Y-158.3
X138.2Y-161.7
X138.2Y-164.3
X142.7Y-98.7
X142.7Y-101.3
X142.7Y-105.5
X142.7Y-106.5
X142.7Y-122.95
X142.7Y-123.9
X142.7Y-137.3
X142.7Y-140.55
X142.7Y-141.55
X142.7Y-158.3
X142.7Y-161.7
X142.7Y-164.3
X145.3Y-126.6
X145.95Y-137.25
X146.235Y-133.825
X146.3Y-131.919
X147.7Y-130.0
X148.9Y-126.0
X148.9Y-127.5
X148.9Y-128.8
X148.9Y-130.5
X148.9Y-132.0
X150.1Y-126.0
X150.1Y-127.5
X150.1Y-128.8
X150.1Y-130.5
X150.1Y-132.0
X151.3Y-130.0
X152.586Y-131.869
X152.6Y-137.2
X152.638Y-133.962
X153.104Y-134.847
X153.5Y-132.325
X153.7Y-126.5
X156.2Y-98.7
X156.2Y-101.3
X156.2Y-105.5
X156.2Y-106.5
X156.2Y-122.95
X156.2Y-123.9
X156.2Y-137.3
X156.2Y-140.55
X156.2Y-141.55
X156.2Y-158.3
X156.2Y-161.7
X156.2Y-164.3
X160.7Y-98.7
X160.7Y-101.3
X160.7Y-105.5
X160.7Y-106.5
X160.7Y-122.95
X160.7Y-123.9
X160.7Y-137.3
X160.7Y-140.55
X160.7Y-141.55
X160.7Y-158.3
X160.7Y-161.7
X160.7Y-164.3
X163.3Y-126.6
X163.95Y-137.25
X163.95Y-138.2
X163.95Y-139.2
X164.235Y-133.825
X164.3Y-131.919
X165.7Y-130.0
X166.9Y-126.0
X166.9Y-127.5
X166.9Y-128.8
X166.9Y-130.5
X166.9Y-132.0
X168.1Y-126.0
X168.1Y-127.5
X168.1Y-128.8
X168.1Y-130.5
X168.1Y-132.0
X169.3Y-130.0
X170.586Y-131.869
X170.6Y-134.134
X170.6Y-137.2
X171.15Y-135.05
X171.5Y-132.325
X171.7Y-126.5
X174.2Y-98.7
X174.2Y-101.3
X174.2Y-105.5
X174.2Y-106.5
X174.2Y-122.95
X174.2Y-123.9
X174.2Y-137.3
X174.2Y-140.55
X174.2Y-141.55
X174.2Y-158.3
X174.2Y-161.7
X174.2Y-164.3
X178.7Y-98.7
X178.7Y-101.3
X178.7Y-105.5
X178.7Y-106.5
X178.7Y-122.95
X178.7Y-123.9
X178.7Y-137.3
X178.7Y-140.55
X178.7Y-141.55
X178.7Y-158.3
X178.7Y-161.7
X178.7Y-164.3
X181.3Y-126.6
X181.9Y-137.25
X182.235Y-133.825
X182.3Y-131.919
X183.7Y-130.0
X184.9Y-126.0
X184.9Y-127.5
X184.9Y-128.8
X184.9Y-130.5
X184.9Y-132.0
X186.1Y-126.0
X186.1Y-127.5
X186.1Y-128.8
X186.1Y-130.5
X186.1Y-132.0
X187.247Y-129.959
X188.33Y-131.862
X188.553Y-134.135
X188.6Y-137.2
X189.315Y-134.829
X189.5Y-132.375
X189.7Y-126.5
X192.2Y-98.7
X192.2Y-101.3
X192.2Y-105.5
X192.2Y-106.5
X192.2Y-122.95
X192.2Y-123.9
X192.2Y-137.3
X192.2Y-140.55
X192.2Y-141.55
X192.2Y-158.3
X192.2Y-161.7
X192.2Y-164.3
X196.7Y-98.7
X196.7Y-101.3
X196.7Y-105.5
X196.7Y-106.5
X196.7Y-122.95
X196.7Y-123.9
X196.7Y-137.3
X196.7Y-140.55
X196.7Y-141.55
X196.7Y-158.3
X196.7Y-161.7
X196.7Y-164.3
X199.3Y-126.6
X199.95Y-137.25
X200.235Y-133.735
X200.3Y-131.919
X201.7Y-130.0
X202.9Y-126.0
X202.9Y-127.5
X202.9Y-128.8
X202.9Y-130.5
X202.9Y-132.0
T2
X69.6Y-112.96
X69.6Y-115.5
X69.6Y-118.04
X72.14Y-112.96
X72.14Y-115.5
X72.14Y-118.04
T3
X68.5Y-125.7
X68.5Y-149.85
T4
X68.52Y-162.5
X72.48Y-162.5
T5
X71.0Y-104.5
X93.5Y-104.5
X93.5Y-158.5
X71.0Y-158.5
X207.0Y-104.5
X207.0Y-158.5
T0
M30
