G04 #@! TF.GenerationSoftware,KiCad,Pcbnew,(5.1.4)-1*
G04 #@! TF.CreationDate,2019-08-22T10:31:36+01:00*
G04 #@! TF.ProjectId,lpa96,6c706139-362e-46b6-9963-61645f706362,2.0*
G04 #@! TF.SameCoordinates,Original*
G04 #@! TF.FileFunction,Copper,L2,Inr*
G04 #@! TF.FilePolarity,Positive*
%FSLAX46Y46*%
G04 Gerber Fmt 4.6, Leading zero omitted, Abs format (unit mm)*
G04 Created by KiCad (PCBNEW (5.1.4)-1) date 2019-08-22 10:31:36*
%MOMM*%
%LPD*%
G04 APERTURE LIST*
%ADD10C,0.100000*%
%ADD11C,4.064000*%
%ADD12R,2.300000X2.300000*%
%ADD13C,2.500000*%
%ADD14R,1.524000X1.524000*%
%ADD15C,1.524000*%
%ADD16C,1.600000*%
%ADD17C,0.800000*%
%ADD18C,0.250000*%
G04 APERTURE END LIST*
D10*
X67000000Y-168500000D02*
X67000000Y-94500000D01*
X210000000Y-168500000D02*
X67000000Y-168500000D01*
X210000000Y-94500000D02*
X210000000Y-168500000D01*
X67000000Y-94500000D02*
X210000000Y-94500000D01*
D11*
X207000000Y-158500000D03*
X207000000Y-104500000D03*
X71000000Y-158500000D03*
X93500000Y-158500000D03*
X93500000Y-104500000D03*
X71000000Y-104500000D03*
D12*
X68520000Y-162500000D03*
D13*
X72480000Y-162500000D03*
D14*
X72140000Y-118040000D03*
D15*
X69600000Y-118040000D03*
X72140000Y-115500000D03*
X69600000Y-115500000D03*
X72140000Y-112960000D03*
X69600000Y-112960000D03*
D16*
X68500000Y-125700000D03*
X68500000Y-149850000D03*
D17*
X90500000Y-145500000D03*
X78200024Y-119800000D03*
X89000000Y-133500000D03*
X79099988Y-121000002D03*
X82200000Y-106200000D03*
X75000012Y-101165715D03*
X76200000Y-116700000D03*
X91000002Y-140900000D03*
X90700000Y-130900014D03*
X76900000Y-98300000D03*
X85500000Y-153600000D03*
X86500000Y-153600000D03*
X86000000Y-152700000D03*
X106700000Y-137300000D03*
X102200000Y-161700000D03*
X106700000Y-161700000D03*
X196700000Y-137300000D03*
X178700000Y-137300000D03*
X160700000Y-137300000D03*
X142700000Y-137300000D03*
X124700000Y-137300000D03*
X192200000Y-161700000D03*
X174200000Y-161700000D03*
X156200000Y-161700000D03*
X138200000Y-161700000D03*
X120200000Y-161700000D03*
X192200000Y-123900000D03*
X142700000Y-101300000D03*
X124700000Y-101300000D03*
X192200000Y-98700000D03*
X160700000Y-101300000D03*
X178700000Y-101300000D03*
X174200000Y-98700000D03*
X156200000Y-98700000D03*
X138200000Y-98700000D03*
X120200000Y-98700000D03*
X196700000Y-98700000D03*
X178700000Y-98700000D03*
X160700000Y-98700000D03*
X142700000Y-98700000D03*
X124700000Y-98700000D03*
X102200000Y-164300000D03*
X102200000Y-137300000D03*
X106700000Y-164300000D03*
X196700000Y-164300000D03*
X178700000Y-164300000D03*
X160700000Y-164300000D03*
X142700000Y-164300000D03*
X124700000Y-164300000D03*
X192200000Y-101300000D03*
X174200000Y-101300000D03*
X156200000Y-101300000D03*
X138200000Y-101300000D03*
X120200000Y-101300000D03*
X196700000Y-101300000D03*
X196700000Y-123900000D03*
X192200000Y-164300000D03*
X174200000Y-164300000D03*
X156200000Y-164300000D03*
X138200000Y-164300000D03*
X120200000Y-164300000D03*
X196700000Y-161700000D03*
X178700000Y-161700000D03*
X160700000Y-161700000D03*
X142700000Y-161700000D03*
X124700000Y-161700000D03*
X192200000Y-137300000D03*
X174200000Y-137300000D03*
X156200000Y-137300000D03*
X138200000Y-137300000D03*
X120200000Y-137300000D03*
X102200000Y-101300000D03*
X106700000Y-101300000D03*
X102200000Y-98700000D03*
X106700000Y-98700000D03*
X196700000Y-122950000D03*
X192200000Y-122950000D03*
X196700000Y-106500000D03*
X178700000Y-106500000D03*
X160700000Y-106500000D03*
X142700000Y-106500000D03*
X124700000Y-106500000D03*
X102200000Y-106500000D03*
X192200000Y-106500000D03*
X174200000Y-106500000D03*
X156200000Y-106500000D03*
X138200000Y-106500000D03*
X120200000Y-106500000D03*
X106700000Y-106500000D03*
X196700000Y-141550000D03*
X192200000Y-141550000D03*
X106700000Y-158300000D03*
X120200000Y-158300000D03*
X138200000Y-158300000D03*
X156200000Y-158300000D03*
X174200000Y-158300000D03*
X192200000Y-158300000D03*
X102200000Y-158300000D03*
X124700000Y-158300000D03*
X142700000Y-158300000D03*
X160700000Y-158300000D03*
X178700000Y-158300000D03*
X196700000Y-158300000D03*
X174200000Y-123900000D03*
X156200000Y-123900000D03*
X138200000Y-123900000D03*
X120200000Y-123900000D03*
X102200000Y-123900000D03*
X178700000Y-123900000D03*
X160700000Y-123900000D03*
X142700000Y-123900000D03*
X124700000Y-123900000D03*
X106700000Y-123900000D03*
X178700000Y-122950000D03*
X160700000Y-122950000D03*
X142700000Y-122950000D03*
X124700000Y-122950000D03*
X106700000Y-122950000D03*
X174200000Y-122950000D03*
X156200000Y-122950000D03*
X138200000Y-122950000D03*
X120200000Y-122950000D03*
X102200000Y-122950000D03*
X196700000Y-140550000D03*
X192200000Y-140550000D03*
X178700000Y-141550000D03*
X160700000Y-141550000D03*
X142700000Y-141550000D03*
X124700000Y-141550000D03*
X106700000Y-141550000D03*
X174200000Y-141550000D03*
X156200000Y-141550000D03*
X138200000Y-141550000D03*
X120200000Y-141550000D03*
X102200000Y-141550000D03*
X174200000Y-140550000D03*
X156200000Y-140550000D03*
X138200000Y-140550000D03*
X120200000Y-140550000D03*
X102200000Y-140550000D03*
X178700000Y-140550000D03*
X160700000Y-140550000D03*
X142700000Y-140550000D03*
X124700000Y-140550000D03*
X106700000Y-140550000D03*
X196700000Y-105500000D03*
X178700000Y-105500000D03*
X160700000Y-105500000D03*
X142700000Y-105500000D03*
X124700000Y-105500000D03*
X102200000Y-105500000D03*
X192200000Y-105500000D03*
X174200000Y-105500000D03*
X156200000Y-105500000D03*
X138200000Y-105500000D03*
X120200000Y-105500000D03*
X106700000Y-105500000D03*
X188552650Y-134135329D03*
X170599604Y-134134189D03*
X152638187Y-133962333D03*
X134654669Y-134058321D03*
X116638187Y-133975010D03*
X98425839Y-134074161D03*
X188600000Y-137199992D03*
X170600000Y-137199992D03*
X152600000Y-137199992D03*
X134600000Y-137199992D03*
X116600000Y-137199992D03*
X98600000Y-137199992D03*
X92245002Y-126000000D03*
X89100000Y-108600000D03*
X117500059Y-132374990D03*
X135500059Y-132375190D03*
X153500059Y-132325010D03*
X171500059Y-132325010D03*
X189500059Y-132375190D03*
X99450444Y-132375478D03*
X200235200Y-133735200D03*
X110235200Y-133825010D03*
X128235200Y-133825210D03*
X146235200Y-133825010D03*
X164235200Y-133825010D03*
X182235200Y-133825210D03*
X93900000Y-125100000D03*
X189315451Y-134828951D03*
X171150115Y-135049609D03*
X153103710Y-134847382D03*
X135148812Y-134927715D03*
X117108984Y-134857265D03*
X99096105Y-134816297D03*
X90500000Y-128400000D03*
X90500000Y-147500000D03*
X98600025Y-131849350D03*
X96700006Y-131400000D03*
X97099998Y-130300000D03*
X97487346Y-129112666D03*
X96900000Y-127900000D03*
X96699992Y-126200000D03*
X96799996Y-124900000D03*
X99700000Y-126500000D03*
X109300000Y-126600000D03*
X112900000Y-126000000D03*
X112900000Y-127500000D03*
X112900000Y-128799964D03*
X111700000Y-130000000D03*
X112900000Y-130500000D03*
X112900000Y-132000000D03*
X110300000Y-131919410D03*
X116631059Y-131880153D03*
X114100000Y-132000000D03*
X114100000Y-130500000D03*
X115300000Y-130000000D03*
X114100000Y-128800000D03*
X114100000Y-127500000D03*
X114100000Y-126000000D03*
X117700000Y-126500000D03*
X127300000Y-126600000D03*
X130900000Y-126000000D03*
X130900000Y-127500000D03*
X130900000Y-128799964D03*
X129700000Y-130000000D03*
X130900000Y-130500000D03*
X130900000Y-132000000D03*
X128300000Y-131919410D03*
X134631153Y-131880189D03*
X132100000Y-130500000D03*
X133300000Y-130000000D03*
X132100000Y-128800000D03*
X132100000Y-127500000D03*
X132100000Y-126000000D03*
X135700000Y-126500000D03*
X145300000Y-126600000D03*
X148900000Y-126000000D03*
X148900000Y-127500000D03*
X148900000Y-128799964D03*
X147700000Y-130000000D03*
X148900000Y-130500000D03*
X148900000Y-132000000D03*
X146300000Y-131919410D03*
X152586235Y-131869410D03*
X150100000Y-132000000D03*
X150100000Y-130500000D03*
X151300000Y-130000000D03*
X150100000Y-128800000D03*
X150100000Y-127500000D03*
X150100000Y-126000000D03*
X153700000Y-126500000D03*
X163300000Y-126600000D03*
X166900000Y-126000000D03*
X166900000Y-127500000D03*
X166900000Y-128799964D03*
X165700000Y-130000000D03*
X166900000Y-130500000D03*
X166900000Y-132000000D03*
X164300000Y-131919410D03*
X170586235Y-131869410D03*
X168100000Y-132000000D03*
X168100000Y-130500000D03*
X169300000Y-130000000D03*
X168100000Y-128800000D03*
X168100000Y-127500000D03*
X168100000Y-126000000D03*
X171700000Y-126500000D03*
X181300000Y-126600000D03*
X184900000Y-126000000D03*
X184900000Y-127500000D03*
X184900000Y-128799964D03*
X183700000Y-130000000D03*
X184900000Y-130500000D03*
X184900000Y-132000000D03*
X182300000Y-131919410D03*
X188330288Y-131861590D03*
X186100000Y-132000000D03*
X186100000Y-130500000D03*
X187247338Y-129959137D03*
X186100000Y-128800000D03*
X186100000Y-127500000D03*
X186100000Y-126000000D03*
X189700000Y-126500000D03*
X199300000Y-126600000D03*
X202900000Y-126000000D03*
X202900000Y-127500000D03*
X202900000Y-128799964D03*
X201700000Y-130000000D03*
X202900000Y-130500000D03*
X202900000Y-132000000D03*
X200300000Y-131919410D03*
X132100000Y-132000000D03*
X88400000Y-162500000D03*
X89600000Y-162500000D03*
X88400000Y-161300000D03*
X89600000Y-161300000D03*
X89600000Y-160100000D03*
X199950000Y-137250000D03*
X181900000Y-137250000D03*
X163950000Y-137250000D03*
X145950000Y-137250000D03*
X127950000Y-137300000D03*
X109900000Y-137300000D03*
X75500000Y-105800000D03*
X74000000Y-119500000D03*
X90300000Y-113800000D03*
X163950000Y-138200000D03*
X163950000Y-139200000D03*
X82200000Y-126700000D03*
X83550000Y-149750000D03*
X90900000Y-138400000D03*
X88400000Y-160100000D03*
X86700000Y-107200000D03*
D18*
X173384189Y-134134189D02*
X170599604Y-134134189D01*
X173800211Y-134550211D02*
X173384189Y-134134189D01*
X188552650Y-134135329D02*
X188137768Y-134550211D01*
X188137768Y-134550211D02*
X173800211Y-134550211D01*
X153203872Y-133962333D02*
X152638187Y-133962333D01*
X153291663Y-133962333D02*
X153203872Y-133962333D01*
X153879341Y-134550011D02*
X153291663Y-133962333D01*
X170183782Y-134550011D02*
X153879341Y-134550011D01*
X170599604Y-134134189D02*
X170183782Y-134550011D01*
X135220354Y-134058321D02*
X134654669Y-134058321D01*
X135352420Y-134058321D02*
X135220354Y-134058321D01*
X135844110Y-134550011D02*
X135352420Y-134058321D01*
X152050509Y-134550011D02*
X135844110Y-134550011D01*
X152638187Y-133962333D02*
X152050509Y-134550011D01*
X117203872Y-133975010D02*
X116638187Y-133975010D01*
X117299731Y-133975010D02*
X117203872Y-133975010D01*
X117874932Y-134550211D02*
X117299731Y-133975010D01*
X133597094Y-134550211D02*
X117874932Y-134550211D01*
X134654669Y-134058321D02*
X134088984Y-134058321D01*
X134088984Y-134058321D02*
X133597094Y-134550211D01*
X98991524Y-134074161D02*
X98425839Y-134074161D01*
X116638187Y-133975010D02*
X116063186Y-134550011D01*
X100250011Y-134550011D02*
X99774161Y-134074161D01*
X99774161Y-134074161D02*
X98991524Y-134074161D01*
X116063186Y-134550011D02*
X100250011Y-134550011D01*
X116999999Y-136799993D02*
X116600000Y-137199992D01*
X117524993Y-136274999D02*
X116999999Y-136799993D01*
X133675007Y-136274999D02*
X117524993Y-136274999D01*
X134600000Y-137199992D02*
X133675007Y-136274999D01*
X98999999Y-136799993D02*
X98600000Y-137199992D01*
X99524993Y-136274999D02*
X98999999Y-136799993D01*
X115674999Y-136274999D02*
X99524993Y-136274999D01*
X116600000Y-137199992D02*
X116599992Y-137199992D01*
X116599992Y-137199992D02*
X115674999Y-136274999D01*
X134999999Y-136799993D02*
X134600000Y-137199992D01*
X135524993Y-136274999D02*
X134999999Y-136799993D01*
X151674999Y-136274999D02*
X135524993Y-136274999D01*
X152600000Y-137199992D02*
X152599992Y-137199992D01*
X152599992Y-137199992D02*
X151674999Y-136274999D01*
X170999999Y-136799993D02*
X170600000Y-137199992D01*
X171599992Y-136200000D02*
X170999999Y-136799993D01*
X188600000Y-137199992D02*
X187600008Y-136200000D01*
X187600008Y-136200000D02*
X171599992Y-136200000D01*
X152999999Y-136799993D02*
X152600000Y-137199992D01*
X153524993Y-136274999D02*
X152999999Y-136799993D01*
X169674999Y-136274999D02*
X153524993Y-136274999D01*
X170600000Y-137199992D02*
X170599992Y-137199992D01*
X170599992Y-137199992D02*
X169674999Y-136274999D01*
X171900058Y-132725009D02*
X171500059Y-132325010D01*
X171950238Y-132775189D02*
X171900058Y-132725009D01*
X189100060Y-132775189D02*
X171950238Y-132775189D01*
X189500059Y-132375190D02*
X189100060Y-132775189D01*
X153900058Y-132725009D02*
X153500059Y-132325010D01*
X171100060Y-132725009D02*
X153900058Y-132725009D01*
X171500059Y-132325010D02*
X171100060Y-132725009D01*
X117900058Y-132774989D02*
X117500059Y-132374990D01*
X117900258Y-132775189D02*
X117900058Y-132774989D01*
X135100060Y-132775189D02*
X117900258Y-132775189D01*
X135500059Y-132375190D02*
X135100060Y-132775189D01*
X135874869Y-132750000D02*
X135500059Y-132375190D01*
X153500059Y-132325010D02*
X153075069Y-132750000D01*
X153075069Y-132750000D02*
X135874869Y-132750000D01*
X117500059Y-132374990D02*
X117100060Y-132774989D01*
X99849955Y-132774989D02*
X99450444Y-132375478D01*
X117100060Y-132774989D02*
X99849955Y-132774989D01*
X164835011Y-133225199D02*
X164235200Y-133825010D01*
X170925199Y-133225199D02*
X164835011Y-133225199D01*
X171700000Y-133225199D02*
X170925199Y-133225199D01*
X182235200Y-133825210D02*
X181635189Y-133225199D01*
X181635189Y-133225199D02*
X171700000Y-133225199D01*
X199750000Y-133250000D02*
X182810410Y-133250000D01*
X200235200Y-133735200D02*
X199750000Y-133250000D01*
X182810410Y-133250000D02*
X182635199Y-133425211D01*
X182635199Y-133425211D02*
X182235200Y-133825210D01*
X146860200Y-133200010D02*
X146235200Y-133825010D01*
X152100010Y-133200010D02*
X146860200Y-133200010D01*
X152100020Y-133200000D02*
X152100010Y-133200010D01*
X164235200Y-133825010D02*
X163610190Y-133200000D01*
X163610190Y-133200000D02*
X152100020Y-133200000D01*
X145835201Y-133425011D02*
X146235200Y-133825010D01*
X145660190Y-133250000D02*
X145835201Y-133425011D01*
X128235200Y-133825210D02*
X128810410Y-133250000D01*
X128810410Y-133250000D02*
X145660190Y-133250000D01*
X127659990Y-133250000D02*
X128235200Y-133825210D01*
X110235200Y-133825010D02*
X110810210Y-133250000D01*
X110810210Y-133250000D02*
X127659990Y-133250000D01*
X93917157Y-125100000D02*
X93900000Y-125100000D01*
X95400000Y-126582843D02*
X93917157Y-125100000D01*
X95400000Y-131400000D02*
X95400000Y-126582843D01*
X97224999Y-133224999D02*
X95400000Y-131400000D01*
X110235200Y-133825010D02*
X109635189Y-133224999D01*
X109635189Y-133224999D02*
X97224999Y-133224999D01*
X171600506Y-135500000D02*
X171150115Y-135049609D01*
X189315451Y-134828951D02*
X188644402Y-135500000D01*
X188644402Y-135500000D02*
X171600506Y-135500000D01*
X153806328Y-135550000D02*
X153103710Y-134847382D01*
X171150115Y-135049609D02*
X170649724Y-135550000D01*
X170649724Y-135550000D02*
X153806328Y-135550000D01*
X135621097Y-135400000D02*
X135148812Y-134927715D01*
X152550000Y-135400000D02*
X135621097Y-135400000D01*
X153103710Y-134847382D02*
X153102618Y-134847382D01*
X153102618Y-134847382D02*
X152550000Y-135400000D01*
X117701719Y-135450000D02*
X117108984Y-134857265D01*
X135148812Y-134927715D02*
X134626527Y-135450000D01*
X134626527Y-135450000D02*
X117701719Y-135450000D01*
X116708985Y-135257264D02*
X99537072Y-135257264D01*
X117108984Y-134857265D02*
X116708985Y-135257264D01*
X99537072Y-135257264D02*
X99096105Y-134816297D01*
M02*
