G04 #@! TF.GenerationSoftware,KiCad,Pcbnew,(5.1.4)-1*
G04 #@! TF.CreationDate,2019-08-22T10:31:36+01:00*
G04 #@! TF.ProjectId,lpa96,6c706139-362e-46b6-9963-61645f706362,2.0*
G04 #@! TF.SameCoordinates,Original*
G04 #@! TF.FileFunction,Soldermask,Top*
G04 #@! TF.FilePolarity,Negative*
%FSLAX46Y46*%
G04 Gerber Fmt 4.6, Leading zero omitted, Abs format (unit mm)*
G04 Created by KiCad (PCBNEW (5.1.4)-1) date 2019-08-22 10:31:36*
%MOMM*%
%LPD*%
G04 APERTURE LIST*
%ADD10C,0.100000*%
%ADD11C,4.164000*%
%ADD12R,0.800000X1.400000*%
%ADD13R,1.540000X0.850000*%
%ADD14R,2.400000X2.400000*%
%ADD15C,2.600000*%
%ADD16R,1.624000X1.624000*%
%ADD17C,1.624000*%
%ADD18R,1.650000X1.400000*%
%ADD19C,1.700000*%
G04 APERTURE END LIST*
D10*
X67000000Y-168500000D02*
X67000000Y-94500000D01*
X210000000Y-168500000D02*
X67000000Y-168500000D01*
X210000000Y-94500000D02*
X210000000Y-168500000D01*
X67000000Y-94500000D02*
X210000000Y-94500000D01*
D11*
X207000000Y-158500000D03*
X207000000Y-104500000D03*
X71000000Y-158500000D03*
X93500000Y-158500000D03*
X93500000Y-104500000D03*
X71000000Y-104500000D03*
D12*
X83550000Y-128500000D03*
X85450000Y-128500000D03*
X83550000Y-131000000D03*
X85450000Y-131000000D03*
X83550000Y-133500000D03*
X85450000Y-133500000D03*
X83550000Y-145000000D03*
X85450000Y-145000000D03*
X83550000Y-147500000D03*
X85450000Y-147500000D03*
D13*
X98260000Y-163000000D03*
X101740000Y-163000000D03*
X98260000Y-154000000D03*
X101740000Y-154000000D03*
X98260000Y-145000000D03*
X101740000Y-145000000D03*
X98260000Y-136000000D03*
X101740000Y-136000000D03*
X98260000Y-127000000D03*
X101740000Y-127000000D03*
X98260000Y-118000000D03*
X101740000Y-118000000D03*
X98260000Y-109000000D03*
X101740000Y-109000000D03*
X98260000Y-100000000D03*
X101740000Y-100000000D03*
X110740000Y-100000000D03*
X107260000Y-100000000D03*
X110740000Y-109000000D03*
X107260000Y-109000000D03*
X110740000Y-118000000D03*
X107260000Y-118000000D03*
X110740000Y-127000000D03*
X107260000Y-127000000D03*
X110740000Y-136000000D03*
X107260000Y-136000000D03*
X110740000Y-145000000D03*
X107260000Y-145000000D03*
X110740000Y-154000000D03*
X107260000Y-154000000D03*
X110740000Y-163000000D03*
X107260000Y-163000000D03*
X116260000Y-163000000D03*
X119740000Y-163000000D03*
X116260000Y-154000000D03*
X119740000Y-154000000D03*
X116260000Y-145000000D03*
X119740000Y-145000000D03*
X116260000Y-136000000D03*
X119740000Y-136000000D03*
X116260000Y-127000000D03*
X119740000Y-127000000D03*
X116260000Y-118000000D03*
X119740000Y-118000000D03*
X116260000Y-109000000D03*
X119740000Y-109000000D03*
X116260000Y-100000000D03*
X119740000Y-100000000D03*
X128740000Y-100000000D03*
X125260000Y-100000000D03*
X128740000Y-109000000D03*
X125260000Y-109000000D03*
X128740000Y-118000000D03*
X125260000Y-118000000D03*
X128740000Y-127000000D03*
X125260000Y-127000000D03*
X128740000Y-136000000D03*
X125260000Y-136000000D03*
X128740000Y-145000000D03*
X125260000Y-145000000D03*
X128740000Y-154000000D03*
X125260000Y-154000000D03*
X128740000Y-163000000D03*
X125260000Y-163000000D03*
X134260000Y-163000000D03*
X137740000Y-163000000D03*
X134260000Y-154000000D03*
X137740000Y-154000000D03*
X134260000Y-145000000D03*
X137740000Y-145000000D03*
X134260000Y-136000000D03*
X137740000Y-136000000D03*
X134260000Y-127000000D03*
X137740000Y-127000000D03*
X134260000Y-118000000D03*
X137740000Y-118000000D03*
X134260000Y-109000000D03*
X137740000Y-109000000D03*
X134260000Y-100000000D03*
X137740000Y-100000000D03*
X146740000Y-100000000D03*
X143260000Y-100000000D03*
X146740000Y-109000000D03*
X143260000Y-109000000D03*
X146740000Y-118000000D03*
X143260000Y-118000000D03*
X146740000Y-127000000D03*
X143260000Y-127000000D03*
X146740000Y-136000000D03*
X143260000Y-136000000D03*
X146740000Y-145000000D03*
X143260000Y-145000000D03*
X146740000Y-154000000D03*
X143260000Y-154000000D03*
X146740000Y-163000000D03*
X143260000Y-163000000D03*
X152260000Y-163000000D03*
X155740000Y-163000000D03*
X152260000Y-154000000D03*
X155740000Y-154000000D03*
X152260000Y-145000000D03*
X155740000Y-145000000D03*
X152260000Y-136000000D03*
X155740000Y-136000000D03*
X152260000Y-127000000D03*
X155740000Y-127000000D03*
X152260000Y-118000000D03*
X155740000Y-118000000D03*
X152260000Y-109000000D03*
X155740000Y-109000000D03*
X152260000Y-100000000D03*
X155740000Y-100000000D03*
X164740000Y-100000000D03*
X161260000Y-100000000D03*
X164740000Y-109000000D03*
X161260000Y-109000000D03*
X164740000Y-118000000D03*
X161260000Y-118000000D03*
X164740000Y-127000000D03*
X161260000Y-127000000D03*
X164740000Y-136000000D03*
X161260000Y-136000000D03*
X164740000Y-145000000D03*
X161260000Y-145000000D03*
X164740000Y-154000000D03*
X161260000Y-154000000D03*
X164740000Y-163000000D03*
X161260000Y-163000000D03*
X170260000Y-163000000D03*
X173740000Y-163000000D03*
X170260000Y-154000000D03*
X173740000Y-154000000D03*
X170260000Y-145000000D03*
X173740000Y-145000000D03*
X170260000Y-136000000D03*
X173740000Y-136000000D03*
X170260000Y-127000000D03*
X173740000Y-127000000D03*
X170260000Y-118000000D03*
X173740000Y-118000000D03*
X170260000Y-109000000D03*
X173740000Y-109000000D03*
X170260000Y-100000000D03*
X173740000Y-100000000D03*
X182740000Y-100000000D03*
X179260000Y-100000000D03*
X182740000Y-109000000D03*
X179260000Y-109000000D03*
X182740000Y-118000000D03*
X179260000Y-118000000D03*
X182740000Y-127000000D03*
X179260000Y-127000000D03*
X182740000Y-136000000D03*
X179260000Y-136000000D03*
X182740000Y-145000000D03*
X179260000Y-145000000D03*
X182740000Y-154000000D03*
X179260000Y-154000000D03*
X182740000Y-163000000D03*
X179260000Y-163000000D03*
X188260000Y-163000000D03*
X191740000Y-163000000D03*
X188260000Y-154000000D03*
X191740000Y-154000000D03*
X188260000Y-145000000D03*
X191740000Y-145000000D03*
X188260000Y-136000000D03*
X191740000Y-136000000D03*
X188260000Y-127000000D03*
X191740000Y-127000000D03*
X188260000Y-118000000D03*
X191740000Y-118000000D03*
X188260000Y-109000000D03*
X191740000Y-109000000D03*
X188260000Y-100000000D03*
X191740000Y-100000000D03*
X200740000Y-100000000D03*
X197260000Y-100000000D03*
X200740000Y-109000000D03*
X197260000Y-109000000D03*
X200740000Y-118000000D03*
X197260000Y-118000000D03*
X200740000Y-127000000D03*
X197260000Y-127000000D03*
X200740000Y-136000000D03*
X197260000Y-136000000D03*
X200740000Y-145000000D03*
X197260000Y-145000000D03*
X200740000Y-154000000D03*
X197260000Y-154000000D03*
X200740000Y-163000000D03*
X197260000Y-163000000D03*
D14*
X68520000Y-162500000D03*
D15*
X72480000Y-162500000D03*
D16*
X72140000Y-118040000D03*
D17*
X69600000Y-118040000D03*
X72140000Y-115500000D03*
X69600000Y-115500000D03*
X72140000Y-112960000D03*
X69600000Y-112960000D03*
D18*
X69025000Y-100750000D03*
X69025000Y-96250000D03*
X76975000Y-96250000D03*
X76975000Y-100750000D03*
D19*
X68500000Y-125700000D03*
X68500000Y-149850000D03*
M02*
