G04 #@! TF.GenerationSoftware,KiCad,Pcbnew,(5.1.4)-1*
G04 #@! TF.CreationDate,2019-09-05T13:30:01+01:00*
G04 #@! TF.ProjectId,lpa96,6c706139-362e-46b6-9963-61645f706362,2.1*
G04 #@! TF.SameCoordinates,Original*
G04 #@! TF.FileFunction,Soldermask,Bot*
G04 #@! TF.FilePolarity,Negative*
%FSLAX46Y46*%
G04 Gerber Fmt 4.6, Leading zero omitted, Abs format (unit mm)*
G04 Created by KiCad (PCBNEW (5.1.4)-1) date 2019-09-05 13:30:01*
%MOMM*%
%LPD*%
G04 APERTURE LIST*
%ADD10C,0.100000*%
%ADD11R,2.894000X1.878000*%
%ADD12R,2.500000X6.270001*%
%ADD13R,1.765199X0.464800*%
%ADD14R,2.098980X0.549580*%
%ADD15R,0.549580X2.098980*%
%ADD16R,2.400000X2.400000*%
%ADD17C,2.600000*%
%ADD18R,1.624000X1.624000*%
%ADD19C,1.624000*%
%ADD20R,1.600000X1.100000*%
%ADD21R,2.100000X1.300000*%
%ADD22C,1.700000*%
%ADD23R,2.132000X3.757600*%
%ADD24R,2.132000X1.116000*%
%ADD25R,4.200000X0.800000*%
%ADD26R,4.200000X1.100000*%
%ADD27R,3.600000X1.700000*%
%ADD28C,0.150000*%
%ADD29C,1.075000*%
%ADD30C,1.350000*%
%ADD31C,4.164000*%
G04 APERTURE END LIST*
D10*
G36*
X201800000Y-122300000D02*
G01*
X186800000Y-122300000D01*
X186800000Y-107300000D01*
X201800000Y-107300000D01*
X201800000Y-122300000D01*
G37*
X201800000Y-122300000D02*
X186800000Y-122300000D01*
X186800000Y-107300000D01*
X201800000Y-107300000D01*
X201800000Y-122300000D01*
G36*
X111800000Y-122300000D02*
G01*
X96800000Y-122300000D01*
X96800000Y-107300000D01*
X111800000Y-107300000D01*
X111800000Y-122300000D01*
G37*
X111800000Y-122300000D02*
X96800000Y-122300000D01*
X96800000Y-107300000D01*
X111800000Y-107300000D01*
X111800000Y-122300000D01*
G36*
X129800000Y-122300000D02*
G01*
X114800000Y-122300000D01*
X114800000Y-107300000D01*
X129800000Y-107300000D01*
X129800000Y-122300000D01*
G37*
X129800000Y-122300000D02*
X114800000Y-122300000D01*
X114800000Y-107300000D01*
X129800000Y-107300000D01*
X129800000Y-122300000D01*
G36*
X147800000Y-122300000D02*
G01*
X132800000Y-122300000D01*
X132800000Y-107300000D01*
X147800000Y-107300000D01*
X147800000Y-122300000D01*
G37*
X147800000Y-122300000D02*
X132800000Y-122300000D01*
X132800000Y-107300000D01*
X147800000Y-107300000D01*
X147800000Y-122300000D01*
G36*
X165800000Y-122300000D02*
G01*
X150800000Y-122300000D01*
X150800000Y-107300000D01*
X165800000Y-107300000D01*
X165800000Y-122300000D01*
G37*
X165800000Y-122300000D02*
X150800000Y-122300000D01*
X150800000Y-107300000D01*
X165800000Y-107300000D01*
X165800000Y-122300000D01*
G36*
X183800000Y-122300000D02*
G01*
X168800000Y-122300000D01*
X168800000Y-107300000D01*
X183800000Y-107300000D01*
X183800000Y-122300000D01*
G37*
X183800000Y-122300000D02*
X168800000Y-122300000D01*
X168800000Y-107300000D01*
X183800000Y-107300000D01*
X183800000Y-122300000D01*
G36*
X111800000Y-157300000D02*
G01*
X96800000Y-157300000D01*
X96800000Y-142300000D01*
X111800000Y-142300000D01*
X111800000Y-157300000D01*
G37*
X111800000Y-157300000D02*
X96800000Y-157300000D01*
X96800000Y-142300000D01*
X111800000Y-142300000D01*
X111800000Y-157300000D01*
G36*
X129800000Y-157300000D02*
G01*
X114800000Y-157300000D01*
X114800000Y-142300000D01*
X129800000Y-142300000D01*
X129800000Y-157300000D01*
G37*
X129800000Y-157300000D02*
X114800000Y-157300000D01*
X114800000Y-142300000D01*
X129800000Y-142300000D01*
X129800000Y-157300000D01*
G36*
X147800000Y-157300000D02*
G01*
X132800000Y-157300000D01*
X132800000Y-142300000D01*
X147800000Y-142300000D01*
X147800000Y-157300000D01*
G37*
X147800000Y-157300000D02*
X132800000Y-157300000D01*
X132800000Y-142300000D01*
X147800000Y-142300000D01*
X147800000Y-157300000D01*
G36*
X165800000Y-157300000D02*
G01*
X150800000Y-157300000D01*
X150800000Y-142300000D01*
X165800000Y-142300000D01*
X165800000Y-157300000D01*
G37*
X165800000Y-157300000D02*
X150800000Y-157300000D01*
X150800000Y-142300000D01*
X165800000Y-142300000D01*
X165800000Y-157300000D01*
G36*
X183800000Y-157300000D02*
G01*
X168800000Y-157300000D01*
X168800000Y-142300000D01*
X183800000Y-142300000D01*
X183800000Y-157300000D01*
G37*
X183800000Y-157300000D02*
X168800000Y-157300000D01*
X168800000Y-142300000D01*
X183800000Y-142300000D01*
X183800000Y-157300000D01*
G36*
X201800000Y-157300000D02*
G01*
X186800000Y-157300000D01*
X186800000Y-142300000D01*
X201800000Y-142300000D01*
X201800000Y-157300000D01*
G37*
X201800000Y-157300000D02*
X186800000Y-157300000D01*
X186800000Y-142300000D01*
X201800000Y-142300000D01*
X201800000Y-157300000D01*
X67000000Y-168500000D02*
X67000000Y-94500000D01*
X210000000Y-168500000D02*
X67000000Y-168500000D01*
X210000000Y-94500000D02*
X210000000Y-168500000D01*
X67000000Y-94500000D02*
X210000000Y-94500000D01*
D11*
X86000000Y-155300000D03*
X86000000Y-158856000D03*
D12*
X104500000Y-131500000D03*
D13*
X107319400Y-135725074D03*
X107319400Y-135075063D03*
X107319400Y-134425051D03*
X107319400Y-133775040D03*
X107319400Y-133125028D03*
X107319400Y-132475017D03*
X107319400Y-131825006D03*
X107319400Y-131174994D03*
X107319400Y-130524983D03*
X107319400Y-129874972D03*
X107319400Y-129224960D03*
X107319400Y-128574949D03*
X107319400Y-127924937D03*
X107319400Y-127274926D03*
X101680600Y-127274926D03*
X101680600Y-127924937D03*
X101680600Y-128574949D03*
X101680600Y-129224960D03*
X101680600Y-129874972D03*
X101680600Y-130524983D03*
X101680600Y-131174994D03*
X101680600Y-131825006D03*
X101680600Y-132475017D03*
X101680600Y-133125028D03*
X101680600Y-133775040D03*
X101680600Y-134425051D03*
X101680600Y-135075063D03*
X101680600Y-135725074D03*
D12*
X122500000Y-131500000D03*
D13*
X125319400Y-135725074D03*
X125319400Y-135075063D03*
X125319400Y-134425051D03*
X125319400Y-133775040D03*
X125319400Y-133125028D03*
X125319400Y-132475017D03*
X125319400Y-131825006D03*
X125319400Y-131174994D03*
X125319400Y-130524983D03*
X125319400Y-129874972D03*
X125319400Y-129224960D03*
X125319400Y-128574949D03*
X125319400Y-127924937D03*
X125319400Y-127274926D03*
X119680600Y-127274926D03*
X119680600Y-127924937D03*
X119680600Y-128574949D03*
X119680600Y-129224960D03*
X119680600Y-129874972D03*
X119680600Y-130524983D03*
X119680600Y-131174994D03*
X119680600Y-131825006D03*
X119680600Y-132475017D03*
X119680600Y-133125028D03*
X119680600Y-133775040D03*
X119680600Y-134425051D03*
X119680600Y-135075063D03*
X119680600Y-135725074D03*
D12*
X140500000Y-131500000D03*
D13*
X143319400Y-135725074D03*
X143319400Y-135075063D03*
X143319400Y-134425051D03*
X143319400Y-133775040D03*
X143319400Y-133125028D03*
X143319400Y-132475017D03*
X143319400Y-131825006D03*
X143319400Y-131174994D03*
X143319400Y-130524983D03*
X143319400Y-129874972D03*
X143319400Y-129224960D03*
X143319400Y-128574949D03*
X143319400Y-127924937D03*
X143319400Y-127274926D03*
X137680600Y-127274926D03*
X137680600Y-127924937D03*
X137680600Y-128574949D03*
X137680600Y-129224960D03*
X137680600Y-129874972D03*
X137680600Y-130524983D03*
X137680600Y-131174994D03*
X137680600Y-131825006D03*
X137680600Y-132475017D03*
X137680600Y-133125028D03*
X137680600Y-133775040D03*
X137680600Y-134425051D03*
X137680600Y-135075063D03*
X137680600Y-135725074D03*
D12*
X158500000Y-131500000D03*
D13*
X161319400Y-135725074D03*
X161319400Y-135075063D03*
X161319400Y-134425051D03*
X161319400Y-133775040D03*
X161319400Y-133125028D03*
X161319400Y-132475017D03*
X161319400Y-131825006D03*
X161319400Y-131174994D03*
X161319400Y-130524983D03*
X161319400Y-129874972D03*
X161319400Y-129224960D03*
X161319400Y-128574949D03*
X161319400Y-127924937D03*
X161319400Y-127274926D03*
X155680600Y-127274926D03*
X155680600Y-127924937D03*
X155680600Y-128574949D03*
X155680600Y-129224960D03*
X155680600Y-129874972D03*
X155680600Y-130524983D03*
X155680600Y-131174994D03*
X155680600Y-131825006D03*
X155680600Y-132475017D03*
X155680600Y-133125028D03*
X155680600Y-133775040D03*
X155680600Y-134425051D03*
X155680600Y-135075063D03*
X155680600Y-135725074D03*
D12*
X176500000Y-131500000D03*
D13*
X179319400Y-135725074D03*
X179319400Y-135075063D03*
X179319400Y-134425051D03*
X179319400Y-133775040D03*
X179319400Y-133125028D03*
X179319400Y-132475017D03*
X179319400Y-131825006D03*
X179319400Y-131174994D03*
X179319400Y-130524983D03*
X179319400Y-129874972D03*
X179319400Y-129224960D03*
X179319400Y-128574949D03*
X179319400Y-127924937D03*
X179319400Y-127274926D03*
X173680600Y-127274926D03*
X173680600Y-127924937D03*
X173680600Y-128574949D03*
X173680600Y-129224960D03*
X173680600Y-129874972D03*
X173680600Y-130524983D03*
X173680600Y-131174994D03*
X173680600Y-131825006D03*
X173680600Y-132475017D03*
X173680600Y-133125028D03*
X173680600Y-133775040D03*
X173680600Y-134425051D03*
X173680600Y-135075063D03*
X173680600Y-135725074D03*
D12*
X194480600Y-131474994D03*
D13*
X197300000Y-135700068D03*
X197300000Y-135050057D03*
X197300000Y-134400045D03*
X197300000Y-133750034D03*
X197300000Y-133100022D03*
X197300000Y-132450011D03*
X197300000Y-131800000D03*
X197300000Y-131149988D03*
X197300000Y-130499977D03*
X197300000Y-129849966D03*
X197300000Y-129199954D03*
X197300000Y-128549943D03*
X197300000Y-127899931D03*
X197300000Y-127249920D03*
X191661200Y-127249920D03*
X191661200Y-127899931D03*
X191661200Y-128549943D03*
X191661200Y-129199954D03*
X191661200Y-129849966D03*
X191661200Y-130499977D03*
X191661200Y-131149988D03*
X191661200Y-131800000D03*
X191661200Y-132450011D03*
X191661200Y-133100022D03*
X191661200Y-133750034D03*
X191661200Y-134400045D03*
X191661200Y-135050057D03*
X191661200Y-135700068D03*
D14*
X85815840Y-115776220D03*
X85815840Y-114976120D03*
X85815840Y-114176020D03*
X85815840Y-113375920D03*
X85815840Y-112575820D03*
X85815840Y-111775720D03*
X85815840Y-110975620D03*
X85815840Y-110175520D03*
X76250200Y-110180600D03*
X76250200Y-115794000D03*
X76250200Y-114981200D03*
X76250200Y-114168400D03*
X76250200Y-113381000D03*
X76250200Y-112568200D03*
X76250200Y-111780800D03*
X76250200Y-110968000D03*
D15*
X83824480Y-108174000D03*
X83026920Y-108174000D03*
X82224280Y-108174000D03*
X81426720Y-108174000D03*
X80624080Y-108174000D03*
X79826520Y-108174000D03*
X79023880Y-108174000D03*
X78226320Y-108174000D03*
X83819400Y-117775200D03*
X83032000Y-117775200D03*
X82219200Y-117775200D03*
X81431800Y-117775200D03*
X80644400Y-117775200D03*
X79831600Y-117775200D03*
X79018800Y-117775200D03*
X78206000Y-117775200D03*
D16*
X68520000Y-162500000D03*
D17*
X72480000Y-162500000D03*
D18*
X72140000Y-118040000D03*
D19*
X69600000Y-118040000D03*
X72140000Y-115500000D03*
X69600000Y-115500000D03*
X72140000Y-112960000D03*
X69600000Y-112960000D03*
D20*
X92810000Y-130900000D03*
X92810000Y-133400000D03*
X92810000Y-136800000D03*
X92810000Y-138450000D03*
X92810000Y-140900000D03*
X92810000Y-143400000D03*
X92810000Y-145830000D03*
X92810000Y-147530000D03*
X92810000Y-128400000D03*
X92810000Y-150880000D03*
D21*
X70600000Y-151400000D03*
X71800000Y-123400000D03*
D20*
X92810000Y-135100000D03*
D22*
X68500000Y-125700000D03*
X68500000Y-149850000D03*
D23*
X91900000Y-164300000D03*
D24*
X85296000Y-164300000D03*
X85296000Y-162014000D03*
X85296000Y-166586000D03*
D25*
X90500000Y-119000000D03*
D26*
X90500000Y-117500000D03*
D25*
X90500000Y-116000000D03*
D27*
X82000000Y-156000000D03*
X76600000Y-156000000D03*
X81800000Y-163000000D03*
X76400000Y-163000000D03*
D28*
G36*
X89407592Y-113201294D02*
G01*
X89433681Y-113205164D01*
X89459264Y-113211572D01*
X89484096Y-113220457D01*
X89507938Y-113231734D01*
X89530560Y-113245293D01*
X89551743Y-113261003D01*
X89571285Y-113278715D01*
X89588997Y-113298257D01*
X89604707Y-113319440D01*
X89618266Y-113342062D01*
X89629543Y-113365904D01*
X89638428Y-113390736D01*
X89644836Y-113416319D01*
X89648706Y-113442408D01*
X89650000Y-113468750D01*
X89650000Y-114006250D01*
X89648706Y-114032592D01*
X89644836Y-114058681D01*
X89638428Y-114084264D01*
X89629543Y-114109096D01*
X89618266Y-114132938D01*
X89604707Y-114155560D01*
X89588997Y-114176743D01*
X89571285Y-114196285D01*
X89551743Y-114213997D01*
X89530560Y-114229707D01*
X89507938Y-114243266D01*
X89484096Y-114254543D01*
X89459264Y-114263428D01*
X89433681Y-114269836D01*
X89407592Y-114273706D01*
X89381250Y-114275000D01*
X88418750Y-114275000D01*
X88392408Y-114273706D01*
X88366319Y-114269836D01*
X88340736Y-114263428D01*
X88315904Y-114254543D01*
X88292062Y-114243266D01*
X88269440Y-114229707D01*
X88248257Y-114213997D01*
X88228715Y-114196285D01*
X88211003Y-114176743D01*
X88195293Y-114155560D01*
X88181734Y-114132938D01*
X88170457Y-114109096D01*
X88161572Y-114084264D01*
X88155164Y-114058681D01*
X88151294Y-114032592D01*
X88150000Y-114006250D01*
X88150000Y-113468750D01*
X88151294Y-113442408D01*
X88155164Y-113416319D01*
X88161572Y-113390736D01*
X88170457Y-113365904D01*
X88181734Y-113342062D01*
X88195293Y-113319440D01*
X88211003Y-113298257D01*
X88228715Y-113278715D01*
X88248257Y-113261003D01*
X88269440Y-113245293D01*
X88292062Y-113231734D01*
X88315904Y-113220457D01*
X88340736Y-113211572D01*
X88366319Y-113205164D01*
X88392408Y-113201294D01*
X88418750Y-113200000D01*
X89381250Y-113200000D01*
X89407592Y-113201294D01*
X89407592Y-113201294D01*
G37*
D29*
X88900000Y-113737500D03*
D28*
G36*
X89407592Y-111326294D02*
G01*
X89433681Y-111330164D01*
X89459264Y-111336572D01*
X89484096Y-111345457D01*
X89507938Y-111356734D01*
X89530560Y-111370293D01*
X89551743Y-111386003D01*
X89571285Y-111403715D01*
X89588997Y-111423257D01*
X89604707Y-111444440D01*
X89618266Y-111467062D01*
X89629543Y-111490904D01*
X89638428Y-111515736D01*
X89644836Y-111541319D01*
X89648706Y-111567408D01*
X89650000Y-111593750D01*
X89650000Y-112131250D01*
X89648706Y-112157592D01*
X89644836Y-112183681D01*
X89638428Y-112209264D01*
X89629543Y-112234096D01*
X89618266Y-112257938D01*
X89604707Y-112280560D01*
X89588997Y-112301743D01*
X89571285Y-112321285D01*
X89551743Y-112338997D01*
X89530560Y-112354707D01*
X89507938Y-112368266D01*
X89484096Y-112379543D01*
X89459264Y-112388428D01*
X89433681Y-112394836D01*
X89407592Y-112398706D01*
X89381250Y-112400000D01*
X88418750Y-112400000D01*
X88392408Y-112398706D01*
X88366319Y-112394836D01*
X88340736Y-112388428D01*
X88315904Y-112379543D01*
X88292062Y-112368266D01*
X88269440Y-112354707D01*
X88248257Y-112338997D01*
X88228715Y-112321285D01*
X88211003Y-112301743D01*
X88195293Y-112280560D01*
X88181734Y-112257938D01*
X88170457Y-112234096D01*
X88161572Y-112209264D01*
X88155164Y-112183681D01*
X88151294Y-112157592D01*
X88150000Y-112131250D01*
X88150000Y-111593750D01*
X88151294Y-111567408D01*
X88155164Y-111541319D01*
X88161572Y-111515736D01*
X88170457Y-111490904D01*
X88181734Y-111467062D01*
X88195293Y-111444440D01*
X88211003Y-111423257D01*
X88228715Y-111403715D01*
X88248257Y-111386003D01*
X88269440Y-111370293D01*
X88292062Y-111356734D01*
X88315904Y-111345457D01*
X88340736Y-111336572D01*
X88366319Y-111330164D01*
X88392408Y-111326294D01*
X88418750Y-111325000D01*
X89381250Y-111325000D01*
X89407592Y-111326294D01*
X89407592Y-111326294D01*
G37*
D29*
X88900000Y-111862500D03*
D28*
G36*
X74557592Y-117451294D02*
G01*
X74583681Y-117455164D01*
X74609264Y-117461572D01*
X74634096Y-117470457D01*
X74657938Y-117481734D01*
X74680560Y-117495293D01*
X74701743Y-117511003D01*
X74721285Y-117528715D01*
X74738997Y-117548257D01*
X74754707Y-117569440D01*
X74768266Y-117592062D01*
X74779543Y-117615904D01*
X74788428Y-117640736D01*
X74794836Y-117666319D01*
X74798706Y-117692408D01*
X74800000Y-117718750D01*
X74800000Y-118681250D01*
X74798706Y-118707592D01*
X74794836Y-118733681D01*
X74788428Y-118759264D01*
X74779543Y-118784096D01*
X74768266Y-118807938D01*
X74754707Y-118830560D01*
X74738997Y-118851743D01*
X74721285Y-118871285D01*
X74701743Y-118888997D01*
X74680560Y-118904707D01*
X74657938Y-118918266D01*
X74634096Y-118929543D01*
X74609264Y-118938428D01*
X74583681Y-118944836D01*
X74557592Y-118948706D01*
X74531250Y-118950000D01*
X73993750Y-118950000D01*
X73967408Y-118948706D01*
X73941319Y-118944836D01*
X73915736Y-118938428D01*
X73890904Y-118929543D01*
X73867062Y-118918266D01*
X73844440Y-118904707D01*
X73823257Y-118888997D01*
X73803715Y-118871285D01*
X73786003Y-118851743D01*
X73770293Y-118830560D01*
X73756734Y-118807938D01*
X73745457Y-118784096D01*
X73736572Y-118759264D01*
X73730164Y-118733681D01*
X73726294Y-118707592D01*
X73725000Y-118681250D01*
X73725000Y-117718750D01*
X73726294Y-117692408D01*
X73730164Y-117666319D01*
X73736572Y-117640736D01*
X73745457Y-117615904D01*
X73756734Y-117592062D01*
X73770293Y-117569440D01*
X73786003Y-117548257D01*
X73803715Y-117528715D01*
X73823257Y-117511003D01*
X73844440Y-117495293D01*
X73867062Y-117481734D01*
X73890904Y-117470457D01*
X73915736Y-117461572D01*
X73941319Y-117455164D01*
X73967408Y-117451294D01*
X73993750Y-117450000D01*
X74531250Y-117450000D01*
X74557592Y-117451294D01*
X74557592Y-117451294D01*
G37*
D29*
X74262500Y-118200000D03*
D28*
G36*
X76432592Y-117451294D02*
G01*
X76458681Y-117455164D01*
X76484264Y-117461572D01*
X76509096Y-117470457D01*
X76532938Y-117481734D01*
X76555560Y-117495293D01*
X76576743Y-117511003D01*
X76596285Y-117528715D01*
X76613997Y-117548257D01*
X76629707Y-117569440D01*
X76643266Y-117592062D01*
X76654543Y-117615904D01*
X76663428Y-117640736D01*
X76669836Y-117666319D01*
X76673706Y-117692408D01*
X76675000Y-117718750D01*
X76675000Y-118681250D01*
X76673706Y-118707592D01*
X76669836Y-118733681D01*
X76663428Y-118759264D01*
X76654543Y-118784096D01*
X76643266Y-118807938D01*
X76629707Y-118830560D01*
X76613997Y-118851743D01*
X76596285Y-118871285D01*
X76576743Y-118888997D01*
X76555560Y-118904707D01*
X76532938Y-118918266D01*
X76509096Y-118929543D01*
X76484264Y-118938428D01*
X76458681Y-118944836D01*
X76432592Y-118948706D01*
X76406250Y-118950000D01*
X75868750Y-118950000D01*
X75842408Y-118948706D01*
X75816319Y-118944836D01*
X75790736Y-118938428D01*
X75765904Y-118929543D01*
X75742062Y-118918266D01*
X75719440Y-118904707D01*
X75698257Y-118888997D01*
X75678715Y-118871285D01*
X75661003Y-118851743D01*
X75645293Y-118830560D01*
X75631734Y-118807938D01*
X75620457Y-118784096D01*
X75611572Y-118759264D01*
X75605164Y-118733681D01*
X75601294Y-118707592D01*
X75600000Y-118681250D01*
X75600000Y-117718750D01*
X75601294Y-117692408D01*
X75605164Y-117666319D01*
X75611572Y-117640736D01*
X75620457Y-117615904D01*
X75631734Y-117592062D01*
X75645293Y-117569440D01*
X75661003Y-117548257D01*
X75678715Y-117528715D01*
X75698257Y-117511003D01*
X75719440Y-117495293D01*
X75742062Y-117481734D01*
X75765904Y-117470457D01*
X75790736Y-117461572D01*
X75816319Y-117455164D01*
X75842408Y-117451294D01*
X75868750Y-117450000D01*
X76406250Y-117450000D01*
X76432592Y-117451294D01*
X76432592Y-117451294D01*
G37*
D29*
X76137500Y-118200000D03*
D28*
G36*
X89781465Y-154126300D02*
G01*
X89807674Y-154130188D01*
X89833377Y-154136626D01*
X89858325Y-154145553D01*
X89882277Y-154156881D01*
X89905004Y-154170503D01*
X89926286Y-154186287D01*
X89945919Y-154204081D01*
X89963713Y-154223714D01*
X89979497Y-154244996D01*
X89993119Y-154267723D01*
X90004447Y-154291675D01*
X90013374Y-154316623D01*
X90019812Y-154342326D01*
X90023700Y-154368535D01*
X90025000Y-154395000D01*
X90025000Y-155205000D01*
X90023700Y-155231465D01*
X90019812Y-155257674D01*
X90013374Y-155283377D01*
X90004447Y-155308325D01*
X89993119Y-155332277D01*
X89979497Y-155355004D01*
X89963713Y-155376286D01*
X89945919Y-155395919D01*
X89926286Y-155413713D01*
X89905004Y-155429497D01*
X89882277Y-155443119D01*
X89858325Y-155454447D01*
X89833377Y-155463374D01*
X89807674Y-155469812D01*
X89781465Y-155473700D01*
X89755000Y-155475000D01*
X88445000Y-155475000D01*
X88418535Y-155473700D01*
X88392326Y-155469812D01*
X88366623Y-155463374D01*
X88341675Y-155454447D01*
X88317723Y-155443119D01*
X88294996Y-155429497D01*
X88273714Y-155413713D01*
X88254081Y-155395919D01*
X88236287Y-155376286D01*
X88220503Y-155355004D01*
X88206881Y-155332277D01*
X88195553Y-155308325D01*
X88186626Y-155283377D01*
X88180188Y-155257674D01*
X88176300Y-155231465D01*
X88175000Y-155205000D01*
X88175000Y-154395000D01*
X88176300Y-154368535D01*
X88180188Y-154342326D01*
X88186626Y-154316623D01*
X88195553Y-154291675D01*
X88206881Y-154267723D01*
X88220503Y-154244996D01*
X88236287Y-154223714D01*
X88254081Y-154204081D01*
X88273714Y-154186287D01*
X88294996Y-154170503D01*
X88317723Y-154156881D01*
X88341675Y-154145553D01*
X88366623Y-154136626D01*
X88392326Y-154130188D01*
X88418535Y-154126300D01*
X88445000Y-154125000D01*
X89755000Y-154125000D01*
X89781465Y-154126300D01*
X89781465Y-154126300D01*
G37*
D30*
X89100000Y-154800000D03*
D28*
G36*
X89781465Y-156926300D02*
G01*
X89807674Y-156930188D01*
X89833377Y-156936626D01*
X89858325Y-156945553D01*
X89882277Y-156956881D01*
X89905004Y-156970503D01*
X89926286Y-156986287D01*
X89945919Y-157004081D01*
X89963713Y-157023714D01*
X89979497Y-157044996D01*
X89993119Y-157067723D01*
X90004447Y-157091675D01*
X90013374Y-157116623D01*
X90019812Y-157142326D01*
X90023700Y-157168535D01*
X90025000Y-157195000D01*
X90025000Y-158005000D01*
X90023700Y-158031465D01*
X90019812Y-158057674D01*
X90013374Y-158083377D01*
X90004447Y-158108325D01*
X89993119Y-158132277D01*
X89979497Y-158155004D01*
X89963713Y-158176286D01*
X89945919Y-158195919D01*
X89926286Y-158213713D01*
X89905004Y-158229497D01*
X89882277Y-158243119D01*
X89858325Y-158254447D01*
X89833377Y-158263374D01*
X89807674Y-158269812D01*
X89781465Y-158273700D01*
X89755000Y-158275000D01*
X88445000Y-158275000D01*
X88418535Y-158273700D01*
X88392326Y-158269812D01*
X88366623Y-158263374D01*
X88341675Y-158254447D01*
X88317723Y-158243119D01*
X88294996Y-158229497D01*
X88273714Y-158213713D01*
X88254081Y-158195919D01*
X88236287Y-158176286D01*
X88220503Y-158155004D01*
X88206881Y-158132277D01*
X88195553Y-158108325D01*
X88186626Y-158083377D01*
X88180188Y-158057674D01*
X88176300Y-158031465D01*
X88175000Y-158005000D01*
X88175000Y-157195000D01*
X88176300Y-157168535D01*
X88180188Y-157142326D01*
X88186626Y-157116623D01*
X88195553Y-157091675D01*
X88206881Y-157067723D01*
X88220503Y-157044996D01*
X88236287Y-157023714D01*
X88254081Y-157004081D01*
X88273714Y-156986287D01*
X88294996Y-156970503D01*
X88317723Y-156956881D01*
X88341675Y-156945553D01*
X88366623Y-156936626D01*
X88392326Y-156930188D01*
X88418535Y-156926300D01*
X88445000Y-156925000D01*
X89755000Y-156925000D01*
X89781465Y-156926300D01*
X89781465Y-156926300D01*
G37*
D30*
X89100000Y-157600000D03*
D28*
G36*
X108807592Y-138601294D02*
G01*
X108833681Y-138605164D01*
X108859264Y-138611572D01*
X108884096Y-138620457D01*
X108907938Y-138631734D01*
X108930560Y-138645293D01*
X108951743Y-138661003D01*
X108971285Y-138678715D01*
X108988997Y-138698257D01*
X109004707Y-138719440D01*
X109018266Y-138742062D01*
X109029543Y-138765904D01*
X109038428Y-138790736D01*
X109044836Y-138816319D01*
X109048706Y-138842408D01*
X109050000Y-138868750D01*
X109050000Y-139406250D01*
X109048706Y-139432592D01*
X109044836Y-139458681D01*
X109038428Y-139484264D01*
X109029543Y-139509096D01*
X109018266Y-139532938D01*
X109004707Y-139555560D01*
X108988997Y-139576743D01*
X108971285Y-139596285D01*
X108951743Y-139613997D01*
X108930560Y-139629707D01*
X108907938Y-139643266D01*
X108884096Y-139654543D01*
X108859264Y-139663428D01*
X108833681Y-139669836D01*
X108807592Y-139673706D01*
X108781250Y-139675000D01*
X107818750Y-139675000D01*
X107792408Y-139673706D01*
X107766319Y-139669836D01*
X107740736Y-139663428D01*
X107715904Y-139654543D01*
X107692062Y-139643266D01*
X107669440Y-139629707D01*
X107648257Y-139613997D01*
X107628715Y-139596285D01*
X107611003Y-139576743D01*
X107595293Y-139555560D01*
X107581734Y-139532938D01*
X107570457Y-139509096D01*
X107561572Y-139484264D01*
X107555164Y-139458681D01*
X107551294Y-139432592D01*
X107550000Y-139406250D01*
X107550000Y-138868750D01*
X107551294Y-138842408D01*
X107555164Y-138816319D01*
X107561572Y-138790736D01*
X107570457Y-138765904D01*
X107581734Y-138742062D01*
X107595293Y-138719440D01*
X107611003Y-138698257D01*
X107628715Y-138678715D01*
X107648257Y-138661003D01*
X107669440Y-138645293D01*
X107692062Y-138631734D01*
X107715904Y-138620457D01*
X107740736Y-138611572D01*
X107766319Y-138605164D01*
X107792408Y-138601294D01*
X107818750Y-138600000D01*
X108781250Y-138600000D01*
X108807592Y-138601294D01*
X108807592Y-138601294D01*
G37*
D29*
X108300000Y-139137500D03*
D28*
G36*
X108807592Y-136726294D02*
G01*
X108833681Y-136730164D01*
X108859264Y-136736572D01*
X108884096Y-136745457D01*
X108907938Y-136756734D01*
X108930560Y-136770293D01*
X108951743Y-136786003D01*
X108971285Y-136803715D01*
X108988997Y-136823257D01*
X109004707Y-136844440D01*
X109018266Y-136867062D01*
X109029543Y-136890904D01*
X109038428Y-136915736D01*
X109044836Y-136941319D01*
X109048706Y-136967408D01*
X109050000Y-136993750D01*
X109050000Y-137531250D01*
X109048706Y-137557592D01*
X109044836Y-137583681D01*
X109038428Y-137609264D01*
X109029543Y-137634096D01*
X109018266Y-137657938D01*
X109004707Y-137680560D01*
X108988997Y-137701743D01*
X108971285Y-137721285D01*
X108951743Y-137738997D01*
X108930560Y-137754707D01*
X108907938Y-137768266D01*
X108884096Y-137779543D01*
X108859264Y-137788428D01*
X108833681Y-137794836D01*
X108807592Y-137798706D01*
X108781250Y-137800000D01*
X107818750Y-137800000D01*
X107792408Y-137798706D01*
X107766319Y-137794836D01*
X107740736Y-137788428D01*
X107715904Y-137779543D01*
X107692062Y-137768266D01*
X107669440Y-137754707D01*
X107648257Y-137738997D01*
X107628715Y-137721285D01*
X107611003Y-137701743D01*
X107595293Y-137680560D01*
X107581734Y-137657938D01*
X107570457Y-137634096D01*
X107561572Y-137609264D01*
X107555164Y-137583681D01*
X107551294Y-137557592D01*
X107550000Y-137531250D01*
X107550000Y-136993750D01*
X107551294Y-136967408D01*
X107555164Y-136941319D01*
X107561572Y-136915736D01*
X107570457Y-136890904D01*
X107581734Y-136867062D01*
X107595293Y-136844440D01*
X107611003Y-136823257D01*
X107628715Y-136803715D01*
X107648257Y-136786003D01*
X107669440Y-136770293D01*
X107692062Y-136756734D01*
X107715904Y-136745457D01*
X107740736Y-136736572D01*
X107766319Y-136730164D01*
X107792408Y-136726294D01*
X107818750Y-136725000D01*
X108781250Y-136725000D01*
X108807592Y-136726294D01*
X108807592Y-136726294D01*
G37*
D29*
X108300000Y-137262500D03*
D28*
G36*
X126857592Y-138551294D02*
G01*
X126883681Y-138555164D01*
X126909264Y-138561572D01*
X126934096Y-138570457D01*
X126957938Y-138581734D01*
X126980560Y-138595293D01*
X127001743Y-138611003D01*
X127021285Y-138628715D01*
X127038997Y-138648257D01*
X127054707Y-138669440D01*
X127068266Y-138692062D01*
X127079543Y-138715904D01*
X127088428Y-138740736D01*
X127094836Y-138766319D01*
X127098706Y-138792408D01*
X127100000Y-138818750D01*
X127100000Y-139356250D01*
X127098706Y-139382592D01*
X127094836Y-139408681D01*
X127088428Y-139434264D01*
X127079543Y-139459096D01*
X127068266Y-139482938D01*
X127054707Y-139505560D01*
X127038997Y-139526743D01*
X127021285Y-139546285D01*
X127001743Y-139563997D01*
X126980560Y-139579707D01*
X126957938Y-139593266D01*
X126934096Y-139604543D01*
X126909264Y-139613428D01*
X126883681Y-139619836D01*
X126857592Y-139623706D01*
X126831250Y-139625000D01*
X125868750Y-139625000D01*
X125842408Y-139623706D01*
X125816319Y-139619836D01*
X125790736Y-139613428D01*
X125765904Y-139604543D01*
X125742062Y-139593266D01*
X125719440Y-139579707D01*
X125698257Y-139563997D01*
X125678715Y-139546285D01*
X125661003Y-139526743D01*
X125645293Y-139505560D01*
X125631734Y-139482938D01*
X125620457Y-139459096D01*
X125611572Y-139434264D01*
X125605164Y-139408681D01*
X125601294Y-139382592D01*
X125600000Y-139356250D01*
X125600000Y-138818750D01*
X125601294Y-138792408D01*
X125605164Y-138766319D01*
X125611572Y-138740736D01*
X125620457Y-138715904D01*
X125631734Y-138692062D01*
X125645293Y-138669440D01*
X125661003Y-138648257D01*
X125678715Y-138628715D01*
X125698257Y-138611003D01*
X125719440Y-138595293D01*
X125742062Y-138581734D01*
X125765904Y-138570457D01*
X125790736Y-138561572D01*
X125816319Y-138555164D01*
X125842408Y-138551294D01*
X125868750Y-138550000D01*
X126831250Y-138550000D01*
X126857592Y-138551294D01*
X126857592Y-138551294D01*
G37*
D29*
X126350000Y-139087500D03*
D28*
G36*
X126857592Y-136676294D02*
G01*
X126883681Y-136680164D01*
X126909264Y-136686572D01*
X126934096Y-136695457D01*
X126957938Y-136706734D01*
X126980560Y-136720293D01*
X127001743Y-136736003D01*
X127021285Y-136753715D01*
X127038997Y-136773257D01*
X127054707Y-136794440D01*
X127068266Y-136817062D01*
X127079543Y-136840904D01*
X127088428Y-136865736D01*
X127094836Y-136891319D01*
X127098706Y-136917408D01*
X127100000Y-136943750D01*
X127100000Y-137481250D01*
X127098706Y-137507592D01*
X127094836Y-137533681D01*
X127088428Y-137559264D01*
X127079543Y-137584096D01*
X127068266Y-137607938D01*
X127054707Y-137630560D01*
X127038997Y-137651743D01*
X127021285Y-137671285D01*
X127001743Y-137688997D01*
X126980560Y-137704707D01*
X126957938Y-137718266D01*
X126934096Y-137729543D01*
X126909264Y-137738428D01*
X126883681Y-137744836D01*
X126857592Y-137748706D01*
X126831250Y-137750000D01*
X125868750Y-137750000D01*
X125842408Y-137748706D01*
X125816319Y-137744836D01*
X125790736Y-137738428D01*
X125765904Y-137729543D01*
X125742062Y-137718266D01*
X125719440Y-137704707D01*
X125698257Y-137688997D01*
X125678715Y-137671285D01*
X125661003Y-137651743D01*
X125645293Y-137630560D01*
X125631734Y-137607938D01*
X125620457Y-137584096D01*
X125611572Y-137559264D01*
X125605164Y-137533681D01*
X125601294Y-137507592D01*
X125600000Y-137481250D01*
X125600000Y-136943750D01*
X125601294Y-136917408D01*
X125605164Y-136891319D01*
X125611572Y-136865736D01*
X125620457Y-136840904D01*
X125631734Y-136817062D01*
X125645293Y-136794440D01*
X125661003Y-136773257D01*
X125678715Y-136753715D01*
X125698257Y-136736003D01*
X125719440Y-136720293D01*
X125742062Y-136706734D01*
X125765904Y-136695457D01*
X125790736Y-136686572D01*
X125816319Y-136680164D01*
X125842408Y-136676294D01*
X125868750Y-136675000D01*
X126831250Y-136675000D01*
X126857592Y-136676294D01*
X126857592Y-136676294D01*
G37*
D29*
X126350000Y-137212500D03*
D28*
G36*
X144757592Y-138601294D02*
G01*
X144783681Y-138605164D01*
X144809264Y-138611572D01*
X144834096Y-138620457D01*
X144857938Y-138631734D01*
X144880560Y-138645293D01*
X144901743Y-138661003D01*
X144921285Y-138678715D01*
X144938997Y-138698257D01*
X144954707Y-138719440D01*
X144968266Y-138742062D01*
X144979543Y-138765904D01*
X144988428Y-138790736D01*
X144994836Y-138816319D01*
X144998706Y-138842408D01*
X145000000Y-138868750D01*
X145000000Y-139406250D01*
X144998706Y-139432592D01*
X144994836Y-139458681D01*
X144988428Y-139484264D01*
X144979543Y-139509096D01*
X144968266Y-139532938D01*
X144954707Y-139555560D01*
X144938997Y-139576743D01*
X144921285Y-139596285D01*
X144901743Y-139613997D01*
X144880560Y-139629707D01*
X144857938Y-139643266D01*
X144834096Y-139654543D01*
X144809264Y-139663428D01*
X144783681Y-139669836D01*
X144757592Y-139673706D01*
X144731250Y-139675000D01*
X143768750Y-139675000D01*
X143742408Y-139673706D01*
X143716319Y-139669836D01*
X143690736Y-139663428D01*
X143665904Y-139654543D01*
X143642062Y-139643266D01*
X143619440Y-139629707D01*
X143598257Y-139613997D01*
X143578715Y-139596285D01*
X143561003Y-139576743D01*
X143545293Y-139555560D01*
X143531734Y-139532938D01*
X143520457Y-139509096D01*
X143511572Y-139484264D01*
X143505164Y-139458681D01*
X143501294Y-139432592D01*
X143500000Y-139406250D01*
X143500000Y-138868750D01*
X143501294Y-138842408D01*
X143505164Y-138816319D01*
X143511572Y-138790736D01*
X143520457Y-138765904D01*
X143531734Y-138742062D01*
X143545293Y-138719440D01*
X143561003Y-138698257D01*
X143578715Y-138678715D01*
X143598257Y-138661003D01*
X143619440Y-138645293D01*
X143642062Y-138631734D01*
X143665904Y-138620457D01*
X143690736Y-138611572D01*
X143716319Y-138605164D01*
X143742408Y-138601294D01*
X143768750Y-138600000D01*
X144731250Y-138600000D01*
X144757592Y-138601294D01*
X144757592Y-138601294D01*
G37*
D29*
X144250000Y-139137500D03*
D28*
G36*
X144757592Y-136726294D02*
G01*
X144783681Y-136730164D01*
X144809264Y-136736572D01*
X144834096Y-136745457D01*
X144857938Y-136756734D01*
X144880560Y-136770293D01*
X144901743Y-136786003D01*
X144921285Y-136803715D01*
X144938997Y-136823257D01*
X144954707Y-136844440D01*
X144968266Y-136867062D01*
X144979543Y-136890904D01*
X144988428Y-136915736D01*
X144994836Y-136941319D01*
X144998706Y-136967408D01*
X145000000Y-136993750D01*
X145000000Y-137531250D01*
X144998706Y-137557592D01*
X144994836Y-137583681D01*
X144988428Y-137609264D01*
X144979543Y-137634096D01*
X144968266Y-137657938D01*
X144954707Y-137680560D01*
X144938997Y-137701743D01*
X144921285Y-137721285D01*
X144901743Y-137738997D01*
X144880560Y-137754707D01*
X144857938Y-137768266D01*
X144834096Y-137779543D01*
X144809264Y-137788428D01*
X144783681Y-137794836D01*
X144757592Y-137798706D01*
X144731250Y-137800000D01*
X143768750Y-137800000D01*
X143742408Y-137798706D01*
X143716319Y-137794836D01*
X143690736Y-137788428D01*
X143665904Y-137779543D01*
X143642062Y-137768266D01*
X143619440Y-137754707D01*
X143598257Y-137738997D01*
X143578715Y-137721285D01*
X143561003Y-137701743D01*
X143545293Y-137680560D01*
X143531734Y-137657938D01*
X143520457Y-137634096D01*
X143511572Y-137609264D01*
X143505164Y-137583681D01*
X143501294Y-137557592D01*
X143500000Y-137531250D01*
X143500000Y-136993750D01*
X143501294Y-136967408D01*
X143505164Y-136941319D01*
X143511572Y-136915736D01*
X143520457Y-136890904D01*
X143531734Y-136867062D01*
X143545293Y-136844440D01*
X143561003Y-136823257D01*
X143578715Y-136803715D01*
X143598257Y-136786003D01*
X143619440Y-136770293D01*
X143642062Y-136756734D01*
X143665904Y-136745457D01*
X143690736Y-136736572D01*
X143716319Y-136730164D01*
X143742408Y-136726294D01*
X143768750Y-136725000D01*
X144731250Y-136725000D01*
X144757592Y-136726294D01*
X144757592Y-136726294D01*
G37*
D29*
X144250000Y-137262500D03*
D28*
G36*
X162857592Y-138701294D02*
G01*
X162883681Y-138705164D01*
X162909264Y-138711572D01*
X162934096Y-138720457D01*
X162957938Y-138731734D01*
X162980560Y-138745293D01*
X163001743Y-138761003D01*
X163021285Y-138778715D01*
X163038997Y-138798257D01*
X163054707Y-138819440D01*
X163068266Y-138842062D01*
X163079543Y-138865904D01*
X163088428Y-138890736D01*
X163094836Y-138916319D01*
X163098706Y-138942408D01*
X163100000Y-138968750D01*
X163100000Y-139506250D01*
X163098706Y-139532592D01*
X163094836Y-139558681D01*
X163088428Y-139584264D01*
X163079543Y-139609096D01*
X163068266Y-139632938D01*
X163054707Y-139655560D01*
X163038997Y-139676743D01*
X163021285Y-139696285D01*
X163001743Y-139713997D01*
X162980560Y-139729707D01*
X162957938Y-139743266D01*
X162934096Y-139754543D01*
X162909264Y-139763428D01*
X162883681Y-139769836D01*
X162857592Y-139773706D01*
X162831250Y-139775000D01*
X161868750Y-139775000D01*
X161842408Y-139773706D01*
X161816319Y-139769836D01*
X161790736Y-139763428D01*
X161765904Y-139754543D01*
X161742062Y-139743266D01*
X161719440Y-139729707D01*
X161698257Y-139713997D01*
X161678715Y-139696285D01*
X161661003Y-139676743D01*
X161645293Y-139655560D01*
X161631734Y-139632938D01*
X161620457Y-139609096D01*
X161611572Y-139584264D01*
X161605164Y-139558681D01*
X161601294Y-139532592D01*
X161600000Y-139506250D01*
X161600000Y-138968750D01*
X161601294Y-138942408D01*
X161605164Y-138916319D01*
X161611572Y-138890736D01*
X161620457Y-138865904D01*
X161631734Y-138842062D01*
X161645293Y-138819440D01*
X161661003Y-138798257D01*
X161678715Y-138778715D01*
X161698257Y-138761003D01*
X161719440Y-138745293D01*
X161742062Y-138731734D01*
X161765904Y-138720457D01*
X161790736Y-138711572D01*
X161816319Y-138705164D01*
X161842408Y-138701294D01*
X161868750Y-138700000D01*
X162831250Y-138700000D01*
X162857592Y-138701294D01*
X162857592Y-138701294D01*
G37*
D29*
X162350000Y-139237500D03*
D28*
G36*
X162857592Y-136826294D02*
G01*
X162883681Y-136830164D01*
X162909264Y-136836572D01*
X162934096Y-136845457D01*
X162957938Y-136856734D01*
X162980560Y-136870293D01*
X163001743Y-136886003D01*
X163021285Y-136903715D01*
X163038997Y-136923257D01*
X163054707Y-136944440D01*
X163068266Y-136967062D01*
X163079543Y-136990904D01*
X163088428Y-137015736D01*
X163094836Y-137041319D01*
X163098706Y-137067408D01*
X163100000Y-137093750D01*
X163100000Y-137631250D01*
X163098706Y-137657592D01*
X163094836Y-137683681D01*
X163088428Y-137709264D01*
X163079543Y-137734096D01*
X163068266Y-137757938D01*
X163054707Y-137780560D01*
X163038997Y-137801743D01*
X163021285Y-137821285D01*
X163001743Y-137838997D01*
X162980560Y-137854707D01*
X162957938Y-137868266D01*
X162934096Y-137879543D01*
X162909264Y-137888428D01*
X162883681Y-137894836D01*
X162857592Y-137898706D01*
X162831250Y-137900000D01*
X161868750Y-137900000D01*
X161842408Y-137898706D01*
X161816319Y-137894836D01*
X161790736Y-137888428D01*
X161765904Y-137879543D01*
X161742062Y-137868266D01*
X161719440Y-137854707D01*
X161698257Y-137838997D01*
X161678715Y-137821285D01*
X161661003Y-137801743D01*
X161645293Y-137780560D01*
X161631734Y-137757938D01*
X161620457Y-137734096D01*
X161611572Y-137709264D01*
X161605164Y-137683681D01*
X161601294Y-137657592D01*
X161600000Y-137631250D01*
X161600000Y-137093750D01*
X161601294Y-137067408D01*
X161605164Y-137041319D01*
X161611572Y-137015736D01*
X161620457Y-136990904D01*
X161631734Y-136967062D01*
X161645293Y-136944440D01*
X161661003Y-136923257D01*
X161678715Y-136903715D01*
X161698257Y-136886003D01*
X161719440Y-136870293D01*
X161742062Y-136856734D01*
X161765904Y-136845457D01*
X161790736Y-136836572D01*
X161816319Y-136830164D01*
X161842408Y-136826294D01*
X161868750Y-136825000D01*
X162831250Y-136825000D01*
X162857592Y-136826294D01*
X162857592Y-136826294D01*
G37*
D29*
X162350000Y-137362500D03*
D28*
G36*
X180707592Y-138651294D02*
G01*
X180733681Y-138655164D01*
X180759264Y-138661572D01*
X180784096Y-138670457D01*
X180807938Y-138681734D01*
X180830560Y-138695293D01*
X180851743Y-138711003D01*
X180871285Y-138728715D01*
X180888997Y-138748257D01*
X180904707Y-138769440D01*
X180918266Y-138792062D01*
X180929543Y-138815904D01*
X180938428Y-138840736D01*
X180944836Y-138866319D01*
X180948706Y-138892408D01*
X180950000Y-138918750D01*
X180950000Y-139456250D01*
X180948706Y-139482592D01*
X180944836Y-139508681D01*
X180938428Y-139534264D01*
X180929543Y-139559096D01*
X180918266Y-139582938D01*
X180904707Y-139605560D01*
X180888997Y-139626743D01*
X180871285Y-139646285D01*
X180851743Y-139663997D01*
X180830560Y-139679707D01*
X180807938Y-139693266D01*
X180784096Y-139704543D01*
X180759264Y-139713428D01*
X180733681Y-139719836D01*
X180707592Y-139723706D01*
X180681250Y-139725000D01*
X179718750Y-139725000D01*
X179692408Y-139723706D01*
X179666319Y-139719836D01*
X179640736Y-139713428D01*
X179615904Y-139704543D01*
X179592062Y-139693266D01*
X179569440Y-139679707D01*
X179548257Y-139663997D01*
X179528715Y-139646285D01*
X179511003Y-139626743D01*
X179495293Y-139605560D01*
X179481734Y-139582938D01*
X179470457Y-139559096D01*
X179461572Y-139534264D01*
X179455164Y-139508681D01*
X179451294Y-139482592D01*
X179450000Y-139456250D01*
X179450000Y-138918750D01*
X179451294Y-138892408D01*
X179455164Y-138866319D01*
X179461572Y-138840736D01*
X179470457Y-138815904D01*
X179481734Y-138792062D01*
X179495293Y-138769440D01*
X179511003Y-138748257D01*
X179528715Y-138728715D01*
X179548257Y-138711003D01*
X179569440Y-138695293D01*
X179592062Y-138681734D01*
X179615904Y-138670457D01*
X179640736Y-138661572D01*
X179666319Y-138655164D01*
X179692408Y-138651294D01*
X179718750Y-138650000D01*
X180681250Y-138650000D01*
X180707592Y-138651294D01*
X180707592Y-138651294D01*
G37*
D29*
X180200000Y-139187500D03*
D28*
G36*
X180707592Y-136776294D02*
G01*
X180733681Y-136780164D01*
X180759264Y-136786572D01*
X180784096Y-136795457D01*
X180807938Y-136806734D01*
X180830560Y-136820293D01*
X180851743Y-136836003D01*
X180871285Y-136853715D01*
X180888997Y-136873257D01*
X180904707Y-136894440D01*
X180918266Y-136917062D01*
X180929543Y-136940904D01*
X180938428Y-136965736D01*
X180944836Y-136991319D01*
X180948706Y-137017408D01*
X180950000Y-137043750D01*
X180950000Y-137581250D01*
X180948706Y-137607592D01*
X180944836Y-137633681D01*
X180938428Y-137659264D01*
X180929543Y-137684096D01*
X180918266Y-137707938D01*
X180904707Y-137730560D01*
X180888997Y-137751743D01*
X180871285Y-137771285D01*
X180851743Y-137788997D01*
X180830560Y-137804707D01*
X180807938Y-137818266D01*
X180784096Y-137829543D01*
X180759264Y-137838428D01*
X180733681Y-137844836D01*
X180707592Y-137848706D01*
X180681250Y-137850000D01*
X179718750Y-137850000D01*
X179692408Y-137848706D01*
X179666319Y-137844836D01*
X179640736Y-137838428D01*
X179615904Y-137829543D01*
X179592062Y-137818266D01*
X179569440Y-137804707D01*
X179548257Y-137788997D01*
X179528715Y-137771285D01*
X179511003Y-137751743D01*
X179495293Y-137730560D01*
X179481734Y-137707938D01*
X179470457Y-137684096D01*
X179461572Y-137659264D01*
X179455164Y-137633681D01*
X179451294Y-137607592D01*
X179450000Y-137581250D01*
X179450000Y-137043750D01*
X179451294Y-137017408D01*
X179455164Y-136991319D01*
X179461572Y-136965736D01*
X179470457Y-136940904D01*
X179481734Y-136917062D01*
X179495293Y-136894440D01*
X179511003Y-136873257D01*
X179528715Y-136853715D01*
X179548257Y-136836003D01*
X179569440Y-136820293D01*
X179592062Y-136806734D01*
X179615904Y-136795457D01*
X179640736Y-136786572D01*
X179666319Y-136780164D01*
X179692408Y-136776294D01*
X179718750Y-136775000D01*
X180681250Y-136775000D01*
X180707592Y-136776294D01*
X180707592Y-136776294D01*
G37*
D29*
X180200000Y-137312500D03*
D28*
G36*
X198757592Y-138451294D02*
G01*
X198783681Y-138455164D01*
X198809264Y-138461572D01*
X198834096Y-138470457D01*
X198857938Y-138481734D01*
X198880560Y-138495293D01*
X198901743Y-138511003D01*
X198921285Y-138528715D01*
X198938997Y-138548257D01*
X198954707Y-138569440D01*
X198968266Y-138592062D01*
X198979543Y-138615904D01*
X198988428Y-138640736D01*
X198994836Y-138666319D01*
X198998706Y-138692408D01*
X199000000Y-138718750D01*
X199000000Y-139256250D01*
X198998706Y-139282592D01*
X198994836Y-139308681D01*
X198988428Y-139334264D01*
X198979543Y-139359096D01*
X198968266Y-139382938D01*
X198954707Y-139405560D01*
X198938997Y-139426743D01*
X198921285Y-139446285D01*
X198901743Y-139463997D01*
X198880560Y-139479707D01*
X198857938Y-139493266D01*
X198834096Y-139504543D01*
X198809264Y-139513428D01*
X198783681Y-139519836D01*
X198757592Y-139523706D01*
X198731250Y-139525000D01*
X197768750Y-139525000D01*
X197742408Y-139523706D01*
X197716319Y-139519836D01*
X197690736Y-139513428D01*
X197665904Y-139504543D01*
X197642062Y-139493266D01*
X197619440Y-139479707D01*
X197598257Y-139463997D01*
X197578715Y-139446285D01*
X197561003Y-139426743D01*
X197545293Y-139405560D01*
X197531734Y-139382938D01*
X197520457Y-139359096D01*
X197511572Y-139334264D01*
X197505164Y-139308681D01*
X197501294Y-139282592D01*
X197500000Y-139256250D01*
X197500000Y-138718750D01*
X197501294Y-138692408D01*
X197505164Y-138666319D01*
X197511572Y-138640736D01*
X197520457Y-138615904D01*
X197531734Y-138592062D01*
X197545293Y-138569440D01*
X197561003Y-138548257D01*
X197578715Y-138528715D01*
X197598257Y-138511003D01*
X197619440Y-138495293D01*
X197642062Y-138481734D01*
X197665904Y-138470457D01*
X197690736Y-138461572D01*
X197716319Y-138455164D01*
X197742408Y-138451294D01*
X197768750Y-138450000D01*
X198731250Y-138450000D01*
X198757592Y-138451294D01*
X198757592Y-138451294D01*
G37*
D29*
X198250000Y-138987500D03*
D28*
G36*
X198757592Y-136576294D02*
G01*
X198783681Y-136580164D01*
X198809264Y-136586572D01*
X198834096Y-136595457D01*
X198857938Y-136606734D01*
X198880560Y-136620293D01*
X198901743Y-136636003D01*
X198921285Y-136653715D01*
X198938997Y-136673257D01*
X198954707Y-136694440D01*
X198968266Y-136717062D01*
X198979543Y-136740904D01*
X198988428Y-136765736D01*
X198994836Y-136791319D01*
X198998706Y-136817408D01*
X199000000Y-136843750D01*
X199000000Y-137381250D01*
X198998706Y-137407592D01*
X198994836Y-137433681D01*
X198988428Y-137459264D01*
X198979543Y-137484096D01*
X198968266Y-137507938D01*
X198954707Y-137530560D01*
X198938997Y-137551743D01*
X198921285Y-137571285D01*
X198901743Y-137588997D01*
X198880560Y-137604707D01*
X198857938Y-137618266D01*
X198834096Y-137629543D01*
X198809264Y-137638428D01*
X198783681Y-137644836D01*
X198757592Y-137648706D01*
X198731250Y-137650000D01*
X197768750Y-137650000D01*
X197742408Y-137648706D01*
X197716319Y-137644836D01*
X197690736Y-137638428D01*
X197665904Y-137629543D01*
X197642062Y-137618266D01*
X197619440Y-137604707D01*
X197598257Y-137588997D01*
X197578715Y-137571285D01*
X197561003Y-137551743D01*
X197545293Y-137530560D01*
X197531734Y-137507938D01*
X197520457Y-137484096D01*
X197511572Y-137459264D01*
X197505164Y-137433681D01*
X197501294Y-137407592D01*
X197500000Y-137381250D01*
X197500000Y-136843750D01*
X197501294Y-136817408D01*
X197505164Y-136791319D01*
X197511572Y-136765736D01*
X197520457Y-136740904D01*
X197531734Y-136717062D01*
X197545293Y-136694440D01*
X197561003Y-136673257D01*
X197578715Y-136653715D01*
X197598257Y-136636003D01*
X197619440Y-136620293D01*
X197642062Y-136606734D01*
X197665904Y-136595457D01*
X197690736Y-136586572D01*
X197716319Y-136580164D01*
X197742408Y-136576294D01*
X197768750Y-136575000D01*
X198731250Y-136575000D01*
X198757592Y-136576294D01*
X198757592Y-136576294D01*
G37*
D29*
X198250000Y-137112500D03*
D28*
G36*
X167731465Y-139976300D02*
G01*
X167757674Y-139980188D01*
X167783377Y-139986626D01*
X167808325Y-139995553D01*
X167832277Y-140006881D01*
X167855004Y-140020503D01*
X167876286Y-140036287D01*
X167895919Y-140054081D01*
X167913713Y-140073714D01*
X167929497Y-140094996D01*
X167943119Y-140117723D01*
X167954447Y-140141675D01*
X167963374Y-140166623D01*
X167969812Y-140192326D01*
X167973700Y-140218535D01*
X167975000Y-140245000D01*
X167975000Y-141555000D01*
X167973700Y-141581465D01*
X167969812Y-141607674D01*
X167963374Y-141633377D01*
X167954447Y-141658325D01*
X167943119Y-141682277D01*
X167929497Y-141705004D01*
X167913713Y-141726286D01*
X167895919Y-141745919D01*
X167876286Y-141763713D01*
X167855004Y-141779497D01*
X167832277Y-141793119D01*
X167808325Y-141804447D01*
X167783377Y-141813374D01*
X167757674Y-141819812D01*
X167731465Y-141823700D01*
X167705000Y-141825000D01*
X166895000Y-141825000D01*
X166868535Y-141823700D01*
X166842326Y-141819812D01*
X166816623Y-141813374D01*
X166791675Y-141804447D01*
X166767723Y-141793119D01*
X166744996Y-141779497D01*
X166723714Y-141763713D01*
X166704081Y-141745919D01*
X166686287Y-141726286D01*
X166670503Y-141705004D01*
X166656881Y-141682277D01*
X166645553Y-141658325D01*
X166636626Y-141633377D01*
X166630188Y-141607674D01*
X166626300Y-141581465D01*
X166625000Y-141555000D01*
X166625000Y-140245000D01*
X166626300Y-140218535D01*
X166630188Y-140192326D01*
X166636626Y-140166623D01*
X166645553Y-140141675D01*
X166656881Y-140117723D01*
X166670503Y-140094996D01*
X166686287Y-140073714D01*
X166704081Y-140054081D01*
X166723714Y-140036287D01*
X166744996Y-140020503D01*
X166767723Y-140006881D01*
X166791675Y-139995553D01*
X166816623Y-139986626D01*
X166842326Y-139980188D01*
X166868535Y-139976300D01*
X166895000Y-139975000D01*
X167705000Y-139975000D01*
X167731465Y-139976300D01*
X167731465Y-139976300D01*
G37*
D30*
X167300000Y-140900000D03*
D28*
G36*
X164931465Y-139976300D02*
G01*
X164957674Y-139980188D01*
X164983377Y-139986626D01*
X165008325Y-139995553D01*
X165032277Y-140006881D01*
X165055004Y-140020503D01*
X165076286Y-140036287D01*
X165095919Y-140054081D01*
X165113713Y-140073714D01*
X165129497Y-140094996D01*
X165143119Y-140117723D01*
X165154447Y-140141675D01*
X165163374Y-140166623D01*
X165169812Y-140192326D01*
X165173700Y-140218535D01*
X165175000Y-140245000D01*
X165175000Y-141555000D01*
X165173700Y-141581465D01*
X165169812Y-141607674D01*
X165163374Y-141633377D01*
X165154447Y-141658325D01*
X165143119Y-141682277D01*
X165129497Y-141705004D01*
X165113713Y-141726286D01*
X165095919Y-141745919D01*
X165076286Y-141763713D01*
X165055004Y-141779497D01*
X165032277Y-141793119D01*
X165008325Y-141804447D01*
X164983377Y-141813374D01*
X164957674Y-141819812D01*
X164931465Y-141823700D01*
X164905000Y-141825000D01*
X164095000Y-141825000D01*
X164068535Y-141823700D01*
X164042326Y-141819812D01*
X164016623Y-141813374D01*
X163991675Y-141804447D01*
X163967723Y-141793119D01*
X163944996Y-141779497D01*
X163923714Y-141763713D01*
X163904081Y-141745919D01*
X163886287Y-141726286D01*
X163870503Y-141705004D01*
X163856881Y-141682277D01*
X163845553Y-141658325D01*
X163836626Y-141633377D01*
X163830188Y-141607674D01*
X163826300Y-141581465D01*
X163825000Y-141555000D01*
X163825000Y-140245000D01*
X163826300Y-140218535D01*
X163830188Y-140192326D01*
X163836626Y-140166623D01*
X163845553Y-140141675D01*
X163856881Y-140117723D01*
X163870503Y-140094996D01*
X163886287Y-140073714D01*
X163904081Y-140054081D01*
X163923714Y-140036287D01*
X163944996Y-140020503D01*
X163967723Y-140006881D01*
X163991675Y-139995553D01*
X164016623Y-139986626D01*
X164042326Y-139980188D01*
X164068535Y-139976300D01*
X164095000Y-139975000D01*
X164905000Y-139975000D01*
X164931465Y-139976300D01*
X164931465Y-139976300D01*
G37*
D30*
X164500000Y-140900000D03*
D28*
G36*
X79507592Y-99301294D02*
G01*
X79533681Y-99305164D01*
X79559264Y-99311572D01*
X79584096Y-99320457D01*
X79607938Y-99331734D01*
X79630560Y-99345293D01*
X79651743Y-99361003D01*
X79671285Y-99378715D01*
X79688997Y-99398257D01*
X79704707Y-99419440D01*
X79718266Y-99442062D01*
X79729543Y-99465904D01*
X79738428Y-99490736D01*
X79744836Y-99516319D01*
X79748706Y-99542408D01*
X79750000Y-99568750D01*
X79750000Y-100106250D01*
X79748706Y-100132592D01*
X79744836Y-100158681D01*
X79738428Y-100184264D01*
X79729543Y-100209096D01*
X79718266Y-100232938D01*
X79704707Y-100255560D01*
X79688997Y-100276743D01*
X79671285Y-100296285D01*
X79651743Y-100313997D01*
X79630560Y-100329707D01*
X79607938Y-100343266D01*
X79584096Y-100354543D01*
X79559264Y-100363428D01*
X79533681Y-100369836D01*
X79507592Y-100373706D01*
X79481250Y-100375000D01*
X78518750Y-100375000D01*
X78492408Y-100373706D01*
X78466319Y-100369836D01*
X78440736Y-100363428D01*
X78415904Y-100354543D01*
X78392062Y-100343266D01*
X78369440Y-100329707D01*
X78348257Y-100313997D01*
X78328715Y-100296285D01*
X78311003Y-100276743D01*
X78295293Y-100255560D01*
X78281734Y-100232938D01*
X78270457Y-100209096D01*
X78261572Y-100184264D01*
X78255164Y-100158681D01*
X78251294Y-100132592D01*
X78250000Y-100106250D01*
X78250000Y-99568750D01*
X78251294Y-99542408D01*
X78255164Y-99516319D01*
X78261572Y-99490736D01*
X78270457Y-99465904D01*
X78281734Y-99442062D01*
X78295293Y-99419440D01*
X78311003Y-99398257D01*
X78328715Y-99378715D01*
X78348257Y-99361003D01*
X78369440Y-99345293D01*
X78392062Y-99331734D01*
X78415904Y-99320457D01*
X78440736Y-99311572D01*
X78466319Y-99305164D01*
X78492408Y-99301294D01*
X78518750Y-99300000D01*
X79481250Y-99300000D01*
X79507592Y-99301294D01*
X79507592Y-99301294D01*
G37*
D29*
X79000000Y-99837500D03*
D28*
G36*
X79507592Y-97426294D02*
G01*
X79533681Y-97430164D01*
X79559264Y-97436572D01*
X79584096Y-97445457D01*
X79607938Y-97456734D01*
X79630560Y-97470293D01*
X79651743Y-97486003D01*
X79671285Y-97503715D01*
X79688997Y-97523257D01*
X79704707Y-97544440D01*
X79718266Y-97567062D01*
X79729543Y-97590904D01*
X79738428Y-97615736D01*
X79744836Y-97641319D01*
X79748706Y-97667408D01*
X79750000Y-97693750D01*
X79750000Y-98231250D01*
X79748706Y-98257592D01*
X79744836Y-98283681D01*
X79738428Y-98309264D01*
X79729543Y-98334096D01*
X79718266Y-98357938D01*
X79704707Y-98380560D01*
X79688997Y-98401743D01*
X79671285Y-98421285D01*
X79651743Y-98438997D01*
X79630560Y-98454707D01*
X79607938Y-98468266D01*
X79584096Y-98479543D01*
X79559264Y-98488428D01*
X79533681Y-98494836D01*
X79507592Y-98498706D01*
X79481250Y-98500000D01*
X78518750Y-98500000D01*
X78492408Y-98498706D01*
X78466319Y-98494836D01*
X78440736Y-98488428D01*
X78415904Y-98479543D01*
X78392062Y-98468266D01*
X78369440Y-98454707D01*
X78348257Y-98438997D01*
X78328715Y-98421285D01*
X78311003Y-98401743D01*
X78295293Y-98380560D01*
X78281734Y-98357938D01*
X78270457Y-98334096D01*
X78261572Y-98309264D01*
X78255164Y-98283681D01*
X78251294Y-98257592D01*
X78250000Y-98231250D01*
X78250000Y-97693750D01*
X78251294Y-97667408D01*
X78255164Y-97641319D01*
X78261572Y-97615736D01*
X78270457Y-97590904D01*
X78281734Y-97567062D01*
X78295293Y-97544440D01*
X78311003Y-97523257D01*
X78328715Y-97503715D01*
X78348257Y-97486003D01*
X78369440Y-97470293D01*
X78392062Y-97456734D01*
X78415904Y-97445457D01*
X78440736Y-97436572D01*
X78466319Y-97430164D01*
X78492408Y-97426294D01*
X78518750Y-97425000D01*
X79481250Y-97425000D01*
X79507592Y-97426294D01*
X79507592Y-97426294D01*
G37*
D29*
X79000000Y-97962500D03*
D28*
G36*
X83007592Y-99201294D02*
G01*
X83033681Y-99205164D01*
X83059264Y-99211572D01*
X83084096Y-99220457D01*
X83107938Y-99231734D01*
X83130560Y-99245293D01*
X83151743Y-99261003D01*
X83171285Y-99278715D01*
X83188997Y-99298257D01*
X83204707Y-99319440D01*
X83218266Y-99342062D01*
X83229543Y-99365904D01*
X83238428Y-99390736D01*
X83244836Y-99416319D01*
X83248706Y-99442408D01*
X83250000Y-99468750D01*
X83250000Y-100006250D01*
X83248706Y-100032592D01*
X83244836Y-100058681D01*
X83238428Y-100084264D01*
X83229543Y-100109096D01*
X83218266Y-100132938D01*
X83204707Y-100155560D01*
X83188997Y-100176743D01*
X83171285Y-100196285D01*
X83151743Y-100213997D01*
X83130560Y-100229707D01*
X83107938Y-100243266D01*
X83084096Y-100254543D01*
X83059264Y-100263428D01*
X83033681Y-100269836D01*
X83007592Y-100273706D01*
X82981250Y-100275000D01*
X82018750Y-100275000D01*
X81992408Y-100273706D01*
X81966319Y-100269836D01*
X81940736Y-100263428D01*
X81915904Y-100254543D01*
X81892062Y-100243266D01*
X81869440Y-100229707D01*
X81848257Y-100213997D01*
X81828715Y-100196285D01*
X81811003Y-100176743D01*
X81795293Y-100155560D01*
X81781734Y-100132938D01*
X81770457Y-100109096D01*
X81761572Y-100084264D01*
X81755164Y-100058681D01*
X81751294Y-100032592D01*
X81750000Y-100006250D01*
X81750000Y-99468750D01*
X81751294Y-99442408D01*
X81755164Y-99416319D01*
X81761572Y-99390736D01*
X81770457Y-99365904D01*
X81781734Y-99342062D01*
X81795293Y-99319440D01*
X81811003Y-99298257D01*
X81828715Y-99278715D01*
X81848257Y-99261003D01*
X81869440Y-99245293D01*
X81892062Y-99231734D01*
X81915904Y-99220457D01*
X81940736Y-99211572D01*
X81966319Y-99205164D01*
X81992408Y-99201294D01*
X82018750Y-99200000D01*
X82981250Y-99200000D01*
X83007592Y-99201294D01*
X83007592Y-99201294D01*
G37*
D29*
X82500000Y-99737500D03*
D28*
G36*
X83007592Y-97326294D02*
G01*
X83033681Y-97330164D01*
X83059264Y-97336572D01*
X83084096Y-97345457D01*
X83107938Y-97356734D01*
X83130560Y-97370293D01*
X83151743Y-97386003D01*
X83171285Y-97403715D01*
X83188997Y-97423257D01*
X83204707Y-97444440D01*
X83218266Y-97467062D01*
X83229543Y-97490904D01*
X83238428Y-97515736D01*
X83244836Y-97541319D01*
X83248706Y-97567408D01*
X83250000Y-97593750D01*
X83250000Y-98131250D01*
X83248706Y-98157592D01*
X83244836Y-98183681D01*
X83238428Y-98209264D01*
X83229543Y-98234096D01*
X83218266Y-98257938D01*
X83204707Y-98280560D01*
X83188997Y-98301743D01*
X83171285Y-98321285D01*
X83151743Y-98338997D01*
X83130560Y-98354707D01*
X83107938Y-98368266D01*
X83084096Y-98379543D01*
X83059264Y-98388428D01*
X83033681Y-98394836D01*
X83007592Y-98398706D01*
X82981250Y-98400000D01*
X82018750Y-98400000D01*
X81992408Y-98398706D01*
X81966319Y-98394836D01*
X81940736Y-98388428D01*
X81915904Y-98379543D01*
X81892062Y-98368266D01*
X81869440Y-98354707D01*
X81848257Y-98338997D01*
X81828715Y-98321285D01*
X81811003Y-98301743D01*
X81795293Y-98280560D01*
X81781734Y-98257938D01*
X81770457Y-98234096D01*
X81761572Y-98209264D01*
X81755164Y-98183681D01*
X81751294Y-98157592D01*
X81750000Y-98131250D01*
X81750000Y-97593750D01*
X81751294Y-97567408D01*
X81755164Y-97541319D01*
X81761572Y-97515736D01*
X81770457Y-97490904D01*
X81781734Y-97467062D01*
X81795293Y-97444440D01*
X81811003Y-97423257D01*
X81828715Y-97403715D01*
X81848257Y-97386003D01*
X81869440Y-97370293D01*
X81892062Y-97356734D01*
X81915904Y-97345457D01*
X81940736Y-97336572D01*
X81966319Y-97330164D01*
X81992408Y-97326294D01*
X82018750Y-97325000D01*
X82981250Y-97325000D01*
X83007592Y-97326294D01*
X83007592Y-97326294D01*
G37*
D29*
X82500000Y-97862500D03*
D28*
G36*
X86507592Y-99301294D02*
G01*
X86533681Y-99305164D01*
X86559264Y-99311572D01*
X86584096Y-99320457D01*
X86607938Y-99331734D01*
X86630560Y-99345293D01*
X86651743Y-99361003D01*
X86671285Y-99378715D01*
X86688997Y-99398257D01*
X86704707Y-99419440D01*
X86718266Y-99442062D01*
X86729543Y-99465904D01*
X86738428Y-99490736D01*
X86744836Y-99516319D01*
X86748706Y-99542408D01*
X86750000Y-99568750D01*
X86750000Y-100106250D01*
X86748706Y-100132592D01*
X86744836Y-100158681D01*
X86738428Y-100184264D01*
X86729543Y-100209096D01*
X86718266Y-100232938D01*
X86704707Y-100255560D01*
X86688997Y-100276743D01*
X86671285Y-100296285D01*
X86651743Y-100313997D01*
X86630560Y-100329707D01*
X86607938Y-100343266D01*
X86584096Y-100354543D01*
X86559264Y-100363428D01*
X86533681Y-100369836D01*
X86507592Y-100373706D01*
X86481250Y-100375000D01*
X85518750Y-100375000D01*
X85492408Y-100373706D01*
X85466319Y-100369836D01*
X85440736Y-100363428D01*
X85415904Y-100354543D01*
X85392062Y-100343266D01*
X85369440Y-100329707D01*
X85348257Y-100313997D01*
X85328715Y-100296285D01*
X85311003Y-100276743D01*
X85295293Y-100255560D01*
X85281734Y-100232938D01*
X85270457Y-100209096D01*
X85261572Y-100184264D01*
X85255164Y-100158681D01*
X85251294Y-100132592D01*
X85250000Y-100106250D01*
X85250000Y-99568750D01*
X85251294Y-99542408D01*
X85255164Y-99516319D01*
X85261572Y-99490736D01*
X85270457Y-99465904D01*
X85281734Y-99442062D01*
X85295293Y-99419440D01*
X85311003Y-99398257D01*
X85328715Y-99378715D01*
X85348257Y-99361003D01*
X85369440Y-99345293D01*
X85392062Y-99331734D01*
X85415904Y-99320457D01*
X85440736Y-99311572D01*
X85466319Y-99305164D01*
X85492408Y-99301294D01*
X85518750Y-99300000D01*
X86481250Y-99300000D01*
X86507592Y-99301294D01*
X86507592Y-99301294D01*
G37*
D29*
X86000000Y-99837500D03*
D28*
G36*
X86507592Y-97426294D02*
G01*
X86533681Y-97430164D01*
X86559264Y-97436572D01*
X86584096Y-97445457D01*
X86607938Y-97456734D01*
X86630560Y-97470293D01*
X86651743Y-97486003D01*
X86671285Y-97503715D01*
X86688997Y-97523257D01*
X86704707Y-97544440D01*
X86718266Y-97567062D01*
X86729543Y-97590904D01*
X86738428Y-97615736D01*
X86744836Y-97641319D01*
X86748706Y-97667408D01*
X86750000Y-97693750D01*
X86750000Y-98231250D01*
X86748706Y-98257592D01*
X86744836Y-98283681D01*
X86738428Y-98309264D01*
X86729543Y-98334096D01*
X86718266Y-98357938D01*
X86704707Y-98380560D01*
X86688997Y-98401743D01*
X86671285Y-98421285D01*
X86651743Y-98438997D01*
X86630560Y-98454707D01*
X86607938Y-98468266D01*
X86584096Y-98479543D01*
X86559264Y-98488428D01*
X86533681Y-98494836D01*
X86507592Y-98498706D01*
X86481250Y-98500000D01*
X85518750Y-98500000D01*
X85492408Y-98498706D01*
X85466319Y-98494836D01*
X85440736Y-98488428D01*
X85415904Y-98479543D01*
X85392062Y-98468266D01*
X85369440Y-98454707D01*
X85348257Y-98438997D01*
X85328715Y-98421285D01*
X85311003Y-98401743D01*
X85295293Y-98380560D01*
X85281734Y-98357938D01*
X85270457Y-98334096D01*
X85261572Y-98309264D01*
X85255164Y-98283681D01*
X85251294Y-98257592D01*
X85250000Y-98231250D01*
X85250000Y-97693750D01*
X85251294Y-97667408D01*
X85255164Y-97641319D01*
X85261572Y-97615736D01*
X85270457Y-97590904D01*
X85281734Y-97567062D01*
X85295293Y-97544440D01*
X85311003Y-97523257D01*
X85328715Y-97503715D01*
X85348257Y-97486003D01*
X85369440Y-97470293D01*
X85392062Y-97456734D01*
X85415904Y-97445457D01*
X85440736Y-97436572D01*
X85466319Y-97430164D01*
X85492408Y-97426294D01*
X85518750Y-97425000D01*
X86481250Y-97425000D01*
X86507592Y-97426294D01*
X86507592Y-97426294D01*
G37*
D29*
X86000000Y-97962500D03*
D28*
G36*
X76007592Y-103901294D02*
G01*
X76033681Y-103905164D01*
X76059264Y-103911572D01*
X76084096Y-103920457D01*
X76107938Y-103931734D01*
X76130560Y-103945293D01*
X76151743Y-103961003D01*
X76171285Y-103978715D01*
X76188997Y-103998257D01*
X76204707Y-104019440D01*
X76218266Y-104042062D01*
X76229543Y-104065904D01*
X76238428Y-104090736D01*
X76244836Y-104116319D01*
X76248706Y-104142408D01*
X76250000Y-104168750D01*
X76250000Y-104706250D01*
X76248706Y-104732592D01*
X76244836Y-104758681D01*
X76238428Y-104784264D01*
X76229543Y-104809096D01*
X76218266Y-104832938D01*
X76204707Y-104855560D01*
X76188997Y-104876743D01*
X76171285Y-104896285D01*
X76151743Y-104913997D01*
X76130560Y-104929707D01*
X76107938Y-104943266D01*
X76084096Y-104954543D01*
X76059264Y-104963428D01*
X76033681Y-104969836D01*
X76007592Y-104973706D01*
X75981250Y-104975000D01*
X75018750Y-104975000D01*
X74992408Y-104973706D01*
X74966319Y-104969836D01*
X74940736Y-104963428D01*
X74915904Y-104954543D01*
X74892062Y-104943266D01*
X74869440Y-104929707D01*
X74848257Y-104913997D01*
X74828715Y-104896285D01*
X74811003Y-104876743D01*
X74795293Y-104855560D01*
X74781734Y-104832938D01*
X74770457Y-104809096D01*
X74761572Y-104784264D01*
X74755164Y-104758681D01*
X74751294Y-104732592D01*
X74750000Y-104706250D01*
X74750000Y-104168750D01*
X74751294Y-104142408D01*
X74755164Y-104116319D01*
X74761572Y-104090736D01*
X74770457Y-104065904D01*
X74781734Y-104042062D01*
X74795293Y-104019440D01*
X74811003Y-103998257D01*
X74828715Y-103978715D01*
X74848257Y-103961003D01*
X74869440Y-103945293D01*
X74892062Y-103931734D01*
X74915904Y-103920457D01*
X74940736Y-103911572D01*
X74966319Y-103905164D01*
X74992408Y-103901294D01*
X75018750Y-103900000D01*
X75981250Y-103900000D01*
X76007592Y-103901294D01*
X76007592Y-103901294D01*
G37*
D29*
X75500000Y-104437500D03*
D28*
G36*
X76007592Y-102026294D02*
G01*
X76033681Y-102030164D01*
X76059264Y-102036572D01*
X76084096Y-102045457D01*
X76107938Y-102056734D01*
X76130560Y-102070293D01*
X76151743Y-102086003D01*
X76171285Y-102103715D01*
X76188997Y-102123257D01*
X76204707Y-102144440D01*
X76218266Y-102167062D01*
X76229543Y-102190904D01*
X76238428Y-102215736D01*
X76244836Y-102241319D01*
X76248706Y-102267408D01*
X76250000Y-102293750D01*
X76250000Y-102831250D01*
X76248706Y-102857592D01*
X76244836Y-102883681D01*
X76238428Y-102909264D01*
X76229543Y-102934096D01*
X76218266Y-102957938D01*
X76204707Y-102980560D01*
X76188997Y-103001743D01*
X76171285Y-103021285D01*
X76151743Y-103038997D01*
X76130560Y-103054707D01*
X76107938Y-103068266D01*
X76084096Y-103079543D01*
X76059264Y-103088428D01*
X76033681Y-103094836D01*
X76007592Y-103098706D01*
X75981250Y-103100000D01*
X75018750Y-103100000D01*
X74992408Y-103098706D01*
X74966319Y-103094836D01*
X74940736Y-103088428D01*
X74915904Y-103079543D01*
X74892062Y-103068266D01*
X74869440Y-103054707D01*
X74848257Y-103038997D01*
X74828715Y-103021285D01*
X74811003Y-103001743D01*
X74795293Y-102980560D01*
X74781734Y-102957938D01*
X74770457Y-102934096D01*
X74761572Y-102909264D01*
X74755164Y-102883681D01*
X74751294Y-102857592D01*
X74750000Y-102831250D01*
X74750000Y-102293750D01*
X74751294Y-102267408D01*
X74755164Y-102241319D01*
X74761572Y-102215736D01*
X74770457Y-102190904D01*
X74781734Y-102167062D01*
X74795293Y-102144440D01*
X74811003Y-102123257D01*
X74828715Y-102103715D01*
X74848257Y-102086003D01*
X74869440Y-102070293D01*
X74892062Y-102056734D01*
X74915904Y-102045457D01*
X74940736Y-102036572D01*
X74966319Y-102030164D01*
X74992408Y-102026294D01*
X75018750Y-102025000D01*
X75981250Y-102025000D01*
X76007592Y-102026294D01*
X76007592Y-102026294D01*
G37*
D29*
X75500000Y-102562500D03*
D28*
G36*
X86057592Y-107851294D02*
G01*
X86083681Y-107855164D01*
X86109264Y-107861572D01*
X86134096Y-107870457D01*
X86157938Y-107881734D01*
X86180560Y-107895293D01*
X86201743Y-107911003D01*
X86221285Y-107928715D01*
X86238997Y-107948257D01*
X86254707Y-107969440D01*
X86268266Y-107992062D01*
X86279543Y-108015904D01*
X86288428Y-108040736D01*
X86294836Y-108066319D01*
X86298706Y-108092408D01*
X86300000Y-108118750D01*
X86300000Y-109081250D01*
X86298706Y-109107592D01*
X86294836Y-109133681D01*
X86288428Y-109159264D01*
X86279543Y-109184096D01*
X86268266Y-109207938D01*
X86254707Y-109230560D01*
X86238997Y-109251743D01*
X86221285Y-109271285D01*
X86201743Y-109288997D01*
X86180560Y-109304707D01*
X86157938Y-109318266D01*
X86134096Y-109329543D01*
X86109264Y-109338428D01*
X86083681Y-109344836D01*
X86057592Y-109348706D01*
X86031250Y-109350000D01*
X85493750Y-109350000D01*
X85467408Y-109348706D01*
X85441319Y-109344836D01*
X85415736Y-109338428D01*
X85390904Y-109329543D01*
X85367062Y-109318266D01*
X85344440Y-109304707D01*
X85323257Y-109288997D01*
X85303715Y-109271285D01*
X85286003Y-109251743D01*
X85270293Y-109230560D01*
X85256734Y-109207938D01*
X85245457Y-109184096D01*
X85236572Y-109159264D01*
X85230164Y-109133681D01*
X85226294Y-109107592D01*
X85225000Y-109081250D01*
X85225000Y-108118750D01*
X85226294Y-108092408D01*
X85230164Y-108066319D01*
X85236572Y-108040736D01*
X85245457Y-108015904D01*
X85256734Y-107992062D01*
X85270293Y-107969440D01*
X85286003Y-107948257D01*
X85303715Y-107928715D01*
X85323257Y-107911003D01*
X85344440Y-107895293D01*
X85367062Y-107881734D01*
X85390904Y-107870457D01*
X85415736Y-107861572D01*
X85441319Y-107855164D01*
X85467408Y-107851294D01*
X85493750Y-107850000D01*
X86031250Y-107850000D01*
X86057592Y-107851294D01*
X86057592Y-107851294D01*
G37*
D29*
X85762500Y-108600000D03*
D28*
G36*
X87932592Y-107851294D02*
G01*
X87958681Y-107855164D01*
X87984264Y-107861572D01*
X88009096Y-107870457D01*
X88032938Y-107881734D01*
X88055560Y-107895293D01*
X88076743Y-107911003D01*
X88096285Y-107928715D01*
X88113997Y-107948257D01*
X88129707Y-107969440D01*
X88143266Y-107992062D01*
X88154543Y-108015904D01*
X88163428Y-108040736D01*
X88169836Y-108066319D01*
X88173706Y-108092408D01*
X88175000Y-108118750D01*
X88175000Y-109081250D01*
X88173706Y-109107592D01*
X88169836Y-109133681D01*
X88163428Y-109159264D01*
X88154543Y-109184096D01*
X88143266Y-109207938D01*
X88129707Y-109230560D01*
X88113997Y-109251743D01*
X88096285Y-109271285D01*
X88076743Y-109288997D01*
X88055560Y-109304707D01*
X88032938Y-109318266D01*
X88009096Y-109329543D01*
X87984264Y-109338428D01*
X87958681Y-109344836D01*
X87932592Y-109348706D01*
X87906250Y-109350000D01*
X87368750Y-109350000D01*
X87342408Y-109348706D01*
X87316319Y-109344836D01*
X87290736Y-109338428D01*
X87265904Y-109329543D01*
X87242062Y-109318266D01*
X87219440Y-109304707D01*
X87198257Y-109288997D01*
X87178715Y-109271285D01*
X87161003Y-109251743D01*
X87145293Y-109230560D01*
X87131734Y-109207938D01*
X87120457Y-109184096D01*
X87111572Y-109159264D01*
X87105164Y-109133681D01*
X87101294Y-109107592D01*
X87100000Y-109081250D01*
X87100000Y-108118750D01*
X87101294Y-108092408D01*
X87105164Y-108066319D01*
X87111572Y-108040736D01*
X87120457Y-108015904D01*
X87131734Y-107992062D01*
X87145293Y-107969440D01*
X87161003Y-107948257D01*
X87178715Y-107928715D01*
X87198257Y-107911003D01*
X87219440Y-107895293D01*
X87242062Y-107881734D01*
X87265904Y-107870457D01*
X87290736Y-107861572D01*
X87316319Y-107855164D01*
X87342408Y-107851294D01*
X87368750Y-107850000D01*
X87906250Y-107850000D01*
X87932592Y-107851294D01*
X87932592Y-107851294D01*
G37*
D29*
X87637500Y-108600000D03*
D28*
G36*
X111807592Y-136576294D02*
G01*
X111833681Y-136580164D01*
X111859264Y-136586572D01*
X111884096Y-136595457D01*
X111907938Y-136606734D01*
X111930560Y-136620293D01*
X111951743Y-136636003D01*
X111971285Y-136653715D01*
X111988997Y-136673257D01*
X112004707Y-136694440D01*
X112018266Y-136717062D01*
X112029543Y-136740904D01*
X112038428Y-136765736D01*
X112044836Y-136791319D01*
X112048706Y-136817408D01*
X112050000Y-136843750D01*
X112050000Y-137381250D01*
X112048706Y-137407592D01*
X112044836Y-137433681D01*
X112038428Y-137459264D01*
X112029543Y-137484096D01*
X112018266Y-137507938D01*
X112004707Y-137530560D01*
X111988997Y-137551743D01*
X111971285Y-137571285D01*
X111951743Y-137588997D01*
X111930560Y-137604707D01*
X111907938Y-137618266D01*
X111884096Y-137629543D01*
X111859264Y-137638428D01*
X111833681Y-137644836D01*
X111807592Y-137648706D01*
X111781250Y-137650000D01*
X110818750Y-137650000D01*
X110792408Y-137648706D01*
X110766319Y-137644836D01*
X110740736Y-137638428D01*
X110715904Y-137629543D01*
X110692062Y-137618266D01*
X110669440Y-137604707D01*
X110648257Y-137588997D01*
X110628715Y-137571285D01*
X110611003Y-137551743D01*
X110595293Y-137530560D01*
X110581734Y-137507938D01*
X110570457Y-137484096D01*
X110561572Y-137459264D01*
X110555164Y-137433681D01*
X110551294Y-137407592D01*
X110550000Y-137381250D01*
X110550000Y-136843750D01*
X110551294Y-136817408D01*
X110555164Y-136791319D01*
X110561572Y-136765736D01*
X110570457Y-136740904D01*
X110581734Y-136717062D01*
X110595293Y-136694440D01*
X110611003Y-136673257D01*
X110628715Y-136653715D01*
X110648257Y-136636003D01*
X110669440Y-136620293D01*
X110692062Y-136606734D01*
X110715904Y-136595457D01*
X110740736Y-136586572D01*
X110766319Y-136580164D01*
X110792408Y-136576294D01*
X110818750Y-136575000D01*
X111781250Y-136575000D01*
X111807592Y-136576294D01*
X111807592Y-136576294D01*
G37*
D29*
X111300000Y-137112500D03*
D28*
G36*
X111807592Y-138451294D02*
G01*
X111833681Y-138455164D01*
X111859264Y-138461572D01*
X111884096Y-138470457D01*
X111907938Y-138481734D01*
X111930560Y-138495293D01*
X111951743Y-138511003D01*
X111971285Y-138528715D01*
X111988997Y-138548257D01*
X112004707Y-138569440D01*
X112018266Y-138592062D01*
X112029543Y-138615904D01*
X112038428Y-138640736D01*
X112044836Y-138666319D01*
X112048706Y-138692408D01*
X112050000Y-138718750D01*
X112050000Y-139256250D01*
X112048706Y-139282592D01*
X112044836Y-139308681D01*
X112038428Y-139334264D01*
X112029543Y-139359096D01*
X112018266Y-139382938D01*
X112004707Y-139405560D01*
X111988997Y-139426743D01*
X111971285Y-139446285D01*
X111951743Y-139463997D01*
X111930560Y-139479707D01*
X111907938Y-139493266D01*
X111884096Y-139504543D01*
X111859264Y-139513428D01*
X111833681Y-139519836D01*
X111807592Y-139523706D01*
X111781250Y-139525000D01*
X110818750Y-139525000D01*
X110792408Y-139523706D01*
X110766319Y-139519836D01*
X110740736Y-139513428D01*
X110715904Y-139504543D01*
X110692062Y-139493266D01*
X110669440Y-139479707D01*
X110648257Y-139463997D01*
X110628715Y-139446285D01*
X110611003Y-139426743D01*
X110595293Y-139405560D01*
X110581734Y-139382938D01*
X110570457Y-139359096D01*
X110561572Y-139334264D01*
X110555164Y-139308681D01*
X110551294Y-139282592D01*
X110550000Y-139256250D01*
X110550000Y-138718750D01*
X110551294Y-138692408D01*
X110555164Y-138666319D01*
X110561572Y-138640736D01*
X110570457Y-138615904D01*
X110581734Y-138592062D01*
X110595293Y-138569440D01*
X110611003Y-138548257D01*
X110628715Y-138528715D01*
X110648257Y-138511003D01*
X110669440Y-138495293D01*
X110692062Y-138481734D01*
X110715904Y-138470457D01*
X110740736Y-138461572D01*
X110766319Y-138455164D01*
X110792408Y-138451294D01*
X110818750Y-138450000D01*
X111781250Y-138450000D01*
X111807592Y-138451294D01*
X111807592Y-138451294D01*
G37*
D29*
X111300000Y-138987500D03*
D28*
G36*
X129857592Y-136576294D02*
G01*
X129883681Y-136580164D01*
X129909264Y-136586572D01*
X129934096Y-136595457D01*
X129957938Y-136606734D01*
X129980560Y-136620293D01*
X130001743Y-136636003D01*
X130021285Y-136653715D01*
X130038997Y-136673257D01*
X130054707Y-136694440D01*
X130068266Y-136717062D01*
X130079543Y-136740904D01*
X130088428Y-136765736D01*
X130094836Y-136791319D01*
X130098706Y-136817408D01*
X130100000Y-136843750D01*
X130100000Y-137381250D01*
X130098706Y-137407592D01*
X130094836Y-137433681D01*
X130088428Y-137459264D01*
X130079543Y-137484096D01*
X130068266Y-137507938D01*
X130054707Y-137530560D01*
X130038997Y-137551743D01*
X130021285Y-137571285D01*
X130001743Y-137588997D01*
X129980560Y-137604707D01*
X129957938Y-137618266D01*
X129934096Y-137629543D01*
X129909264Y-137638428D01*
X129883681Y-137644836D01*
X129857592Y-137648706D01*
X129831250Y-137650000D01*
X128868750Y-137650000D01*
X128842408Y-137648706D01*
X128816319Y-137644836D01*
X128790736Y-137638428D01*
X128765904Y-137629543D01*
X128742062Y-137618266D01*
X128719440Y-137604707D01*
X128698257Y-137588997D01*
X128678715Y-137571285D01*
X128661003Y-137551743D01*
X128645293Y-137530560D01*
X128631734Y-137507938D01*
X128620457Y-137484096D01*
X128611572Y-137459264D01*
X128605164Y-137433681D01*
X128601294Y-137407592D01*
X128600000Y-137381250D01*
X128600000Y-136843750D01*
X128601294Y-136817408D01*
X128605164Y-136791319D01*
X128611572Y-136765736D01*
X128620457Y-136740904D01*
X128631734Y-136717062D01*
X128645293Y-136694440D01*
X128661003Y-136673257D01*
X128678715Y-136653715D01*
X128698257Y-136636003D01*
X128719440Y-136620293D01*
X128742062Y-136606734D01*
X128765904Y-136595457D01*
X128790736Y-136586572D01*
X128816319Y-136580164D01*
X128842408Y-136576294D01*
X128868750Y-136575000D01*
X129831250Y-136575000D01*
X129857592Y-136576294D01*
X129857592Y-136576294D01*
G37*
D29*
X129350000Y-137112500D03*
D28*
G36*
X129857592Y-138451294D02*
G01*
X129883681Y-138455164D01*
X129909264Y-138461572D01*
X129934096Y-138470457D01*
X129957938Y-138481734D01*
X129980560Y-138495293D01*
X130001743Y-138511003D01*
X130021285Y-138528715D01*
X130038997Y-138548257D01*
X130054707Y-138569440D01*
X130068266Y-138592062D01*
X130079543Y-138615904D01*
X130088428Y-138640736D01*
X130094836Y-138666319D01*
X130098706Y-138692408D01*
X130100000Y-138718750D01*
X130100000Y-139256250D01*
X130098706Y-139282592D01*
X130094836Y-139308681D01*
X130088428Y-139334264D01*
X130079543Y-139359096D01*
X130068266Y-139382938D01*
X130054707Y-139405560D01*
X130038997Y-139426743D01*
X130021285Y-139446285D01*
X130001743Y-139463997D01*
X129980560Y-139479707D01*
X129957938Y-139493266D01*
X129934096Y-139504543D01*
X129909264Y-139513428D01*
X129883681Y-139519836D01*
X129857592Y-139523706D01*
X129831250Y-139525000D01*
X128868750Y-139525000D01*
X128842408Y-139523706D01*
X128816319Y-139519836D01*
X128790736Y-139513428D01*
X128765904Y-139504543D01*
X128742062Y-139493266D01*
X128719440Y-139479707D01*
X128698257Y-139463997D01*
X128678715Y-139446285D01*
X128661003Y-139426743D01*
X128645293Y-139405560D01*
X128631734Y-139382938D01*
X128620457Y-139359096D01*
X128611572Y-139334264D01*
X128605164Y-139308681D01*
X128601294Y-139282592D01*
X128600000Y-139256250D01*
X128600000Y-138718750D01*
X128601294Y-138692408D01*
X128605164Y-138666319D01*
X128611572Y-138640736D01*
X128620457Y-138615904D01*
X128631734Y-138592062D01*
X128645293Y-138569440D01*
X128661003Y-138548257D01*
X128678715Y-138528715D01*
X128698257Y-138511003D01*
X128719440Y-138495293D01*
X128742062Y-138481734D01*
X128765904Y-138470457D01*
X128790736Y-138461572D01*
X128816319Y-138455164D01*
X128842408Y-138451294D01*
X128868750Y-138450000D01*
X129831250Y-138450000D01*
X129857592Y-138451294D01*
X129857592Y-138451294D01*
G37*
D29*
X129350000Y-138987500D03*
D28*
G36*
X147857592Y-136526294D02*
G01*
X147883681Y-136530164D01*
X147909264Y-136536572D01*
X147934096Y-136545457D01*
X147957938Y-136556734D01*
X147980560Y-136570293D01*
X148001743Y-136586003D01*
X148021285Y-136603715D01*
X148038997Y-136623257D01*
X148054707Y-136644440D01*
X148068266Y-136667062D01*
X148079543Y-136690904D01*
X148088428Y-136715736D01*
X148094836Y-136741319D01*
X148098706Y-136767408D01*
X148100000Y-136793750D01*
X148100000Y-137331250D01*
X148098706Y-137357592D01*
X148094836Y-137383681D01*
X148088428Y-137409264D01*
X148079543Y-137434096D01*
X148068266Y-137457938D01*
X148054707Y-137480560D01*
X148038997Y-137501743D01*
X148021285Y-137521285D01*
X148001743Y-137538997D01*
X147980560Y-137554707D01*
X147957938Y-137568266D01*
X147934096Y-137579543D01*
X147909264Y-137588428D01*
X147883681Y-137594836D01*
X147857592Y-137598706D01*
X147831250Y-137600000D01*
X146868750Y-137600000D01*
X146842408Y-137598706D01*
X146816319Y-137594836D01*
X146790736Y-137588428D01*
X146765904Y-137579543D01*
X146742062Y-137568266D01*
X146719440Y-137554707D01*
X146698257Y-137538997D01*
X146678715Y-137521285D01*
X146661003Y-137501743D01*
X146645293Y-137480560D01*
X146631734Y-137457938D01*
X146620457Y-137434096D01*
X146611572Y-137409264D01*
X146605164Y-137383681D01*
X146601294Y-137357592D01*
X146600000Y-137331250D01*
X146600000Y-136793750D01*
X146601294Y-136767408D01*
X146605164Y-136741319D01*
X146611572Y-136715736D01*
X146620457Y-136690904D01*
X146631734Y-136667062D01*
X146645293Y-136644440D01*
X146661003Y-136623257D01*
X146678715Y-136603715D01*
X146698257Y-136586003D01*
X146719440Y-136570293D01*
X146742062Y-136556734D01*
X146765904Y-136545457D01*
X146790736Y-136536572D01*
X146816319Y-136530164D01*
X146842408Y-136526294D01*
X146868750Y-136525000D01*
X147831250Y-136525000D01*
X147857592Y-136526294D01*
X147857592Y-136526294D01*
G37*
D29*
X147350000Y-137062500D03*
D28*
G36*
X147857592Y-138401294D02*
G01*
X147883681Y-138405164D01*
X147909264Y-138411572D01*
X147934096Y-138420457D01*
X147957938Y-138431734D01*
X147980560Y-138445293D01*
X148001743Y-138461003D01*
X148021285Y-138478715D01*
X148038997Y-138498257D01*
X148054707Y-138519440D01*
X148068266Y-138542062D01*
X148079543Y-138565904D01*
X148088428Y-138590736D01*
X148094836Y-138616319D01*
X148098706Y-138642408D01*
X148100000Y-138668750D01*
X148100000Y-139206250D01*
X148098706Y-139232592D01*
X148094836Y-139258681D01*
X148088428Y-139284264D01*
X148079543Y-139309096D01*
X148068266Y-139332938D01*
X148054707Y-139355560D01*
X148038997Y-139376743D01*
X148021285Y-139396285D01*
X148001743Y-139413997D01*
X147980560Y-139429707D01*
X147957938Y-139443266D01*
X147934096Y-139454543D01*
X147909264Y-139463428D01*
X147883681Y-139469836D01*
X147857592Y-139473706D01*
X147831250Y-139475000D01*
X146868750Y-139475000D01*
X146842408Y-139473706D01*
X146816319Y-139469836D01*
X146790736Y-139463428D01*
X146765904Y-139454543D01*
X146742062Y-139443266D01*
X146719440Y-139429707D01*
X146698257Y-139413997D01*
X146678715Y-139396285D01*
X146661003Y-139376743D01*
X146645293Y-139355560D01*
X146631734Y-139332938D01*
X146620457Y-139309096D01*
X146611572Y-139284264D01*
X146605164Y-139258681D01*
X146601294Y-139232592D01*
X146600000Y-139206250D01*
X146600000Y-138668750D01*
X146601294Y-138642408D01*
X146605164Y-138616319D01*
X146611572Y-138590736D01*
X146620457Y-138565904D01*
X146631734Y-138542062D01*
X146645293Y-138519440D01*
X146661003Y-138498257D01*
X146678715Y-138478715D01*
X146698257Y-138461003D01*
X146719440Y-138445293D01*
X146742062Y-138431734D01*
X146765904Y-138420457D01*
X146790736Y-138411572D01*
X146816319Y-138405164D01*
X146842408Y-138401294D01*
X146868750Y-138400000D01*
X147831250Y-138400000D01*
X147857592Y-138401294D01*
X147857592Y-138401294D01*
G37*
D29*
X147350000Y-138937500D03*
D28*
G36*
X165857592Y-136526294D02*
G01*
X165883681Y-136530164D01*
X165909264Y-136536572D01*
X165934096Y-136545457D01*
X165957938Y-136556734D01*
X165980560Y-136570293D01*
X166001743Y-136586003D01*
X166021285Y-136603715D01*
X166038997Y-136623257D01*
X166054707Y-136644440D01*
X166068266Y-136667062D01*
X166079543Y-136690904D01*
X166088428Y-136715736D01*
X166094836Y-136741319D01*
X166098706Y-136767408D01*
X166100000Y-136793750D01*
X166100000Y-137331250D01*
X166098706Y-137357592D01*
X166094836Y-137383681D01*
X166088428Y-137409264D01*
X166079543Y-137434096D01*
X166068266Y-137457938D01*
X166054707Y-137480560D01*
X166038997Y-137501743D01*
X166021285Y-137521285D01*
X166001743Y-137538997D01*
X165980560Y-137554707D01*
X165957938Y-137568266D01*
X165934096Y-137579543D01*
X165909264Y-137588428D01*
X165883681Y-137594836D01*
X165857592Y-137598706D01*
X165831250Y-137600000D01*
X164868750Y-137600000D01*
X164842408Y-137598706D01*
X164816319Y-137594836D01*
X164790736Y-137588428D01*
X164765904Y-137579543D01*
X164742062Y-137568266D01*
X164719440Y-137554707D01*
X164698257Y-137538997D01*
X164678715Y-137521285D01*
X164661003Y-137501743D01*
X164645293Y-137480560D01*
X164631734Y-137457938D01*
X164620457Y-137434096D01*
X164611572Y-137409264D01*
X164605164Y-137383681D01*
X164601294Y-137357592D01*
X164600000Y-137331250D01*
X164600000Y-136793750D01*
X164601294Y-136767408D01*
X164605164Y-136741319D01*
X164611572Y-136715736D01*
X164620457Y-136690904D01*
X164631734Y-136667062D01*
X164645293Y-136644440D01*
X164661003Y-136623257D01*
X164678715Y-136603715D01*
X164698257Y-136586003D01*
X164719440Y-136570293D01*
X164742062Y-136556734D01*
X164765904Y-136545457D01*
X164790736Y-136536572D01*
X164816319Y-136530164D01*
X164842408Y-136526294D01*
X164868750Y-136525000D01*
X165831250Y-136525000D01*
X165857592Y-136526294D01*
X165857592Y-136526294D01*
G37*
D29*
X165350000Y-137062500D03*
D28*
G36*
X165857592Y-138401294D02*
G01*
X165883681Y-138405164D01*
X165909264Y-138411572D01*
X165934096Y-138420457D01*
X165957938Y-138431734D01*
X165980560Y-138445293D01*
X166001743Y-138461003D01*
X166021285Y-138478715D01*
X166038997Y-138498257D01*
X166054707Y-138519440D01*
X166068266Y-138542062D01*
X166079543Y-138565904D01*
X166088428Y-138590736D01*
X166094836Y-138616319D01*
X166098706Y-138642408D01*
X166100000Y-138668750D01*
X166100000Y-139206250D01*
X166098706Y-139232592D01*
X166094836Y-139258681D01*
X166088428Y-139284264D01*
X166079543Y-139309096D01*
X166068266Y-139332938D01*
X166054707Y-139355560D01*
X166038997Y-139376743D01*
X166021285Y-139396285D01*
X166001743Y-139413997D01*
X165980560Y-139429707D01*
X165957938Y-139443266D01*
X165934096Y-139454543D01*
X165909264Y-139463428D01*
X165883681Y-139469836D01*
X165857592Y-139473706D01*
X165831250Y-139475000D01*
X164868750Y-139475000D01*
X164842408Y-139473706D01*
X164816319Y-139469836D01*
X164790736Y-139463428D01*
X164765904Y-139454543D01*
X164742062Y-139443266D01*
X164719440Y-139429707D01*
X164698257Y-139413997D01*
X164678715Y-139396285D01*
X164661003Y-139376743D01*
X164645293Y-139355560D01*
X164631734Y-139332938D01*
X164620457Y-139309096D01*
X164611572Y-139284264D01*
X164605164Y-139258681D01*
X164601294Y-139232592D01*
X164600000Y-139206250D01*
X164600000Y-138668750D01*
X164601294Y-138642408D01*
X164605164Y-138616319D01*
X164611572Y-138590736D01*
X164620457Y-138565904D01*
X164631734Y-138542062D01*
X164645293Y-138519440D01*
X164661003Y-138498257D01*
X164678715Y-138478715D01*
X164698257Y-138461003D01*
X164719440Y-138445293D01*
X164742062Y-138431734D01*
X164765904Y-138420457D01*
X164790736Y-138411572D01*
X164816319Y-138405164D01*
X164842408Y-138401294D01*
X164868750Y-138400000D01*
X165831250Y-138400000D01*
X165857592Y-138401294D01*
X165857592Y-138401294D01*
G37*
D29*
X165350000Y-138937500D03*
D28*
G36*
X183757592Y-136526294D02*
G01*
X183783681Y-136530164D01*
X183809264Y-136536572D01*
X183834096Y-136545457D01*
X183857938Y-136556734D01*
X183880560Y-136570293D01*
X183901743Y-136586003D01*
X183921285Y-136603715D01*
X183938997Y-136623257D01*
X183954707Y-136644440D01*
X183968266Y-136667062D01*
X183979543Y-136690904D01*
X183988428Y-136715736D01*
X183994836Y-136741319D01*
X183998706Y-136767408D01*
X184000000Y-136793750D01*
X184000000Y-137331250D01*
X183998706Y-137357592D01*
X183994836Y-137383681D01*
X183988428Y-137409264D01*
X183979543Y-137434096D01*
X183968266Y-137457938D01*
X183954707Y-137480560D01*
X183938997Y-137501743D01*
X183921285Y-137521285D01*
X183901743Y-137538997D01*
X183880560Y-137554707D01*
X183857938Y-137568266D01*
X183834096Y-137579543D01*
X183809264Y-137588428D01*
X183783681Y-137594836D01*
X183757592Y-137598706D01*
X183731250Y-137600000D01*
X182768750Y-137600000D01*
X182742408Y-137598706D01*
X182716319Y-137594836D01*
X182690736Y-137588428D01*
X182665904Y-137579543D01*
X182642062Y-137568266D01*
X182619440Y-137554707D01*
X182598257Y-137538997D01*
X182578715Y-137521285D01*
X182561003Y-137501743D01*
X182545293Y-137480560D01*
X182531734Y-137457938D01*
X182520457Y-137434096D01*
X182511572Y-137409264D01*
X182505164Y-137383681D01*
X182501294Y-137357592D01*
X182500000Y-137331250D01*
X182500000Y-136793750D01*
X182501294Y-136767408D01*
X182505164Y-136741319D01*
X182511572Y-136715736D01*
X182520457Y-136690904D01*
X182531734Y-136667062D01*
X182545293Y-136644440D01*
X182561003Y-136623257D01*
X182578715Y-136603715D01*
X182598257Y-136586003D01*
X182619440Y-136570293D01*
X182642062Y-136556734D01*
X182665904Y-136545457D01*
X182690736Y-136536572D01*
X182716319Y-136530164D01*
X182742408Y-136526294D01*
X182768750Y-136525000D01*
X183731250Y-136525000D01*
X183757592Y-136526294D01*
X183757592Y-136526294D01*
G37*
D29*
X183250000Y-137062500D03*
D28*
G36*
X183757592Y-138401294D02*
G01*
X183783681Y-138405164D01*
X183809264Y-138411572D01*
X183834096Y-138420457D01*
X183857938Y-138431734D01*
X183880560Y-138445293D01*
X183901743Y-138461003D01*
X183921285Y-138478715D01*
X183938997Y-138498257D01*
X183954707Y-138519440D01*
X183968266Y-138542062D01*
X183979543Y-138565904D01*
X183988428Y-138590736D01*
X183994836Y-138616319D01*
X183998706Y-138642408D01*
X184000000Y-138668750D01*
X184000000Y-139206250D01*
X183998706Y-139232592D01*
X183994836Y-139258681D01*
X183988428Y-139284264D01*
X183979543Y-139309096D01*
X183968266Y-139332938D01*
X183954707Y-139355560D01*
X183938997Y-139376743D01*
X183921285Y-139396285D01*
X183901743Y-139413997D01*
X183880560Y-139429707D01*
X183857938Y-139443266D01*
X183834096Y-139454543D01*
X183809264Y-139463428D01*
X183783681Y-139469836D01*
X183757592Y-139473706D01*
X183731250Y-139475000D01*
X182768750Y-139475000D01*
X182742408Y-139473706D01*
X182716319Y-139469836D01*
X182690736Y-139463428D01*
X182665904Y-139454543D01*
X182642062Y-139443266D01*
X182619440Y-139429707D01*
X182598257Y-139413997D01*
X182578715Y-139396285D01*
X182561003Y-139376743D01*
X182545293Y-139355560D01*
X182531734Y-139332938D01*
X182520457Y-139309096D01*
X182511572Y-139284264D01*
X182505164Y-139258681D01*
X182501294Y-139232592D01*
X182500000Y-139206250D01*
X182500000Y-138668750D01*
X182501294Y-138642408D01*
X182505164Y-138616319D01*
X182511572Y-138590736D01*
X182520457Y-138565904D01*
X182531734Y-138542062D01*
X182545293Y-138519440D01*
X182561003Y-138498257D01*
X182578715Y-138478715D01*
X182598257Y-138461003D01*
X182619440Y-138445293D01*
X182642062Y-138431734D01*
X182665904Y-138420457D01*
X182690736Y-138411572D01*
X182716319Y-138405164D01*
X182742408Y-138401294D01*
X182768750Y-138400000D01*
X183731250Y-138400000D01*
X183757592Y-138401294D01*
X183757592Y-138401294D01*
G37*
D29*
X183250000Y-138937500D03*
D28*
G36*
X201857592Y-136576294D02*
G01*
X201883681Y-136580164D01*
X201909264Y-136586572D01*
X201934096Y-136595457D01*
X201957938Y-136606734D01*
X201980560Y-136620293D01*
X202001743Y-136636003D01*
X202021285Y-136653715D01*
X202038997Y-136673257D01*
X202054707Y-136694440D01*
X202068266Y-136717062D01*
X202079543Y-136740904D01*
X202088428Y-136765736D01*
X202094836Y-136791319D01*
X202098706Y-136817408D01*
X202100000Y-136843750D01*
X202100000Y-137381250D01*
X202098706Y-137407592D01*
X202094836Y-137433681D01*
X202088428Y-137459264D01*
X202079543Y-137484096D01*
X202068266Y-137507938D01*
X202054707Y-137530560D01*
X202038997Y-137551743D01*
X202021285Y-137571285D01*
X202001743Y-137588997D01*
X201980560Y-137604707D01*
X201957938Y-137618266D01*
X201934096Y-137629543D01*
X201909264Y-137638428D01*
X201883681Y-137644836D01*
X201857592Y-137648706D01*
X201831250Y-137650000D01*
X200868750Y-137650000D01*
X200842408Y-137648706D01*
X200816319Y-137644836D01*
X200790736Y-137638428D01*
X200765904Y-137629543D01*
X200742062Y-137618266D01*
X200719440Y-137604707D01*
X200698257Y-137588997D01*
X200678715Y-137571285D01*
X200661003Y-137551743D01*
X200645293Y-137530560D01*
X200631734Y-137507938D01*
X200620457Y-137484096D01*
X200611572Y-137459264D01*
X200605164Y-137433681D01*
X200601294Y-137407592D01*
X200600000Y-137381250D01*
X200600000Y-136843750D01*
X200601294Y-136817408D01*
X200605164Y-136791319D01*
X200611572Y-136765736D01*
X200620457Y-136740904D01*
X200631734Y-136717062D01*
X200645293Y-136694440D01*
X200661003Y-136673257D01*
X200678715Y-136653715D01*
X200698257Y-136636003D01*
X200719440Y-136620293D01*
X200742062Y-136606734D01*
X200765904Y-136595457D01*
X200790736Y-136586572D01*
X200816319Y-136580164D01*
X200842408Y-136576294D01*
X200868750Y-136575000D01*
X201831250Y-136575000D01*
X201857592Y-136576294D01*
X201857592Y-136576294D01*
G37*
D29*
X201350000Y-137112500D03*
D28*
G36*
X201857592Y-138451294D02*
G01*
X201883681Y-138455164D01*
X201909264Y-138461572D01*
X201934096Y-138470457D01*
X201957938Y-138481734D01*
X201980560Y-138495293D01*
X202001743Y-138511003D01*
X202021285Y-138528715D01*
X202038997Y-138548257D01*
X202054707Y-138569440D01*
X202068266Y-138592062D01*
X202079543Y-138615904D01*
X202088428Y-138640736D01*
X202094836Y-138666319D01*
X202098706Y-138692408D01*
X202100000Y-138718750D01*
X202100000Y-139256250D01*
X202098706Y-139282592D01*
X202094836Y-139308681D01*
X202088428Y-139334264D01*
X202079543Y-139359096D01*
X202068266Y-139382938D01*
X202054707Y-139405560D01*
X202038997Y-139426743D01*
X202021285Y-139446285D01*
X202001743Y-139463997D01*
X201980560Y-139479707D01*
X201957938Y-139493266D01*
X201934096Y-139504543D01*
X201909264Y-139513428D01*
X201883681Y-139519836D01*
X201857592Y-139523706D01*
X201831250Y-139525000D01*
X200868750Y-139525000D01*
X200842408Y-139523706D01*
X200816319Y-139519836D01*
X200790736Y-139513428D01*
X200765904Y-139504543D01*
X200742062Y-139493266D01*
X200719440Y-139479707D01*
X200698257Y-139463997D01*
X200678715Y-139446285D01*
X200661003Y-139426743D01*
X200645293Y-139405560D01*
X200631734Y-139382938D01*
X200620457Y-139359096D01*
X200611572Y-139334264D01*
X200605164Y-139308681D01*
X200601294Y-139282592D01*
X200600000Y-139256250D01*
X200600000Y-138718750D01*
X200601294Y-138692408D01*
X200605164Y-138666319D01*
X200611572Y-138640736D01*
X200620457Y-138615904D01*
X200631734Y-138592062D01*
X200645293Y-138569440D01*
X200661003Y-138548257D01*
X200678715Y-138528715D01*
X200698257Y-138511003D01*
X200719440Y-138495293D01*
X200742062Y-138481734D01*
X200765904Y-138470457D01*
X200790736Y-138461572D01*
X200816319Y-138455164D01*
X200842408Y-138451294D01*
X200868750Y-138450000D01*
X201831250Y-138450000D01*
X201857592Y-138451294D01*
X201857592Y-138451294D01*
G37*
D29*
X201350000Y-138987500D03*
D28*
G36*
X79507592Y-101526294D02*
G01*
X79533681Y-101530164D01*
X79559264Y-101536572D01*
X79584096Y-101545457D01*
X79607938Y-101556734D01*
X79630560Y-101570293D01*
X79651743Y-101586003D01*
X79671285Y-101603715D01*
X79688997Y-101623257D01*
X79704707Y-101644440D01*
X79718266Y-101667062D01*
X79729543Y-101690904D01*
X79738428Y-101715736D01*
X79744836Y-101741319D01*
X79748706Y-101767408D01*
X79750000Y-101793750D01*
X79750000Y-102331250D01*
X79748706Y-102357592D01*
X79744836Y-102383681D01*
X79738428Y-102409264D01*
X79729543Y-102434096D01*
X79718266Y-102457938D01*
X79704707Y-102480560D01*
X79688997Y-102501743D01*
X79671285Y-102521285D01*
X79651743Y-102538997D01*
X79630560Y-102554707D01*
X79607938Y-102568266D01*
X79584096Y-102579543D01*
X79559264Y-102588428D01*
X79533681Y-102594836D01*
X79507592Y-102598706D01*
X79481250Y-102600000D01*
X78518750Y-102600000D01*
X78492408Y-102598706D01*
X78466319Y-102594836D01*
X78440736Y-102588428D01*
X78415904Y-102579543D01*
X78392062Y-102568266D01*
X78369440Y-102554707D01*
X78348257Y-102538997D01*
X78328715Y-102521285D01*
X78311003Y-102501743D01*
X78295293Y-102480560D01*
X78281734Y-102457938D01*
X78270457Y-102434096D01*
X78261572Y-102409264D01*
X78255164Y-102383681D01*
X78251294Y-102357592D01*
X78250000Y-102331250D01*
X78250000Y-101793750D01*
X78251294Y-101767408D01*
X78255164Y-101741319D01*
X78261572Y-101715736D01*
X78270457Y-101690904D01*
X78281734Y-101667062D01*
X78295293Y-101644440D01*
X78311003Y-101623257D01*
X78328715Y-101603715D01*
X78348257Y-101586003D01*
X78369440Y-101570293D01*
X78392062Y-101556734D01*
X78415904Y-101545457D01*
X78440736Y-101536572D01*
X78466319Y-101530164D01*
X78492408Y-101526294D01*
X78518750Y-101525000D01*
X79481250Y-101525000D01*
X79507592Y-101526294D01*
X79507592Y-101526294D01*
G37*
D29*
X79000000Y-102062500D03*
D28*
G36*
X79507592Y-103401294D02*
G01*
X79533681Y-103405164D01*
X79559264Y-103411572D01*
X79584096Y-103420457D01*
X79607938Y-103431734D01*
X79630560Y-103445293D01*
X79651743Y-103461003D01*
X79671285Y-103478715D01*
X79688997Y-103498257D01*
X79704707Y-103519440D01*
X79718266Y-103542062D01*
X79729543Y-103565904D01*
X79738428Y-103590736D01*
X79744836Y-103616319D01*
X79748706Y-103642408D01*
X79750000Y-103668750D01*
X79750000Y-104206250D01*
X79748706Y-104232592D01*
X79744836Y-104258681D01*
X79738428Y-104284264D01*
X79729543Y-104309096D01*
X79718266Y-104332938D01*
X79704707Y-104355560D01*
X79688997Y-104376743D01*
X79671285Y-104396285D01*
X79651743Y-104413997D01*
X79630560Y-104429707D01*
X79607938Y-104443266D01*
X79584096Y-104454543D01*
X79559264Y-104463428D01*
X79533681Y-104469836D01*
X79507592Y-104473706D01*
X79481250Y-104475000D01*
X78518750Y-104475000D01*
X78492408Y-104473706D01*
X78466319Y-104469836D01*
X78440736Y-104463428D01*
X78415904Y-104454543D01*
X78392062Y-104443266D01*
X78369440Y-104429707D01*
X78348257Y-104413997D01*
X78328715Y-104396285D01*
X78311003Y-104376743D01*
X78295293Y-104355560D01*
X78281734Y-104332938D01*
X78270457Y-104309096D01*
X78261572Y-104284264D01*
X78255164Y-104258681D01*
X78251294Y-104232592D01*
X78250000Y-104206250D01*
X78250000Y-103668750D01*
X78251294Y-103642408D01*
X78255164Y-103616319D01*
X78261572Y-103590736D01*
X78270457Y-103565904D01*
X78281734Y-103542062D01*
X78295293Y-103519440D01*
X78311003Y-103498257D01*
X78328715Y-103478715D01*
X78348257Y-103461003D01*
X78369440Y-103445293D01*
X78392062Y-103431734D01*
X78415904Y-103420457D01*
X78440736Y-103411572D01*
X78466319Y-103405164D01*
X78492408Y-103401294D01*
X78518750Y-103400000D01*
X79481250Y-103400000D01*
X79507592Y-103401294D01*
X79507592Y-103401294D01*
G37*
D29*
X79000000Y-103937500D03*
D28*
G36*
X83007592Y-101526294D02*
G01*
X83033681Y-101530164D01*
X83059264Y-101536572D01*
X83084096Y-101545457D01*
X83107938Y-101556734D01*
X83130560Y-101570293D01*
X83151743Y-101586003D01*
X83171285Y-101603715D01*
X83188997Y-101623257D01*
X83204707Y-101644440D01*
X83218266Y-101667062D01*
X83229543Y-101690904D01*
X83238428Y-101715736D01*
X83244836Y-101741319D01*
X83248706Y-101767408D01*
X83250000Y-101793750D01*
X83250000Y-102331250D01*
X83248706Y-102357592D01*
X83244836Y-102383681D01*
X83238428Y-102409264D01*
X83229543Y-102434096D01*
X83218266Y-102457938D01*
X83204707Y-102480560D01*
X83188997Y-102501743D01*
X83171285Y-102521285D01*
X83151743Y-102538997D01*
X83130560Y-102554707D01*
X83107938Y-102568266D01*
X83084096Y-102579543D01*
X83059264Y-102588428D01*
X83033681Y-102594836D01*
X83007592Y-102598706D01*
X82981250Y-102600000D01*
X82018750Y-102600000D01*
X81992408Y-102598706D01*
X81966319Y-102594836D01*
X81940736Y-102588428D01*
X81915904Y-102579543D01*
X81892062Y-102568266D01*
X81869440Y-102554707D01*
X81848257Y-102538997D01*
X81828715Y-102521285D01*
X81811003Y-102501743D01*
X81795293Y-102480560D01*
X81781734Y-102457938D01*
X81770457Y-102434096D01*
X81761572Y-102409264D01*
X81755164Y-102383681D01*
X81751294Y-102357592D01*
X81750000Y-102331250D01*
X81750000Y-101793750D01*
X81751294Y-101767408D01*
X81755164Y-101741319D01*
X81761572Y-101715736D01*
X81770457Y-101690904D01*
X81781734Y-101667062D01*
X81795293Y-101644440D01*
X81811003Y-101623257D01*
X81828715Y-101603715D01*
X81848257Y-101586003D01*
X81869440Y-101570293D01*
X81892062Y-101556734D01*
X81915904Y-101545457D01*
X81940736Y-101536572D01*
X81966319Y-101530164D01*
X81992408Y-101526294D01*
X82018750Y-101525000D01*
X82981250Y-101525000D01*
X83007592Y-101526294D01*
X83007592Y-101526294D01*
G37*
D29*
X82500000Y-102062500D03*
D28*
G36*
X83007592Y-103401294D02*
G01*
X83033681Y-103405164D01*
X83059264Y-103411572D01*
X83084096Y-103420457D01*
X83107938Y-103431734D01*
X83130560Y-103445293D01*
X83151743Y-103461003D01*
X83171285Y-103478715D01*
X83188997Y-103498257D01*
X83204707Y-103519440D01*
X83218266Y-103542062D01*
X83229543Y-103565904D01*
X83238428Y-103590736D01*
X83244836Y-103616319D01*
X83248706Y-103642408D01*
X83250000Y-103668750D01*
X83250000Y-104206250D01*
X83248706Y-104232592D01*
X83244836Y-104258681D01*
X83238428Y-104284264D01*
X83229543Y-104309096D01*
X83218266Y-104332938D01*
X83204707Y-104355560D01*
X83188997Y-104376743D01*
X83171285Y-104396285D01*
X83151743Y-104413997D01*
X83130560Y-104429707D01*
X83107938Y-104443266D01*
X83084096Y-104454543D01*
X83059264Y-104463428D01*
X83033681Y-104469836D01*
X83007592Y-104473706D01*
X82981250Y-104475000D01*
X82018750Y-104475000D01*
X81992408Y-104473706D01*
X81966319Y-104469836D01*
X81940736Y-104463428D01*
X81915904Y-104454543D01*
X81892062Y-104443266D01*
X81869440Y-104429707D01*
X81848257Y-104413997D01*
X81828715Y-104396285D01*
X81811003Y-104376743D01*
X81795293Y-104355560D01*
X81781734Y-104332938D01*
X81770457Y-104309096D01*
X81761572Y-104284264D01*
X81755164Y-104258681D01*
X81751294Y-104232592D01*
X81750000Y-104206250D01*
X81750000Y-103668750D01*
X81751294Y-103642408D01*
X81755164Y-103616319D01*
X81761572Y-103590736D01*
X81770457Y-103565904D01*
X81781734Y-103542062D01*
X81795293Y-103519440D01*
X81811003Y-103498257D01*
X81828715Y-103478715D01*
X81848257Y-103461003D01*
X81869440Y-103445293D01*
X81892062Y-103431734D01*
X81915904Y-103420457D01*
X81940736Y-103411572D01*
X81966319Y-103405164D01*
X81992408Y-103401294D01*
X82018750Y-103400000D01*
X82981250Y-103400000D01*
X83007592Y-103401294D01*
X83007592Y-103401294D01*
G37*
D29*
X82500000Y-103937500D03*
D28*
G36*
X86507592Y-101526294D02*
G01*
X86533681Y-101530164D01*
X86559264Y-101536572D01*
X86584096Y-101545457D01*
X86607938Y-101556734D01*
X86630560Y-101570293D01*
X86651743Y-101586003D01*
X86671285Y-101603715D01*
X86688997Y-101623257D01*
X86704707Y-101644440D01*
X86718266Y-101667062D01*
X86729543Y-101690904D01*
X86738428Y-101715736D01*
X86744836Y-101741319D01*
X86748706Y-101767408D01*
X86750000Y-101793750D01*
X86750000Y-102331250D01*
X86748706Y-102357592D01*
X86744836Y-102383681D01*
X86738428Y-102409264D01*
X86729543Y-102434096D01*
X86718266Y-102457938D01*
X86704707Y-102480560D01*
X86688997Y-102501743D01*
X86671285Y-102521285D01*
X86651743Y-102538997D01*
X86630560Y-102554707D01*
X86607938Y-102568266D01*
X86584096Y-102579543D01*
X86559264Y-102588428D01*
X86533681Y-102594836D01*
X86507592Y-102598706D01*
X86481250Y-102600000D01*
X85518750Y-102600000D01*
X85492408Y-102598706D01*
X85466319Y-102594836D01*
X85440736Y-102588428D01*
X85415904Y-102579543D01*
X85392062Y-102568266D01*
X85369440Y-102554707D01*
X85348257Y-102538997D01*
X85328715Y-102521285D01*
X85311003Y-102501743D01*
X85295293Y-102480560D01*
X85281734Y-102457938D01*
X85270457Y-102434096D01*
X85261572Y-102409264D01*
X85255164Y-102383681D01*
X85251294Y-102357592D01*
X85250000Y-102331250D01*
X85250000Y-101793750D01*
X85251294Y-101767408D01*
X85255164Y-101741319D01*
X85261572Y-101715736D01*
X85270457Y-101690904D01*
X85281734Y-101667062D01*
X85295293Y-101644440D01*
X85311003Y-101623257D01*
X85328715Y-101603715D01*
X85348257Y-101586003D01*
X85369440Y-101570293D01*
X85392062Y-101556734D01*
X85415904Y-101545457D01*
X85440736Y-101536572D01*
X85466319Y-101530164D01*
X85492408Y-101526294D01*
X85518750Y-101525000D01*
X86481250Y-101525000D01*
X86507592Y-101526294D01*
X86507592Y-101526294D01*
G37*
D29*
X86000000Y-102062500D03*
D28*
G36*
X86507592Y-103401294D02*
G01*
X86533681Y-103405164D01*
X86559264Y-103411572D01*
X86584096Y-103420457D01*
X86607938Y-103431734D01*
X86630560Y-103445293D01*
X86651743Y-103461003D01*
X86671285Y-103478715D01*
X86688997Y-103498257D01*
X86704707Y-103519440D01*
X86718266Y-103542062D01*
X86729543Y-103565904D01*
X86738428Y-103590736D01*
X86744836Y-103616319D01*
X86748706Y-103642408D01*
X86750000Y-103668750D01*
X86750000Y-104206250D01*
X86748706Y-104232592D01*
X86744836Y-104258681D01*
X86738428Y-104284264D01*
X86729543Y-104309096D01*
X86718266Y-104332938D01*
X86704707Y-104355560D01*
X86688997Y-104376743D01*
X86671285Y-104396285D01*
X86651743Y-104413997D01*
X86630560Y-104429707D01*
X86607938Y-104443266D01*
X86584096Y-104454543D01*
X86559264Y-104463428D01*
X86533681Y-104469836D01*
X86507592Y-104473706D01*
X86481250Y-104475000D01*
X85518750Y-104475000D01*
X85492408Y-104473706D01*
X85466319Y-104469836D01*
X85440736Y-104463428D01*
X85415904Y-104454543D01*
X85392062Y-104443266D01*
X85369440Y-104429707D01*
X85348257Y-104413997D01*
X85328715Y-104396285D01*
X85311003Y-104376743D01*
X85295293Y-104355560D01*
X85281734Y-104332938D01*
X85270457Y-104309096D01*
X85261572Y-104284264D01*
X85255164Y-104258681D01*
X85251294Y-104232592D01*
X85250000Y-104206250D01*
X85250000Y-103668750D01*
X85251294Y-103642408D01*
X85255164Y-103616319D01*
X85261572Y-103590736D01*
X85270457Y-103565904D01*
X85281734Y-103542062D01*
X85295293Y-103519440D01*
X85311003Y-103498257D01*
X85328715Y-103478715D01*
X85348257Y-103461003D01*
X85369440Y-103445293D01*
X85392062Y-103431734D01*
X85415904Y-103420457D01*
X85440736Y-103411572D01*
X85466319Y-103405164D01*
X85492408Y-103401294D01*
X85518750Y-103400000D01*
X86481250Y-103400000D01*
X86507592Y-103401294D01*
X86507592Y-103401294D01*
G37*
D29*
X86000000Y-103937500D03*
D31*
X207000000Y-158500000D03*
X207000000Y-104500000D03*
X71000000Y-158500000D03*
X93500000Y-158500000D03*
X93500000Y-104500000D03*
X71000000Y-104500000D03*
M02*
