G04 #@! TF.GenerationSoftware,KiCad,Pcbnew,(5.1.4)-1*
G04 #@! TF.CreationDate,2019-09-05T13:30:01+01:00*
G04 #@! TF.ProjectId,lpa96,6c706139-362e-46b6-9963-61645f706362,2.1*
G04 #@! TF.SameCoordinates,Original*
G04 #@! TF.FileFunction,Paste,Bot*
G04 #@! TF.FilePolarity,Positive*
%FSLAX46Y46*%
G04 Gerber Fmt 4.6, Leading zero omitted, Abs format (unit mm)*
G04 Created by KiCad (PCBNEW (5.1.4)-1) date 2019-09-05 13:30:01*
%MOMM*%
%LPD*%
G04 APERTURE LIST*
%ADD10C,0.100000*%
%ADD11R,2.794000X1.778000*%
%ADD12R,2.400000X6.170001*%
%ADD13R,1.665199X0.364800*%
%ADD14R,1.998980X0.449580*%
%ADD15R,0.449580X1.998980*%
%ADD16R,1.500000X1.000000*%
%ADD17R,2.000000X1.200000*%
%ADD18R,2.032000X3.657600*%
%ADD19R,2.032000X1.016000*%
%ADD20R,4.100000X0.700000*%
%ADD21R,4.100000X1.000000*%
%ADD22R,3.500000X1.600000*%
%ADD23C,0.150000*%
%ADD24C,0.975000*%
%ADD25C,1.250000*%
G04 APERTURE END LIST*
D10*
X67000000Y-168500000D02*
X67000000Y-94500000D01*
X210000000Y-168500000D02*
X67000000Y-168500000D01*
X210000000Y-94500000D02*
X210000000Y-168500000D01*
X67000000Y-94500000D02*
X210000000Y-94500000D01*
D11*
X86000000Y-155300000D03*
X86000000Y-158856000D03*
D12*
X104500000Y-131500000D03*
D13*
X107319400Y-135725074D03*
X107319400Y-135075063D03*
X107319400Y-134425051D03*
X107319400Y-133775040D03*
X107319400Y-133125028D03*
X107319400Y-132475017D03*
X107319400Y-131825006D03*
X107319400Y-131174994D03*
X107319400Y-130524983D03*
X107319400Y-129874972D03*
X107319400Y-129224960D03*
X107319400Y-128574949D03*
X107319400Y-127924937D03*
X107319400Y-127274926D03*
X101680600Y-127274926D03*
X101680600Y-127924937D03*
X101680600Y-128574949D03*
X101680600Y-129224960D03*
X101680600Y-129874972D03*
X101680600Y-130524983D03*
X101680600Y-131174994D03*
X101680600Y-131825006D03*
X101680600Y-132475017D03*
X101680600Y-133125028D03*
X101680600Y-133775040D03*
X101680600Y-134425051D03*
X101680600Y-135075063D03*
X101680600Y-135725074D03*
D12*
X122500000Y-131500000D03*
D13*
X125319400Y-135725074D03*
X125319400Y-135075063D03*
X125319400Y-134425051D03*
X125319400Y-133775040D03*
X125319400Y-133125028D03*
X125319400Y-132475017D03*
X125319400Y-131825006D03*
X125319400Y-131174994D03*
X125319400Y-130524983D03*
X125319400Y-129874972D03*
X125319400Y-129224960D03*
X125319400Y-128574949D03*
X125319400Y-127924937D03*
X125319400Y-127274926D03*
X119680600Y-127274926D03*
X119680600Y-127924937D03*
X119680600Y-128574949D03*
X119680600Y-129224960D03*
X119680600Y-129874972D03*
X119680600Y-130524983D03*
X119680600Y-131174994D03*
X119680600Y-131825006D03*
X119680600Y-132475017D03*
X119680600Y-133125028D03*
X119680600Y-133775040D03*
X119680600Y-134425051D03*
X119680600Y-135075063D03*
X119680600Y-135725074D03*
D12*
X140500000Y-131500000D03*
D13*
X143319400Y-135725074D03*
X143319400Y-135075063D03*
X143319400Y-134425051D03*
X143319400Y-133775040D03*
X143319400Y-133125028D03*
X143319400Y-132475017D03*
X143319400Y-131825006D03*
X143319400Y-131174994D03*
X143319400Y-130524983D03*
X143319400Y-129874972D03*
X143319400Y-129224960D03*
X143319400Y-128574949D03*
X143319400Y-127924937D03*
X143319400Y-127274926D03*
X137680600Y-127274926D03*
X137680600Y-127924937D03*
X137680600Y-128574949D03*
X137680600Y-129224960D03*
X137680600Y-129874972D03*
X137680600Y-130524983D03*
X137680600Y-131174994D03*
X137680600Y-131825006D03*
X137680600Y-132475017D03*
X137680600Y-133125028D03*
X137680600Y-133775040D03*
X137680600Y-134425051D03*
X137680600Y-135075063D03*
X137680600Y-135725074D03*
D12*
X158500000Y-131500000D03*
D13*
X161319400Y-135725074D03*
X161319400Y-135075063D03*
X161319400Y-134425051D03*
X161319400Y-133775040D03*
X161319400Y-133125028D03*
X161319400Y-132475017D03*
X161319400Y-131825006D03*
X161319400Y-131174994D03*
X161319400Y-130524983D03*
X161319400Y-129874972D03*
X161319400Y-129224960D03*
X161319400Y-128574949D03*
X161319400Y-127924937D03*
X161319400Y-127274926D03*
X155680600Y-127274926D03*
X155680600Y-127924937D03*
X155680600Y-128574949D03*
X155680600Y-129224960D03*
X155680600Y-129874972D03*
X155680600Y-130524983D03*
X155680600Y-131174994D03*
X155680600Y-131825006D03*
X155680600Y-132475017D03*
X155680600Y-133125028D03*
X155680600Y-133775040D03*
X155680600Y-134425051D03*
X155680600Y-135075063D03*
X155680600Y-135725074D03*
D12*
X176500000Y-131500000D03*
D13*
X179319400Y-135725074D03*
X179319400Y-135075063D03*
X179319400Y-134425051D03*
X179319400Y-133775040D03*
X179319400Y-133125028D03*
X179319400Y-132475017D03*
X179319400Y-131825006D03*
X179319400Y-131174994D03*
X179319400Y-130524983D03*
X179319400Y-129874972D03*
X179319400Y-129224960D03*
X179319400Y-128574949D03*
X179319400Y-127924937D03*
X179319400Y-127274926D03*
X173680600Y-127274926D03*
X173680600Y-127924937D03*
X173680600Y-128574949D03*
X173680600Y-129224960D03*
X173680600Y-129874972D03*
X173680600Y-130524983D03*
X173680600Y-131174994D03*
X173680600Y-131825006D03*
X173680600Y-132475017D03*
X173680600Y-133125028D03*
X173680600Y-133775040D03*
X173680600Y-134425051D03*
X173680600Y-135075063D03*
X173680600Y-135725074D03*
D12*
X194480600Y-131474994D03*
D13*
X197300000Y-135700068D03*
X197300000Y-135050057D03*
X197300000Y-134400045D03*
X197300000Y-133750034D03*
X197300000Y-133100022D03*
X197300000Y-132450011D03*
X197300000Y-131800000D03*
X197300000Y-131149988D03*
X197300000Y-130499977D03*
X197300000Y-129849966D03*
X197300000Y-129199954D03*
X197300000Y-128549943D03*
X197300000Y-127899931D03*
X197300000Y-127249920D03*
X191661200Y-127249920D03*
X191661200Y-127899931D03*
X191661200Y-128549943D03*
X191661200Y-129199954D03*
X191661200Y-129849966D03*
X191661200Y-130499977D03*
X191661200Y-131149988D03*
X191661200Y-131800000D03*
X191661200Y-132450011D03*
X191661200Y-133100022D03*
X191661200Y-133750034D03*
X191661200Y-134400045D03*
X191661200Y-135050057D03*
X191661200Y-135700068D03*
D14*
X85815840Y-115776220D03*
X85815840Y-114976120D03*
X85815840Y-114176020D03*
X85815840Y-113375920D03*
X85815840Y-112575820D03*
X85815840Y-111775720D03*
X85815840Y-110975620D03*
X85815840Y-110175520D03*
X76250200Y-110180600D03*
X76250200Y-115794000D03*
X76250200Y-114981200D03*
X76250200Y-114168400D03*
X76250200Y-113381000D03*
X76250200Y-112568200D03*
X76250200Y-111780800D03*
X76250200Y-110968000D03*
D15*
X83824480Y-108174000D03*
X83026920Y-108174000D03*
X82224280Y-108174000D03*
X81426720Y-108174000D03*
X80624080Y-108174000D03*
X79826520Y-108174000D03*
X79023880Y-108174000D03*
X78226320Y-108174000D03*
X83819400Y-117775200D03*
X83032000Y-117775200D03*
X82219200Y-117775200D03*
X81431800Y-117775200D03*
X80644400Y-117775200D03*
X79831600Y-117775200D03*
X79018800Y-117775200D03*
X78206000Y-117775200D03*
D16*
X92810000Y-130900000D03*
X92810000Y-133400000D03*
X92810000Y-136800000D03*
X92810000Y-138450000D03*
X92810000Y-140900000D03*
X92810000Y-143400000D03*
X92810000Y-145830000D03*
X92810000Y-147530000D03*
X92810000Y-128400000D03*
X92810000Y-150880000D03*
D17*
X70600000Y-151400000D03*
X71800000Y-123400000D03*
D16*
X92810000Y-135100000D03*
D18*
X91900000Y-164300000D03*
D19*
X85296000Y-164300000D03*
X85296000Y-162014000D03*
X85296000Y-166586000D03*
D20*
X90500000Y-119000000D03*
D21*
X90500000Y-117500000D03*
D20*
X90500000Y-116000000D03*
D22*
X82000000Y-156000000D03*
X76600000Y-156000000D03*
X81800000Y-163000000D03*
X76400000Y-163000000D03*
D23*
G36*
X89380142Y-113251174D02*
G01*
X89403803Y-113254684D01*
X89427007Y-113260496D01*
X89449529Y-113268554D01*
X89471153Y-113278782D01*
X89491670Y-113291079D01*
X89510883Y-113305329D01*
X89528607Y-113321393D01*
X89544671Y-113339117D01*
X89558921Y-113358330D01*
X89571218Y-113378847D01*
X89581446Y-113400471D01*
X89589504Y-113422993D01*
X89595316Y-113446197D01*
X89598826Y-113469858D01*
X89600000Y-113493750D01*
X89600000Y-113981250D01*
X89598826Y-114005142D01*
X89595316Y-114028803D01*
X89589504Y-114052007D01*
X89581446Y-114074529D01*
X89571218Y-114096153D01*
X89558921Y-114116670D01*
X89544671Y-114135883D01*
X89528607Y-114153607D01*
X89510883Y-114169671D01*
X89491670Y-114183921D01*
X89471153Y-114196218D01*
X89449529Y-114206446D01*
X89427007Y-114214504D01*
X89403803Y-114220316D01*
X89380142Y-114223826D01*
X89356250Y-114225000D01*
X88443750Y-114225000D01*
X88419858Y-114223826D01*
X88396197Y-114220316D01*
X88372993Y-114214504D01*
X88350471Y-114206446D01*
X88328847Y-114196218D01*
X88308330Y-114183921D01*
X88289117Y-114169671D01*
X88271393Y-114153607D01*
X88255329Y-114135883D01*
X88241079Y-114116670D01*
X88228782Y-114096153D01*
X88218554Y-114074529D01*
X88210496Y-114052007D01*
X88204684Y-114028803D01*
X88201174Y-114005142D01*
X88200000Y-113981250D01*
X88200000Y-113493750D01*
X88201174Y-113469858D01*
X88204684Y-113446197D01*
X88210496Y-113422993D01*
X88218554Y-113400471D01*
X88228782Y-113378847D01*
X88241079Y-113358330D01*
X88255329Y-113339117D01*
X88271393Y-113321393D01*
X88289117Y-113305329D01*
X88308330Y-113291079D01*
X88328847Y-113278782D01*
X88350471Y-113268554D01*
X88372993Y-113260496D01*
X88396197Y-113254684D01*
X88419858Y-113251174D01*
X88443750Y-113250000D01*
X89356250Y-113250000D01*
X89380142Y-113251174D01*
X89380142Y-113251174D01*
G37*
D24*
X88900000Y-113737500D03*
D23*
G36*
X89380142Y-111376174D02*
G01*
X89403803Y-111379684D01*
X89427007Y-111385496D01*
X89449529Y-111393554D01*
X89471153Y-111403782D01*
X89491670Y-111416079D01*
X89510883Y-111430329D01*
X89528607Y-111446393D01*
X89544671Y-111464117D01*
X89558921Y-111483330D01*
X89571218Y-111503847D01*
X89581446Y-111525471D01*
X89589504Y-111547993D01*
X89595316Y-111571197D01*
X89598826Y-111594858D01*
X89600000Y-111618750D01*
X89600000Y-112106250D01*
X89598826Y-112130142D01*
X89595316Y-112153803D01*
X89589504Y-112177007D01*
X89581446Y-112199529D01*
X89571218Y-112221153D01*
X89558921Y-112241670D01*
X89544671Y-112260883D01*
X89528607Y-112278607D01*
X89510883Y-112294671D01*
X89491670Y-112308921D01*
X89471153Y-112321218D01*
X89449529Y-112331446D01*
X89427007Y-112339504D01*
X89403803Y-112345316D01*
X89380142Y-112348826D01*
X89356250Y-112350000D01*
X88443750Y-112350000D01*
X88419858Y-112348826D01*
X88396197Y-112345316D01*
X88372993Y-112339504D01*
X88350471Y-112331446D01*
X88328847Y-112321218D01*
X88308330Y-112308921D01*
X88289117Y-112294671D01*
X88271393Y-112278607D01*
X88255329Y-112260883D01*
X88241079Y-112241670D01*
X88228782Y-112221153D01*
X88218554Y-112199529D01*
X88210496Y-112177007D01*
X88204684Y-112153803D01*
X88201174Y-112130142D01*
X88200000Y-112106250D01*
X88200000Y-111618750D01*
X88201174Y-111594858D01*
X88204684Y-111571197D01*
X88210496Y-111547993D01*
X88218554Y-111525471D01*
X88228782Y-111503847D01*
X88241079Y-111483330D01*
X88255329Y-111464117D01*
X88271393Y-111446393D01*
X88289117Y-111430329D01*
X88308330Y-111416079D01*
X88328847Y-111403782D01*
X88350471Y-111393554D01*
X88372993Y-111385496D01*
X88396197Y-111379684D01*
X88419858Y-111376174D01*
X88443750Y-111375000D01*
X89356250Y-111375000D01*
X89380142Y-111376174D01*
X89380142Y-111376174D01*
G37*
D24*
X88900000Y-111862500D03*
D23*
G36*
X74530142Y-117501174D02*
G01*
X74553803Y-117504684D01*
X74577007Y-117510496D01*
X74599529Y-117518554D01*
X74621153Y-117528782D01*
X74641670Y-117541079D01*
X74660883Y-117555329D01*
X74678607Y-117571393D01*
X74694671Y-117589117D01*
X74708921Y-117608330D01*
X74721218Y-117628847D01*
X74731446Y-117650471D01*
X74739504Y-117672993D01*
X74745316Y-117696197D01*
X74748826Y-117719858D01*
X74750000Y-117743750D01*
X74750000Y-118656250D01*
X74748826Y-118680142D01*
X74745316Y-118703803D01*
X74739504Y-118727007D01*
X74731446Y-118749529D01*
X74721218Y-118771153D01*
X74708921Y-118791670D01*
X74694671Y-118810883D01*
X74678607Y-118828607D01*
X74660883Y-118844671D01*
X74641670Y-118858921D01*
X74621153Y-118871218D01*
X74599529Y-118881446D01*
X74577007Y-118889504D01*
X74553803Y-118895316D01*
X74530142Y-118898826D01*
X74506250Y-118900000D01*
X74018750Y-118900000D01*
X73994858Y-118898826D01*
X73971197Y-118895316D01*
X73947993Y-118889504D01*
X73925471Y-118881446D01*
X73903847Y-118871218D01*
X73883330Y-118858921D01*
X73864117Y-118844671D01*
X73846393Y-118828607D01*
X73830329Y-118810883D01*
X73816079Y-118791670D01*
X73803782Y-118771153D01*
X73793554Y-118749529D01*
X73785496Y-118727007D01*
X73779684Y-118703803D01*
X73776174Y-118680142D01*
X73775000Y-118656250D01*
X73775000Y-117743750D01*
X73776174Y-117719858D01*
X73779684Y-117696197D01*
X73785496Y-117672993D01*
X73793554Y-117650471D01*
X73803782Y-117628847D01*
X73816079Y-117608330D01*
X73830329Y-117589117D01*
X73846393Y-117571393D01*
X73864117Y-117555329D01*
X73883330Y-117541079D01*
X73903847Y-117528782D01*
X73925471Y-117518554D01*
X73947993Y-117510496D01*
X73971197Y-117504684D01*
X73994858Y-117501174D01*
X74018750Y-117500000D01*
X74506250Y-117500000D01*
X74530142Y-117501174D01*
X74530142Y-117501174D01*
G37*
D24*
X74262500Y-118200000D03*
D23*
G36*
X76405142Y-117501174D02*
G01*
X76428803Y-117504684D01*
X76452007Y-117510496D01*
X76474529Y-117518554D01*
X76496153Y-117528782D01*
X76516670Y-117541079D01*
X76535883Y-117555329D01*
X76553607Y-117571393D01*
X76569671Y-117589117D01*
X76583921Y-117608330D01*
X76596218Y-117628847D01*
X76606446Y-117650471D01*
X76614504Y-117672993D01*
X76620316Y-117696197D01*
X76623826Y-117719858D01*
X76625000Y-117743750D01*
X76625000Y-118656250D01*
X76623826Y-118680142D01*
X76620316Y-118703803D01*
X76614504Y-118727007D01*
X76606446Y-118749529D01*
X76596218Y-118771153D01*
X76583921Y-118791670D01*
X76569671Y-118810883D01*
X76553607Y-118828607D01*
X76535883Y-118844671D01*
X76516670Y-118858921D01*
X76496153Y-118871218D01*
X76474529Y-118881446D01*
X76452007Y-118889504D01*
X76428803Y-118895316D01*
X76405142Y-118898826D01*
X76381250Y-118900000D01*
X75893750Y-118900000D01*
X75869858Y-118898826D01*
X75846197Y-118895316D01*
X75822993Y-118889504D01*
X75800471Y-118881446D01*
X75778847Y-118871218D01*
X75758330Y-118858921D01*
X75739117Y-118844671D01*
X75721393Y-118828607D01*
X75705329Y-118810883D01*
X75691079Y-118791670D01*
X75678782Y-118771153D01*
X75668554Y-118749529D01*
X75660496Y-118727007D01*
X75654684Y-118703803D01*
X75651174Y-118680142D01*
X75650000Y-118656250D01*
X75650000Y-117743750D01*
X75651174Y-117719858D01*
X75654684Y-117696197D01*
X75660496Y-117672993D01*
X75668554Y-117650471D01*
X75678782Y-117628847D01*
X75691079Y-117608330D01*
X75705329Y-117589117D01*
X75721393Y-117571393D01*
X75739117Y-117555329D01*
X75758330Y-117541079D01*
X75778847Y-117528782D01*
X75800471Y-117518554D01*
X75822993Y-117510496D01*
X75846197Y-117504684D01*
X75869858Y-117501174D01*
X75893750Y-117500000D01*
X76381250Y-117500000D01*
X76405142Y-117501174D01*
X76405142Y-117501174D01*
G37*
D24*
X76137500Y-118200000D03*
D23*
G36*
X89749504Y-154176204D02*
G01*
X89773773Y-154179804D01*
X89797571Y-154185765D01*
X89820671Y-154194030D01*
X89842849Y-154204520D01*
X89863893Y-154217133D01*
X89883598Y-154231747D01*
X89901777Y-154248223D01*
X89918253Y-154266402D01*
X89932867Y-154286107D01*
X89945480Y-154307151D01*
X89955970Y-154329329D01*
X89964235Y-154352429D01*
X89970196Y-154376227D01*
X89973796Y-154400496D01*
X89975000Y-154425000D01*
X89975000Y-155175000D01*
X89973796Y-155199504D01*
X89970196Y-155223773D01*
X89964235Y-155247571D01*
X89955970Y-155270671D01*
X89945480Y-155292849D01*
X89932867Y-155313893D01*
X89918253Y-155333598D01*
X89901777Y-155351777D01*
X89883598Y-155368253D01*
X89863893Y-155382867D01*
X89842849Y-155395480D01*
X89820671Y-155405970D01*
X89797571Y-155414235D01*
X89773773Y-155420196D01*
X89749504Y-155423796D01*
X89725000Y-155425000D01*
X88475000Y-155425000D01*
X88450496Y-155423796D01*
X88426227Y-155420196D01*
X88402429Y-155414235D01*
X88379329Y-155405970D01*
X88357151Y-155395480D01*
X88336107Y-155382867D01*
X88316402Y-155368253D01*
X88298223Y-155351777D01*
X88281747Y-155333598D01*
X88267133Y-155313893D01*
X88254520Y-155292849D01*
X88244030Y-155270671D01*
X88235765Y-155247571D01*
X88229804Y-155223773D01*
X88226204Y-155199504D01*
X88225000Y-155175000D01*
X88225000Y-154425000D01*
X88226204Y-154400496D01*
X88229804Y-154376227D01*
X88235765Y-154352429D01*
X88244030Y-154329329D01*
X88254520Y-154307151D01*
X88267133Y-154286107D01*
X88281747Y-154266402D01*
X88298223Y-154248223D01*
X88316402Y-154231747D01*
X88336107Y-154217133D01*
X88357151Y-154204520D01*
X88379329Y-154194030D01*
X88402429Y-154185765D01*
X88426227Y-154179804D01*
X88450496Y-154176204D01*
X88475000Y-154175000D01*
X89725000Y-154175000D01*
X89749504Y-154176204D01*
X89749504Y-154176204D01*
G37*
D25*
X89100000Y-154800000D03*
D23*
G36*
X89749504Y-156976204D02*
G01*
X89773773Y-156979804D01*
X89797571Y-156985765D01*
X89820671Y-156994030D01*
X89842849Y-157004520D01*
X89863893Y-157017133D01*
X89883598Y-157031747D01*
X89901777Y-157048223D01*
X89918253Y-157066402D01*
X89932867Y-157086107D01*
X89945480Y-157107151D01*
X89955970Y-157129329D01*
X89964235Y-157152429D01*
X89970196Y-157176227D01*
X89973796Y-157200496D01*
X89975000Y-157225000D01*
X89975000Y-157975000D01*
X89973796Y-157999504D01*
X89970196Y-158023773D01*
X89964235Y-158047571D01*
X89955970Y-158070671D01*
X89945480Y-158092849D01*
X89932867Y-158113893D01*
X89918253Y-158133598D01*
X89901777Y-158151777D01*
X89883598Y-158168253D01*
X89863893Y-158182867D01*
X89842849Y-158195480D01*
X89820671Y-158205970D01*
X89797571Y-158214235D01*
X89773773Y-158220196D01*
X89749504Y-158223796D01*
X89725000Y-158225000D01*
X88475000Y-158225000D01*
X88450496Y-158223796D01*
X88426227Y-158220196D01*
X88402429Y-158214235D01*
X88379329Y-158205970D01*
X88357151Y-158195480D01*
X88336107Y-158182867D01*
X88316402Y-158168253D01*
X88298223Y-158151777D01*
X88281747Y-158133598D01*
X88267133Y-158113893D01*
X88254520Y-158092849D01*
X88244030Y-158070671D01*
X88235765Y-158047571D01*
X88229804Y-158023773D01*
X88226204Y-157999504D01*
X88225000Y-157975000D01*
X88225000Y-157225000D01*
X88226204Y-157200496D01*
X88229804Y-157176227D01*
X88235765Y-157152429D01*
X88244030Y-157129329D01*
X88254520Y-157107151D01*
X88267133Y-157086107D01*
X88281747Y-157066402D01*
X88298223Y-157048223D01*
X88316402Y-157031747D01*
X88336107Y-157017133D01*
X88357151Y-157004520D01*
X88379329Y-156994030D01*
X88402429Y-156985765D01*
X88426227Y-156979804D01*
X88450496Y-156976204D01*
X88475000Y-156975000D01*
X89725000Y-156975000D01*
X89749504Y-156976204D01*
X89749504Y-156976204D01*
G37*
D25*
X89100000Y-157600000D03*
D23*
G36*
X108780142Y-138651174D02*
G01*
X108803803Y-138654684D01*
X108827007Y-138660496D01*
X108849529Y-138668554D01*
X108871153Y-138678782D01*
X108891670Y-138691079D01*
X108910883Y-138705329D01*
X108928607Y-138721393D01*
X108944671Y-138739117D01*
X108958921Y-138758330D01*
X108971218Y-138778847D01*
X108981446Y-138800471D01*
X108989504Y-138822993D01*
X108995316Y-138846197D01*
X108998826Y-138869858D01*
X109000000Y-138893750D01*
X109000000Y-139381250D01*
X108998826Y-139405142D01*
X108995316Y-139428803D01*
X108989504Y-139452007D01*
X108981446Y-139474529D01*
X108971218Y-139496153D01*
X108958921Y-139516670D01*
X108944671Y-139535883D01*
X108928607Y-139553607D01*
X108910883Y-139569671D01*
X108891670Y-139583921D01*
X108871153Y-139596218D01*
X108849529Y-139606446D01*
X108827007Y-139614504D01*
X108803803Y-139620316D01*
X108780142Y-139623826D01*
X108756250Y-139625000D01*
X107843750Y-139625000D01*
X107819858Y-139623826D01*
X107796197Y-139620316D01*
X107772993Y-139614504D01*
X107750471Y-139606446D01*
X107728847Y-139596218D01*
X107708330Y-139583921D01*
X107689117Y-139569671D01*
X107671393Y-139553607D01*
X107655329Y-139535883D01*
X107641079Y-139516670D01*
X107628782Y-139496153D01*
X107618554Y-139474529D01*
X107610496Y-139452007D01*
X107604684Y-139428803D01*
X107601174Y-139405142D01*
X107600000Y-139381250D01*
X107600000Y-138893750D01*
X107601174Y-138869858D01*
X107604684Y-138846197D01*
X107610496Y-138822993D01*
X107618554Y-138800471D01*
X107628782Y-138778847D01*
X107641079Y-138758330D01*
X107655329Y-138739117D01*
X107671393Y-138721393D01*
X107689117Y-138705329D01*
X107708330Y-138691079D01*
X107728847Y-138678782D01*
X107750471Y-138668554D01*
X107772993Y-138660496D01*
X107796197Y-138654684D01*
X107819858Y-138651174D01*
X107843750Y-138650000D01*
X108756250Y-138650000D01*
X108780142Y-138651174D01*
X108780142Y-138651174D01*
G37*
D24*
X108300000Y-139137500D03*
D23*
G36*
X108780142Y-136776174D02*
G01*
X108803803Y-136779684D01*
X108827007Y-136785496D01*
X108849529Y-136793554D01*
X108871153Y-136803782D01*
X108891670Y-136816079D01*
X108910883Y-136830329D01*
X108928607Y-136846393D01*
X108944671Y-136864117D01*
X108958921Y-136883330D01*
X108971218Y-136903847D01*
X108981446Y-136925471D01*
X108989504Y-136947993D01*
X108995316Y-136971197D01*
X108998826Y-136994858D01*
X109000000Y-137018750D01*
X109000000Y-137506250D01*
X108998826Y-137530142D01*
X108995316Y-137553803D01*
X108989504Y-137577007D01*
X108981446Y-137599529D01*
X108971218Y-137621153D01*
X108958921Y-137641670D01*
X108944671Y-137660883D01*
X108928607Y-137678607D01*
X108910883Y-137694671D01*
X108891670Y-137708921D01*
X108871153Y-137721218D01*
X108849529Y-137731446D01*
X108827007Y-137739504D01*
X108803803Y-137745316D01*
X108780142Y-137748826D01*
X108756250Y-137750000D01*
X107843750Y-137750000D01*
X107819858Y-137748826D01*
X107796197Y-137745316D01*
X107772993Y-137739504D01*
X107750471Y-137731446D01*
X107728847Y-137721218D01*
X107708330Y-137708921D01*
X107689117Y-137694671D01*
X107671393Y-137678607D01*
X107655329Y-137660883D01*
X107641079Y-137641670D01*
X107628782Y-137621153D01*
X107618554Y-137599529D01*
X107610496Y-137577007D01*
X107604684Y-137553803D01*
X107601174Y-137530142D01*
X107600000Y-137506250D01*
X107600000Y-137018750D01*
X107601174Y-136994858D01*
X107604684Y-136971197D01*
X107610496Y-136947993D01*
X107618554Y-136925471D01*
X107628782Y-136903847D01*
X107641079Y-136883330D01*
X107655329Y-136864117D01*
X107671393Y-136846393D01*
X107689117Y-136830329D01*
X107708330Y-136816079D01*
X107728847Y-136803782D01*
X107750471Y-136793554D01*
X107772993Y-136785496D01*
X107796197Y-136779684D01*
X107819858Y-136776174D01*
X107843750Y-136775000D01*
X108756250Y-136775000D01*
X108780142Y-136776174D01*
X108780142Y-136776174D01*
G37*
D24*
X108300000Y-137262500D03*
D23*
G36*
X126830142Y-138601174D02*
G01*
X126853803Y-138604684D01*
X126877007Y-138610496D01*
X126899529Y-138618554D01*
X126921153Y-138628782D01*
X126941670Y-138641079D01*
X126960883Y-138655329D01*
X126978607Y-138671393D01*
X126994671Y-138689117D01*
X127008921Y-138708330D01*
X127021218Y-138728847D01*
X127031446Y-138750471D01*
X127039504Y-138772993D01*
X127045316Y-138796197D01*
X127048826Y-138819858D01*
X127050000Y-138843750D01*
X127050000Y-139331250D01*
X127048826Y-139355142D01*
X127045316Y-139378803D01*
X127039504Y-139402007D01*
X127031446Y-139424529D01*
X127021218Y-139446153D01*
X127008921Y-139466670D01*
X126994671Y-139485883D01*
X126978607Y-139503607D01*
X126960883Y-139519671D01*
X126941670Y-139533921D01*
X126921153Y-139546218D01*
X126899529Y-139556446D01*
X126877007Y-139564504D01*
X126853803Y-139570316D01*
X126830142Y-139573826D01*
X126806250Y-139575000D01*
X125893750Y-139575000D01*
X125869858Y-139573826D01*
X125846197Y-139570316D01*
X125822993Y-139564504D01*
X125800471Y-139556446D01*
X125778847Y-139546218D01*
X125758330Y-139533921D01*
X125739117Y-139519671D01*
X125721393Y-139503607D01*
X125705329Y-139485883D01*
X125691079Y-139466670D01*
X125678782Y-139446153D01*
X125668554Y-139424529D01*
X125660496Y-139402007D01*
X125654684Y-139378803D01*
X125651174Y-139355142D01*
X125650000Y-139331250D01*
X125650000Y-138843750D01*
X125651174Y-138819858D01*
X125654684Y-138796197D01*
X125660496Y-138772993D01*
X125668554Y-138750471D01*
X125678782Y-138728847D01*
X125691079Y-138708330D01*
X125705329Y-138689117D01*
X125721393Y-138671393D01*
X125739117Y-138655329D01*
X125758330Y-138641079D01*
X125778847Y-138628782D01*
X125800471Y-138618554D01*
X125822993Y-138610496D01*
X125846197Y-138604684D01*
X125869858Y-138601174D01*
X125893750Y-138600000D01*
X126806250Y-138600000D01*
X126830142Y-138601174D01*
X126830142Y-138601174D01*
G37*
D24*
X126350000Y-139087500D03*
D23*
G36*
X126830142Y-136726174D02*
G01*
X126853803Y-136729684D01*
X126877007Y-136735496D01*
X126899529Y-136743554D01*
X126921153Y-136753782D01*
X126941670Y-136766079D01*
X126960883Y-136780329D01*
X126978607Y-136796393D01*
X126994671Y-136814117D01*
X127008921Y-136833330D01*
X127021218Y-136853847D01*
X127031446Y-136875471D01*
X127039504Y-136897993D01*
X127045316Y-136921197D01*
X127048826Y-136944858D01*
X127050000Y-136968750D01*
X127050000Y-137456250D01*
X127048826Y-137480142D01*
X127045316Y-137503803D01*
X127039504Y-137527007D01*
X127031446Y-137549529D01*
X127021218Y-137571153D01*
X127008921Y-137591670D01*
X126994671Y-137610883D01*
X126978607Y-137628607D01*
X126960883Y-137644671D01*
X126941670Y-137658921D01*
X126921153Y-137671218D01*
X126899529Y-137681446D01*
X126877007Y-137689504D01*
X126853803Y-137695316D01*
X126830142Y-137698826D01*
X126806250Y-137700000D01*
X125893750Y-137700000D01*
X125869858Y-137698826D01*
X125846197Y-137695316D01*
X125822993Y-137689504D01*
X125800471Y-137681446D01*
X125778847Y-137671218D01*
X125758330Y-137658921D01*
X125739117Y-137644671D01*
X125721393Y-137628607D01*
X125705329Y-137610883D01*
X125691079Y-137591670D01*
X125678782Y-137571153D01*
X125668554Y-137549529D01*
X125660496Y-137527007D01*
X125654684Y-137503803D01*
X125651174Y-137480142D01*
X125650000Y-137456250D01*
X125650000Y-136968750D01*
X125651174Y-136944858D01*
X125654684Y-136921197D01*
X125660496Y-136897993D01*
X125668554Y-136875471D01*
X125678782Y-136853847D01*
X125691079Y-136833330D01*
X125705329Y-136814117D01*
X125721393Y-136796393D01*
X125739117Y-136780329D01*
X125758330Y-136766079D01*
X125778847Y-136753782D01*
X125800471Y-136743554D01*
X125822993Y-136735496D01*
X125846197Y-136729684D01*
X125869858Y-136726174D01*
X125893750Y-136725000D01*
X126806250Y-136725000D01*
X126830142Y-136726174D01*
X126830142Y-136726174D01*
G37*
D24*
X126350000Y-137212500D03*
D23*
G36*
X144730142Y-138651174D02*
G01*
X144753803Y-138654684D01*
X144777007Y-138660496D01*
X144799529Y-138668554D01*
X144821153Y-138678782D01*
X144841670Y-138691079D01*
X144860883Y-138705329D01*
X144878607Y-138721393D01*
X144894671Y-138739117D01*
X144908921Y-138758330D01*
X144921218Y-138778847D01*
X144931446Y-138800471D01*
X144939504Y-138822993D01*
X144945316Y-138846197D01*
X144948826Y-138869858D01*
X144950000Y-138893750D01*
X144950000Y-139381250D01*
X144948826Y-139405142D01*
X144945316Y-139428803D01*
X144939504Y-139452007D01*
X144931446Y-139474529D01*
X144921218Y-139496153D01*
X144908921Y-139516670D01*
X144894671Y-139535883D01*
X144878607Y-139553607D01*
X144860883Y-139569671D01*
X144841670Y-139583921D01*
X144821153Y-139596218D01*
X144799529Y-139606446D01*
X144777007Y-139614504D01*
X144753803Y-139620316D01*
X144730142Y-139623826D01*
X144706250Y-139625000D01*
X143793750Y-139625000D01*
X143769858Y-139623826D01*
X143746197Y-139620316D01*
X143722993Y-139614504D01*
X143700471Y-139606446D01*
X143678847Y-139596218D01*
X143658330Y-139583921D01*
X143639117Y-139569671D01*
X143621393Y-139553607D01*
X143605329Y-139535883D01*
X143591079Y-139516670D01*
X143578782Y-139496153D01*
X143568554Y-139474529D01*
X143560496Y-139452007D01*
X143554684Y-139428803D01*
X143551174Y-139405142D01*
X143550000Y-139381250D01*
X143550000Y-138893750D01*
X143551174Y-138869858D01*
X143554684Y-138846197D01*
X143560496Y-138822993D01*
X143568554Y-138800471D01*
X143578782Y-138778847D01*
X143591079Y-138758330D01*
X143605329Y-138739117D01*
X143621393Y-138721393D01*
X143639117Y-138705329D01*
X143658330Y-138691079D01*
X143678847Y-138678782D01*
X143700471Y-138668554D01*
X143722993Y-138660496D01*
X143746197Y-138654684D01*
X143769858Y-138651174D01*
X143793750Y-138650000D01*
X144706250Y-138650000D01*
X144730142Y-138651174D01*
X144730142Y-138651174D01*
G37*
D24*
X144250000Y-139137500D03*
D23*
G36*
X144730142Y-136776174D02*
G01*
X144753803Y-136779684D01*
X144777007Y-136785496D01*
X144799529Y-136793554D01*
X144821153Y-136803782D01*
X144841670Y-136816079D01*
X144860883Y-136830329D01*
X144878607Y-136846393D01*
X144894671Y-136864117D01*
X144908921Y-136883330D01*
X144921218Y-136903847D01*
X144931446Y-136925471D01*
X144939504Y-136947993D01*
X144945316Y-136971197D01*
X144948826Y-136994858D01*
X144950000Y-137018750D01*
X144950000Y-137506250D01*
X144948826Y-137530142D01*
X144945316Y-137553803D01*
X144939504Y-137577007D01*
X144931446Y-137599529D01*
X144921218Y-137621153D01*
X144908921Y-137641670D01*
X144894671Y-137660883D01*
X144878607Y-137678607D01*
X144860883Y-137694671D01*
X144841670Y-137708921D01*
X144821153Y-137721218D01*
X144799529Y-137731446D01*
X144777007Y-137739504D01*
X144753803Y-137745316D01*
X144730142Y-137748826D01*
X144706250Y-137750000D01*
X143793750Y-137750000D01*
X143769858Y-137748826D01*
X143746197Y-137745316D01*
X143722993Y-137739504D01*
X143700471Y-137731446D01*
X143678847Y-137721218D01*
X143658330Y-137708921D01*
X143639117Y-137694671D01*
X143621393Y-137678607D01*
X143605329Y-137660883D01*
X143591079Y-137641670D01*
X143578782Y-137621153D01*
X143568554Y-137599529D01*
X143560496Y-137577007D01*
X143554684Y-137553803D01*
X143551174Y-137530142D01*
X143550000Y-137506250D01*
X143550000Y-137018750D01*
X143551174Y-136994858D01*
X143554684Y-136971197D01*
X143560496Y-136947993D01*
X143568554Y-136925471D01*
X143578782Y-136903847D01*
X143591079Y-136883330D01*
X143605329Y-136864117D01*
X143621393Y-136846393D01*
X143639117Y-136830329D01*
X143658330Y-136816079D01*
X143678847Y-136803782D01*
X143700471Y-136793554D01*
X143722993Y-136785496D01*
X143746197Y-136779684D01*
X143769858Y-136776174D01*
X143793750Y-136775000D01*
X144706250Y-136775000D01*
X144730142Y-136776174D01*
X144730142Y-136776174D01*
G37*
D24*
X144250000Y-137262500D03*
D23*
G36*
X162830142Y-138751174D02*
G01*
X162853803Y-138754684D01*
X162877007Y-138760496D01*
X162899529Y-138768554D01*
X162921153Y-138778782D01*
X162941670Y-138791079D01*
X162960883Y-138805329D01*
X162978607Y-138821393D01*
X162994671Y-138839117D01*
X163008921Y-138858330D01*
X163021218Y-138878847D01*
X163031446Y-138900471D01*
X163039504Y-138922993D01*
X163045316Y-138946197D01*
X163048826Y-138969858D01*
X163050000Y-138993750D01*
X163050000Y-139481250D01*
X163048826Y-139505142D01*
X163045316Y-139528803D01*
X163039504Y-139552007D01*
X163031446Y-139574529D01*
X163021218Y-139596153D01*
X163008921Y-139616670D01*
X162994671Y-139635883D01*
X162978607Y-139653607D01*
X162960883Y-139669671D01*
X162941670Y-139683921D01*
X162921153Y-139696218D01*
X162899529Y-139706446D01*
X162877007Y-139714504D01*
X162853803Y-139720316D01*
X162830142Y-139723826D01*
X162806250Y-139725000D01*
X161893750Y-139725000D01*
X161869858Y-139723826D01*
X161846197Y-139720316D01*
X161822993Y-139714504D01*
X161800471Y-139706446D01*
X161778847Y-139696218D01*
X161758330Y-139683921D01*
X161739117Y-139669671D01*
X161721393Y-139653607D01*
X161705329Y-139635883D01*
X161691079Y-139616670D01*
X161678782Y-139596153D01*
X161668554Y-139574529D01*
X161660496Y-139552007D01*
X161654684Y-139528803D01*
X161651174Y-139505142D01*
X161650000Y-139481250D01*
X161650000Y-138993750D01*
X161651174Y-138969858D01*
X161654684Y-138946197D01*
X161660496Y-138922993D01*
X161668554Y-138900471D01*
X161678782Y-138878847D01*
X161691079Y-138858330D01*
X161705329Y-138839117D01*
X161721393Y-138821393D01*
X161739117Y-138805329D01*
X161758330Y-138791079D01*
X161778847Y-138778782D01*
X161800471Y-138768554D01*
X161822993Y-138760496D01*
X161846197Y-138754684D01*
X161869858Y-138751174D01*
X161893750Y-138750000D01*
X162806250Y-138750000D01*
X162830142Y-138751174D01*
X162830142Y-138751174D01*
G37*
D24*
X162350000Y-139237500D03*
D23*
G36*
X162830142Y-136876174D02*
G01*
X162853803Y-136879684D01*
X162877007Y-136885496D01*
X162899529Y-136893554D01*
X162921153Y-136903782D01*
X162941670Y-136916079D01*
X162960883Y-136930329D01*
X162978607Y-136946393D01*
X162994671Y-136964117D01*
X163008921Y-136983330D01*
X163021218Y-137003847D01*
X163031446Y-137025471D01*
X163039504Y-137047993D01*
X163045316Y-137071197D01*
X163048826Y-137094858D01*
X163050000Y-137118750D01*
X163050000Y-137606250D01*
X163048826Y-137630142D01*
X163045316Y-137653803D01*
X163039504Y-137677007D01*
X163031446Y-137699529D01*
X163021218Y-137721153D01*
X163008921Y-137741670D01*
X162994671Y-137760883D01*
X162978607Y-137778607D01*
X162960883Y-137794671D01*
X162941670Y-137808921D01*
X162921153Y-137821218D01*
X162899529Y-137831446D01*
X162877007Y-137839504D01*
X162853803Y-137845316D01*
X162830142Y-137848826D01*
X162806250Y-137850000D01*
X161893750Y-137850000D01*
X161869858Y-137848826D01*
X161846197Y-137845316D01*
X161822993Y-137839504D01*
X161800471Y-137831446D01*
X161778847Y-137821218D01*
X161758330Y-137808921D01*
X161739117Y-137794671D01*
X161721393Y-137778607D01*
X161705329Y-137760883D01*
X161691079Y-137741670D01*
X161678782Y-137721153D01*
X161668554Y-137699529D01*
X161660496Y-137677007D01*
X161654684Y-137653803D01*
X161651174Y-137630142D01*
X161650000Y-137606250D01*
X161650000Y-137118750D01*
X161651174Y-137094858D01*
X161654684Y-137071197D01*
X161660496Y-137047993D01*
X161668554Y-137025471D01*
X161678782Y-137003847D01*
X161691079Y-136983330D01*
X161705329Y-136964117D01*
X161721393Y-136946393D01*
X161739117Y-136930329D01*
X161758330Y-136916079D01*
X161778847Y-136903782D01*
X161800471Y-136893554D01*
X161822993Y-136885496D01*
X161846197Y-136879684D01*
X161869858Y-136876174D01*
X161893750Y-136875000D01*
X162806250Y-136875000D01*
X162830142Y-136876174D01*
X162830142Y-136876174D01*
G37*
D24*
X162350000Y-137362500D03*
D23*
G36*
X180680142Y-138701174D02*
G01*
X180703803Y-138704684D01*
X180727007Y-138710496D01*
X180749529Y-138718554D01*
X180771153Y-138728782D01*
X180791670Y-138741079D01*
X180810883Y-138755329D01*
X180828607Y-138771393D01*
X180844671Y-138789117D01*
X180858921Y-138808330D01*
X180871218Y-138828847D01*
X180881446Y-138850471D01*
X180889504Y-138872993D01*
X180895316Y-138896197D01*
X180898826Y-138919858D01*
X180900000Y-138943750D01*
X180900000Y-139431250D01*
X180898826Y-139455142D01*
X180895316Y-139478803D01*
X180889504Y-139502007D01*
X180881446Y-139524529D01*
X180871218Y-139546153D01*
X180858921Y-139566670D01*
X180844671Y-139585883D01*
X180828607Y-139603607D01*
X180810883Y-139619671D01*
X180791670Y-139633921D01*
X180771153Y-139646218D01*
X180749529Y-139656446D01*
X180727007Y-139664504D01*
X180703803Y-139670316D01*
X180680142Y-139673826D01*
X180656250Y-139675000D01*
X179743750Y-139675000D01*
X179719858Y-139673826D01*
X179696197Y-139670316D01*
X179672993Y-139664504D01*
X179650471Y-139656446D01*
X179628847Y-139646218D01*
X179608330Y-139633921D01*
X179589117Y-139619671D01*
X179571393Y-139603607D01*
X179555329Y-139585883D01*
X179541079Y-139566670D01*
X179528782Y-139546153D01*
X179518554Y-139524529D01*
X179510496Y-139502007D01*
X179504684Y-139478803D01*
X179501174Y-139455142D01*
X179500000Y-139431250D01*
X179500000Y-138943750D01*
X179501174Y-138919858D01*
X179504684Y-138896197D01*
X179510496Y-138872993D01*
X179518554Y-138850471D01*
X179528782Y-138828847D01*
X179541079Y-138808330D01*
X179555329Y-138789117D01*
X179571393Y-138771393D01*
X179589117Y-138755329D01*
X179608330Y-138741079D01*
X179628847Y-138728782D01*
X179650471Y-138718554D01*
X179672993Y-138710496D01*
X179696197Y-138704684D01*
X179719858Y-138701174D01*
X179743750Y-138700000D01*
X180656250Y-138700000D01*
X180680142Y-138701174D01*
X180680142Y-138701174D01*
G37*
D24*
X180200000Y-139187500D03*
D23*
G36*
X180680142Y-136826174D02*
G01*
X180703803Y-136829684D01*
X180727007Y-136835496D01*
X180749529Y-136843554D01*
X180771153Y-136853782D01*
X180791670Y-136866079D01*
X180810883Y-136880329D01*
X180828607Y-136896393D01*
X180844671Y-136914117D01*
X180858921Y-136933330D01*
X180871218Y-136953847D01*
X180881446Y-136975471D01*
X180889504Y-136997993D01*
X180895316Y-137021197D01*
X180898826Y-137044858D01*
X180900000Y-137068750D01*
X180900000Y-137556250D01*
X180898826Y-137580142D01*
X180895316Y-137603803D01*
X180889504Y-137627007D01*
X180881446Y-137649529D01*
X180871218Y-137671153D01*
X180858921Y-137691670D01*
X180844671Y-137710883D01*
X180828607Y-137728607D01*
X180810883Y-137744671D01*
X180791670Y-137758921D01*
X180771153Y-137771218D01*
X180749529Y-137781446D01*
X180727007Y-137789504D01*
X180703803Y-137795316D01*
X180680142Y-137798826D01*
X180656250Y-137800000D01*
X179743750Y-137800000D01*
X179719858Y-137798826D01*
X179696197Y-137795316D01*
X179672993Y-137789504D01*
X179650471Y-137781446D01*
X179628847Y-137771218D01*
X179608330Y-137758921D01*
X179589117Y-137744671D01*
X179571393Y-137728607D01*
X179555329Y-137710883D01*
X179541079Y-137691670D01*
X179528782Y-137671153D01*
X179518554Y-137649529D01*
X179510496Y-137627007D01*
X179504684Y-137603803D01*
X179501174Y-137580142D01*
X179500000Y-137556250D01*
X179500000Y-137068750D01*
X179501174Y-137044858D01*
X179504684Y-137021197D01*
X179510496Y-136997993D01*
X179518554Y-136975471D01*
X179528782Y-136953847D01*
X179541079Y-136933330D01*
X179555329Y-136914117D01*
X179571393Y-136896393D01*
X179589117Y-136880329D01*
X179608330Y-136866079D01*
X179628847Y-136853782D01*
X179650471Y-136843554D01*
X179672993Y-136835496D01*
X179696197Y-136829684D01*
X179719858Y-136826174D01*
X179743750Y-136825000D01*
X180656250Y-136825000D01*
X180680142Y-136826174D01*
X180680142Y-136826174D01*
G37*
D24*
X180200000Y-137312500D03*
D23*
G36*
X198730142Y-138501174D02*
G01*
X198753803Y-138504684D01*
X198777007Y-138510496D01*
X198799529Y-138518554D01*
X198821153Y-138528782D01*
X198841670Y-138541079D01*
X198860883Y-138555329D01*
X198878607Y-138571393D01*
X198894671Y-138589117D01*
X198908921Y-138608330D01*
X198921218Y-138628847D01*
X198931446Y-138650471D01*
X198939504Y-138672993D01*
X198945316Y-138696197D01*
X198948826Y-138719858D01*
X198950000Y-138743750D01*
X198950000Y-139231250D01*
X198948826Y-139255142D01*
X198945316Y-139278803D01*
X198939504Y-139302007D01*
X198931446Y-139324529D01*
X198921218Y-139346153D01*
X198908921Y-139366670D01*
X198894671Y-139385883D01*
X198878607Y-139403607D01*
X198860883Y-139419671D01*
X198841670Y-139433921D01*
X198821153Y-139446218D01*
X198799529Y-139456446D01*
X198777007Y-139464504D01*
X198753803Y-139470316D01*
X198730142Y-139473826D01*
X198706250Y-139475000D01*
X197793750Y-139475000D01*
X197769858Y-139473826D01*
X197746197Y-139470316D01*
X197722993Y-139464504D01*
X197700471Y-139456446D01*
X197678847Y-139446218D01*
X197658330Y-139433921D01*
X197639117Y-139419671D01*
X197621393Y-139403607D01*
X197605329Y-139385883D01*
X197591079Y-139366670D01*
X197578782Y-139346153D01*
X197568554Y-139324529D01*
X197560496Y-139302007D01*
X197554684Y-139278803D01*
X197551174Y-139255142D01*
X197550000Y-139231250D01*
X197550000Y-138743750D01*
X197551174Y-138719858D01*
X197554684Y-138696197D01*
X197560496Y-138672993D01*
X197568554Y-138650471D01*
X197578782Y-138628847D01*
X197591079Y-138608330D01*
X197605329Y-138589117D01*
X197621393Y-138571393D01*
X197639117Y-138555329D01*
X197658330Y-138541079D01*
X197678847Y-138528782D01*
X197700471Y-138518554D01*
X197722993Y-138510496D01*
X197746197Y-138504684D01*
X197769858Y-138501174D01*
X197793750Y-138500000D01*
X198706250Y-138500000D01*
X198730142Y-138501174D01*
X198730142Y-138501174D01*
G37*
D24*
X198250000Y-138987500D03*
D23*
G36*
X198730142Y-136626174D02*
G01*
X198753803Y-136629684D01*
X198777007Y-136635496D01*
X198799529Y-136643554D01*
X198821153Y-136653782D01*
X198841670Y-136666079D01*
X198860883Y-136680329D01*
X198878607Y-136696393D01*
X198894671Y-136714117D01*
X198908921Y-136733330D01*
X198921218Y-136753847D01*
X198931446Y-136775471D01*
X198939504Y-136797993D01*
X198945316Y-136821197D01*
X198948826Y-136844858D01*
X198950000Y-136868750D01*
X198950000Y-137356250D01*
X198948826Y-137380142D01*
X198945316Y-137403803D01*
X198939504Y-137427007D01*
X198931446Y-137449529D01*
X198921218Y-137471153D01*
X198908921Y-137491670D01*
X198894671Y-137510883D01*
X198878607Y-137528607D01*
X198860883Y-137544671D01*
X198841670Y-137558921D01*
X198821153Y-137571218D01*
X198799529Y-137581446D01*
X198777007Y-137589504D01*
X198753803Y-137595316D01*
X198730142Y-137598826D01*
X198706250Y-137600000D01*
X197793750Y-137600000D01*
X197769858Y-137598826D01*
X197746197Y-137595316D01*
X197722993Y-137589504D01*
X197700471Y-137581446D01*
X197678847Y-137571218D01*
X197658330Y-137558921D01*
X197639117Y-137544671D01*
X197621393Y-137528607D01*
X197605329Y-137510883D01*
X197591079Y-137491670D01*
X197578782Y-137471153D01*
X197568554Y-137449529D01*
X197560496Y-137427007D01*
X197554684Y-137403803D01*
X197551174Y-137380142D01*
X197550000Y-137356250D01*
X197550000Y-136868750D01*
X197551174Y-136844858D01*
X197554684Y-136821197D01*
X197560496Y-136797993D01*
X197568554Y-136775471D01*
X197578782Y-136753847D01*
X197591079Y-136733330D01*
X197605329Y-136714117D01*
X197621393Y-136696393D01*
X197639117Y-136680329D01*
X197658330Y-136666079D01*
X197678847Y-136653782D01*
X197700471Y-136643554D01*
X197722993Y-136635496D01*
X197746197Y-136629684D01*
X197769858Y-136626174D01*
X197793750Y-136625000D01*
X198706250Y-136625000D01*
X198730142Y-136626174D01*
X198730142Y-136626174D01*
G37*
D24*
X198250000Y-137112500D03*
D23*
G36*
X167699504Y-140026204D02*
G01*
X167723773Y-140029804D01*
X167747571Y-140035765D01*
X167770671Y-140044030D01*
X167792849Y-140054520D01*
X167813893Y-140067133D01*
X167833598Y-140081747D01*
X167851777Y-140098223D01*
X167868253Y-140116402D01*
X167882867Y-140136107D01*
X167895480Y-140157151D01*
X167905970Y-140179329D01*
X167914235Y-140202429D01*
X167920196Y-140226227D01*
X167923796Y-140250496D01*
X167925000Y-140275000D01*
X167925000Y-141525000D01*
X167923796Y-141549504D01*
X167920196Y-141573773D01*
X167914235Y-141597571D01*
X167905970Y-141620671D01*
X167895480Y-141642849D01*
X167882867Y-141663893D01*
X167868253Y-141683598D01*
X167851777Y-141701777D01*
X167833598Y-141718253D01*
X167813893Y-141732867D01*
X167792849Y-141745480D01*
X167770671Y-141755970D01*
X167747571Y-141764235D01*
X167723773Y-141770196D01*
X167699504Y-141773796D01*
X167675000Y-141775000D01*
X166925000Y-141775000D01*
X166900496Y-141773796D01*
X166876227Y-141770196D01*
X166852429Y-141764235D01*
X166829329Y-141755970D01*
X166807151Y-141745480D01*
X166786107Y-141732867D01*
X166766402Y-141718253D01*
X166748223Y-141701777D01*
X166731747Y-141683598D01*
X166717133Y-141663893D01*
X166704520Y-141642849D01*
X166694030Y-141620671D01*
X166685765Y-141597571D01*
X166679804Y-141573773D01*
X166676204Y-141549504D01*
X166675000Y-141525000D01*
X166675000Y-140275000D01*
X166676204Y-140250496D01*
X166679804Y-140226227D01*
X166685765Y-140202429D01*
X166694030Y-140179329D01*
X166704520Y-140157151D01*
X166717133Y-140136107D01*
X166731747Y-140116402D01*
X166748223Y-140098223D01*
X166766402Y-140081747D01*
X166786107Y-140067133D01*
X166807151Y-140054520D01*
X166829329Y-140044030D01*
X166852429Y-140035765D01*
X166876227Y-140029804D01*
X166900496Y-140026204D01*
X166925000Y-140025000D01*
X167675000Y-140025000D01*
X167699504Y-140026204D01*
X167699504Y-140026204D01*
G37*
D25*
X167300000Y-140900000D03*
D23*
G36*
X164899504Y-140026204D02*
G01*
X164923773Y-140029804D01*
X164947571Y-140035765D01*
X164970671Y-140044030D01*
X164992849Y-140054520D01*
X165013893Y-140067133D01*
X165033598Y-140081747D01*
X165051777Y-140098223D01*
X165068253Y-140116402D01*
X165082867Y-140136107D01*
X165095480Y-140157151D01*
X165105970Y-140179329D01*
X165114235Y-140202429D01*
X165120196Y-140226227D01*
X165123796Y-140250496D01*
X165125000Y-140275000D01*
X165125000Y-141525000D01*
X165123796Y-141549504D01*
X165120196Y-141573773D01*
X165114235Y-141597571D01*
X165105970Y-141620671D01*
X165095480Y-141642849D01*
X165082867Y-141663893D01*
X165068253Y-141683598D01*
X165051777Y-141701777D01*
X165033598Y-141718253D01*
X165013893Y-141732867D01*
X164992849Y-141745480D01*
X164970671Y-141755970D01*
X164947571Y-141764235D01*
X164923773Y-141770196D01*
X164899504Y-141773796D01*
X164875000Y-141775000D01*
X164125000Y-141775000D01*
X164100496Y-141773796D01*
X164076227Y-141770196D01*
X164052429Y-141764235D01*
X164029329Y-141755970D01*
X164007151Y-141745480D01*
X163986107Y-141732867D01*
X163966402Y-141718253D01*
X163948223Y-141701777D01*
X163931747Y-141683598D01*
X163917133Y-141663893D01*
X163904520Y-141642849D01*
X163894030Y-141620671D01*
X163885765Y-141597571D01*
X163879804Y-141573773D01*
X163876204Y-141549504D01*
X163875000Y-141525000D01*
X163875000Y-140275000D01*
X163876204Y-140250496D01*
X163879804Y-140226227D01*
X163885765Y-140202429D01*
X163894030Y-140179329D01*
X163904520Y-140157151D01*
X163917133Y-140136107D01*
X163931747Y-140116402D01*
X163948223Y-140098223D01*
X163966402Y-140081747D01*
X163986107Y-140067133D01*
X164007151Y-140054520D01*
X164029329Y-140044030D01*
X164052429Y-140035765D01*
X164076227Y-140029804D01*
X164100496Y-140026204D01*
X164125000Y-140025000D01*
X164875000Y-140025000D01*
X164899504Y-140026204D01*
X164899504Y-140026204D01*
G37*
D25*
X164500000Y-140900000D03*
D23*
G36*
X79480142Y-99351174D02*
G01*
X79503803Y-99354684D01*
X79527007Y-99360496D01*
X79549529Y-99368554D01*
X79571153Y-99378782D01*
X79591670Y-99391079D01*
X79610883Y-99405329D01*
X79628607Y-99421393D01*
X79644671Y-99439117D01*
X79658921Y-99458330D01*
X79671218Y-99478847D01*
X79681446Y-99500471D01*
X79689504Y-99522993D01*
X79695316Y-99546197D01*
X79698826Y-99569858D01*
X79700000Y-99593750D01*
X79700000Y-100081250D01*
X79698826Y-100105142D01*
X79695316Y-100128803D01*
X79689504Y-100152007D01*
X79681446Y-100174529D01*
X79671218Y-100196153D01*
X79658921Y-100216670D01*
X79644671Y-100235883D01*
X79628607Y-100253607D01*
X79610883Y-100269671D01*
X79591670Y-100283921D01*
X79571153Y-100296218D01*
X79549529Y-100306446D01*
X79527007Y-100314504D01*
X79503803Y-100320316D01*
X79480142Y-100323826D01*
X79456250Y-100325000D01*
X78543750Y-100325000D01*
X78519858Y-100323826D01*
X78496197Y-100320316D01*
X78472993Y-100314504D01*
X78450471Y-100306446D01*
X78428847Y-100296218D01*
X78408330Y-100283921D01*
X78389117Y-100269671D01*
X78371393Y-100253607D01*
X78355329Y-100235883D01*
X78341079Y-100216670D01*
X78328782Y-100196153D01*
X78318554Y-100174529D01*
X78310496Y-100152007D01*
X78304684Y-100128803D01*
X78301174Y-100105142D01*
X78300000Y-100081250D01*
X78300000Y-99593750D01*
X78301174Y-99569858D01*
X78304684Y-99546197D01*
X78310496Y-99522993D01*
X78318554Y-99500471D01*
X78328782Y-99478847D01*
X78341079Y-99458330D01*
X78355329Y-99439117D01*
X78371393Y-99421393D01*
X78389117Y-99405329D01*
X78408330Y-99391079D01*
X78428847Y-99378782D01*
X78450471Y-99368554D01*
X78472993Y-99360496D01*
X78496197Y-99354684D01*
X78519858Y-99351174D01*
X78543750Y-99350000D01*
X79456250Y-99350000D01*
X79480142Y-99351174D01*
X79480142Y-99351174D01*
G37*
D24*
X79000000Y-99837500D03*
D23*
G36*
X79480142Y-97476174D02*
G01*
X79503803Y-97479684D01*
X79527007Y-97485496D01*
X79549529Y-97493554D01*
X79571153Y-97503782D01*
X79591670Y-97516079D01*
X79610883Y-97530329D01*
X79628607Y-97546393D01*
X79644671Y-97564117D01*
X79658921Y-97583330D01*
X79671218Y-97603847D01*
X79681446Y-97625471D01*
X79689504Y-97647993D01*
X79695316Y-97671197D01*
X79698826Y-97694858D01*
X79700000Y-97718750D01*
X79700000Y-98206250D01*
X79698826Y-98230142D01*
X79695316Y-98253803D01*
X79689504Y-98277007D01*
X79681446Y-98299529D01*
X79671218Y-98321153D01*
X79658921Y-98341670D01*
X79644671Y-98360883D01*
X79628607Y-98378607D01*
X79610883Y-98394671D01*
X79591670Y-98408921D01*
X79571153Y-98421218D01*
X79549529Y-98431446D01*
X79527007Y-98439504D01*
X79503803Y-98445316D01*
X79480142Y-98448826D01*
X79456250Y-98450000D01*
X78543750Y-98450000D01*
X78519858Y-98448826D01*
X78496197Y-98445316D01*
X78472993Y-98439504D01*
X78450471Y-98431446D01*
X78428847Y-98421218D01*
X78408330Y-98408921D01*
X78389117Y-98394671D01*
X78371393Y-98378607D01*
X78355329Y-98360883D01*
X78341079Y-98341670D01*
X78328782Y-98321153D01*
X78318554Y-98299529D01*
X78310496Y-98277007D01*
X78304684Y-98253803D01*
X78301174Y-98230142D01*
X78300000Y-98206250D01*
X78300000Y-97718750D01*
X78301174Y-97694858D01*
X78304684Y-97671197D01*
X78310496Y-97647993D01*
X78318554Y-97625471D01*
X78328782Y-97603847D01*
X78341079Y-97583330D01*
X78355329Y-97564117D01*
X78371393Y-97546393D01*
X78389117Y-97530329D01*
X78408330Y-97516079D01*
X78428847Y-97503782D01*
X78450471Y-97493554D01*
X78472993Y-97485496D01*
X78496197Y-97479684D01*
X78519858Y-97476174D01*
X78543750Y-97475000D01*
X79456250Y-97475000D01*
X79480142Y-97476174D01*
X79480142Y-97476174D01*
G37*
D24*
X79000000Y-97962500D03*
D23*
G36*
X82980142Y-99251174D02*
G01*
X83003803Y-99254684D01*
X83027007Y-99260496D01*
X83049529Y-99268554D01*
X83071153Y-99278782D01*
X83091670Y-99291079D01*
X83110883Y-99305329D01*
X83128607Y-99321393D01*
X83144671Y-99339117D01*
X83158921Y-99358330D01*
X83171218Y-99378847D01*
X83181446Y-99400471D01*
X83189504Y-99422993D01*
X83195316Y-99446197D01*
X83198826Y-99469858D01*
X83200000Y-99493750D01*
X83200000Y-99981250D01*
X83198826Y-100005142D01*
X83195316Y-100028803D01*
X83189504Y-100052007D01*
X83181446Y-100074529D01*
X83171218Y-100096153D01*
X83158921Y-100116670D01*
X83144671Y-100135883D01*
X83128607Y-100153607D01*
X83110883Y-100169671D01*
X83091670Y-100183921D01*
X83071153Y-100196218D01*
X83049529Y-100206446D01*
X83027007Y-100214504D01*
X83003803Y-100220316D01*
X82980142Y-100223826D01*
X82956250Y-100225000D01*
X82043750Y-100225000D01*
X82019858Y-100223826D01*
X81996197Y-100220316D01*
X81972993Y-100214504D01*
X81950471Y-100206446D01*
X81928847Y-100196218D01*
X81908330Y-100183921D01*
X81889117Y-100169671D01*
X81871393Y-100153607D01*
X81855329Y-100135883D01*
X81841079Y-100116670D01*
X81828782Y-100096153D01*
X81818554Y-100074529D01*
X81810496Y-100052007D01*
X81804684Y-100028803D01*
X81801174Y-100005142D01*
X81800000Y-99981250D01*
X81800000Y-99493750D01*
X81801174Y-99469858D01*
X81804684Y-99446197D01*
X81810496Y-99422993D01*
X81818554Y-99400471D01*
X81828782Y-99378847D01*
X81841079Y-99358330D01*
X81855329Y-99339117D01*
X81871393Y-99321393D01*
X81889117Y-99305329D01*
X81908330Y-99291079D01*
X81928847Y-99278782D01*
X81950471Y-99268554D01*
X81972993Y-99260496D01*
X81996197Y-99254684D01*
X82019858Y-99251174D01*
X82043750Y-99250000D01*
X82956250Y-99250000D01*
X82980142Y-99251174D01*
X82980142Y-99251174D01*
G37*
D24*
X82500000Y-99737500D03*
D23*
G36*
X82980142Y-97376174D02*
G01*
X83003803Y-97379684D01*
X83027007Y-97385496D01*
X83049529Y-97393554D01*
X83071153Y-97403782D01*
X83091670Y-97416079D01*
X83110883Y-97430329D01*
X83128607Y-97446393D01*
X83144671Y-97464117D01*
X83158921Y-97483330D01*
X83171218Y-97503847D01*
X83181446Y-97525471D01*
X83189504Y-97547993D01*
X83195316Y-97571197D01*
X83198826Y-97594858D01*
X83200000Y-97618750D01*
X83200000Y-98106250D01*
X83198826Y-98130142D01*
X83195316Y-98153803D01*
X83189504Y-98177007D01*
X83181446Y-98199529D01*
X83171218Y-98221153D01*
X83158921Y-98241670D01*
X83144671Y-98260883D01*
X83128607Y-98278607D01*
X83110883Y-98294671D01*
X83091670Y-98308921D01*
X83071153Y-98321218D01*
X83049529Y-98331446D01*
X83027007Y-98339504D01*
X83003803Y-98345316D01*
X82980142Y-98348826D01*
X82956250Y-98350000D01*
X82043750Y-98350000D01*
X82019858Y-98348826D01*
X81996197Y-98345316D01*
X81972993Y-98339504D01*
X81950471Y-98331446D01*
X81928847Y-98321218D01*
X81908330Y-98308921D01*
X81889117Y-98294671D01*
X81871393Y-98278607D01*
X81855329Y-98260883D01*
X81841079Y-98241670D01*
X81828782Y-98221153D01*
X81818554Y-98199529D01*
X81810496Y-98177007D01*
X81804684Y-98153803D01*
X81801174Y-98130142D01*
X81800000Y-98106250D01*
X81800000Y-97618750D01*
X81801174Y-97594858D01*
X81804684Y-97571197D01*
X81810496Y-97547993D01*
X81818554Y-97525471D01*
X81828782Y-97503847D01*
X81841079Y-97483330D01*
X81855329Y-97464117D01*
X81871393Y-97446393D01*
X81889117Y-97430329D01*
X81908330Y-97416079D01*
X81928847Y-97403782D01*
X81950471Y-97393554D01*
X81972993Y-97385496D01*
X81996197Y-97379684D01*
X82019858Y-97376174D01*
X82043750Y-97375000D01*
X82956250Y-97375000D01*
X82980142Y-97376174D01*
X82980142Y-97376174D01*
G37*
D24*
X82500000Y-97862500D03*
D23*
G36*
X86480142Y-99351174D02*
G01*
X86503803Y-99354684D01*
X86527007Y-99360496D01*
X86549529Y-99368554D01*
X86571153Y-99378782D01*
X86591670Y-99391079D01*
X86610883Y-99405329D01*
X86628607Y-99421393D01*
X86644671Y-99439117D01*
X86658921Y-99458330D01*
X86671218Y-99478847D01*
X86681446Y-99500471D01*
X86689504Y-99522993D01*
X86695316Y-99546197D01*
X86698826Y-99569858D01*
X86700000Y-99593750D01*
X86700000Y-100081250D01*
X86698826Y-100105142D01*
X86695316Y-100128803D01*
X86689504Y-100152007D01*
X86681446Y-100174529D01*
X86671218Y-100196153D01*
X86658921Y-100216670D01*
X86644671Y-100235883D01*
X86628607Y-100253607D01*
X86610883Y-100269671D01*
X86591670Y-100283921D01*
X86571153Y-100296218D01*
X86549529Y-100306446D01*
X86527007Y-100314504D01*
X86503803Y-100320316D01*
X86480142Y-100323826D01*
X86456250Y-100325000D01*
X85543750Y-100325000D01*
X85519858Y-100323826D01*
X85496197Y-100320316D01*
X85472993Y-100314504D01*
X85450471Y-100306446D01*
X85428847Y-100296218D01*
X85408330Y-100283921D01*
X85389117Y-100269671D01*
X85371393Y-100253607D01*
X85355329Y-100235883D01*
X85341079Y-100216670D01*
X85328782Y-100196153D01*
X85318554Y-100174529D01*
X85310496Y-100152007D01*
X85304684Y-100128803D01*
X85301174Y-100105142D01*
X85300000Y-100081250D01*
X85300000Y-99593750D01*
X85301174Y-99569858D01*
X85304684Y-99546197D01*
X85310496Y-99522993D01*
X85318554Y-99500471D01*
X85328782Y-99478847D01*
X85341079Y-99458330D01*
X85355329Y-99439117D01*
X85371393Y-99421393D01*
X85389117Y-99405329D01*
X85408330Y-99391079D01*
X85428847Y-99378782D01*
X85450471Y-99368554D01*
X85472993Y-99360496D01*
X85496197Y-99354684D01*
X85519858Y-99351174D01*
X85543750Y-99350000D01*
X86456250Y-99350000D01*
X86480142Y-99351174D01*
X86480142Y-99351174D01*
G37*
D24*
X86000000Y-99837500D03*
D23*
G36*
X86480142Y-97476174D02*
G01*
X86503803Y-97479684D01*
X86527007Y-97485496D01*
X86549529Y-97493554D01*
X86571153Y-97503782D01*
X86591670Y-97516079D01*
X86610883Y-97530329D01*
X86628607Y-97546393D01*
X86644671Y-97564117D01*
X86658921Y-97583330D01*
X86671218Y-97603847D01*
X86681446Y-97625471D01*
X86689504Y-97647993D01*
X86695316Y-97671197D01*
X86698826Y-97694858D01*
X86700000Y-97718750D01*
X86700000Y-98206250D01*
X86698826Y-98230142D01*
X86695316Y-98253803D01*
X86689504Y-98277007D01*
X86681446Y-98299529D01*
X86671218Y-98321153D01*
X86658921Y-98341670D01*
X86644671Y-98360883D01*
X86628607Y-98378607D01*
X86610883Y-98394671D01*
X86591670Y-98408921D01*
X86571153Y-98421218D01*
X86549529Y-98431446D01*
X86527007Y-98439504D01*
X86503803Y-98445316D01*
X86480142Y-98448826D01*
X86456250Y-98450000D01*
X85543750Y-98450000D01*
X85519858Y-98448826D01*
X85496197Y-98445316D01*
X85472993Y-98439504D01*
X85450471Y-98431446D01*
X85428847Y-98421218D01*
X85408330Y-98408921D01*
X85389117Y-98394671D01*
X85371393Y-98378607D01*
X85355329Y-98360883D01*
X85341079Y-98341670D01*
X85328782Y-98321153D01*
X85318554Y-98299529D01*
X85310496Y-98277007D01*
X85304684Y-98253803D01*
X85301174Y-98230142D01*
X85300000Y-98206250D01*
X85300000Y-97718750D01*
X85301174Y-97694858D01*
X85304684Y-97671197D01*
X85310496Y-97647993D01*
X85318554Y-97625471D01*
X85328782Y-97603847D01*
X85341079Y-97583330D01*
X85355329Y-97564117D01*
X85371393Y-97546393D01*
X85389117Y-97530329D01*
X85408330Y-97516079D01*
X85428847Y-97503782D01*
X85450471Y-97493554D01*
X85472993Y-97485496D01*
X85496197Y-97479684D01*
X85519858Y-97476174D01*
X85543750Y-97475000D01*
X86456250Y-97475000D01*
X86480142Y-97476174D01*
X86480142Y-97476174D01*
G37*
D24*
X86000000Y-97962500D03*
D23*
G36*
X75980142Y-103951174D02*
G01*
X76003803Y-103954684D01*
X76027007Y-103960496D01*
X76049529Y-103968554D01*
X76071153Y-103978782D01*
X76091670Y-103991079D01*
X76110883Y-104005329D01*
X76128607Y-104021393D01*
X76144671Y-104039117D01*
X76158921Y-104058330D01*
X76171218Y-104078847D01*
X76181446Y-104100471D01*
X76189504Y-104122993D01*
X76195316Y-104146197D01*
X76198826Y-104169858D01*
X76200000Y-104193750D01*
X76200000Y-104681250D01*
X76198826Y-104705142D01*
X76195316Y-104728803D01*
X76189504Y-104752007D01*
X76181446Y-104774529D01*
X76171218Y-104796153D01*
X76158921Y-104816670D01*
X76144671Y-104835883D01*
X76128607Y-104853607D01*
X76110883Y-104869671D01*
X76091670Y-104883921D01*
X76071153Y-104896218D01*
X76049529Y-104906446D01*
X76027007Y-104914504D01*
X76003803Y-104920316D01*
X75980142Y-104923826D01*
X75956250Y-104925000D01*
X75043750Y-104925000D01*
X75019858Y-104923826D01*
X74996197Y-104920316D01*
X74972993Y-104914504D01*
X74950471Y-104906446D01*
X74928847Y-104896218D01*
X74908330Y-104883921D01*
X74889117Y-104869671D01*
X74871393Y-104853607D01*
X74855329Y-104835883D01*
X74841079Y-104816670D01*
X74828782Y-104796153D01*
X74818554Y-104774529D01*
X74810496Y-104752007D01*
X74804684Y-104728803D01*
X74801174Y-104705142D01*
X74800000Y-104681250D01*
X74800000Y-104193750D01*
X74801174Y-104169858D01*
X74804684Y-104146197D01*
X74810496Y-104122993D01*
X74818554Y-104100471D01*
X74828782Y-104078847D01*
X74841079Y-104058330D01*
X74855329Y-104039117D01*
X74871393Y-104021393D01*
X74889117Y-104005329D01*
X74908330Y-103991079D01*
X74928847Y-103978782D01*
X74950471Y-103968554D01*
X74972993Y-103960496D01*
X74996197Y-103954684D01*
X75019858Y-103951174D01*
X75043750Y-103950000D01*
X75956250Y-103950000D01*
X75980142Y-103951174D01*
X75980142Y-103951174D01*
G37*
D24*
X75500000Y-104437500D03*
D23*
G36*
X75980142Y-102076174D02*
G01*
X76003803Y-102079684D01*
X76027007Y-102085496D01*
X76049529Y-102093554D01*
X76071153Y-102103782D01*
X76091670Y-102116079D01*
X76110883Y-102130329D01*
X76128607Y-102146393D01*
X76144671Y-102164117D01*
X76158921Y-102183330D01*
X76171218Y-102203847D01*
X76181446Y-102225471D01*
X76189504Y-102247993D01*
X76195316Y-102271197D01*
X76198826Y-102294858D01*
X76200000Y-102318750D01*
X76200000Y-102806250D01*
X76198826Y-102830142D01*
X76195316Y-102853803D01*
X76189504Y-102877007D01*
X76181446Y-102899529D01*
X76171218Y-102921153D01*
X76158921Y-102941670D01*
X76144671Y-102960883D01*
X76128607Y-102978607D01*
X76110883Y-102994671D01*
X76091670Y-103008921D01*
X76071153Y-103021218D01*
X76049529Y-103031446D01*
X76027007Y-103039504D01*
X76003803Y-103045316D01*
X75980142Y-103048826D01*
X75956250Y-103050000D01*
X75043750Y-103050000D01*
X75019858Y-103048826D01*
X74996197Y-103045316D01*
X74972993Y-103039504D01*
X74950471Y-103031446D01*
X74928847Y-103021218D01*
X74908330Y-103008921D01*
X74889117Y-102994671D01*
X74871393Y-102978607D01*
X74855329Y-102960883D01*
X74841079Y-102941670D01*
X74828782Y-102921153D01*
X74818554Y-102899529D01*
X74810496Y-102877007D01*
X74804684Y-102853803D01*
X74801174Y-102830142D01*
X74800000Y-102806250D01*
X74800000Y-102318750D01*
X74801174Y-102294858D01*
X74804684Y-102271197D01*
X74810496Y-102247993D01*
X74818554Y-102225471D01*
X74828782Y-102203847D01*
X74841079Y-102183330D01*
X74855329Y-102164117D01*
X74871393Y-102146393D01*
X74889117Y-102130329D01*
X74908330Y-102116079D01*
X74928847Y-102103782D01*
X74950471Y-102093554D01*
X74972993Y-102085496D01*
X74996197Y-102079684D01*
X75019858Y-102076174D01*
X75043750Y-102075000D01*
X75956250Y-102075000D01*
X75980142Y-102076174D01*
X75980142Y-102076174D01*
G37*
D24*
X75500000Y-102562500D03*
D23*
G36*
X86030142Y-107901174D02*
G01*
X86053803Y-107904684D01*
X86077007Y-107910496D01*
X86099529Y-107918554D01*
X86121153Y-107928782D01*
X86141670Y-107941079D01*
X86160883Y-107955329D01*
X86178607Y-107971393D01*
X86194671Y-107989117D01*
X86208921Y-108008330D01*
X86221218Y-108028847D01*
X86231446Y-108050471D01*
X86239504Y-108072993D01*
X86245316Y-108096197D01*
X86248826Y-108119858D01*
X86250000Y-108143750D01*
X86250000Y-109056250D01*
X86248826Y-109080142D01*
X86245316Y-109103803D01*
X86239504Y-109127007D01*
X86231446Y-109149529D01*
X86221218Y-109171153D01*
X86208921Y-109191670D01*
X86194671Y-109210883D01*
X86178607Y-109228607D01*
X86160883Y-109244671D01*
X86141670Y-109258921D01*
X86121153Y-109271218D01*
X86099529Y-109281446D01*
X86077007Y-109289504D01*
X86053803Y-109295316D01*
X86030142Y-109298826D01*
X86006250Y-109300000D01*
X85518750Y-109300000D01*
X85494858Y-109298826D01*
X85471197Y-109295316D01*
X85447993Y-109289504D01*
X85425471Y-109281446D01*
X85403847Y-109271218D01*
X85383330Y-109258921D01*
X85364117Y-109244671D01*
X85346393Y-109228607D01*
X85330329Y-109210883D01*
X85316079Y-109191670D01*
X85303782Y-109171153D01*
X85293554Y-109149529D01*
X85285496Y-109127007D01*
X85279684Y-109103803D01*
X85276174Y-109080142D01*
X85275000Y-109056250D01*
X85275000Y-108143750D01*
X85276174Y-108119858D01*
X85279684Y-108096197D01*
X85285496Y-108072993D01*
X85293554Y-108050471D01*
X85303782Y-108028847D01*
X85316079Y-108008330D01*
X85330329Y-107989117D01*
X85346393Y-107971393D01*
X85364117Y-107955329D01*
X85383330Y-107941079D01*
X85403847Y-107928782D01*
X85425471Y-107918554D01*
X85447993Y-107910496D01*
X85471197Y-107904684D01*
X85494858Y-107901174D01*
X85518750Y-107900000D01*
X86006250Y-107900000D01*
X86030142Y-107901174D01*
X86030142Y-107901174D01*
G37*
D24*
X85762500Y-108600000D03*
D23*
G36*
X87905142Y-107901174D02*
G01*
X87928803Y-107904684D01*
X87952007Y-107910496D01*
X87974529Y-107918554D01*
X87996153Y-107928782D01*
X88016670Y-107941079D01*
X88035883Y-107955329D01*
X88053607Y-107971393D01*
X88069671Y-107989117D01*
X88083921Y-108008330D01*
X88096218Y-108028847D01*
X88106446Y-108050471D01*
X88114504Y-108072993D01*
X88120316Y-108096197D01*
X88123826Y-108119858D01*
X88125000Y-108143750D01*
X88125000Y-109056250D01*
X88123826Y-109080142D01*
X88120316Y-109103803D01*
X88114504Y-109127007D01*
X88106446Y-109149529D01*
X88096218Y-109171153D01*
X88083921Y-109191670D01*
X88069671Y-109210883D01*
X88053607Y-109228607D01*
X88035883Y-109244671D01*
X88016670Y-109258921D01*
X87996153Y-109271218D01*
X87974529Y-109281446D01*
X87952007Y-109289504D01*
X87928803Y-109295316D01*
X87905142Y-109298826D01*
X87881250Y-109300000D01*
X87393750Y-109300000D01*
X87369858Y-109298826D01*
X87346197Y-109295316D01*
X87322993Y-109289504D01*
X87300471Y-109281446D01*
X87278847Y-109271218D01*
X87258330Y-109258921D01*
X87239117Y-109244671D01*
X87221393Y-109228607D01*
X87205329Y-109210883D01*
X87191079Y-109191670D01*
X87178782Y-109171153D01*
X87168554Y-109149529D01*
X87160496Y-109127007D01*
X87154684Y-109103803D01*
X87151174Y-109080142D01*
X87150000Y-109056250D01*
X87150000Y-108143750D01*
X87151174Y-108119858D01*
X87154684Y-108096197D01*
X87160496Y-108072993D01*
X87168554Y-108050471D01*
X87178782Y-108028847D01*
X87191079Y-108008330D01*
X87205329Y-107989117D01*
X87221393Y-107971393D01*
X87239117Y-107955329D01*
X87258330Y-107941079D01*
X87278847Y-107928782D01*
X87300471Y-107918554D01*
X87322993Y-107910496D01*
X87346197Y-107904684D01*
X87369858Y-107901174D01*
X87393750Y-107900000D01*
X87881250Y-107900000D01*
X87905142Y-107901174D01*
X87905142Y-107901174D01*
G37*
D24*
X87637500Y-108600000D03*
D23*
G36*
X111780142Y-136626174D02*
G01*
X111803803Y-136629684D01*
X111827007Y-136635496D01*
X111849529Y-136643554D01*
X111871153Y-136653782D01*
X111891670Y-136666079D01*
X111910883Y-136680329D01*
X111928607Y-136696393D01*
X111944671Y-136714117D01*
X111958921Y-136733330D01*
X111971218Y-136753847D01*
X111981446Y-136775471D01*
X111989504Y-136797993D01*
X111995316Y-136821197D01*
X111998826Y-136844858D01*
X112000000Y-136868750D01*
X112000000Y-137356250D01*
X111998826Y-137380142D01*
X111995316Y-137403803D01*
X111989504Y-137427007D01*
X111981446Y-137449529D01*
X111971218Y-137471153D01*
X111958921Y-137491670D01*
X111944671Y-137510883D01*
X111928607Y-137528607D01*
X111910883Y-137544671D01*
X111891670Y-137558921D01*
X111871153Y-137571218D01*
X111849529Y-137581446D01*
X111827007Y-137589504D01*
X111803803Y-137595316D01*
X111780142Y-137598826D01*
X111756250Y-137600000D01*
X110843750Y-137600000D01*
X110819858Y-137598826D01*
X110796197Y-137595316D01*
X110772993Y-137589504D01*
X110750471Y-137581446D01*
X110728847Y-137571218D01*
X110708330Y-137558921D01*
X110689117Y-137544671D01*
X110671393Y-137528607D01*
X110655329Y-137510883D01*
X110641079Y-137491670D01*
X110628782Y-137471153D01*
X110618554Y-137449529D01*
X110610496Y-137427007D01*
X110604684Y-137403803D01*
X110601174Y-137380142D01*
X110600000Y-137356250D01*
X110600000Y-136868750D01*
X110601174Y-136844858D01*
X110604684Y-136821197D01*
X110610496Y-136797993D01*
X110618554Y-136775471D01*
X110628782Y-136753847D01*
X110641079Y-136733330D01*
X110655329Y-136714117D01*
X110671393Y-136696393D01*
X110689117Y-136680329D01*
X110708330Y-136666079D01*
X110728847Y-136653782D01*
X110750471Y-136643554D01*
X110772993Y-136635496D01*
X110796197Y-136629684D01*
X110819858Y-136626174D01*
X110843750Y-136625000D01*
X111756250Y-136625000D01*
X111780142Y-136626174D01*
X111780142Y-136626174D01*
G37*
D24*
X111300000Y-137112500D03*
D23*
G36*
X111780142Y-138501174D02*
G01*
X111803803Y-138504684D01*
X111827007Y-138510496D01*
X111849529Y-138518554D01*
X111871153Y-138528782D01*
X111891670Y-138541079D01*
X111910883Y-138555329D01*
X111928607Y-138571393D01*
X111944671Y-138589117D01*
X111958921Y-138608330D01*
X111971218Y-138628847D01*
X111981446Y-138650471D01*
X111989504Y-138672993D01*
X111995316Y-138696197D01*
X111998826Y-138719858D01*
X112000000Y-138743750D01*
X112000000Y-139231250D01*
X111998826Y-139255142D01*
X111995316Y-139278803D01*
X111989504Y-139302007D01*
X111981446Y-139324529D01*
X111971218Y-139346153D01*
X111958921Y-139366670D01*
X111944671Y-139385883D01*
X111928607Y-139403607D01*
X111910883Y-139419671D01*
X111891670Y-139433921D01*
X111871153Y-139446218D01*
X111849529Y-139456446D01*
X111827007Y-139464504D01*
X111803803Y-139470316D01*
X111780142Y-139473826D01*
X111756250Y-139475000D01*
X110843750Y-139475000D01*
X110819858Y-139473826D01*
X110796197Y-139470316D01*
X110772993Y-139464504D01*
X110750471Y-139456446D01*
X110728847Y-139446218D01*
X110708330Y-139433921D01*
X110689117Y-139419671D01*
X110671393Y-139403607D01*
X110655329Y-139385883D01*
X110641079Y-139366670D01*
X110628782Y-139346153D01*
X110618554Y-139324529D01*
X110610496Y-139302007D01*
X110604684Y-139278803D01*
X110601174Y-139255142D01*
X110600000Y-139231250D01*
X110600000Y-138743750D01*
X110601174Y-138719858D01*
X110604684Y-138696197D01*
X110610496Y-138672993D01*
X110618554Y-138650471D01*
X110628782Y-138628847D01*
X110641079Y-138608330D01*
X110655329Y-138589117D01*
X110671393Y-138571393D01*
X110689117Y-138555329D01*
X110708330Y-138541079D01*
X110728847Y-138528782D01*
X110750471Y-138518554D01*
X110772993Y-138510496D01*
X110796197Y-138504684D01*
X110819858Y-138501174D01*
X110843750Y-138500000D01*
X111756250Y-138500000D01*
X111780142Y-138501174D01*
X111780142Y-138501174D01*
G37*
D24*
X111300000Y-138987500D03*
D23*
G36*
X129830142Y-136626174D02*
G01*
X129853803Y-136629684D01*
X129877007Y-136635496D01*
X129899529Y-136643554D01*
X129921153Y-136653782D01*
X129941670Y-136666079D01*
X129960883Y-136680329D01*
X129978607Y-136696393D01*
X129994671Y-136714117D01*
X130008921Y-136733330D01*
X130021218Y-136753847D01*
X130031446Y-136775471D01*
X130039504Y-136797993D01*
X130045316Y-136821197D01*
X130048826Y-136844858D01*
X130050000Y-136868750D01*
X130050000Y-137356250D01*
X130048826Y-137380142D01*
X130045316Y-137403803D01*
X130039504Y-137427007D01*
X130031446Y-137449529D01*
X130021218Y-137471153D01*
X130008921Y-137491670D01*
X129994671Y-137510883D01*
X129978607Y-137528607D01*
X129960883Y-137544671D01*
X129941670Y-137558921D01*
X129921153Y-137571218D01*
X129899529Y-137581446D01*
X129877007Y-137589504D01*
X129853803Y-137595316D01*
X129830142Y-137598826D01*
X129806250Y-137600000D01*
X128893750Y-137600000D01*
X128869858Y-137598826D01*
X128846197Y-137595316D01*
X128822993Y-137589504D01*
X128800471Y-137581446D01*
X128778847Y-137571218D01*
X128758330Y-137558921D01*
X128739117Y-137544671D01*
X128721393Y-137528607D01*
X128705329Y-137510883D01*
X128691079Y-137491670D01*
X128678782Y-137471153D01*
X128668554Y-137449529D01*
X128660496Y-137427007D01*
X128654684Y-137403803D01*
X128651174Y-137380142D01*
X128650000Y-137356250D01*
X128650000Y-136868750D01*
X128651174Y-136844858D01*
X128654684Y-136821197D01*
X128660496Y-136797993D01*
X128668554Y-136775471D01*
X128678782Y-136753847D01*
X128691079Y-136733330D01*
X128705329Y-136714117D01*
X128721393Y-136696393D01*
X128739117Y-136680329D01*
X128758330Y-136666079D01*
X128778847Y-136653782D01*
X128800471Y-136643554D01*
X128822993Y-136635496D01*
X128846197Y-136629684D01*
X128869858Y-136626174D01*
X128893750Y-136625000D01*
X129806250Y-136625000D01*
X129830142Y-136626174D01*
X129830142Y-136626174D01*
G37*
D24*
X129350000Y-137112500D03*
D23*
G36*
X129830142Y-138501174D02*
G01*
X129853803Y-138504684D01*
X129877007Y-138510496D01*
X129899529Y-138518554D01*
X129921153Y-138528782D01*
X129941670Y-138541079D01*
X129960883Y-138555329D01*
X129978607Y-138571393D01*
X129994671Y-138589117D01*
X130008921Y-138608330D01*
X130021218Y-138628847D01*
X130031446Y-138650471D01*
X130039504Y-138672993D01*
X130045316Y-138696197D01*
X130048826Y-138719858D01*
X130050000Y-138743750D01*
X130050000Y-139231250D01*
X130048826Y-139255142D01*
X130045316Y-139278803D01*
X130039504Y-139302007D01*
X130031446Y-139324529D01*
X130021218Y-139346153D01*
X130008921Y-139366670D01*
X129994671Y-139385883D01*
X129978607Y-139403607D01*
X129960883Y-139419671D01*
X129941670Y-139433921D01*
X129921153Y-139446218D01*
X129899529Y-139456446D01*
X129877007Y-139464504D01*
X129853803Y-139470316D01*
X129830142Y-139473826D01*
X129806250Y-139475000D01*
X128893750Y-139475000D01*
X128869858Y-139473826D01*
X128846197Y-139470316D01*
X128822993Y-139464504D01*
X128800471Y-139456446D01*
X128778847Y-139446218D01*
X128758330Y-139433921D01*
X128739117Y-139419671D01*
X128721393Y-139403607D01*
X128705329Y-139385883D01*
X128691079Y-139366670D01*
X128678782Y-139346153D01*
X128668554Y-139324529D01*
X128660496Y-139302007D01*
X128654684Y-139278803D01*
X128651174Y-139255142D01*
X128650000Y-139231250D01*
X128650000Y-138743750D01*
X128651174Y-138719858D01*
X128654684Y-138696197D01*
X128660496Y-138672993D01*
X128668554Y-138650471D01*
X128678782Y-138628847D01*
X128691079Y-138608330D01*
X128705329Y-138589117D01*
X128721393Y-138571393D01*
X128739117Y-138555329D01*
X128758330Y-138541079D01*
X128778847Y-138528782D01*
X128800471Y-138518554D01*
X128822993Y-138510496D01*
X128846197Y-138504684D01*
X128869858Y-138501174D01*
X128893750Y-138500000D01*
X129806250Y-138500000D01*
X129830142Y-138501174D01*
X129830142Y-138501174D01*
G37*
D24*
X129350000Y-138987500D03*
D23*
G36*
X147830142Y-136576174D02*
G01*
X147853803Y-136579684D01*
X147877007Y-136585496D01*
X147899529Y-136593554D01*
X147921153Y-136603782D01*
X147941670Y-136616079D01*
X147960883Y-136630329D01*
X147978607Y-136646393D01*
X147994671Y-136664117D01*
X148008921Y-136683330D01*
X148021218Y-136703847D01*
X148031446Y-136725471D01*
X148039504Y-136747993D01*
X148045316Y-136771197D01*
X148048826Y-136794858D01*
X148050000Y-136818750D01*
X148050000Y-137306250D01*
X148048826Y-137330142D01*
X148045316Y-137353803D01*
X148039504Y-137377007D01*
X148031446Y-137399529D01*
X148021218Y-137421153D01*
X148008921Y-137441670D01*
X147994671Y-137460883D01*
X147978607Y-137478607D01*
X147960883Y-137494671D01*
X147941670Y-137508921D01*
X147921153Y-137521218D01*
X147899529Y-137531446D01*
X147877007Y-137539504D01*
X147853803Y-137545316D01*
X147830142Y-137548826D01*
X147806250Y-137550000D01*
X146893750Y-137550000D01*
X146869858Y-137548826D01*
X146846197Y-137545316D01*
X146822993Y-137539504D01*
X146800471Y-137531446D01*
X146778847Y-137521218D01*
X146758330Y-137508921D01*
X146739117Y-137494671D01*
X146721393Y-137478607D01*
X146705329Y-137460883D01*
X146691079Y-137441670D01*
X146678782Y-137421153D01*
X146668554Y-137399529D01*
X146660496Y-137377007D01*
X146654684Y-137353803D01*
X146651174Y-137330142D01*
X146650000Y-137306250D01*
X146650000Y-136818750D01*
X146651174Y-136794858D01*
X146654684Y-136771197D01*
X146660496Y-136747993D01*
X146668554Y-136725471D01*
X146678782Y-136703847D01*
X146691079Y-136683330D01*
X146705329Y-136664117D01*
X146721393Y-136646393D01*
X146739117Y-136630329D01*
X146758330Y-136616079D01*
X146778847Y-136603782D01*
X146800471Y-136593554D01*
X146822993Y-136585496D01*
X146846197Y-136579684D01*
X146869858Y-136576174D01*
X146893750Y-136575000D01*
X147806250Y-136575000D01*
X147830142Y-136576174D01*
X147830142Y-136576174D01*
G37*
D24*
X147350000Y-137062500D03*
D23*
G36*
X147830142Y-138451174D02*
G01*
X147853803Y-138454684D01*
X147877007Y-138460496D01*
X147899529Y-138468554D01*
X147921153Y-138478782D01*
X147941670Y-138491079D01*
X147960883Y-138505329D01*
X147978607Y-138521393D01*
X147994671Y-138539117D01*
X148008921Y-138558330D01*
X148021218Y-138578847D01*
X148031446Y-138600471D01*
X148039504Y-138622993D01*
X148045316Y-138646197D01*
X148048826Y-138669858D01*
X148050000Y-138693750D01*
X148050000Y-139181250D01*
X148048826Y-139205142D01*
X148045316Y-139228803D01*
X148039504Y-139252007D01*
X148031446Y-139274529D01*
X148021218Y-139296153D01*
X148008921Y-139316670D01*
X147994671Y-139335883D01*
X147978607Y-139353607D01*
X147960883Y-139369671D01*
X147941670Y-139383921D01*
X147921153Y-139396218D01*
X147899529Y-139406446D01*
X147877007Y-139414504D01*
X147853803Y-139420316D01*
X147830142Y-139423826D01*
X147806250Y-139425000D01*
X146893750Y-139425000D01*
X146869858Y-139423826D01*
X146846197Y-139420316D01*
X146822993Y-139414504D01*
X146800471Y-139406446D01*
X146778847Y-139396218D01*
X146758330Y-139383921D01*
X146739117Y-139369671D01*
X146721393Y-139353607D01*
X146705329Y-139335883D01*
X146691079Y-139316670D01*
X146678782Y-139296153D01*
X146668554Y-139274529D01*
X146660496Y-139252007D01*
X146654684Y-139228803D01*
X146651174Y-139205142D01*
X146650000Y-139181250D01*
X146650000Y-138693750D01*
X146651174Y-138669858D01*
X146654684Y-138646197D01*
X146660496Y-138622993D01*
X146668554Y-138600471D01*
X146678782Y-138578847D01*
X146691079Y-138558330D01*
X146705329Y-138539117D01*
X146721393Y-138521393D01*
X146739117Y-138505329D01*
X146758330Y-138491079D01*
X146778847Y-138478782D01*
X146800471Y-138468554D01*
X146822993Y-138460496D01*
X146846197Y-138454684D01*
X146869858Y-138451174D01*
X146893750Y-138450000D01*
X147806250Y-138450000D01*
X147830142Y-138451174D01*
X147830142Y-138451174D01*
G37*
D24*
X147350000Y-138937500D03*
D23*
G36*
X165830142Y-136576174D02*
G01*
X165853803Y-136579684D01*
X165877007Y-136585496D01*
X165899529Y-136593554D01*
X165921153Y-136603782D01*
X165941670Y-136616079D01*
X165960883Y-136630329D01*
X165978607Y-136646393D01*
X165994671Y-136664117D01*
X166008921Y-136683330D01*
X166021218Y-136703847D01*
X166031446Y-136725471D01*
X166039504Y-136747993D01*
X166045316Y-136771197D01*
X166048826Y-136794858D01*
X166050000Y-136818750D01*
X166050000Y-137306250D01*
X166048826Y-137330142D01*
X166045316Y-137353803D01*
X166039504Y-137377007D01*
X166031446Y-137399529D01*
X166021218Y-137421153D01*
X166008921Y-137441670D01*
X165994671Y-137460883D01*
X165978607Y-137478607D01*
X165960883Y-137494671D01*
X165941670Y-137508921D01*
X165921153Y-137521218D01*
X165899529Y-137531446D01*
X165877007Y-137539504D01*
X165853803Y-137545316D01*
X165830142Y-137548826D01*
X165806250Y-137550000D01*
X164893750Y-137550000D01*
X164869858Y-137548826D01*
X164846197Y-137545316D01*
X164822993Y-137539504D01*
X164800471Y-137531446D01*
X164778847Y-137521218D01*
X164758330Y-137508921D01*
X164739117Y-137494671D01*
X164721393Y-137478607D01*
X164705329Y-137460883D01*
X164691079Y-137441670D01*
X164678782Y-137421153D01*
X164668554Y-137399529D01*
X164660496Y-137377007D01*
X164654684Y-137353803D01*
X164651174Y-137330142D01*
X164650000Y-137306250D01*
X164650000Y-136818750D01*
X164651174Y-136794858D01*
X164654684Y-136771197D01*
X164660496Y-136747993D01*
X164668554Y-136725471D01*
X164678782Y-136703847D01*
X164691079Y-136683330D01*
X164705329Y-136664117D01*
X164721393Y-136646393D01*
X164739117Y-136630329D01*
X164758330Y-136616079D01*
X164778847Y-136603782D01*
X164800471Y-136593554D01*
X164822993Y-136585496D01*
X164846197Y-136579684D01*
X164869858Y-136576174D01*
X164893750Y-136575000D01*
X165806250Y-136575000D01*
X165830142Y-136576174D01*
X165830142Y-136576174D01*
G37*
D24*
X165350000Y-137062500D03*
D23*
G36*
X165830142Y-138451174D02*
G01*
X165853803Y-138454684D01*
X165877007Y-138460496D01*
X165899529Y-138468554D01*
X165921153Y-138478782D01*
X165941670Y-138491079D01*
X165960883Y-138505329D01*
X165978607Y-138521393D01*
X165994671Y-138539117D01*
X166008921Y-138558330D01*
X166021218Y-138578847D01*
X166031446Y-138600471D01*
X166039504Y-138622993D01*
X166045316Y-138646197D01*
X166048826Y-138669858D01*
X166050000Y-138693750D01*
X166050000Y-139181250D01*
X166048826Y-139205142D01*
X166045316Y-139228803D01*
X166039504Y-139252007D01*
X166031446Y-139274529D01*
X166021218Y-139296153D01*
X166008921Y-139316670D01*
X165994671Y-139335883D01*
X165978607Y-139353607D01*
X165960883Y-139369671D01*
X165941670Y-139383921D01*
X165921153Y-139396218D01*
X165899529Y-139406446D01*
X165877007Y-139414504D01*
X165853803Y-139420316D01*
X165830142Y-139423826D01*
X165806250Y-139425000D01*
X164893750Y-139425000D01*
X164869858Y-139423826D01*
X164846197Y-139420316D01*
X164822993Y-139414504D01*
X164800471Y-139406446D01*
X164778847Y-139396218D01*
X164758330Y-139383921D01*
X164739117Y-139369671D01*
X164721393Y-139353607D01*
X164705329Y-139335883D01*
X164691079Y-139316670D01*
X164678782Y-139296153D01*
X164668554Y-139274529D01*
X164660496Y-139252007D01*
X164654684Y-139228803D01*
X164651174Y-139205142D01*
X164650000Y-139181250D01*
X164650000Y-138693750D01*
X164651174Y-138669858D01*
X164654684Y-138646197D01*
X164660496Y-138622993D01*
X164668554Y-138600471D01*
X164678782Y-138578847D01*
X164691079Y-138558330D01*
X164705329Y-138539117D01*
X164721393Y-138521393D01*
X164739117Y-138505329D01*
X164758330Y-138491079D01*
X164778847Y-138478782D01*
X164800471Y-138468554D01*
X164822993Y-138460496D01*
X164846197Y-138454684D01*
X164869858Y-138451174D01*
X164893750Y-138450000D01*
X165806250Y-138450000D01*
X165830142Y-138451174D01*
X165830142Y-138451174D01*
G37*
D24*
X165350000Y-138937500D03*
D23*
G36*
X183730142Y-136576174D02*
G01*
X183753803Y-136579684D01*
X183777007Y-136585496D01*
X183799529Y-136593554D01*
X183821153Y-136603782D01*
X183841670Y-136616079D01*
X183860883Y-136630329D01*
X183878607Y-136646393D01*
X183894671Y-136664117D01*
X183908921Y-136683330D01*
X183921218Y-136703847D01*
X183931446Y-136725471D01*
X183939504Y-136747993D01*
X183945316Y-136771197D01*
X183948826Y-136794858D01*
X183950000Y-136818750D01*
X183950000Y-137306250D01*
X183948826Y-137330142D01*
X183945316Y-137353803D01*
X183939504Y-137377007D01*
X183931446Y-137399529D01*
X183921218Y-137421153D01*
X183908921Y-137441670D01*
X183894671Y-137460883D01*
X183878607Y-137478607D01*
X183860883Y-137494671D01*
X183841670Y-137508921D01*
X183821153Y-137521218D01*
X183799529Y-137531446D01*
X183777007Y-137539504D01*
X183753803Y-137545316D01*
X183730142Y-137548826D01*
X183706250Y-137550000D01*
X182793750Y-137550000D01*
X182769858Y-137548826D01*
X182746197Y-137545316D01*
X182722993Y-137539504D01*
X182700471Y-137531446D01*
X182678847Y-137521218D01*
X182658330Y-137508921D01*
X182639117Y-137494671D01*
X182621393Y-137478607D01*
X182605329Y-137460883D01*
X182591079Y-137441670D01*
X182578782Y-137421153D01*
X182568554Y-137399529D01*
X182560496Y-137377007D01*
X182554684Y-137353803D01*
X182551174Y-137330142D01*
X182550000Y-137306250D01*
X182550000Y-136818750D01*
X182551174Y-136794858D01*
X182554684Y-136771197D01*
X182560496Y-136747993D01*
X182568554Y-136725471D01*
X182578782Y-136703847D01*
X182591079Y-136683330D01*
X182605329Y-136664117D01*
X182621393Y-136646393D01*
X182639117Y-136630329D01*
X182658330Y-136616079D01*
X182678847Y-136603782D01*
X182700471Y-136593554D01*
X182722993Y-136585496D01*
X182746197Y-136579684D01*
X182769858Y-136576174D01*
X182793750Y-136575000D01*
X183706250Y-136575000D01*
X183730142Y-136576174D01*
X183730142Y-136576174D01*
G37*
D24*
X183250000Y-137062500D03*
D23*
G36*
X183730142Y-138451174D02*
G01*
X183753803Y-138454684D01*
X183777007Y-138460496D01*
X183799529Y-138468554D01*
X183821153Y-138478782D01*
X183841670Y-138491079D01*
X183860883Y-138505329D01*
X183878607Y-138521393D01*
X183894671Y-138539117D01*
X183908921Y-138558330D01*
X183921218Y-138578847D01*
X183931446Y-138600471D01*
X183939504Y-138622993D01*
X183945316Y-138646197D01*
X183948826Y-138669858D01*
X183950000Y-138693750D01*
X183950000Y-139181250D01*
X183948826Y-139205142D01*
X183945316Y-139228803D01*
X183939504Y-139252007D01*
X183931446Y-139274529D01*
X183921218Y-139296153D01*
X183908921Y-139316670D01*
X183894671Y-139335883D01*
X183878607Y-139353607D01*
X183860883Y-139369671D01*
X183841670Y-139383921D01*
X183821153Y-139396218D01*
X183799529Y-139406446D01*
X183777007Y-139414504D01*
X183753803Y-139420316D01*
X183730142Y-139423826D01*
X183706250Y-139425000D01*
X182793750Y-139425000D01*
X182769858Y-139423826D01*
X182746197Y-139420316D01*
X182722993Y-139414504D01*
X182700471Y-139406446D01*
X182678847Y-139396218D01*
X182658330Y-139383921D01*
X182639117Y-139369671D01*
X182621393Y-139353607D01*
X182605329Y-139335883D01*
X182591079Y-139316670D01*
X182578782Y-139296153D01*
X182568554Y-139274529D01*
X182560496Y-139252007D01*
X182554684Y-139228803D01*
X182551174Y-139205142D01*
X182550000Y-139181250D01*
X182550000Y-138693750D01*
X182551174Y-138669858D01*
X182554684Y-138646197D01*
X182560496Y-138622993D01*
X182568554Y-138600471D01*
X182578782Y-138578847D01*
X182591079Y-138558330D01*
X182605329Y-138539117D01*
X182621393Y-138521393D01*
X182639117Y-138505329D01*
X182658330Y-138491079D01*
X182678847Y-138478782D01*
X182700471Y-138468554D01*
X182722993Y-138460496D01*
X182746197Y-138454684D01*
X182769858Y-138451174D01*
X182793750Y-138450000D01*
X183706250Y-138450000D01*
X183730142Y-138451174D01*
X183730142Y-138451174D01*
G37*
D24*
X183250000Y-138937500D03*
D23*
G36*
X201830142Y-136626174D02*
G01*
X201853803Y-136629684D01*
X201877007Y-136635496D01*
X201899529Y-136643554D01*
X201921153Y-136653782D01*
X201941670Y-136666079D01*
X201960883Y-136680329D01*
X201978607Y-136696393D01*
X201994671Y-136714117D01*
X202008921Y-136733330D01*
X202021218Y-136753847D01*
X202031446Y-136775471D01*
X202039504Y-136797993D01*
X202045316Y-136821197D01*
X202048826Y-136844858D01*
X202050000Y-136868750D01*
X202050000Y-137356250D01*
X202048826Y-137380142D01*
X202045316Y-137403803D01*
X202039504Y-137427007D01*
X202031446Y-137449529D01*
X202021218Y-137471153D01*
X202008921Y-137491670D01*
X201994671Y-137510883D01*
X201978607Y-137528607D01*
X201960883Y-137544671D01*
X201941670Y-137558921D01*
X201921153Y-137571218D01*
X201899529Y-137581446D01*
X201877007Y-137589504D01*
X201853803Y-137595316D01*
X201830142Y-137598826D01*
X201806250Y-137600000D01*
X200893750Y-137600000D01*
X200869858Y-137598826D01*
X200846197Y-137595316D01*
X200822993Y-137589504D01*
X200800471Y-137581446D01*
X200778847Y-137571218D01*
X200758330Y-137558921D01*
X200739117Y-137544671D01*
X200721393Y-137528607D01*
X200705329Y-137510883D01*
X200691079Y-137491670D01*
X200678782Y-137471153D01*
X200668554Y-137449529D01*
X200660496Y-137427007D01*
X200654684Y-137403803D01*
X200651174Y-137380142D01*
X200650000Y-137356250D01*
X200650000Y-136868750D01*
X200651174Y-136844858D01*
X200654684Y-136821197D01*
X200660496Y-136797993D01*
X200668554Y-136775471D01*
X200678782Y-136753847D01*
X200691079Y-136733330D01*
X200705329Y-136714117D01*
X200721393Y-136696393D01*
X200739117Y-136680329D01*
X200758330Y-136666079D01*
X200778847Y-136653782D01*
X200800471Y-136643554D01*
X200822993Y-136635496D01*
X200846197Y-136629684D01*
X200869858Y-136626174D01*
X200893750Y-136625000D01*
X201806250Y-136625000D01*
X201830142Y-136626174D01*
X201830142Y-136626174D01*
G37*
D24*
X201350000Y-137112500D03*
D23*
G36*
X201830142Y-138501174D02*
G01*
X201853803Y-138504684D01*
X201877007Y-138510496D01*
X201899529Y-138518554D01*
X201921153Y-138528782D01*
X201941670Y-138541079D01*
X201960883Y-138555329D01*
X201978607Y-138571393D01*
X201994671Y-138589117D01*
X202008921Y-138608330D01*
X202021218Y-138628847D01*
X202031446Y-138650471D01*
X202039504Y-138672993D01*
X202045316Y-138696197D01*
X202048826Y-138719858D01*
X202050000Y-138743750D01*
X202050000Y-139231250D01*
X202048826Y-139255142D01*
X202045316Y-139278803D01*
X202039504Y-139302007D01*
X202031446Y-139324529D01*
X202021218Y-139346153D01*
X202008921Y-139366670D01*
X201994671Y-139385883D01*
X201978607Y-139403607D01*
X201960883Y-139419671D01*
X201941670Y-139433921D01*
X201921153Y-139446218D01*
X201899529Y-139456446D01*
X201877007Y-139464504D01*
X201853803Y-139470316D01*
X201830142Y-139473826D01*
X201806250Y-139475000D01*
X200893750Y-139475000D01*
X200869858Y-139473826D01*
X200846197Y-139470316D01*
X200822993Y-139464504D01*
X200800471Y-139456446D01*
X200778847Y-139446218D01*
X200758330Y-139433921D01*
X200739117Y-139419671D01*
X200721393Y-139403607D01*
X200705329Y-139385883D01*
X200691079Y-139366670D01*
X200678782Y-139346153D01*
X200668554Y-139324529D01*
X200660496Y-139302007D01*
X200654684Y-139278803D01*
X200651174Y-139255142D01*
X200650000Y-139231250D01*
X200650000Y-138743750D01*
X200651174Y-138719858D01*
X200654684Y-138696197D01*
X200660496Y-138672993D01*
X200668554Y-138650471D01*
X200678782Y-138628847D01*
X200691079Y-138608330D01*
X200705329Y-138589117D01*
X200721393Y-138571393D01*
X200739117Y-138555329D01*
X200758330Y-138541079D01*
X200778847Y-138528782D01*
X200800471Y-138518554D01*
X200822993Y-138510496D01*
X200846197Y-138504684D01*
X200869858Y-138501174D01*
X200893750Y-138500000D01*
X201806250Y-138500000D01*
X201830142Y-138501174D01*
X201830142Y-138501174D01*
G37*
D24*
X201350000Y-138987500D03*
D23*
G36*
X79480142Y-101576174D02*
G01*
X79503803Y-101579684D01*
X79527007Y-101585496D01*
X79549529Y-101593554D01*
X79571153Y-101603782D01*
X79591670Y-101616079D01*
X79610883Y-101630329D01*
X79628607Y-101646393D01*
X79644671Y-101664117D01*
X79658921Y-101683330D01*
X79671218Y-101703847D01*
X79681446Y-101725471D01*
X79689504Y-101747993D01*
X79695316Y-101771197D01*
X79698826Y-101794858D01*
X79700000Y-101818750D01*
X79700000Y-102306250D01*
X79698826Y-102330142D01*
X79695316Y-102353803D01*
X79689504Y-102377007D01*
X79681446Y-102399529D01*
X79671218Y-102421153D01*
X79658921Y-102441670D01*
X79644671Y-102460883D01*
X79628607Y-102478607D01*
X79610883Y-102494671D01*
X79591670Y-102508921D01*
X79571153Y-102521218D01*
X79549529Y-102531446D01*
X79527007Y-102539504D01*
X79503803Y-102545316D01*
X79480142Y-102548826D01*
X79456250Y-102550000D01*
X78543750Y-102550000D01*
X78519858Y-102548826D01*
X78496197Y-102545316D01*
X78472993Y-102539504D01*
X78450471Y-102531446D01*
X78428847Y-102521218D01*
X78408330Y-102508921D01*
X78389117Y-102494671D01*
X78371393Y-102478607D01*
X78355329Y-102460883D01*
X78341079Y-102441670D01*
X78328782Y-102421153D01*
X78318554Y-102399529D01*
X78310496Y-102377007D01*
X78304684Y-102353803D01*
X78301174Y-102330142D01*
X78300000Y-102306250D01*
X78300000Y-101818750D01*
X78301174Y-101794858D01*
X78304684Y-101771197D01*
X78310496Y-101747993D01*
X78318554Y-101725471D01*
X78328782Y-101703847D01*
X78341079Y-101683330D01*
X78355329Y-101664117D01*
X78371393Y-101646393D01*
X78389117Y-101630329D01*
X78408330Y-101616079D01*
X78428847Y-101603782D01*
X78450471Y-101593554D01*
X78472993Y-101585496D01*
X78496197Y-101579684D01*
X78519858Y-101576174D01*
X78543750Y-101575000D01*
X79456250Y-101575000D01*
X79480142Y-101576174D01*
X79480142Y-101576174D01*
G37*
D24*
X79000000Y-102062500D03*
D23*
G36*
X79480142Y-103451174D02*
G01*
X79503803Y-103454684D01*
X79527007Y-103460496D01*
X79549529Y-103468554D01*
X79571153Y-103478782D01*
X79591670Y-103491079D01*
X79610883Y-103505329D01*
X79628607Y-103521393D01*
X79644671Y-103539117D01*
X79658921Y-103558330D01*
X79671218Y-103578847D01*
X79681446Y-103600471D01*
X79689504Y-103622993D01*
X79695316Y-103646197D01*
X79698826Y-103669858D01*
X79700000Y-103693750D01*
X79700000Y-104181250D01*
X79698826Y-104205142D01*
X79695316Y-104228803D01*
X79689504Y-104252007D01*
X79681446Y-104274529D01*
X79671218Y-104296153D01*
X79658921Y-104316670D01*
X79644671Y-104335883D01*
X79628607Y-104353607D01*
X79610883Y-104369671D01*
X79591670Y-104383921D01*
X79571153Y-104396218D01*
X79549529Y-104406446D01*
X79527007Y-104414504D01*
X79503803Y-104420316D01*
X79480142Y-104423826D01*
X79456250Y-104425000D01*
X78543750Y-104425000D01*
X78519858Y-104423826D01*
X78496197Y-104420316D01*
X78472993Y-104414504D01*
X78450471Y-104406446D01*
X78428847Y-104396218D01*
X78408330Y-104383921D01*
X78389117Y-104369671D01*
X78371393Y-104353607D01*
X78355329Y-104335883D01*
X78341079Y-104316670D01*
X78328782Y-104296153D01*
X78318554Y-104274529D01*
X78310496Y-104252007D01*
X78304684Y-104228803D01*
X78301174Y-104205142D01*
X78300000Y-104181250D01*
X78300000Y-103693750D01*
X78301174Y-103669858D01*
X78304684Y-103646197D01*
X78310496Y-103622993D01*
X78318554Y-103600471D01*
X78328782Y-103578847D01*
X78341079Y-103558330D01*
X78355329Y-103539117D01*
X78371393Y-103521393D01*
X78389117Y-103505329D01*
X78408330Y-103491079D01*
X78428847Y-103478782D01*
X78450471Y-103468554D01*
X78472993Y-103460496D01*
X78496197Y-103454684D01*
X78519858Y-103451174D01*
X78543750Y-103450000D01*
X79456250Y-103450000D01*
X79480142Y-103451174D01*
X79480142Y-103451174D01*
G37*
D24*
X79000000Y-103937500D03*
D23*
G36*
X82980142Y-101576174D02*
G01*
X83003803Y-101579684D01*
X83027007Y-101585496D01*
X83049529Y-101593554D01*
X83071153Y-101603782D01*
X83091670Y-101616079D01*
X83110883Y-101630329D01*
X83128607Y-101646393D01*
X83144671Y-101664117D01*
X83158921Y-101683330D01*
X83171218Y-101703847D01*
X83181446Y-101725471D01*
X83189504Y-101747993D01*
X83195316Y-101771197D01*
X83198826Y-101794858D01*
X83200000Y-101818750D01*
X83200000Y-102306250D01*
X83198826Y-102330142D01*
X83195316Y-102353803D01*
X83189504Y-102377007D01*
X83181446Y-102399529D01*
X83171218Y-102421153D01*
X83158921Y-102441670D01*
X83144671Y-102460883D01*
X83128607Y-102478607D01*
X83110883Y-102494671D01*
X83091670Y-102508921D01*
X83071153Y-102521218D01*
X83049529Y-102531446D01*
X83027007Y-102539504D01*
X83003803Y-102545316D01*
X82980142Y-102548826D01*
X82956250Y-102550000D01*
X82043750Y-102550000D01*
X82019858Y-102548826D01*
X81996197Y-102545316D01*
X81972993Y-102539504D01*
X81950471Y-102531446D01*
X81928847Y-102521218D01*
X81908330Y-102508921D01*
X81889117Y-102494671D01*
X81871393Y-102478607D01*
X81855329Y-102460883D01*
X81841079Y-102441670D01*
X81828782Y-102421153D01*
X81818554Y-102399529D01*
X81810496Y-102377007D01*
X81804684Y-102353803D01*
X81801174Y-102330142D01*
X81800000Y-102306250D01*
X81800000Y-101818750D01*
X81801174Y-101794858D01*
X81804684Y-101771197D01*
X81810496Y-101747993D01*
X81818554Y-101725471D01*
X81828782Y-101703847D01*
X81841079Y-101683330D01*
X81855329Y-101664117D01*
X81871393Y-101646393D01*
X81889117Y-101630329D01*
X81908330Y-101616079D01*
X81928847Y-101603782D01*
X81950471Y-101593554D01*
X81972993Y-101585496D01*
X81996197Y-101579684D01*
X82019858Y-101576174D01*
X82043750Y-101575000D01*
X82956250Y-101575000D01*
X82980142Y-101576174D01*
X82980142Y-101576174D01*
G37*
D24*
X82500000Y-102062500D03*
D23*
G36*
X82980142Y-103451174D02*
G01*
X83003803Y-103454684D01*
X83027007Y-103460496D01*
X83049529Y-103468554D01*
X83071153Y-103478782D01*
X83091670Y-103491079D01*
X83110883Y-103505329D01*
X83128607Y-103521393D01*
X83144671Y-103539117D01*
X83158921Y-103558330D01*
X83171218Y-103578847D01*
X83181446Y-103600471D01*
X83189504Y-103622993D01*
X83195316Y-103646197D01*
X83198826Y-103669858D01*
X83200000Y-103693750D01*
X83200000Y-104181250D01*
X83198826Y-104205142D01*
X83195316Y-104228803D01*
X83189504Y-104252007D01*
X83181446Y-104274529D01*
X83171218Y-104296153D01*
X83158921Y-104316670D01*
X83144671Y-104335883D01*
X83128607Y-104353607D01*
X83110883Y-104369671D01*
X83091670Y-104383921D01*
X83071153Y-104396218D01*
X83049529Y-104406446D01*
X83027007Y-104414504D01*
X83003803Y-104420316D01*
X82980142Y-104423826D01*
X82956250Y-104425000D01*
X82043750Y-104425000D01*
X82019858Y-104423826D01*
X81996197Y-104420316D01*
X81972993Y-104414504D01*
X81950471Y-104406446D01*
X81928847Y-104396218D01*
X81908330Y-104383921D01*
X81889117Y-104369671D01*
X81871393Y-104353607D01*
X81855329Y-104335883D01*
X81841079Y-104316670D01*
X81828782Y-104296153D01*
X81818554Y-104274529D01*
X81810496Y-104252007D01*
X81804684Y-104228803D01*
X81801174Y-104205142D01*
X81800000Y-104181250D01*
X81800000Y-103693750D01*
X81801174Y-103669858D01*
X81804684Y-103646197D01*
X81810496Y-103622993D01*
X81818554Y-103600471D01*
X81828782Y-103578847D01*
X81841079Y-103558330D01*
X81855329Y-103539117D01*
X81871393Y-103521393D01*
X81889117Y-103505329D01*
X81908330Y-103491079D01*
X81928847Y-103478782D01*
X81950471Y-103468554D01*
X81972993Y-103460496D01*
X81996197Y-103454684D01*
X82019858Y-103451174D01*
X82043750Y-103450000D01*
X82956250Y-103450000D01*
X82980142Y-103451174D01*
X82980142Y-103451174D01*
G37*
D24*
X82500000Y-103937500D03*
D23*
G36*
X86480142Y-101576174D02*
G01*
X86503803Y-101579684D01*
X86527007Y-101585496D01*
X86549529Y-101593554D01*
X86571153Y-101603782D01*
X86591670Y-101616079D01*
X86610883Y-101630329D01*
X86628607Y-101646393D01*
X86644671Y-101664117D01*
X86658921Y-101683330D01*
X86671218Y-101703847D01*
X86681446Y-101725471D01*
X86689504Y-101747993D01*
X86695316Y-101771197D01*
X86698826Y-101794858D01*
X86700000Y-101818750D01*
X86700000Y-102306250D01*
X86698826Y-102330142D01*
X86695316Y-102353803D01*
X86689504Y-102377007D01*
X86681446Y-102399529D01*
X86671218Y-102421153D01*
X86658921Y-102441670D01*
X86644671Y-102460883D01*
X86628607Y-102478607D01*
X86610883Y-102494671D01*
X86591670Y-102508921D01*
X86571153Y-102521218D01*
X86549529Y-102531446D01*
X86527007Y-102539504D01*
X86503803Y-102545316D01*
X86480142Y-102548826D01*
X86456250Y-102550000D01*
X85543750Y-102550000D01*
X85519858Y-102548826D01*
X85496197Y-102545316D01*
X85472993Y-102539504D01*
X85450471Y-102531446D01*
X85428847Y-102521218D01*
X85408330Y-102508921D01*
X85389117Y-102494671D01*
X85371393Y-102478607D01*
X85355329Y-102460883D01*
X85341079Y-102441670D01*
X85328782Y-102421153D01*
X85318554Y-102399529D01*
X85310496Y-102377007D01*
X85304684Y-102353803D01*
X85301174Y-102330142D01*
X85300000Y-102306250D01*
X85300000Y-101818750D01*
X85301174Y-101794858D01*
X85304684Y-101771197D01*
X85310496Y-101747993D01*
X85318554Y-101725471D01*
X85328782Y-101703847D01*
X85341079Y-101683330D01*
X85355329Y-101664117D01*
X85371393Y-101646393D01*
X85389117Y-101630329D01*
X85408330Y-101616079D01*
X85428847Y-101603782D01*
X85450471Y-101593554D01*
X85472993Y-101585496D01*
X85496197Y-101579684D01*
X85519858Y-101576174D01*
X85543750Y-101575000D01*
X86456250Y-101575000D01*
X86480142Y-101576174D01*
X86480142Y-101576174D01*
G37*
D24*
X86000000Y-102062500D03*
D23*
G36*
X86480142Y-103451174D02*
G01*
X86503803Y-103454684D01*
X86527007Y-103460496D01*
X86549529Y-103468554D01*
X86571153Y-103478782D01*
X86591670Y-103491079D01*
X86610883Y-103505329D01*
X86628607Y-103521393D01*
X86644671Y-103539117D01*
X86658921Y-103558330D01*
X86671218Y-103578847D01*
X86681446Y-103600471D01*
X86689504Y-103622993D01*
X86695316Y-103646197D01*
X86698826Y-103669858D01*
X86700000Y-103693750D01*
X86700000Y-104181250D01*
X86698826Y-104205142D01*
X86695316Y-104228803D01*
X86689504Y-104252007D01*
X86681446Y-104274529D01*
X86671218Y-104296153D01*
X86658921Y-104316670D01*
X86644671Y-104335883D01*
X86628607Y-104353607D01*
X86610883Y-104369671D01*
X86591670Y-104383921D01*
X86571153Y-104396218D01*
X86549529Y-104406446D01*
X86527007Y-104414504D01*
X86503803Y-104420316D01*
X86480142Y-104423826D01*
X86456250Y-104425000D01*
X85543750Y-104425000D01*
X85519858Y-104423826D01*
X85496197Y-104420316D01*
X85472993Y-104414504D01*
X85450471Y-104406446D01*
X85428847Y-104396218D01*
X85408330Y-104383921D01*
X85389117Y-104369671D01*
X85371393Y-104353607D01*
X85355329Y-104335883D01*
X85341079Y-104316670D01*
X85328782Y-104296153D01*
X85318554Y-104274529D01*
X85310496Y-104252007D01*
X85304684Y-104228803D01*
X85301174Y-104205142D01*
X85300000Y-104181250D01*
X85300000Y-103693750D01*
X85301174Y-103669858D01*
X85304684Y-103646197D01*
X85310496Y-103622993D01*
X85318554Y-103600471D01*
X85328782Y-103578847D01*
X85341079Y-103558330D01*
X85355329Y-103539117D01*
X85371393Y-103521393D01*
X85389117Y-103505329D01*
X85408330Y-103491079D01*
X85428847Y-103478782D01*
X85450471Y-103468554D01*
X85472993Y-103460496D01*
X85496197Y-103454684D01*
X85519858Y-103451174D01*
X85543750Y-103450000D01*
X86456250Y-103450000D01*
X86480142Y-103451174D01*
X86480142Y-103451174D01*
G37*
D24*
X86000000Y-103937500D03*
M02*
