G04 #@! TF.GenerationSoftware,KiCad,Pcbnew,(5.1.4)-1*
G04 #@! TF.CreationDate,2019-09-05T13:30:01+01:00*
G04 #@! TF.ProjectId,lpa96,6c706139-362e-46b6-9963-61645f706362,2.1*
G04 #@! TF.SameCoordinates,Original*
G04 #@! TF.FileFunction,Soldermask,Top*
G04 #@! TF.FilePolarity,Negative*
%FSLAX46Y46*%
G04 Gerber Fmt 4.6, Leading zero omitted, Abs format (unit mm)*
G04 Created by KiCad (PCBNEW (5.1.4)-1) date 2019-09-05 13:30:01*
%MOMM*%
%LPD*%
G04 APERTURE LIST*
%ADD10C,0.100000*%
%ADD11R,1.540000X0.850000*%
%ADD12R,2.400000X2.400000*%
%ADD13C,2.600000*%
%ADD14R,1.624000X1.624000*%
%ADD15C,1.624000*%
%ADD16R,1.650000X1.400000*%
%ADD17C,1.700000*%
%ADD18C,0.150000*%
%ADD19C,1.075000*%
%ADD20C,4.164000*%
G04 APERTURE END LIST*
D10*
X67000000Y-168500000D02*
X67000000Y-94500000D01*
X210000000Y-168500000D02*
X67000000Y-168500000D01*
X210000000Y-94500000D02*
X210000000Y-168500000D01*
X67000000Y-94500000D02*
X210000000Y-94500000D01*
D11*
X98260000Y-163000000D03*
X101740000Y-163000000D03*
X98260000Y-154000000D03*
X101740000Y-154000000D03*
X98260000Y-145000000D03*
X101740000Y-145000000D03*
X98260000Y-136000000D03*
X101740000Y-136000000D03*
X98260000Y-127000000D03*
X101740000Y-127000000D03*
X98260000Y-118000000D03*
X101740000Y-118000000D03*
X98260000Y-109000000D03*
X101740000Y-109000000D03*
X98260000Y-100000000D03*
X101740000Y-100000000D03*
X110740000Y-100000000D03*
X107260000Y-100000000D03*
X110740000Y-109000000D03*
X107260000Y-109000000D03*
X110740000Y-118000000D03*
X107260000Y-118000000D03*
X110740000Y-127000000D03*
X107260000Y-127000000D03*
X110740000Y-136000000D03*
X107260000Y-136000000D03*
X110740000Y-145000000D03*
X107260000Y-145000000D03*
X110740000Y-154000000D03*
X107260000Y-154000000D03*
X110740000Y-163000000D03*
X107260000Y-163000000D03*
X116260000Y-163000000D03*
X119740000Y-163000000D03*
X116260000Y-154000000D03*
X119740000Y-154000000D03*
X116260000Y-145000000D03*
X119740000Y-145000000D03*
X116260000Y-136000000D03*
X119740000Y-136000000D03*
X116260000Y-127000000D03*
X119740000Y-127000000D03*
X116260000Y-118000000D03*
X119740000Y-118000000D03*
X116260000Y-109000000D03*
X119740000Y-109000000D03*
X116260000Y-100000000D03*
X119740000Y-100000000D03*
X128740000Y-100000000D03*
X125260000Y-100000000D03*
X128740000Y-109000000D03*
X125260000Y-109000000D03*
X128740000Y-118000000D03*
X125260000Y-118000000D03*
X128740000Y-127000000D03*
X125260000Y-127000000D03*
X128740000Y-136000000D03*
X125260000Y-136000000D03*
X128740000Y-145000000D03*
X125260000Y-145000000D03*
X128740000Y-154000000D03*
X125260000Y-154000000D03*
X128740000Y-163000000D03*
X125260000Y-163000000D03*
X134260000Y-163000000D03*
X137740000Y-163000000D03*
X134260000Y-154000000D03*
X137740000Y-154000000D03*
X134260000Y-145000000D03*
X137740000Y-145000000D03*
X134260000Y-136000000D03*
X137740000Y-136000000D03*
X134260000Y-127000000D03*
X137740000Y-127000000D03*
X134260000Y-118000000D03*
X137740000Y-118000000D03*
X134260000Y-109000000D03*
X137740000Y-109000000D03*
X134260000Y-100000000D03*
X137740000Y-100000000D03*
X146740000Y-100000000D03*
X143260000Y-100000000D03*
X146740000Y-109000000D03*
X143260000Y-109000000D03*
X146740000Y-118000000D03*
X143260000Y-118000000D03*
X146740000Y-127000000D03*
X143260000Y-127000000D03*
X146740000Y-136000000D03*
X143260000Y-136000000D03*
X146740000Y-145000000D03*
X143260000Y-145000000D03*
X146740000Y-154000000D03*
X143260000Y-154000000D03*
X146740000Y-163000000D03*
X143260000Y-163000000D03*
X152260000Y-163000000D03*
X155740000Y-163000000D03*
X152260000Y-154000000D03*
X155740000Y-154000000D03*
X152260000Y-145000000D03*
X155740000Y-145000000D03*
X152260000Y-136000000D03*
X155740000Y-136000000D03*
X152260000Y-127000000D03*
X155740000Y-127000000D03*
X152260000Y-118000000D03*
X155740000Y-118000000D03*
X152260000Y-109000000D03*
X155740000Y-109000000D03*
X152260000Y-100000000D03*
X155740000Y-100000000D03*
X164740000Y-100000000D03*
X161260000Y-100000000D03*
X164740000Y-109000000D03*
X161260000Y-109000000D03*
X164740000Y-118000000D03*
X161260000Y-118000000D03*
X164740000Y-127000000D03*
X161260000Y-127000000D03*
X164740000Y-136000000D03*
X161260000Y-136000000D03*
X164740000Y-145000000D03*
X161260000Y-145000000D03*
X164740000Y-154000000D03*
X161260000Y-154000000D03*
X164740000Y-163000000D03*
X161260000Y-163000000D03*
X170260000Y-163000000D03*
X173740000Y-163000000D03*
X170260000Y-154000000D03*
X173740000Y-154000000D03*
X170260000Y-145000000D03*
X173740000Y-145000000D03*
X170260000Y-136000000D03*
X173740000Y-136000000D03*
X170260000Y-127000000D03*
X173740000Y-127000000D03*
X170260000Y-118000000D03*
X173740000Y-118000000D03*
X170260000Y-109000000D03*
X173740000Y-109000000D03*
X170260000Y-100000000D03*
X173740000Y-100000000D03*
X182740000Y-100000000D03*
X179260000Y-100000000D03*
X182740000Y-109000000D03*
X179260000Y-109000000D03*
X182740000Y-118000000D03*
X179260000Y-118000000D03*
X182740000Y-127000000D03*
X179260000Y-127000000D03*
X182740000Y-136000000D03*
X179260000Y-136000000D03*
X182740000Y-145000000D03*
X179260000Y-145000000D03*
X182740000Y-154000000D03*
X179260000Y-154000000D03*
X182740000Y-163000000D03*
X179260000Y-163000000D03*
X188260000Y-163000000D03*
X191740000Y-163000000D03*
X188260000Y-154000000D03*
X191740000Y-154000000D03*
X188260000Y-145000000D03*
X191740000Y-145000000D03*
X188260000Y-136000000D03*
X191740000Y-136000000D03*
X188260000Y-127000000D03*
X191740000Y-127000000D03*
X188260000Y-118000000D03*
X191740000Y-118000000D03*
X188260000Y-109000000D03*
X191740000Y-109000000D03*
X188260000Y-100000000D03*
X191740000Y-100000000D03*
X200740000Y-100000000D03*
X197260000Y-100000000D03*
X200740000Y-109000000D03*
X197260000Y-109000000D03*
X200740000Y-118000000D03*
X197260000Y-118000000D03*
X200740000Y-127000000D03*
X197260000Y-127000000D03*
X200740000Y-136000000D03*
X197260000Y-136000000D03*
X200740000Y-145000000D03*
X197260000Y-145000000D03*
X200740000Y-154000000D03*
X197260000Y-154000000D03*
X200740000Y-163000000D03*
X197260000Y-163000000D03*
D12*
X68520000Y-162500000D03*
D13*
X72480000Y-162500000D03*
D14*
X72140000Y-118040000D03*
D15*
X69600000Y-118040000D03*
X72140000Y-115500000D03*
X69600000Y-115500000D03*
X72140000Y-112960000D03*
X69600000Y-112960000D03*
D16*
X69025000Y-100750000D03*
X69025000Y-96250000D03*
X76975000Y-96250000D03*
X76975000Y-100750000D03*
D17*
X68500000Y-125700000D03*
X68500000Y-149850000D03*
D18*
G36*
X85732592Y-127751294D02*
G01*
X85758681Y-127755164D01*
X85784264Y-127761572D01*
X85809096Y-127770457D01*
X85832938Y-127781734D01*
X85855560Y-127795293D01*
X85876743Y-127811003D01*
X85896285Y-127828715D01*
X85913997Y-127848257D01*
X85929707Y-127869440D01*
X85943266Y-127892062D01*
X85954543Y-127915904D01*
X85963428Y-127940736D01*
X85969836Y-127966319D01*
X85973706Y-127992408D01*
X85975000Y-128018750D01*
X85975000Y-128981250D01*
X85973706Y-129007592D01*
X85969836Y-129033681D01*
X85963428Y-129059264D01*
X85954543Y-129084096D01*
X85943266Y-129107938D01*
X85929707Y-129130560D01*
X85913997Y-129151743D01*
X85896285Y-129171285D01*
X85876743Y-129188997D01*
X85855560Y-129204707D01*
X85832938Y-129218266D01*
X85809096Y-129229543D01*
X85784264Y-129238428D01*
X85758681Y-129244836D01*
X85732592Y-129248706D01*
X85706250Y-129250000D01*
X85168750Y-129250000D01*
X85142408Y-129248706D01*
X85116319Y-129244836D01*
X85090736Y-129238428D01*
X85065904Y-129229543D01*
X85042062Y-129218266D01*
X85019440Y-129204707D01*
X84998257Y-129188997D01*
X84978715Y-129171285D01*
X84961003Y-129151743D01*
X84945293Y-129130560D01*
X84931734Y-129107938D01*
X84920457Y-129084096D01*
X84911572Y-129059264D01*
X84905164Y-129033681D01*
X84901294Y-129007592D01*
X84900000Y-128981250D01*
X84900000Y-128018750D01*
X84901294Y-127992408D01*
X84905164Y-127966319D01*
X84911572Y-127940736D01*
X84920457Y-127915904D01*
X84931734Y-127892062D01*
X84945293Y-127869440D01*
X84961003Y-127848257D01*
X84978715Y-127828715D01*
X84998257Y-127811003D01*
X85019440Y-127795293D01*
X85042062Y-127781734D01*
X85065904Y-127770457D01*
X85090736Y-127761572D01*
X85116319Y-127755164D01*
X85142408Y-127751294D01*
X85168750Y-127750000D01*
X85706250Y-127750000D01*
X85732592Y-127751294D01*
X85732592Y-127751294D01*
G37*
D19*
X85437500Y-128500000D03*
D18*
G36*
X83857592Y-127751294D02*
G01*
X83883681Y-127755164D01*
X83909264Y-127761572D01*
X83934096Y-127770457D01*
X83957938Y-127781734D01*
X83980560Y-127795293D01*
X84001743Y-127811003D01*
X84021285Y-127828715D01*
X84038997Y-127848257D01*
X84054707Y-127869440D01*
X84068266Y-127892062D01*
X84079543Y-127915904D01*
X84088428Y-127940736D01*
X84094836Y-127966319D01*
X84098706Y-127992408D01*
X84100000Y-128018750D01*
X84100000Y-128981250D01*
X84098706Y-129007592D01*
X84094836Y-129033681D01*
X84088428Y-129059264D01*
X84079543Y-129084096D01*
X84068266Y-129107938D01*
X84054707Y-129130560D01*
X84038997Y-129151743D01*
X84021285Y-129171285D01*
X84001743Y-129188997D01*
X83980560Y-129204707D01*
X83957938Y-129218266D01*
X83934096Y-129229543D01*
X83909264Y-129238428D01*
X83883681Y-129244836D01*
X83857592Y-129248706D01*
X83831250Y-129250000D01*
X83293750Y-129250000D01*
X83267408Y-129248706D01*
X83241319Y-129244836D01*
X83215736Y-129238428D01*
X83190904Y-129229543D01*
X83167062Y-129218266D01*
X83144440Y-129204707D01*
X83123257Y-129188997D01*
X83103715Y-129171285D01*
X83086003Y-129151743D01*
X83070293Y-129130560D01*
X83056734Y-129107938D01*
X83045457Y-129084096D01*
X83036572Y-129059264D01*
X83030164Y-129033681D01*
X83026294Y-129007592D01*
X83025000Y-128981250D01*
X83025000Y-128018750D01*
X83026294Y-127992408D01*
X83030164Y-127966319D01*
X83036572Y-127940736D01*
X83045457Y-127915904D01*
X83056734Y-127892062D01*
X83070293Y-127869440D01*
X83086003Y-127848257D01*
X83103715Y-127828715D01*
X83123257Y-127811003D01*
X83144440Y-127795293D01*
X83167062Y-127781734D01*
X83190904Y-127770457D01*
X83215736Y-127761572D01*
X83241319Y-127755164D01*
X83267408Y-127751294D01*
X83293750Y-127750000D01*
X83831250Y-127750000D01*
X83857592Y-127751294D01*
X83857592Y-127751294D01*
G37*
D19*
X83562500Y-128500000D03*
D18*
G36*
X85732592Y-130251294D02*
G01*
X85758681Y-130255164D01*
X85784264Y-130261572D01*
X85809096Y-130270457D01*
X85832938Y-130281734D01*
X85855560Y-130295293D01*
X85876743Y-130311003D01*
X85896285Y-130328715D01*
X85913997Y-130348257D01*
X85929707Y-130369440D01*
X85943266Y-130392062D01*
X85954543Y-130415904D01*
X85963428Y-130440736D01*
X85969836Y-130466319D01*
X85973706Y-130492408D01*
X85975000Y-130518750D01*
X85975000Y-131481250D01*
X85973706Y-131507592D01*
X85969836Y-131533681D01*
X85963428Y-131559264D01*
X85954543Y-131584096D01*
X85943266Y-131607938D01*
X85929707Y-131630560D01*
X85913997Y-131651743D01*
X85896285Y-131671285D01*
X85876743Y-131688997D01*
X85855560Y-131704707D01*
X85832938Y-131718266D01*
X85809096Y-131729543D01*
X85784264Y-131738428D01*
X85758681Y-131744836D01*
X85732592Y-131748706D01*
X85706250Y-131750000D01*
X85168750Y-131750000D01*
X85142408Y-131748706D01*
X85116319Y-131744836D01*
X85090736Y-131738428D01*
X85065904Y-131729543D01*
X85042062Y-131718266D01*
X85019440Y-131704707D01*
X84998257Y-131688997D01*
X84978715Y-131671285D01*
X84961003Y-131651743D01*
X84945293Y-131630560D01*
X84931734Y-131607938D01*
X84920457Y-131584096D01*
X84911572Y-131559264D01*
X84905164Y-131533681D01*
X84901294Y-131507592D01*
X84900000Y-131481250D01*
X84900000Y-130518750D01*
X84901294Y-130492408D01*
X84905164Y-130466319D01*
X84911572Y-130440736D01*
X84920457Y-130415904D01*
X84931734Y-130392062D01*
X84945293Y-130369440D01*
X84961003Y-130348257D01*
X84978715Y-130328715D01*
X84998257Y-130311003D01*
X85019440Y-130295293D01*
X85042062Y-130281734D01*
X85065904Y-130270457D01*
X85090736Y-130261572D01*
X85116319Y-130255164D01*
X85142408Y-130251294D01*
X85168750Y-130250000D01*
X85706250Y-130250000D01*
X85732592Y-130251294D01*
X85732592Y-130251294D01*
G37*
D19*
X85437500Y-131000000D03*
D18*
G36*
X83857592Y-130251294D02*
G01*
X83883681Y-130255164D01*
X83909264Y-130261572D01*
X83934096Y-130270457D01*
X83957938Y-130281734D01*
X83980560Y-130295293D01*
X84001743Y-130311003D01*
X84021285Y-130328715D01*
X84038997Y-130348257D01*
X84054707Y-130369440D01*
X84068266Y-130392062D01*
X84079543Y-130415904D01*
X84088428Y-130440736D01*
X84094836Y-130466319D01*
X84098706Y-130492408D01*
X84100000Y-130518750D01*
X84100000Y-131481250D01*
X84098706Y-131507592D01*
X84094836Y-131533681D01*
X84088428Y-131559264D01*
X84079543Y-131584096D01*
X84068266Y-131607938D01*
X84054707Y-131630560D01*
X84038997Y-131651743D01*
X84021285Y-131671285D01*
X84001743Y-131688997D01*
X83980560Y-131704707D01*
X83957938Y-131718266D01*
X83934096Y-131729543D01*
X83909264Y-131738428D01*
X83883681Y-131744836D01*
X83857592Y-131748706D01*
X83831250Y-131750000D01*
X83293750Y-131750000D01*
X83267408Y-131748706D01*
X83241319Y-131744836D01*
X83215736Y-131738428D01*
X83190904Y-131729543D01*
X83167062Y-131718266D01*
X83144440Y-131704707D01*
X83123257Y-131688997D01*
X83103715Y-131671285D01*
X83086003Y-131651743D01*
X83070293Y-131630560D01*
X83056734Y-131607938D01*
X83045457Y-131584096D01*
X83036572Y-131559264D01*
X83030164Y-131533681D01*
X83026294Y-131507592D01*
X83025000Y-131481250D01*
X83025000Y-130518750D01*
X83026294Y-130492408D01*
X83030164Y-130466319D01*
X83036572Y-130440736D01*
X83045457Y-130415904D01*
X83056734Y-130392062D01*
X83070293Y-130369440D01*
X83086003Y-130348257D01*
X83103715Y-130328715D01*
X83123257Y-130311003D01*
X83144440Y-130295293D01*
X83167062Y-130281734D01*
X83190904Y-130270457D01*
X83215736Y-130261572D01*
X83241319Y-130255164D01*
X83267408Y-130251294D01*
X83293750Y-130250000D01*
X83831250Y-130250000D01*
X83857592Y-130251294D01*
X83857592Y-130251294D01*
G37*
D19*
X83562500Y-131000000D03*
D18*
G36*
X85732592Y-132751294D02*
G01*
X85758681Y-132755164D01*
X85784264Y-132761572D01*
X85809096Y-132770457D01*
X85832938Y-132781734D01*
X85855560Y-132795293D01*
X85876743Y-132811003D01*
X85896285Y-132828715D01*
X85913997Y-132848257D01*
X85929707Y-132869440D01*
X85943266Y-132892062D01*
X85954543Y-132915904D01*
X85963428Y-132940736D01*
X85969836Y-132966319D01*
X85973706Y-132992408D01*
X85975000Y-133018750D01*
X85975000Y-133981250D01*
X85973706Y-134007592D01*
X85969836Y-134033681D01*
X85963428Y-134059264D01*
X85954543Y-134084096D01*
X85943266Y-134107938D01*
X85929707Y-134130560D01*
X85913997Y-134151743D01*
X85896285Y-134171285D01*
X85876743Y-134188997D01*
X85855560Y-134204707D01*
X85832938Y-134218266D01*
X85809096Y-134229543D01*
X85784264Y-134238428D01*
X85758681Y-134244836D01*
X85732592Y-134248706D01*
X85706250Y-134250000D01*
X85168750Y-134250000D01*
X85142408Y-134248706D01*
X85116319Y-134244836D01*
X85090736Y-134238428D01*
X85065904Y-134229543D01*
X85042062Y-134218266D01*
X85019440Y-134204707D01*
X84998257Y-134188997D01*
X84978715Y-134171285D01*
X84961003Y-134151743D01*
X84945293Y-134130560D01*
X84931734Y-134107938D01*
X84920457Y-134084096D01*
X84911572Y-134059264D01*
X84905164Y-134033681D01*
X84901294Y-134007592D01*
X84900000Y-133981250D01*
X84900000Y-133018750D01*
X84901294Y-132992408D01*
X84905164Y-132966319D01*
X84911572Y-132940736D01*
X84920457Y-132915904D01*
X84931734Y-132892062D01*
X84945293Y-132869440D01*
X84961003Y-132848257D01*
X84978715Y-132828715D01*
X84998257Y-132811003D01*
X85019440Y-132795293D01*
X85042062Y-132781734D01*
X85065904Y-132770457D01*
X85090736Y-132761572D01*
X85116319Y-132755164D01*
X85142408Y-132751294D01*
X85168750Y-132750000D01*
X85706250Y-132750000D01*
X85732592Y-132751294D01*
X85732592Y-132751294D01*
G37*
D19*
X85437500Y-133500000D03*
D18*
G36*
X83857592Y-132751294D02*
G01*
X83883681Y-132755164D01*
X83909264Y-132761572D01*
X83934096Y-132770457D01*
X83957938Y-132781734D01*
X83980560Y-132795293D01*
X84001743Y-132811003D01*
X84021285Y-132828715D01*
X84038997Y-132848257D01*
X84054707Y-132869440D01*
X84068266Y-132892062D01*
X84079543Y-132915904D01*
X84088428Y-132940736D01*
X84094836Y-132966319D01*
X84098706Y-132992408D01*
X84100000Y-133018750D01*
X84100000Y-133981250D01*
X84098706Y-134007592D01*
X84094836Y-134033681D01*
X84088428Y-134059264D01*
X84079543Y-134084096D01*
X84068266Y-134107938D01*
X84054707Y-134130560D01*
X84038997Y-134151743D01*
X84021285Y-134171285D01*
X84001743Y-134188997D01*
X83980560Y-134204707D01*
X83957938Y-134218266D01*
X83934096Y-134229543D01*
X83909264Y-134238428D01*
X83883681Y-134244836D01*
X83857592Y-134248706D01*
X83831250Y-134250000D01*
X83293750Y-134250000D01*
X83267408Y-134248706D01*
X83241319Y-134244836D01*
X83215736Y-134238428D01*
X83190904Y-134229543D01*
X83167062Y-134218266D01*
X83144440Y-134204707D01*
X83123257Y-134188997D01*
X83103715Y-134171285D01*
X83086003Y-134151743D01*
X83070293Y-134130560D01*
X83056734Y-134107938D01*
X83045457Y-134084096D01*
X83036572Y-134059264D01*
X83030164Y-134033681D01*
X83026294Y-134007592D01*
X83025000Y-133981250D01*
X83025000Y-133018750D01*
X83026294Y-132992408D01*
X83030164Y-132966319D01*
X83036572Y-132940736D01*
X83045457Y-132915904D01*
X83056734Y-132892062D01*
X83070293Y-132869440D01*
X83086003Y-132848257D01*
X83103715Y-132828715D01*
X83123257Y-132811003D01*
X83144440Y-132795293D01*
X83167062Y-132781734D01*
X83190904Y-132770457D01*
X83215736Y-132761572D01*
X83241319Y-132755164D01*
X83267408Y-132751294D01*
X83293750Y-132750000D01*
X83831250Y-132750000D01*
X83857592Y-132751294D01*
X83857592Y-132751294D01*
G37*
D19*
X83562500Y-133500000D03*
D18*
G36*
X85732592Y-144251294D02*
G01*
X85758681Y-144255164D01*
X85784264Y-144261572D01*
X85809096Y-144270457D01*
X85832938Y-144281734D01*
X85855560Y-144295293D01*
X85876743Y-144311003D01*
X85896285Y-144328715D01*
X85913997Y-144348257D01*
X85929707Y-144369440D01*
X85943266Y-144392062D01*
X85954543Y-144415904D01*
X85963428Y-144440736D01*
X85969836Y-144466319D01*
X85973706Y-144492408D01*
X85975000Y-144518750D01*
X85975000Y-145481250D01*
X85973706Y-145507592D01*
X85969836Y-145533681D01*
X85963428Y-145559264D01*
X85954543Y-145584096D01*
X85943266Y-145607938D01*
X85929707Y-145630560D01*
X85913997Y-145651743D01*
X85896285Y-145671285D01*
X85876743Y-145688997D01*
X85855560Y-145704707D01*
X85832938Y-145718266D01*
X85809096Y-145729543D01*
X85784264Y-145738428D01*
X85758681Y-145744836D01*
X85732592Y-145748706D01*
X85706250Y-145750000D01*
X85168750Y-145750000D01*
X85142408Y-145748706D01*
X85116319Y-145744836D01*
X85090736Y-145738428D01*
X85065904Y-145729543D01*
X85042062Y-145718266D01*
X85019440Y-145704707D01*
X84998257Y-145688997D01*
X84978715Y-145671285D01*
X84961003Y-145651743D01*
X84945293Y-145630560D01*
X84931734Y-145607938D01*
X84920457Y-145584096D01*
X84911572Y-145559264D01*
X84905164Y-145533681D01*
X84901294Y-145507592D01*
X84900000Y-145481250D01*
X84900000Y-144518750D01*
X84901294Y-144492408D01*
X84905164Y-144466319D01*
X84911572Y-144440736D01*
X84920457Y-144415904D01*
X84931734Y-144392062D01*
X84945293Y-144369440D01*
X84961003Y-144348257D01*
X84978715Y-144328715D01*
X84998257Y-144311003D01*
X85019440Y-144295293D01*
X85042062Y-144281734D01*
X85065904Y-144270457D01*
X85090736Y-144261572D01*
X85116319Y-144255164D01*
X85142408Y-144251294D01*
X85168750Y-144250000D01*
X85706250Y-144250000D01*
X85732592Y-144251294D01*
X85732592Y-144251294D01*
G37*
D19*
X85437500Y-145000000D03*
D18*
G36*
X83857592Y-144251294D02*
G01*
X83883681Y-144255164D01*
X83909264Y-144261572D01*
X83934096Y-144270457D01*
X83957938Y-144281734D01*
X83980560Y-144295293D01*
X84001743Y-144311003D01*
X84021285Y-144328715D01*
X84038997Y-144348257D01*
X84054707Y-144369440D01*
X84068266Y-144392062D01*
X84079543Y-144415904D01*
X84088428Y-144440736D01*
X84094836Y-144466319D01*
X84098706Y-144492408D01*
X84100000Y-144518750D01*
X84100000Y-145481250D01*
X84098706Y-145507592D01*
X84094836Y-145533681D01*
X84088428Y-145559264D01*
X84079543Y-145584096D01*
X84068266Y-145607938D01*
X84054707Y-145630560D01*
X84038997Y-145651743D01*
X84021285Y-145671285D01*
X84001743Y-145688997D01*
X83980560Y-145704707D01*
X83957938Y-145718266D01*
X83934096Y-145729543D01*
X83909264Y-145738428D01*
X83883681Y-145744836D01*
X83857592Y-145748706D01*
X83831250Y-145750000D01*
X83293750Y-145750000D01*
X83267408Y-145748706D01*
X83241319Y-145744836D01*
X83215736Y-145738428D01*
X83190904Y-145729543D01*
X83167062Y-145718266D01*
X83144440Y-145704707D01*
X83123257Y-145688997D01*
X83103715Y-145671285D01*
X83086003Y-145651743D01*
X83070293Y-145630560D01*
X83056734Y-145607938D01*
X83045457Y-145584096D01*
X83036572Y-145559264D01*
X83030164Y-145533681D01*
X83026294Y-145507592D01*
X83025000Y-145481250D01*
X83025000Y-144518750D01*
X83026294Y-144492408D01*
X83030164Y-144466319D01*
X83036572Y-144440736D01*
X83045457Y-144415904D01*
X83056734Y-144392062D01*
X83070293Y-144369440D01*
X83086003Y-144348257D01*
X83103715Y-144328715D01*
X83123257Y-144311003D01*
X83144440Y-144295293D01*
X83167062Y-144281734D01*
X83190904Y-144270457D01*
X83215736Y-144261572D01*
X83241319Y-144255164D01*
X83267408Y-144251294D01*
X83293750Y-144250000D01*
X83831250Y-144250000D01*
X83857592Y-144251294D01*
X83857592Y-144251294D01*
G37*
D19*
X83562500Y-145000000D03*
D18*
G36*
X85732592Y-146751294D02*
G01*
X85758681Y-146755164D01*
X85784264Y-146761572D01*
X85809096Y-146770457D01*
X85832938Y-146781734D01*
X85855560Y-146795293D01*
X85876743Y-146811003D01*
X85896285Y-146828715D01*
X85913997Y-146848257D01*
X85929707Y-146869440D01*
X85943266Y-146892062D01*
X85954543Y-146915904D01*
X85963428Y-146940736D01*
X85969836Y-146966319D01*
X85973706Y-146992408D01*
X85975000Y-147018750D01*
X85975000Y-147981250D01*
X85973706Y-148007592D01*
X85969836Y-148033681D01*
X85963428Y-148059264D01*
X85954543Y-148084096D01*
X85943266Y-148107938D01*
X85929707Y-148130560D01*
X85913997Y-148151743D01*
X85896285Y-148171285D01*
X85876743Y-148188997D01*
X85855560Y-148204707D01*
X85832938Y-148218266D01*
X85809096Y-148229543D01*
X85784264Y-148238428D01*
X85758681Y-148244836D01*
X85732592Y-148248706D01*
X85706250Y-148250000D01*
X85168750Y-148250000D01*
X85142408Y-148248706D01*
X85116319Y-148244836D01*
X85090736Y-148238428D01*
X85065904Y-148229543D01*
X85042062Y-148218266D01*
X85019440Y-148204707D01*
X84998257Y-148188997D01*
X84978715Y-148171285D01*
X84961003Y-148151743D01*
X84945293Y-148130560D01*
X84931734Y-148107938D01*
X84920457Y-148084096D01*
X84911572Y-148059264D01*
X84905164Y-148033681D01*
X84901294Y-148007592D01*
X84900000Y-147981250D01*
X84900000Y-147018750D01*
X84901294Y-146992408D01*
X84905164Y-146966319D01*
X84911572Y-146940736D01*
X84920457Y-146915904D01*
X84931734Y-146892062D01*
X84945293Y-146869440D01*
X84961003Y-146848257D01*
X84978715Y-146828715D01*
X84998257Y-146811003D01*
X85019440Y-146795293D01*
X85042062Y-146781734D01*
X85065904Y-146770457D01*
X85090736Y-146761572D01*
X85116319Y-146755164D01*
X85142408Y-146751294D01*
X85168750Y-146750000D01*
X85706250Y-146750000D01*
X85732592Y-146751294D01*
X85732592Y-146751294D01*
G37*
D19*
X85437500Y-147500000D03*
D18*
G36*
X83857592Y-146751294D02*
G01*
X83883681Y-146755164D01*
X83909264Y-146761572D01*
X83934096Y-146770457D01*
X83957938Y-146781734D01*
X83980560Y-146795293D01*
X84001743Y-146811003D01*
X84021285Y-146828715D01*
X84038997Y-146848257D01*
X84054707Y-146869440D01*
X84068266Y-146892062D01*
X84079543Y-146915904D01*
X84088428Y-146940736D01*
X84094836Y-146966319D01*
X84098706Y-146992408D01*
X84100000Y-147018750D01*
X84100000Y-147981250D01*
X84098706Y-148007592D01*
X84094836Y-148033681D01*
X84088428Y-148059264D01*
X84079543Y-148084096D01*
X84068266Y-148107938D01*
X84054707Y-148130560D01*
X84038997Y-148151743D01*
X84021285Y-148171285D01*
X84001743Y-148188997D01*
X83980560Y-148204707D01*
X83957938Y-148218266D01*
X83934096Y-148229543D01*
X83909264Y-148238428D01*
X83883681Y-148244836D01*
X83857592Y-148248706D01*
X83831250Y-148250000D01*
X83293750Y-148250000D01*
X83267408Y-148248706D01*
X83241319Y-148244836D01*
X83215736Y-148238428D01*
X83190904Y-148229543D01*
X83167062Y-148218266D01*
X83144440Y-148204707D01*
X83123257Y-148188997D01*
X83103715Y-148171285D01*
X83086003Y-148151743D01*
X83070293Y-148130560D01*
X83056734Y-148107938D01*
X83045457Y-148084096D01*
X83036572Y-148059264D01*
X83030164Y-148033681D01*
X83026294Y-148007592D01*
X83025000Y-147981250D01*
X83025000Y-147018750D01*
X83026294Y-146992408D01*
X83030164Y-146966319D01*
X83036572Y-146940736D01*
X83045457Y-146915904D01*
X83056734Y-146892062D01*
X83070293Y-146869440D01*
X83086003Y-146848257D01*
X83103715Y-146828715D01*
X83123257Y-146811003D01*
X83144440Y-146795293D01*
X83167062Y-146781734D01*
X83190904Y-146770457D01*
X83215736Y-146761572D01*
X83241319Y-146755164D01*
X83267408Y-146751294D01*
X83293750Y-146750000D01*
X83831250Y-146750000D01*
X83857592Y-146751294D01*
X83857592Y-146751294D01*
G37*
D19*
X83562500Y-147500000D03*
D20*
X207000000Y-158500000D03*
X207000000Y-104500000D03*
X71000000Y-158500000D03*
X93500000Y-158500000D03*
X93500000Y-104500000D03*
X71000000Y-104500000D03*
M02*
